<?xml version="1.0" encoding="utf-8"?>
<!-- Generator: Adobe Illustrator 19.2.0, SVG Export Plug-In . SVG Version: 6.00 Build 0)  -->
<svg version="1.1" id="alignverticalcenter" xmlns="http://www.w3.org/2000/svg" xmlns:xlink="http://www.w3.org/1999/xlink"
	 x="0px" y="0px" viewBox="0 0 208 144" enable-background="new 0 0 208 144" xml:space="preserve">
<g>
	<polygon fill="none" points="160,32 128,32 128,68 128,76 128,112 160,112 160,76 160,68 	"/>
	<polygon fill="none" points="80,8 48,8 48,68 48,76 48,136 80,136 80,76 80,68 	"/>
	<path d="M208,68h-40V28c0-2.2088-1.7893-4-4-4h-40c-2.2109,0-4,1.7912-4,4v40H88V4c0-2.2088-1.7893-4-4-4H44
		c-2.2109,0-4,1.7912-4,4v64H0v8h40v64c0,2.2088,1.7891,4,4,4h40c2.2107,0,4-1.7912,4-4V76h32v40c0,2.2088,1.7891,4,4,4h40
		c2.2107,0,4-1.7912,4-4V76h40V68z M80,136H48V76v-8V8h32v60v8V136z M160,112h-32V76v-8V32h32v36v8V112z"/>
</g>
</svg>
