<?xml version="1.0" encoding="utf-8"?>
<!-- Generator: Adobe Illustrator 19.2.0, SVG Export Plug-In . SVG Version: 6.00 Build 0)  -->
<svg version="1.1" id="alignhorizontalcenters" xmlns="http://www.w3.org/2000/svg" xmlns:xlink="http://www.w3.org/1999/xlink"
	 x="0px" y="0px" viewBox="0 0 144 208" enable-background="new 0 0 144 208" xml:space="preserve">
<g>
	<polygon fill="none" points="32,128 32,160 68,160 76,160 112,160 112,128 76,128 68,128 	"/>
	<polygon fill="none" points="68,48 8,48 8,80 68,80 76,80 136,80 136,48 76,48 	"/>
	<path d="M140,40H76V0h-8v40H4c-2.2109,0-4,1.7912-4,4v40c0,2.2088,1.7891,4,4,4h64v32H28c-2.2109,0-4,1.7912-4,4v40
		c0,2.2088,1.7891,4,4,4h40v40h8v-40h40c2.2107,0,4-1.7912,4-4v-40c0-2.2088-1.7893-4-4-4H76V88h64c2.2107,0,4-1.7912,4-4V44
		C144,41.7912,142.2107,40,140,40z M112,128v32H76h-8H32v-32h36h8H112z M136,80H76h-8H8V48h60h8h60V80z"/>
</g>
</svg>
