<?xml version="1.0" encoding="utf-8"?>
<!-- Generator: Adobe Illustrator 19.2.0, SVG Export Plug-In . SVG Version: 6.00 Build 0)  -->
<svg version="1.1" id="amrchair2" xmlns="http://www.w3.org/2000/svg" xmlns:xlink="http://www.w3.org/1999/xlink" x="0px" y="0px"
	 viewBox="0 0 232 212" enable-background="new 0 0 232 212" xml:space="preserve">
<g>
	<path d="M34.9376,91.5724C50.8868,96.3536,62.0236,111.332,62.0236,128c0,2.2088,1.7888,4,4,4h99.9527c2.2112,0,4-1.7912,4-4
		c0-16.668,11.1368-31.6464,27.086-36.4276c1.6252-0.4884,2.7657-1.9476,2.8476-3.6428C199.9727,86.6268,200,85.3164,200,84
		c0-46.3184-37.6837-84-84-84C69.6836,0,32,37.6816,32,84c0,1.3164,0.0272,2.6268,0.09,3.9296
		C32.172,89.6248,33.3124,91.084,34.9376,91.5724z M116,8c41.9063,0,76,34.0936,76,76c0,0.2792,0,0.5584-0.004,0.838
		c-16.5665,6.16-28.2853,21.5916-29.8437,39.162H69.8476c-1.5584-17.5704-13.2772-33.002-29.8436-39.162
		C40,84.5584,40,84.2792,40,84C40,42.0936,74.0936,8,116,8z"/>
	<path d="M204,96c-15.4377,0-28,12.5604-28,28v12H56v-12c0-15.4396-12.5624-28-28-28S0,108.5604,0,124
		c0,12.5724,8.2304,23.3712,20,26.8436V188c0,2.2088,1.7892,4,4,4h12v16c0,2.2088,1.7892,4,4,4h20
		c1.9064,0,3.5468-1.3456,3.922-3.2148L67.2788,192h97.4423l3.3568,16.7852C168.4531,210.6544,170.0935,212,172,212h20
		c2.2107,0,4-1.7912,4-4v-16h12c2.2107,0,4-1.7912,4-4v-37.1564c11.7695-3.4724,20-14.2712,20-26.8436
		C232,108.5604,219.4375,96,204,96z M56.7228,204H44v-12h15.1212L56.7228,204z M188,204h-12.7229l-2.3984-12H188V204z
		 M207.34,143.7228c-1.9301,0.324-3.34,1.992-3.34,3.9452V184h-12h-24H64H40H28v-36.332c0-1.9532-1.41-3.6212-3.34-3.9452
		C15.008,142.1036,8,133.8084,8,124c0-11.0272,8.9728-20,20-20s20,8.9728,20,20v16c0,2.2088,1.7892,4,4,4h128c2.2107,0,4-1.7912,4-4
		v-16c0-11.0272,8.9727-20,20-20c11.0271,0,20,8.9728,20,20C224,133.8084,216.992,142.1036,207.34,143.7228z"/>
</g>
</svg>
