<?xml version="1.0" encoding="utf-8"?>
<!-- Generator: Adobe Illustrator 19.2.0, SVG Export Plug-In . SVG Version: 6.00 Build 0)  -->
<svg version="1.1" id="analysis" xmlns="http://www.w3.org/2000/svg" xmlns:xlink="http://www.w3.org/1999/xlink" x="0px" y="0px"
	 viewBox="0 0 224 168" enable-background="new 0 0 224 168" xml:space="preserve">
<g>
	<path fill="none" d="M136,68c-4.4101,0-8,3.5744-8,7.9648V160h16V75.9648C144,71.5744,140.4099,68,136,68z"/>
	<path fill="none" d="M92,44c-4.4101,0-8,3.59-8,8.004V160h16V52.004C100,47.59,96.4099,44,92,44z"/>
	<path fill="none" d="M8,160h24v-47.9608C32,103.1952,39.1755,96,48,96c8.8243,0,16,7.1952,16,16.0392V160h12V52.004
		C76,43.1796,83.1755,36,92,36c8.8243,0,16,7.1796,16,16.004V160h12V75.9648C120,67.16,127.1755,60,136,60
		c8.8243,0,16,7.16,16,15.9648V160h64V8H8V160z M160,36h40v8h-40V36z M160,52h24v8h-24V52z M20,76h40v8H20V76z"/>
	<path fill="none" d="M48,104c-4.4101,0-8,3.6056-8,8.0392V160h16v-47.9608C56,107.6056,52.4099,104,48,104z"/>
	<path d="M220,0H4C1.7891,0,0,1.7892,0,4v160c0,2.2108,1.7891,4,4,4h32h24h20h24h20h24h72c2.2107,0,4-1.7892,4-4V4
		C224,1.7892,222.2107,0,220,0z M40,160v-47.9608C40,107.6056,43.5899,104,48,104c4.4099,0,8,3.6056,8,8.0392V160H40z M84,160
		V52.004C84,47.59,87.5899,44,92,44c4.4099,0,8,3.59,8,8.004V160H84z M128,160V75.9648C128,71.5744,131.5899,68,136,68
		c4.4099,0,8,3.5744,8,7.9648V160H128z M216,160h-64V75.9648C152,67.16,144.8243,60,136,60c-8.8245,0-16,7.16-16,15.9648V160h-12
		V52.004C108,43.1796,100.8243,36,92,36c-8.8245,0-16,7.1796-16,16.004V160H64v-47.9608C64,103.1952,56.8243,96,48,96
		c-8.8245,0-16,7.1952-16,16.0392V160H8V8h208V160z"/>
	<rect x="160" y="36" width="40" height="8"/>
	<rect x="20" y="76" width="40" height="8"/>
	<rect x="160" y="52" width="24" height="8"/>
</g>
</svg>
