<?xml version="1.0" encoding="utf-8"?>
<!-- Generator: Adobe Illustrator 19.2.0, SVG Export Plug-In . SVG Version: 6.00 Build 0)  -->
<svg version="1.1" id="apple" xmlns="http://www.w3.org/2000/svg" xmlns:xlink="http://www.w3.org/1999/xlink" x="0px" y="0px"
	 viewBox="0 0 196 231.923" enable-background="new 0 0 196 231.923" xml:space="preserve">
<g>
	<path fill="none" d="M112.2063,22.119c2.0457-1.9368,4.2756-3.8892,6.7624-5.8524c1.7304-1.3632,4.25-1.0684,5.6172,0.6624
		c1.3672,1.7344,1.0704,4.25-0.664,5.6188c-3.3564,2.6496-6.1939,5.2584-8.6592,7.8096c1.8224,3.2972,4.0404,5.2776,6.6628,5.8272
		c9.1488,1.926,24.0236-11.66,33.4336-22.9316c-9.0976-2.7948-20.5936-5.2832-29.5388-5.2832c-5.3123,0-9.7228,0.8752-12.2032,3.084
		c-0.8244,0.7344-3.328,2.9628-1.668,10.094C112.0291,21.4902,112.1231,21.7878,112.2063,22.119z"/>
	<path fill="none" d="M128,63.923c-9.7697,0-19.0937,3.0488-27.7109,9.0624c-1.3752,0.9572-3.2032,0.9572-4.5784,0
		C87.0935,66.9718,77.7695,63.923,68,63.923c-22.4065,0-60,7.7948-60,60c0,45.0136,27.6875,100,60,100
		c9.7695,0,19.0935-3.0488,27.7107-9.0624c0.6876-0.4788,1.4884-0.7188,2.2893-0.7188c0.8007,0,1.6015,0.24,2.2891,0.7188
		c8.6172,6.0136,17.9412,9.0624,27.7109,9.0624c32.3123,0,60-54.9864,60-100C188,71.7178,150.4063,63.923,128,63.923z
		 M41.0467,189.2902c-0.6328,0.3652-1.324,0.5392-2.004,0.5392c-1.3787,0-2.7224-0.7148-3.4648-1.9944
		C23.3203,166.6906,16,139.8078,16,115.923c0-2.2088,1.7891-4,4-4c2.2107,0,4,1.7912,4,4c0,22.5372,6.9139,47.92,18.5,67.9004
		C43.6091,185.7334,42.9571,188.181,41.0467,189.2902z"/>
	<path d="M128,55.923c-9.2585,0-18.4353,2.46-26.872,7.1348c-0.528-4.3544-0.2917-14.2656,8.7223-26.3404
		c2.7852,3.9448,6.2556,6.42,10.4348,7.2972c1.1132,0.2344,2.246,0.344,3.3904,0.344c18.0316,0,39.094-27.3944,41.5744-30.7032
		c0.7581-1.0176,0.992-2.334,0.6288-3.5488c-0.3672-1.2148-1.2852-2.1856-2.4804-2.6132
		c-4.2228-1.5176-41.582-14.4492-55.0976-2.416c-3.1407,2.7928-6.4064,8.162-4.1407,17.8848c0.492,2.112,1.0867,4.0124,1.728,5.8164
		C94.1267,42.7478,92.6223,55.1314,93.0235,62.097C85.1003,58.0606,76.5883,55.923,68,55.923c-43.2149,0-68,24.7852-68,68
		c0,48.918,30.332,108,68,108c10.4139,0,20.7303-3.0956,30-8.9764c9.2695,5.8808,19.5859,8.9764,30,8.9764
		c37.668,0,68-59.082,68-108C196,80.7082,171.2147,55.923,128,55.923z M113.6171,11.0538c2.4804-2.2088,6.8909-3.084,12.2032-3.084
		c8.9452,0,20.4412,2.4884,29.5388,5.2832c-9.41,11.2716-24.2848,24.8576-33.4336,22.9316c-2.6224-0.5496-4.8404-2.53-6.6628-5.8272
		c2.4653-2.5512,5.3028-5.16,8.6592-7.8096c1.7344-1.3688,2.0312-3.8844,0.664-5.6188c-1.3672-1.7308-3.8868-2.0256-5.6172-0.6624
		c-2.4868,1.9632-4.7167,3.9156-6.7624,5.8524c-0.0832-0.3312-0.1772-0.6288-0.2572-0.9712
		C110.2891,14.0166,112.7927,11.7882,113.6171,11.0538z M128,223.923c-9.7697,0-19.0937-3.0488-27.7109-9.0624
		c-0.6876-0.4788-1.4884-0.7188-2.2891-0.7188c-0.8009,0-1.6017,0.24-2.2893,0.7188C87.0935,220.8742,77.7695,223.923,68,223.923
		c-32.3125,0-60-54.9864-60-100c0-52.2052,37.5935-60,60-60c9.7695,0,19.0935,3.0488,27.7107,9.0624
		c1.3752,0.9572,3.2032,0.9572,4.5784,0c8.6172-6.0136,17.9412-9.0624,27.7109-9.0624c22.4063,0,60,7.7948,60,60
		C188,168.9366,160.3123,223.923,128,223.923z"/>
	<path d="M24,115.923c0-2.2088-1.7893-4-4-4c-2.2109,0-4,1.7912-4,4c0,23.8848,7.3203,50.7676,19.5779,71.912
		c0.7424,1.2796,2.0861,1.9944,3.4648,1.9944c0.68,0,1.3712-0.174,2.004-0.5392c1.9104-1.1092,2.5624-3.5568,1.4533-5.4668
		C30.9139,163.843,24,138.4602,24,115.923z"/>
</g>
</svg>
