<?xml version="1.0" encoding="utf-8"?>
<!-- Generator: Adobe Illustrator 19.2.0, SVG Export Plug-In . SVG Version: 6.00 Build 0)  -->
<svg version="1.1" id="avatarmanfavorite" xmlns="http://www.w3.org/2000/svg" xmlns:xlink="http://www.w3.org/1999/xlink" x="0px"
	 y="0px" viewBox="0 0 224 224" enable-background="new 0 0 224 224" xml:space="preserve">
<g>
	<path fill="none" d="M147.9084,94.8517c0.1308-1.8244,1.4804-3.328,3.2792-3.6524c2.7888-0.504,4.8124-2.9452,4.8124-5.8124
		v-2.7736c0-2.824-2.004-5.2616-4.7636-5.8008C149.3576,76.4493,148,74.8009,148,72.8869V40H98.6756
		c-12.244,0-22.2048,9.9729-22.2048,22.2345v10.5704c0,1.992-1.4648,3.6796-3.4376,3.9608C70.1172,77.1797,68,79.6369,68,82.6133
		v2.7736c0,2.9531,2.1932,5.4688,5.1036,5.8552c1.8788,0.2464,3.324,1.7816,3.4628,3.672C77.9336,113.4649,93.5996,128,112.2344,128
		C130.9084,128,146.578,113.4377,147.9084,94.8517z"/>
	<path fill="none" d="M188.5312,36.3829l-1.326,7.7228l6.9336-3.6448C194.7208,40.1525,195.3612,40,196,40
		s1.2792,0.1525,1.8612,0.4609l6.9336,3.6448l-1.326-7.7228c-0.2208-1.2968,0.2088-2.6212,1.1524-3.5392l5.6072-5.4688l-7.75-1.1248
		c-1.3028-0.1876-2.4296-1.008-3.0136-2.1876L196,17.0393l-3.4648,7.0232c-0.584,1.1796-1.7108,2-3.0136,2.1876l-7.75,1.1248
		l5.6072,5.4688C188.3224,33.7617,188.752,35.0861,188.5312,36.3829z"/>
	<path fill="none" d="M180,171.5469c0-9.074-7.4688-16.4568-16.6484-16.4568H138.334c-1.5272,0-2.92-0.8672-3.592-2.2384
		l-9.2848-18.9504C121.2684,135.2405,116.834,136,112.2344,136c-5.3556,0-10.506-0.9927-15.2812-2.7891
		c-0.0588,0.1832-0.0576,0.3731-0.1448,0.5508l-9.3532,19.09c-0.672,1.3712-2.0644,2.2384-3.592,2.2384H61.5956
		C52.2228,155.0901,44,162.992,44,172v18.5897C62.2484,206.4,86.0168,216,112,216s49.7516-9.6,68-25.4103V171.5469z"/>
	<path d="M220,108c-2.2088,0-4,1.7893-4,4c0,27.376-10.6488,52.2985-28,70.8885v-11.3416c0-13.4844-11.0568-24.4568-24.6484-24.4568
		H140.828l-7.9956-16.3208c12.0588-6.4824,20.846-18.4216,22.7712-32.5936C160.6092,96.0313,164,91.0549,164,85.3869v-2.7736
		c0-5.4804-3.2168-10.3516-8-12.5976V36c0-2.2107-1.7912-4-4-4H98.6756c-16.654,0-30.2048,13.5625-30.2048,30.2345v7.5704
		C63.4628,71.9417,60,76.9493,60,82.6133v2.7736c0,5.836,3.6544,10.9531,8.8944,12.9804
		c1.8884,13.4108,9.9156,24.8316,21.042,31.4664c-0.096,0.1436-0.2332,0.2456-0.3112,0.4048l-8.256,16.8516H61.5956
		C47.7208,147.0901,36,158.496,36,172v10.8885C18.6488,164.2985,8,139.376,8,112C8,54.6525,54.6544,8,112,8c2.2088,0,4-1.7891,4-4
		c0-2.2107-1.7912-4-4-4C50.242,0,0,50.2421,0,112c0,32.9929,14.3464,62.6909,37.12,83.2061
		c0.0672,0.0699,0.1448,0.1219,0.2164,0.1872C57.1664,213.1657,83.3376,224,112,224c61.758,0,112-50.2419,112-112
		C224,109.7893,222.2088,108,220,108z M76.5664,94.9141c-0.1388-1.8904-1.584-3.4256-3.4628-3.672
		C70.1932,90.8557,68,88.34,68,85.3869v-2.7736c0-2.9764,2.1172-5.4336,5.0332-5.8476c1.9728-0.2812,3.4376-1.9688,3.4376-3.9608
		V62.2345C76.4708,49.9729,86.4316,40,98.6756,40H148v32.8869c0,1.914,1.3576,3.5624,3.2364,3.9256
		C153.996,77.3517,156,79.7893,156,82.6133v2.7736c0,2.8672-2.0236,5.3084-4.8124,5.8124c-1.7988,0.3244-3.1484,1.828-3.2792,3.6524
		c-1.3304,18.586-17,33.1483-35.674,33.1483C93.5996,128,77.9336,113.4649,76.5664,94.9141z M44,190.5897V172
		c0-9.008,8.2228-16.9099,17.5956-16.9099h22.2676c1.5276,0,2.92-0.8672,3.592-2.2384l9.3532-19.09
		c0.0872-0.1777,0.086-0.3676,0.1448-0.5508c4.7752,1.7964,9.9256,2.7891,15.2812,2.7891c4.5996,0,9.034-0.7595,13.2228-2.0987
		l9.2848,18.9504c0.672,1.3712,2.0648,2.2384,3.592,2.2384h25.0176c9.1796,0,16.6484,7.3828,16.6484,16.4568v19.0428
		C161.7516,206.4,137.9832,216,112,216S62.2484,206.4,44,190.5897z"/>
	<path d="M180.2892,37.1057l-2.34,13.6364c-0.256,1.5,0.3612,3.016,1.592,3.9104c1.234,0.9024,2.8672,1.0195,4.2128,0.3048
		L196,48.5197l12.246,6.4376c0.586,0.3084,1.2248,0.4608,1.8616,0.4608c0.828,0,1.654-0.2581,2.3512-0.7656
		c1.2308-0.8944,1.848-2.4104,1.592-3.9104l-2.34-13.6364l9.9064-9.6604c1.0916-1.0624,1.4844-2.6524,1.0136-4.1016
		c-0.4708-1.4452-1.7224-2.5-3.2304-2.7188l-13.6916-1.988L199.588,6.2305c-1.3476-2.7345-5.8284-2.7345-7.176,0l-6.1208,12.4064
		l-13.6916,1.988c-1.508,0.2188-2.7596,1.2736-3.2304,2.7188c-0.4708,1.4492-0.078,3.0392,1.0136,4.1016L180.2892,37.1057z
		 M189.5216,26.2501c1.3028-0.1876,2.4296-1.008,3.0136-2.1876L196,17.0393l3.4648,7.0232c0.584,1.1796,1.7108,2,3.0136,2.1876
		l7.75,1.1248l-5.6072,5.4688c-0.9436,0.918-1.3732,2.2424-1.1524,3.5392l1.326,7.7228l-6.9336-3.6448
		C197.2792,40.1525,196.6388,40,196,40s-1.2792,0.1525-1.8612,0.4609l-6.9336,3.6448l1.326-7.7228
		c0.2208-1.2968-0.2088-2.6212-1.1524-3.5392l-5.6072-5.4688L189.5216,26.2501z"/>
</g>
</svg>
