<?xml version="1.0" encoding="utf-8"?>
<!-- Generator: Adobe Illustrator 19.2.0, SVG Export Plug-In . SVG Version: 6.00 Build 0)  -->
<svg version="1.1" id="avatarfemalefavorite" xmlns="http://www.w3.org/2000/svg" xmlns:xlink="http://www.w3.org/1999/xlink"
	 x="0px" y="0px" viewBox="0 0 224 224" enable-background="new 0 0 224 224" xml:space="preserve">
<g>
	<path fill="none" d="M151.1444,127.2853c-2.2988-9.34-7.7692-32.996-7.7692-46.5588v-9.2968
		c0-15.1248-12.3048-27.4297-27.43-27.4297h-11.8904c-15.1252,0-27.4296,12.3049-27.4296,27.4297v9.2968
		c0,13.5628-5.4708,37.2188-7.7696,46.5588C75.746,128.8985,91.4316,132,110,132S144.254,128.8985,151.1444,127.2853z"/>
	<path fill="none" d="M188.5312,36.3829l-1.326,7.7228l6.9336-3.6448C194.7208,40.1525,195.3612,40,196,40
		s1.2792,0.1525,1.8612,0.4609l6.9336,3.6448l-1.326-7.7228c-0.2208-1.2968,0.2088-2.6212,1.1524-3.5392l5.6072-5.4688l-7.75-1.1248
		c-1.3028-0.1876-2.4296-1.008-3.0136-2.1876L196,17.0393l-3.4648,7.0232c-0.584,1.1796-1.7108,2-3.0136,2.1876l-7.75,1.1248
		l5.6072,5.4688C188.3224,33.7617,188.752,35.0861,188.5312,36.3829z"/>
	<path fill="none" d="M172,176.9101c0-8.32-7.3028-15.0896-16.2772-15.0896h-21.4492c-1.5488,0-2.9592-0.8948-3.6192-2.2968
		l-9.362-19.884C117.686,139.86,113.922,140,110,140c-3.8792,0-7.6036-0.1371-11.1744-0.3531l-8.1028,19.6968
		c-0.6172,1.4963-2.0784,2.4768-3.6992,2.4768H68.2772c-8.9744,0-16.2772,6.7696-16.2772,15.0896v19.9576
		C68.9672,208.8981,89.6636,216,112,216s43.0328-7.1019,60-19.1323V176.9101z"/>
	<path d="M220,108c-2.2088,0-4,1.7893-4,4c0,31.3637-13.974,59.5061-36,78.5897v-13.6796c0-12.7304-10.8908-23.0896-24.2772-23.0896
		h-18.9124l-7.0072-14.8845c15.8788-1.6675,26.6952-4.7327,27.308-4.9087c2.084-0.6016,3.3068-2.7576,2.758-4.8553
		c-0.084-0.3243-8.494-32.668-8.494-48.4455v-9.2968c0-19.5352-15.8948-35.4297-35.43-35.4297h-11.8904
		c-19.5352,0-35.4296,15.8945-35.4296,35.4297v9.2968c0,15.7775-8.4104,48.1212-8.4944,48.4455
		c-0.5488,2.0977,0.674,4.2537,2.758,4.8553c0.616,0.1772,11.5448,3.2756,27.566,4.9367l-6.1112,14.8565H68.2772
		C54.8908,153.8205,44,164.1797,44,176.9101v13.6796C21.974,171.5061,8,143.3637,8,112C8,54.6525,54.6544,8,112,8
		c2.2088,0,4-1.7891,4-4c0-2.2107-1.7912-4-4-4C50.242,0,0,50.2421,0,112c0,61.7581,50.242,112,112,112s112-50.2419,112-112
		C224,109.7893,222.2088,108,220,108z M76.6252,80.7265v-9.2968C76.6252,56.3049,88.9296,44,104.0548,44h11.8904
		c15.1252,0,27.43,12.3049,27.43,27.4297v9.2968c0,13.5628,5.4704,37.2188,7.7692,46.5588C144.254,128.8985,128.5684,132,110,132
		s-34.254-3.1015-41.1444-4.7147C71.1544,117.9453,76.6252,94.2893,76.6252,80.7265z M52,196.8677v-19.9576
		c0-8.32,7.3028-15.0896,16.2772-15.0896h18.7464c1.6208,0,3.082-0.9805,3.6992-2.4768l8.1028-19.6968
		C102.3964,139.8629,106.1208,140,110,140c3.922,0,7.686-0.14,11.2924-0.3603l9.362,19.884c0.66,1.402,2.0704,2.2968,3.6192,2.2968
		h21.4492c8.9744,0,16.2772,6.7696,16.2772,15.0896v19.9576C155.0328,208.8981,134.3364,216,112,216S68.9672,208.8981,52,196.8677z"
		/>
	<path d="M180.2892,37.1057l-2.34,13.6364c-0.256,1.5,0.3612,3.016,1.592,3.9104c1.236,0.9024,2.8688,1.0195,4.2128,0.3048
		L196,48.5197l12.246,6.4376c0.586,0.3084,1.2248,0.4608,1.8616,0.4608c0.828,0,1.654-0.2581,2.3512-0.7656
		c1.2308-0.8944,1.848-2.4104,1.592-3.9104l-2.34-13.6364l9.9064-9.6604c1.0916-1.0624,1.4844-2.6524,1.0136-4.1016
		c-0.4708-1.4452-1.7224-2.5-3.2304-2.7188l-13.6916-1.988L199.588,6.2305c-1.3476-2.7345-5.8284-2.7345-7.176,0l-6.1208,12.4064
		l-13.6916,1.988c-1.508,0.2188-2.7596,1.2736-3.2304,2.7188c-0.4708,1.4492-0.078,3.0392,1.0136,4.1016L180.2892,37.1057z
		 M189.5216,26.2501c1.3028-0.1876,2.4296-1.008,3.0136-2.1876L196,17.0393l3.4648,7.0232c0.584,1.1796,1.7108,2,3.0136,2.1876
		l7.75,1.1248l-5.6072,5.4688c-0.9436,0.918-1.3732,2.2424-1.1524,3.5392l1.326,7.7228l-6.9336-3.6448
		C197.2792,40.1525,196.6388,40,196,40s-1.2792,0.1525-1.8612,0.4609l-6.9336,3.6448l1.326-7.7228
		c0.2208-1.2968-0.2088-2.6212-1.1524-3.5392l-5.6072-5.4688L189.5216,26.2501z"/>
</g>
</svg>
