<?xml version="1.0" encoding="utf-8"?>
<!-- Generator: Adobe Illustrator 19.2.0, SVG Export Plug-In . SVG Version: 6.00 Build 0)  -->
<svg version="1.1" id="avatarmale" xmlns="http://www.w3.org/2000/svg" xmlns:xlink="http://www.w3.org/1999/xlink" x="0px" y="0px"
	 viewBox="0 0 188 216" enable-background="new 0 0 188 216" xml:space="preserve">
<g>
	<path fill="none" d="M143.8768,87.6017c0.1292-1.8944,1.5764-3.4377,3.4612-3.6916c4.9372-0.66,8.662-4.9372,8.662-9.9452v-3.9296
		c0-4.9648-3.6816-9.2384-8.5644-9.9336C145.4648,59.8205,144,58.1329,144,56.1409V8H62.1876C49.9532,8,40,17.9689,40,30.2229
		v25.9216c0,1.9884-1.4628,3.676-3.4316,3.9612C31.6836,60.8049,28,65.0745,28,70.0353v3.9296c0,5.0156,3.7228,9.2932,8.6584,9.9452
		c1.8844,0.2499,3.3356,1.7932,3.4648,3.6916C41.9844,114.7421,64.7696,136,92,136C119.2344,136,142.0216,114.7421,143.8768,87.6017
		z"/>
	<path fill="none" d="M92,173.3573l27.8716-17.734l-7.4352-15.2748C106.0348,142.6857,99.1596,144,92,144
		c-6.9892,0-13.7024-1.2635-19.9748-3.496l-7.4844,15.3813L92,173.3573z"/>
	<polygon fill="none" points="107.66,185.4573 115.5936,167.828 99.9708,177.7697 	"/>
	<polygon fill="none" points="76.34,185.4573 84.0292,177.7697 68.4064,167.828 	"/>
	<path d="M158.0196,156.1837h-28.9784l-9.286-19.0776c17.0768-8.9744,29.4476-25.9096,31.8268-45.9928
		C158.8456,88.7345,164,81.8557,164,73.9649v-3.9296c0-7.7188-4.9648-14.504-12-17.008V4c0-2.2107-1.7912-4-4-4H62.1876
		C45.5428,0,32,13.5585,32,30.2229v22.8124c-7.0352,2.5076-12,9.2892-12,17v3.9296c0,7.8984,5.1544,14.7812,12.42,17.1524
		c2.4032,20.25,14.9532,37.3088,32.2484,46.2224l-8.5296,17.5272c-0.3092,0.4028-0.5472,0.8392-0.6836,1.3168H29.9804
		C13.4492,156.1837,0,169.5977,0,186.0901V212c0,2.2109,1.7912,4,4,4s4-1.7891,4-4v-25.9099
		c0-12.0784,9.8612-21.9064,21.9804-21.9064h28.014l13.4276,29.84c0.5408,1.1992,1.6348,2.0584,2.9276,2.2928
		c0.2404,0.0428,0.4804,0.0664,0.7208,0.0664c1.0508,0,2.072-0.414,2.828-1.172L92,181.1113l14.1016,14.0996
		c0.756,0.758,1.7772,1.172,2.828,1.172c0.2404,0,0.4804-0.0236,0.7208-0.0664c1.2928-0.2344,2.3868-1.0936,2.9276-2.2928
		l13.46-29.9112c0.168,0.0216,0.3288,0.0712,0.5012,0.0712h31.4804c12.1192,0,21.9804,9.828,21.9804,21.9064V212
		c0,2.2109,1.7912,4,4,4s4-1.7891,4-4v-25.9099C188,169.5977,174.5508,156.1837,158.0196,156.1837z M40.1232,87.6017
		c-0.1292-1.8984-1.5804-3.4417-3.4648-3.6916C31.7228,83.2581,28,78.9805,28,73.9649v-3.9296c0-4.9608,3.6836-9.2304,8.5684-9.9296
		C38.5372,59.8205,40,58.1329,40,56.1445V30.2229C40,17.9689,49.9532,8,62.1876,8H144v48.1409c0,1.992,1.4648,3.6796,3.4356,3.9608
		C152.3184,60.7969,156,65.0705,156,70.0353v3.9296c0,5.008-3.7248,9.2852-8.662,9.9452c-1.8848,0.2539-3.332,1.7972-3.4612,3.6916
		C142.0216,114.7421,119.2344,136,92,136C64.7696,136,41.9844,114.7421,40.1232,87.6017z M92,144
		c7.1596,0,14.0348-1.3143,20.4364-3.6515l7.4352,15.2748L92,173.3573l-27.4592-17.472l7.4844-15.3813
		C78.2976,142.7365,85.0108,144,92,144z M76.34,185.4573l-7.9336-17.6293l15.6228,9.9417L76.34,185.4573z M107.66,185.4573
		l-7.6892-7.6876l15.6228-9.9417L107.66,185.4573z"/>
</g>
</svg>
