<?xml version="1.0" encoding="utf-8"?>
<!-- Generator: Adobe Illustrator 19.2.0, SVG Export Plug-In . SVG Version: 6.00 Build 0)  -->
<svg version="1.1" id="avatarfemale" xmlns="http://www.w3.org/2000/svg" xmlns:xlink="http://www.w3.org/1999/xlink" x="0px"
	 y="0px" viewBox="0 0 172 216" enable-background="new 0 0 172 216" xml:space="preserve">
<g>
	<path fill="none" d="M143.1288,125.1173C140.2032,113.5117,132,79.2461,132,60v-3.2499c0-26.6252-21.4628-48.336-48-48.7421
		C57.4628,8.4141,36,30.1249,36,56.7501V60c0,19.2461-8.2032,53.5117-11.1288,65.1173C33.6016,127.2109,56.5508,132,84,132
		S134.3984,127.2109,143.1288,125.1173z"/>
	<path fill="none" d="M84,177.3573l26.304-16.7368l-10.2888-21.1376C94.9088,139.7985,89.57,140,84,140
		c-5.38,0-10.544-0.1883-15.494-0.4843l-10.3972,21.3676L84,177.3573z"/>
	<polygon fill="none" points="68.34,189.4573 76.0292,181.7697 60.4064,171.828 	"/>
	<polygon fill="none" points="99.66,189.4573 107.5936,171.828 91.9708,181.7697 	"/>
	<path d="M142.0196,156.1837h-24.9784l-8.4472-17.3544c23.47-2.1928,39.6232-6.7304,40.5056-6.9816
		c2.0936-0.6016,3.3244-2.7656,2.7676-4.8712C151.748,126.5273,140,81.8829,140,60v-3.2499
		c0-30.5976-24.3476-55.6172-54.6896-56.7108C85.1308,0.0117,84.9472,0,84.7616,0h-1.5232c-0.1856,0-0.3692,0.0117-0.5488,0.0393
		C52.5292,1.1249,28.2912,25.8557,28.002,56.2033C28,56.2501,28,56.3009,28,56.3477V60c0,21.8829-11.748,66.5273-11.8672,66.9765
		c-0.5568,2.1056,0.674,4.2696,2.7676,4.8712c0.8888,0.2532,17.2772,4.8512,41.0216,7.0256l-8.424,17.3104H29.9804
		C13.4492,156.1837,0,169.5977,0,186.0901V212c0,2.2109,1.7912,4,4,4s4-1.7891,4-4v-25.9099
		c0-12.0784,9.8612-21.9064,21.9804-21.9064h18.214l15.2276,33.84c0.5408,1.1992,1.6348,2.0584,2.9276,2.2928
		c0.2404,0.0428,0.4804,0.0664,0.7208,0.0664c1.0508,0,2.072-0.414,2.828-1.172L84,185.1113l14.1016,14.0996
		c0.756,0.758,1.7772,1.172,2.828,1.172c0.2404,0,0.4804-0.0236,0.7208-0.0664c1.2928-0.2344,2.3868-1.0936,2.9276-2.2928
		l15.2276-33.84h22.214c12.1192,0,21.9804,9.828,21.9804,21.9064V212c0,2.2109,1.7912,4,4,4s4-1.7891,4-4v-25.9099
		C172,169.5977,158.5508,156.1837,142.0196,156.1837z M36,60v-3.2499C36,30.1249,57.4628,8.4141,84,8.008
		c26.5372,0.4061,48,22.1169,48,48.7421V60c0,19.2461,8.2032,53.5117,11.1288,65.1173C134.3984,127.2109,111.4492,132,84,132
		s-50.3984-4.7891-59.1288-6.8827C27.7968,113.5117,36,79.2461,36,60z M84,140c5.57,0,10.9088-0.2015,16.0152-0.5171
		l10.2888,21.1376L84,177.3573l-25.8912-16.474l10.3972-21.3676C73.456,139.8117,78.62,140,84,140z M68.34,189.4573l-7.9336-17.6293
		l15.6228,9.9417L68.34,189.4573z M99.66,189.4573l-7.6892-7.6876l15.6228-9.9417L99.66,189.4573z"/>
</g>
</svg>
