<?xml version="1.0" encoding="utf-8"?>
<!-- Generator: Adobe Illustrator 19.2.0, SVG Export Plug-In . SVG Version: 6.00 Build 0)  -->
<svg version="1.1" id="bacteria" xmlns="http://www.w3.org/2000/svg" xmlns:xlink="http://www.w3.org/1999/xlink" x="0px" y="0px"
	 viewBox="0 0 227.5301 203.4616" enable-background="new 0 0 227.5301 203.4616" xml:space="preserve">
<g>
	<path fill="none" d="M211.8448,11.1412c-2.0428-2.0388-4.57-3.1404-7.1796-3.1404c-0.1992,0-0.4025,0.004-0.6017,0.0196
		c-2.8084,0.1836-5.3943,1.6328-7.2812,4.086l-9.7851,11.9784c0.2863,0.1684,0.5863,0.3072,0.832,0.5528l10,10
		c1.5627,1.5624,1.5627,4.0936,0,5.656c-0.7812,0.7812-1.8045,1.172-2.828,1.172c-1.0237,0-2.0469-0.3908-2.828-1.172l-10-10
		c-0.0497-0.0492-0.0653-0.116-0.1117-0.1672L171.1808,43.446c-3.5852,4.0156-8.6392,9.1788-13.544,13.9988l9.1925,9.1928
		c1.5627,1.5624,1.5627,4.0936,0,5.656c-0.7812,0.7812-1.8045,1.172-2.828,1.172c-1.0237,0-2.0469-0.3908-2.828-1.172
		l-9.2897-9.2896c-1.2876,1.2224-2.5332,2.3952-3.652,3.4264c-0.0583,0.0548-0.1172,0.1056-0.1796,0.1564l-19.4128,15.8604
		l6.19,6.1904c1.5627,1.5624,1.5627,4.0936,0,5.656c-0.7812,0.7812-1.8045,1.172-2.828,1.172c-1.0237,0-2.0469-0.3908-2.828-1.172
		l-6.76-6.7596l-5.6777,4.6388c-2.5468,1.9724-4,4.574-4.1796,7.3904c-0.176,2.8048,0.9296,5.5548,3.1208,7.746l3.6916,3.6916
		c4.7929,4.7852,13.3672,5.3556,18.7228,1.2304l17.1448-14.0064c-0.136-0.1356-0.3156-0.2024-0.434-0.3608l-6-8
		c-1.328-1.7656-0.9688-4.2736,0.8008-5.5976c1.7656-1.328,4.2696-0.9728,5.5976,0.8008l6,8c0.0472,0.0632,0.0548,0.14,0.098,0.2048
		l7.9488-6.494c5.4092-4.8384,13.3596-12.8344,19.2964-19.1136l-5.3703-5.3708c-1.5629-1.5624-1.5629-4.0936,0-5.656
		c1.5623-1.5628,4.0935-1.5628,5.656,0l5.0003,5l23.0117-28.176c4.0663-5.254,3.5-13.8204-1.3049-18.6288L211.8448,11.1412z"/>
	<path d="M221.1928,9.1764l-3.6915-3.6912c-3.8557-3.8516-8.8557-5.7776-13.9573-5.4492c-5.1404,0.336-9.7928,2.8904-13.0312,7.1016
		l-25.414,31.1132c-5.75,6.4336-15.7032,16.2228-22.2032,22.2148l-31.1404,25.4452c-1.1584,0.8968-2.1648,1.9036-3.0596,2.9768
		c-6.8792-1.9844-26.3188-6.7808-43.4796-3.344c-21.1092,4.2228-33.7264,18.7032-34.25,19.3204
		c-1.4412,1.676-1.246,4.1992,0.4336,5.6368c0.754,0.6484,1.6796,0.9648,2.6017,0.9648c1.1251,0,2.2459-0.4728,3.0351-1.3984
		c0.1132-0.1288,11.3164-12.9924,29.75-16.6796c14.2652-2.8596,31.0284,0.8528,38.2836,2.8076
		c-0.12,0.5116-0.1976,1.034-0.2712,1.558c-0.9328,0.294-1.774,0.9036-2.3055,1.7944c-0.0625,0.1016-6.5429,10.3244-40.9101,13.9416
		c-39.6132,4.168-60.2228,40.488-61.0779,42.0348c-1.0745,1.93-0.3789,4.3596,1.5507,5.4336c0.6173,0.344,1.2813,0.508,1.9413,0.508
		c1.4023,0,2.7655-0.742,3.5-2.0548c0.1875-0.3396,19.512-34.238,54.9219-37.9688c26.7948-2.8196,38.6821-9.6584,43.7372-14.136
		c0.4352,0.9632,0.914,1.9092,1.5244,2.8036c-1.672,5.5212-9.1856,25.2184-32.7108,31.4928
		c-30.5116,8.1328-31.7384,17.2812-30.8476,20.832c0.4532,1.8204,2.082,3.0312,3.8749,3.0312c0.3203,0,0.6483-0.0392,0.9727-0.1212
		c1.8984-0.4724,3.1368-2.2264,3.0273-4.1092c0.3283-0.7968,3.3007-6.1096,25.0351-11.9064
		c23.1776-6.1792,33.0044-23.1888,36.78-32.5912c1.1764,1.1612,2.5009,2.1244,3.8996,2.964
		c-1.0664,7.3184-5.824,29.104-25.3864,38.1312c-27.4652,12.6756-33.9572,39.5936-34.2228,40.7344
		c-0.496,2.1484,0.8436,4.2892,2.992,4.7892c0.3048,0.07,0.6096,0.1052,0.9105,0.1052c1.8123,0,3.4567-1.246,3.8903-3.086
		c0.0588-0.242,5.9688-24.2888,29.7812-35.2772c21.8456-10.0816,27.9992-32.582,29.6876-42.5156
		c1.3708,0.244,2.762,0.3828,4.1564,0.3828c4.8165,0,9.6405-1.4648,13.5388-4.4648l31.3868-25.6444
		c6.6564-5.9492,16.7384-16.2072,23.004-23.016l25.6524-31.3984C229.6848,29.942,228.8293,16.8172,221.1928,9.1764z
		 M216.8413,33.4616l-23.0117,28.176l-5.0003-5c-1.5625-1.5628-4.0937-1.5628-5.656,0c-1.5629,1.5624-1.5629,4.0936,0,5.656
		l5.3703,5.3708c-5.9368,6.2792-13.8872,14.2752-19.2964,19.1136l-7.9488,6.494c-0.0432-0.0648-0.0508-0.1416-0.098-0.2048l-6-8
		c-1.328-1.7736-3.832-2.1288-5.5976-0.8008c-1.7695,1.324-2.1288,3.832-0.8008,5.5976l6,8c0.1184,0.1584,0.298,0.2252,0.434,0.3608
		l-17.1448,14.0064c-5.3556,4.1252-13.9299,3.5548-18.7228-1.2304l-3.6916-3.6916c-2.1912-2.1912-3.2968-4.9412-3.1208-7.746
		c0.1796-2.8164,1.6328-5.418,4.1796-7.3904l5.6777-4.6388l6.76,6.7596c0.7811,0.7812,1.8043,1.172,2.828,1.172
		c1.0235,0,2.0468-0.3908,2.828-1.172c1.5627-1.5624,1.5627-4.0936,0-5.656l-6.19-6.1904l19.4128-15.8604
		c0.0624-0.0508,0.1213-0.1016,0.1796-0.1564c1.1188-1.0312,2.3644-2.204,3.652-3.4264l9.2897,9.2896
		c0.7811,0.7812,1.8043,1.172,2.828,1.172c1.0235,0,2.0468-0.3908,2.828-1.172c1.5627-1.5624,1.5627-4.0936,0-5.656l-9.1925-9.1928
		c4.9048-4.82,9.9588-9.9832,13.544-13.9988l10.8808-13.3196c0.0464,0.0512,0.062,0.118,0.1117,0.1672l10,10
		c0.7811,0.7812,1.8043,1.172,2.828,1.172c1.0235,0,2.0468-0.3908,2.828-1.172c1.5627-1.5624,1.5627-4.0936,0-5.656l-10-10
		c-0.2457-0.2456-0.5457-0.3844-0.832-0.5528l9.7851-11.9784c1.8869-2.4532,4.4728-3.9024,7.2812-4.086
		c0.1992-0.0156,0.4024-0.0196,0.6017-0.0196c2.6095,0,5.1367,1.1016,7.1796,3.1404l3.6916,3.6916
		C220.3413,19.6412,220.9076,28.2076,216.8413,33.4616z"/>
</g>
</svg>
