<?xml version="1.0" encoding="utf-8"?>
<!-- Generator: Adobe Illustrator 19.2.0, SVG Export Plug-In . SVG Version: 6.00 Build 0)  -->
<svg version="1.1" id="bionicle" xmlns="http://www.w3.org/2000/svg" xmlns:xlink="http://www.w3.org/1999/xlink" x="0px" y="0px"
	 viewBox="0 0 176 168" enable-background="new 0 0 176 168" xml:space="preserve">
<g>
	<path d="M38,108c-12.1308,0-22,9.8692-22,22s9.8692,22,22,22s22-9.8692,22-22S50.1308,108,38,108z M38,144
		c-7.7188,0-14-6.2812-14-14s6.2812-14,14-14c7.7188,0,14,6.2812,14,14S45.7188,144,38,144z"/>
	<path d="M138,108c-12.1308,0-22,9.8692-22,22s9.8692,22,22,22s22-9.8692,22-22S150.1308,108,138,108z M138,144
		c-7.7188,0-14-6.2812-14-14s6.2812-14,14-14c7.7188,0,14,6.2812,14,14S145.7188,144,138,144z"/>
	<path d="M175.378,123.3404c-0.0148-0.0952,0.0148-0.186-0.0068-0.282l-0.1116-0.4904c-0.0492-0.2488-0.1132-0.492-0.1676-0.7384
		L148.1444,3.1152C147.7304,1.2928,146.1112,0,144.244,0h-29.0876c-2.1076,0-3.8536,1.6348-3.9924,3.7384l-1.086,16.6092H66.3944
		L64.826,3.6268C64.6328,1.5704,62.9084,0,60.8436,0H31.756c-1.8672,0-3.4864,1.2928-3.9004,3.1152L0.908,121.8296
		c-0.0544,0.2464-0.1184,0.4896-0.1676,0.7384l-0.1116,0.4904c-0.0216,0.096,0.008,0.1868-0.0068,0.282
		C0.2368,125.5068,0,127.7248,0,130c0,20.9532,17.0468,38,38,38s38-17.0468,38-38c0-0.4432-0.0516-0.874-0.0668-1.3144
		c0.0324-0.2828,0.1128-0.5532,0.0824-0.8476L69.4668,64h37.0664l-6.5488,63.838c-0.0304,0.2944,0.05,0.5648,0.0824,0.8476
		C100.0516,129.126,100,129.5568,100,130c0,20.9532,17.0468,38,38,38c20.9532,0,38-17.0468,38-38
		C176,127.7248,175.7632,125.5068,175.378,123.3404z M38,160c-16.5428,0-30-13.4572-30-30c0-1.9932,0.2052-3.9384,0.5776-5.8244
		l0.1664-0.7324C11.7456,110.0472,23.7112,100,38,100c16.5428,0,30,13.4572,30,30S54.5428,160,38,160z M113.9336,57.3204
		c-0.758-0.84-1.836-1.3204-2.9688-1.3204H65.0352c-1.1328,0-2.2108,0.4804-2.9688,1.3204
		c-0.7596,0.8396-1.1248,1.9628-1.0096,3.088l4.4584,43.458C58.5872,96.5756,48.8276,92,38,92
		c-9.1308,0-17.5172,3.2412-24.0768,8.628L34.9492,8h22.252l1.5684,16.7208c0.1932,2.0564,1.918,3.6268,3.9824,3.6268h51.074
		c2.1076,0,3.8536-1.6348,3.9924-3.7384L118.9024,8h22.1484l21.026,92.628C155.5172,95.2412,147.1308,92,138,92
		c-10.8276,0-20.5872,4.5756-27.5152,11.8664l4.4584-43.458C115.0584,59.2832,114.6932,58.16,113.9336,57.3204z M138,160
		c-16.5428,0-30-13.4572-30-30s13.4572-30,30-30c14.2888,0,26.2544,10.0472,29.256,23.4432l0.1664,0.7324
		C167.7948,126.0616,168,128.0068,168,130C168,146.5428,154.5428,160,138,160z"/>
	<path d="M108,40H68c-2.2088,0-4,1.7912-4,4s1.7912,4,4,4h40c2.2088,0,4-1.7912,4-4S110.2088,40,108,40z"/>
</g>
</svg>
