<?xml version="1.0" encoding="utf-8"?>
<!-- Generator: Adobe Illustrator 19.2.0, SVG Export Plug-In . SVG Version: 6.00 Build 0)  -->
<svg version="1.1" id="blocks" xmlns="http://www.w3.org/2000/svg" xmlns:xlink="http://www.w3.org/1999/xlink" x="0px" y="0px"
	 viewBox="0 0 220 220" enable-background="new 0 0 220 220" xml:space="preserve">
<g>
	<path d="M188,212V55c0-1.6212-0.9805-3.082-2.4805-3.6992L152,37.534V23.2628c4.6459-1.6564,8-6.0552,8-11.2628
		c0-6.6172-5.3829-12-12-12c-6.6173,0-12,5.3828-12,12c0,5.2076,3.3539,9.6064,8,11.2628V34.248l-14.4805-5.9472
		c-0.1392-0.058-0.2848-0.0424-0.4264-0.0832c-0.2196-0.0636-0.4268-0.1028-0.6536-0.1276
		c-0.3684-0.0416-0.7184-0.0284-1.0768,0.0316c-0.1264,0.0204-0.254-0.022-0.3784,0.0112l-44,11.5704
		C81.2263,40.164,80,41.754,80,43.5704v81.924l-7.2305-1.42c-0.0088-0.002-0.0172,0.0024-0.0255,0.0004
		c-0.5289-0.1008-1.0821-0.1052-1.6385,0.0268l-48,11C21.2891,135.5196,20,137.1368,20,139v73H0v8h24h48h56h56h36v-8H188z M148,8
		c2.2071,0,4,1.7928,4,4s-1.7929,4-4,4c-2.2073,0-4-1.7928-4-4S145.7927,8,148,8z M88,46.6564l36-9.4688v96.95l-36-7.0716V46.6564z
		 M28,142.1876l40-9.1672V212H28V142.1876z M76,132.8632l48,9.426V212H76V132.8632z M132,212v-72v-1V37.966l48,19.7136V212H132z"/>
	<rect x="92" y="116" width="28" height="8"/>
	<rect x="92" y="96" width="28" height="8"/>
	<rect x="92" y="76" width="28" height="8"/>
	<rect x="92" y="56" width="28" height="8"/>
	<rect x="32" y="152" width="32" height="8"/>
	<rect x="32" y="172" width="32" height="8"/>
	<rect x="32" y="192" width="32" height="8"/>
</g>
</svg>
