<?xml version="1.0" encoding="utf-8"?>
<!-- Generator: Adobe Illustrator 19.2.0, SVG Export Plug-In . SVG Version: 6.00 Build 0)  -->
<svg version="1.1" id="book" xmlns="http://www.w3.org/2000/svg" xmlns:xlink="http://www.w3.org/1999/xlink" x="0px" y="0px"
	 viewBox="0 0 224 164" enable-background="new 0 0 224 164" xml:space="preserve">
<g>
	<path fill="none" d="M116,127.246c9.2872-1.5664,29.9747-4.8124,42-4.8124c12.0251,0,32.7128,3.246,42,4.8124V12.9296
		C191.7323,11.5196,169.8923,8,158,8c-11.8924,0-33.7324,3.5196-42,4.9296V127.246z"/>
	<path fill="none" d="M108,127.246V12.9296C99.7324,11.5196,77.8924,8,66,8c-11.8924,0-33.7324,3.5196-42,4.9296V127.246
		c9.2872-1.5664,29.9748-4.8124,42-4.8124C78.0252,122.4336,98.7128,125.6796,108,127.246z"/>
	<path d="M20.7148,135.9376c0.3028-0.0588,30.4904-5.504,45.2852-5.504c14.7948,0,44.9824,5.4452,45.2852,5.504
		C111.5236,135.9804,111.7616,136,112,136c0.1456,0,0.2816-0.0588,0.4252-0.0744c0.0976-0.01,0.1924,0.0292,0.2896,0.012
		c0.3028-0.0588,30.4904-5.504,45.2852-5.504c14.7948,0,44.9823,5.4452,45.2852,5.504C203.5236,135.9804,203.7616,136,204,136
		c0.9296,0,1.838-0.3244,2.5643-0.9296C207.4747,134.3124,208,133.1876,208,132V9.5664c0-1.9336-1.3828-3.59-3.2852-3.9376
		C203.4472,5.4024,173.5155,0,158,0c-14.42,0-41.2604,4.6612-46,5.5016C107.2604,4.6612,80.42,0,66,0
		C50.4844,0,20.5528,5.4024,19.2852,5.6288C17.3828,5.9764,16,7.6328,16,9.5664V132c0,1.1876,0.5252,2.3124,1.4356,3.0704
		C18.3496,135.828,19.5448,136.1444,20.7148,135.9376z M200,12.9296V127.246c-9.2872-1.5664-29.9749-4.8124-42-4.8124
		c-12.0253,0-32.7128,3.246-42,4.8124V12.9296C124.2676,11.5196,146.1076,8,158,8C169.8923,8,191.7323,11.5196,200,12.9296z
		 M24,12.9296C32.2676,11.5196,54.1076,8,66,8c11.8924,0,33.7324,3.5196,42,4.9296V127.246c-9.2872-1.5664-29.9748-4.8124-42-4.8124
		c-12.0252,0-32.7128,3.246-42,4.8124V12.9296z"/>
	<polygon points="216,96 216,144 140,144 132,144 132,152 132,156 92,156 92,152 92,144 84,144 8,144 8,96 0,96 0,144 0,152 8,152 
		84,152 84,156 84,164 92,164 132,164 140,164 140,156 140,152 216,152 224,152 224,144 224,96 	"/>
</g>
</svg>
