<?xml version="1.0" encoding="utf-8"?>
<!-- Generator: Adobe Illustrator 19.2.0, SVG Export Plug-In . SVG Version: 6.00 Build 0)  -->
<svg version="1.1" id="brightness" xmlns="http://www.w3.org/2000/svg" xmlns:xlink="http://www.w3.org/1999/xlink" x="0px" y="0px"
	 viewBox="0 0 220.3632 220.3592" enable-background="new 0 0 220.3632 220.3592" xml:space="preserve">
<g>
	<path fill="none" d="M108.2345,68.1795c-22.0549,0-40,17.9433-40,40c0,22.0549,17.9451,40,40,40c22.0547,0,40-17.9451,40-40
		C148.2345,86.1228,130.2892,68.1795,108.2345,68.1795z"/>
	<path d="M108.2345,60.1795c-26.4689,0-48,21.5333-48,48c0,26.4689,21.5311,48,48,48c26.4688,0,48-21.5311,48-48
		C156.2345,81.7128,134.7032,60.1795,108.2345,60.1795z M108.2345,148.1795c-22.0549,0-40-17.9451-40-40c0-22.0567,17.9451-40,40-40
		c22.0547,0,40,17.9433,40,40C148.2345,130.2344,130.2892,148.1795,108.2345,148.1795z"/>
	<path d="M62.2616,70.6715c0.7812,0.7817,1.8049,1.172,2.8284,1.172c1.0232,0,2.0468-0.3903,2.828-1.172
		c1.5624-1.5623,1.5624-4.0935,0-5.656L36.5508,33.6484c-1.5624-1.5624-4.0936-1.5624-5.6563,0
		c-1.5625,1.5624-1.5625,4.0936,0,5.656L62.2616,70.6715z"/>
	<path d="M112.1288,168c-2.2108,0-4,1.7888-4,4v44.3592c0,2.2112,1.7892,4,4,4c2.2112,0,4-1.7888,4-4V172
		C116.1288,169.7888,114.34,168,112.1288,168z"/>
	<path d="M216.3632,104.2344H172.004c-2.2112,0-4,1.7908-4,4c0,2.2108,1.7888,4,4,4h44.3592c2.2113,0,4-1.7892,4-4
		C220.3632,106.0252,218.5744,104.2344,216.3632,104.2344z"/>
	<path d="M65.0156,152.4412l-31.3672,31.3672c-1.5624,1.5628-1.5624,4.094,0,5.6564c0.7812,0.7812,1.8048,1.172,2.828,1.172
		c1.0236,0,2.0472-0.3908,2.8284-1.172l31.3672-31.3672c1.5625-1.5624,1.5625-4.0936,0-5.6564
		C69.1096,150.8788,66.578,150.8788,65.0156,152.4412z"/>
	<path d="M108.2345,52.3592c2.2107,0,4-1.7908,4-4V4c0-2.2092-1.7893-4-4-4c-2.2109,0-4,1.7908-4,4v44.3592
		C104.2345,50.5684,106.0236,52.3592,108.2345,52.3592z"/>
	<path d="M52.3596,112.1288c0-2.2108-1.7891-4-4-4H4c-2.2108,0-4,1.7892-4,4c0,2.2107,1.7892,4,4,4h44.3596
		C50.5705,116.1288,52.3596,114.3395,52.3596,112.1288z"/>
	<path d="M152.5196,69.088c1.0232,0,2.0469-0.3908,2.828-1.172l31.3672-31.3652c1.5624-1.5628,1.5624-4.094,0-5.6564
		c-1.5624-1.5624-4.0936-1.5624-5.656,0l-31.3672,31.3651c-1.5628,1.5625-1.5628,4.0941,0,5.6565
		C150.4728,68.6972,151.496,69.088,152.5196,69.088z"/>
	<path d="M158.1016,149.6875c-1.5624-1.5627-4.0936-1.5627-5.6564,0c-1.5624,1.5625-1.5624,4.0937,0,5.656l31.3672,31.3673
		c0.7812,0.7812,1.8048,1.172,2.8284,1.172c1.0232,0,2.0468-0.3908,2.828-1.172c1.5624-1.5624,1.5624-4.0936,0-5.6564
		L158.1016,149.6875z"/>
</g>
</svg>
