<?xml version="1.0" encoding="utf-8"?>
<!-- Generator: Adobe Illustrator 19.2.0, SVG Export Plug-In . SVG Version: 6.00 Build 0)  -->
<svg version="1.1" id="bulb" xmlns="http://www.w3.org/2000/svg" xmlns:xlink="http://www.w3.org/1999/xlink" x="0px" y="0px"
	 viewBox="0 0 144 216" enable-background="new 0 0 144 216" xml:space="preserve">
<path d="M112,109.3868V80V68c0-8.8244-7.1776-16-16.002-16h-3.6172V31.9804C92.3808,14.3476,78.0352,0,60.4004,0h-28.42
	C14.3456,0,0,14.34,0,31.9648v160.1916c0,2.2108,1.7912,4,4,4c2.2088,0,4-1.7892,4-4V31.9648C8,18.75,18.758,8,31.9804,8h28.42
	c13.2228,0,23.9804,10.758,23.9804,23.9804V52H80.002C71.1776,52,64,59.1756,64,68v12v29.3868C44.4728,118.6444,32,138.2228,32,160
	c0,30.8788,25.1212,56,56,56c30.8788,0,56-25.1212,56-56C144,138.2228,131.5272,118.6444,112,109.3868z M72,68
	c0-4.41,3.59-8,8.002-8h15.996c4.412,0,8.002,3.59,8.002,8v8H72V68z M88,208c-26.4668,0-48-21.5312-48-48
	c0-19.4376,11.5956-36.836,29.5412-44.3244c1.488-0.6208,2.4588-2.078,2.4588-3.6912V84h12v52H72c-2.2088,0-4,1.7892-4,4
	s1.7912,4,4,4h32c2.2088,0,4-1.7892,4-4s-1.7912-4-4-4H92V84h12v27.9844c0,1.6132,0.9708,3.0704,2.4588,3.6912
	C124.4044,123.164,136,140.5624,136,160C136,186.4688,114.4668,208,88,208z"/>
</svg>
