<?xml version="1.0" encoding="utf-8"?>
<!-- Generator: Adobe Illustrator 19.2.0, SVG Export Plug-In . SVG Version: 6.00 Build 0)  -->
<svg version="1.1" id="businesscenter" xmlns="http://www.w3.org/2000/svg" xmlns:xlink="http://www.w3.org/1999/xlink" x="0px"
	 y="0px" viewBox="0 0 196 196" enable-background="new 0 0 196 196" xml:space="preserve">
<path d="M192,152h-24v-40.2376c16.1263-1.794,24-14.8364,24-39.7624c0-25.1288-9.6173-72-28-72c-18.3829,0-28,46.8712-28,72
	c0,24.926,7.8735,37.9684,24,39.7624V152h-24V96c0-1.75-1.1369-3.2968-2.8085-3.8164l-128-40
	c-1.2188-0.3908-2.5392-0.16-3.5628,0.5936C0.6055,53.5312,0,54.7264,0,56v100v36c0,2.2108,1.7891,4,4,4h16h20h72h48h8h24
	c2.2107,0,4-1.7892,4-4v-36C196,153.7892,194.2107,152,192,152z M144,72c0-30.9024,11.7383-64,20-64c8.2615,0,20,33.0976,20,64
	c0,28.3632-10.6877,32-20,32C154.6875,104,144,100.3632,144,72z M128,152h-16h-8V91.4416l24,7.5V152z M40,152V71.4416l24,7.5V152H40
	z M72,81.4416l24,7.5V152H72V81.4416z M8,61.4416l24,7.5V152H8V61.4416z M8,160h100v28H44v-20c0-2.2108-1.7893-4-4-4H20
	c-2.2109,0-4,1.7892-4,4v20H8V160z M24,188v-16h12v16H24z M116,188v-28h16h28v28H116z M188,188h-20v-28h20V188z"/>
</svg>
