<?xml version="1.0" encoding="utf-8"?>
<!-- Generator: Adobe Illustrator 19.2.0, SVG Export Plug-In . SVG Version: 6.00 Build 0)  -->
<svg version="1.1" id="butterfly" xmlns="http://www.w3.org/2000/svg" xmlns:xlink="http://www.w3.org/1999/xlink" x="0px" y="0px"
	 viewBox="0 0 222 168.0017" enable-background="new 0 0 222 168.0017" xml:space="preserve">
<g>
	<path d="M222,67.0017c0-0.6055-0.1368-1.2011-0.4004-1.744l-16-33c-0.836-1.7267-2.7716-2.6095-4.6368-2.1191l-81.336,21.8216
		c-0.8296-1.6332-1.7332-3.0616-2.7168-4.24l21.672-34.318l18.5664-5.5685c2.1172-0.6347,3.3184-2.8651,2.6836-4.9803
		c-0.6348-2.1172-2.8572-3.3068-4.9804-2.6837l-20,6c-0.926,0.2773-1.7188,0.8809-2.2344,1.6953L110,43.6758L87.3828,7.865
		c-0.5156-0.8144-1.3084-1.418-2.2344-1.6953l-20-6c-2.1112-0.6347-4.3436,0.5665-4.9804,2.6837
		c-0.6348,2.1152,0.5664,4.3456,2.6836,4.9803l18.5664,5.5685l21.672,34.318c-0.886,1.0612-1.702,2.3384-2.4624,3.772
		L21.0372,30.1386c-1.8536-0.498-3.8008,0.3924-4.6368,2.1191l-16,33C0.1368,65.8006,0,66.3962,0,67.0017
		c0,14.0373,16.9004,46.6077,33.3204,52.1817C32.4432,122.0446,32,124.9937,32,128.0017c0,9.996,4.4572,19.0705,12.2264,24.8985
		c5.344,4.008,13.9084,7.7424,27.2676,7.7424c7.4776,0,16.5332-1.246,27.29-4.1944c2.69,6.9615,6.3392,11.5535,11.216,11.5535
		c4.9848,0,8.6832-4.8063,11.3896-12.028c11.5976,3.3393,21.2052,4.6689,29.1164,4.6689c13.3552,0,21.9236-3.7344,27.2676-7.7424
		C185.5428,147.0722,190,137.9977,190,128.0017c0-3.008-0.4432-5.9571-1.3204-8.8183C205.0996,113.6094,222,81.039,222,67.0017z
		 M49.0272,146.4998C41.172,140.6094,40,132.3826,40,128.0017c0-3.6171,0.8808-7.1387,2.6172-10.4647
		c0.246-0.4728,0.3888-0.9728,0.4356-1.4728c0.0448-0.4568,0.0096-0.9296-0.1132-1.3964c-0.0156-0.0584-0.0332-0.1172-0.0508-0.1756
		c-0.002-0.002-0.002-0.004-0.002-0.006c-0.1584-0.506-0.4104-0.9572-0.7284-1.3436c-0.3184-0.3889-0.7168-0.7228-1.1876-0.9769
		c-0.0488-0.0251-0.0976-0.0507-0.1464-0.076c-0.008,0.0021-0.008,0-0.012-0.0059h-0.002c-0.4392-0.2128-0.902-0.3381-1.3652-0.3828
		c-0.492-0.0353-1.0056-0.002-1.5096,0.1484l-0.4276,0.1272c-9.342-0.9456-28.7892-27.9612-29.4884-44.096l14.1368-29.158
		l75.4492,20.242C93.386,72.4054,92,92.1026,92,106.0017c0,12.5085,1.1236,29.7125,4.4232,42.8289
		C69.7136,156.1174,55.9076,151.6617,49.0272,146.4998z M110,159.9666c-3.5624-1.6524-10-21.2188-10-53.9649
		c0-33.1387,6.5916-52.7811,9.8732-54.0155C113.4084,53.2206,120,72.863,120,106.0017C120,138.7478,113.5624,158.3142,110,159.9666z
		 M184.492,111.9766l-0.4196-0.1252c-0.0392-0.0116-0.0804-0.0236-0.1212-0.0332c-0.4708-0.1248-0.9492-0.162-1.4044-0.1152
		c-0.5,0.0467-0.996,0.1912-1.4688,0.4356c-0.5056,0.2656-0.9336,0.6228-1.2696,1.0428c-0.3024,0.3772-0.5408,0.8163-0.6952,1.3048
		c0,0,0,0,0,0.002c0,0,0,0.002-0.002,0.004c-0.0176,0.0584-0.0352,0.1172-0.0508,0.1756c-0.1228,0.4668-0.158,0.9396-0.1132,1.3964
		c0.0468,0.5,0.1896,1,0.4356,1.4728c1.7364,3.326,2.6172,6.8476,2.6172,10.4647c0,4.3809-1.172,12.6077-9.0272,18.4981
		c-7.0432,5.2864-21.3132,9.8476-49.2664,1.8219c3.2012-13.0495,4.2936-29.9739,4.2936-42.32
		c0-13.7271-1.3488-33.1175-5.4472-46.5435l77.2908-20.7356l14.1368,29.158C213.2812,84.0154,193.834,111.031,184.492,111.9766z"/>
	<path d="M32,60.0017c-6.6172,0-12,5.3829-12,12c0,6.6173,5.3828,12,12,12s12-5.3827,12-12C44,65.3846,38.6172,60.0017,32,60.0017z
		 M32,76.0017c-2.2052,0-4-1.7947-4-4c0-2.2051,1.7948-4,4-4s4,1.7949,4,4C36,74.207,34.2052,76.0017,32,76.0017z"/>
	<path d="M188,60.0017c-6.6172,0-12,5.3829-12,12c0,6.6173,5.3828,12,12,12s12-5.3827,12-12
		C200,65.3846,194.6172,60.0017,188,60.0017z M188,76.0017c-2.2052,0-4-1.7947-4-4c0-2.2051,1.7948-4,4-4s4,1.7949,4,4
		C192,74.207,190.2052,76.0017,188,76.0017z"/>
	<path d="M160,120.0017c-6.6172,0-12,5.3829-12,12c0,6.6173,5.3828,12,12,12s12-5.3827,12-12
		C172,125.3846,166.6172,120.0017,160,120.0017z M160,136.0017c-2.2052,0-4-1.7947-4-4c0-2.2051,1.7948-4,4-4s4,1.7949,4,4
		C164,134.207,162.2052,136.0017,160,136.0017z"/>
	<path d="M60,120.0017c-6.6172,0-12,5.3829-12,12c0,6.6173,5.3828,12,12,12s12-5.3827,12-12
		C72,125.3846,66.6172,120.0017,60,120.0017z M60,136.0017c-2.2052,0-4-1.7947-4-4c0-2.2051,1.7948-4,4-4s4,1.7949,4,4
		C64,134.207,62.2052,136.0017,60,136.0017z"/>
</g>
</svg>
