<?xml version="1.0" encoding="utf-8"?>
<!-- Generator: Adobe Illustrator 19.2.0, SVG Export Plug-In . SVG Version: 6.00 Build 0)  -->
<svg version="1.1" id="button" xmlns="http://www.w3.org/2000/svg" xmlns:xlink="http://www.w3.org/1999/xlink" x="0px" y="0px"
	 viewBox="0 0 208 164" enable-background="new 0 0 208 164" xml:space="preserve">
<g>
	<path d="M126,24c-2.2108,0-4,1.7892-4,4s1.7892,4,4,4c27.5704,0,50,22.4296,50,50s-22.4296,50-50,50s-50-22.4296-50-50
		c0-2.2108-1.7892-4-4-4s-4,1.7892-4,4c0,31.9804,26.0196,58,58,58s58-26.0196,58-58S157.9804,24,126,24z"/>
	<path d="M126,0C88.4144,0,56.7332,25.4504,47.0852,60H36h-4H20C8.9728,60,0,68.9764,0,80.008v11.984C0,103.0236,8.9728,112,20,112
		h8h8c2.2072,0,4,2.1248,4,4.7344v6.5312C40,125.8748,38.2072,128,36,128h-4h-4h-4c-6.6172,0-12,5.7108-12,12.7344v6.5312
		C12,154.2892,17.3828,160,24,160h8c2.2108,0,4-1.7892,4-4s-1.7892-4-4-4h-8c-2.2072,0-4-2.1252-4-4.7344v-6.5312
		C20,138.1248,21.7928,136,24,136h4h4h4c6.6172,0,12-5.7108,12-12.7344v-6.5312C48,109.7108,42.6172,104,36,104h-8h-8
		c-6.6172,0-12-5.3868-12-12.008V80.008C8,73.3868,13.3828,68,20,68h12h4h9.2856C44.496,72.5592,44,77.2184,44,82
		c0,45.2148,36.7852,82,82,82s82-36.7852,82-82S171.2148,0,126,0z M126,156c-40.8048,0-74-33.1952-74-74
		c0-4.7896,0.496-9.4616,1.3692-14h43.368c1.6564,4.646,6.0552,8,11.2628,8c6.6172,0,12-5.3828,12-12s-5.3828-12-12-12
		c-5.2076,0-9.6064,3.354-11.2628,8h-41.398C64.7284,29.9056,92.8532,8,126,8c40.8048,0,74,33.1952,74,74S166.8048,156,126,156z"/>
	<path d="M108,112c6.6172,0,12-5.3828,12-12s-5.3828-12-12-12s-12,5.3828-12,12S101.3828,112,108,112z M108,96
		c2.2072,0,4,1.7928,4,4s-1.7928,4-4,4s-4-1.7928-4-4S105.7928,96,108,96z"/>
	<path d="M144,76c6.6172,0,12-5.3828,12-12s-5.3828-12-12-12s-12,5.3828-12,12S137.3828,76,144,76z M144,60c2.2072,0,4,1.7928,4,4
		s-1.7928,4-4,4s-4-1.7928-4-4S141.7928,60,144,60z"/>
	<path d="M144,112c6.6172,0,12-5.3828,12-12s-5.3828-12-12-12s-12,5.3828-12,12S137.3828,112,144,112z M144,96
		c2.2072,0,4,1.7928,4,4s-1.7928,4-4,4s-4-1.7928-4-4S141.7928,96,144,96z"/>
</g>
</svg>
