<?xml version="1.0" encoding="utf-8"?>
<!-- Generator: Adobe Illustrator 19.2.0, SVG Export Plug-In . SVG Version: 6.00 Build 0)  -->
<svg version="1.1" id="cactus" xmlns="http://www.w3.org/2000/svg" xmlns:xlink="http://www.w3.org/1999/xlink" x="0px" y="0px"
	 viewBox="0 0 156.0552 218" enable-background="new 0 0 156.0552 218" xml:space="preserve">
<path d="M104.8792,210l7.0432-35.2148c0.2364-1.176-0.0684-2.3944-0.8284-3.3204c-0.7596-0.9256-1.8944-1.4648-3.0936-1.4648
	h-27.796l3.826-76.5124l4.1808,2.0904C88.7856,95.8632,89.3968,96,89.9964,96c1.4688,0,2.8808-0.8084,3.582-2.2108
	c0.9884-1.9768,0.1876-4.3792-1.7888-5.3672l-7.3228-3.6616l0.6488-12.9744c0.1236-0.0356,0.2492-0.0224,0.3712-0.0712l10-4
	c2.0508-0.8204,3.0488-3.1484,2.2284-5.1992c-0.8224-2.0508-3.1444-3.0468-5.2012-2.2304l-6.9624,2.7852L86.4052,46h3.5952
	c2.2088,0,4-1.7892,4-4s-1.7912-4-4-4h-3.3368c-0.2516-5.8812-2.1972-11.4072-5.6044-16.0568l4.7304-2.3652
	c1.9764-0.988,2.7772-3.3904,1.7888-5.3672c-0.988-1.9724-3.3884-2.7692-5.3672-1.7888l-7.054,3.5268
	C70.0976,12.1068,63.9208,10,57.3128,10h-1.3124V4c0-2.2108-1.7912-4-4-4s-4,1.7892-4,4v6.7596
	c-5.6008,1.2576-10.6744,4.0768-14.6776,8.2872c-0.72,0.7568-1.3896,1.548-2.0172,2.3656l-7.8188-3.1272
	c-2.0644-0.8244-4.3808,0.1756-5.2012,2.2304c-0.8204,2.0508,0.1776,4.3788,2.2284,5.1992l6.84,2.736
	c-1.5184,3.8744-2.2316,8.084-2.0136,12.44L25.5956,46h-5.5952c-2.2088,0-4,1.7892-4,4s1.7912,4,4,4h5.9952l0.5788,11.57
	L19.6,70.8008c-1.7676,1.324-2.1248,3.832-0.7988,5.5976C19.5864,77.4492,20.7876,78,22.0044,78
	c0.834,0,1.6756-0.2616,2.3964-0.8008l2.6556-1.9916L27.796,90h-7.7956c-2.2088,0-4,1.7892-4,4s1.7912,4,4,4h8.1956l3.6004,72
	H4.0004c-1.1992,0-2.334,0.5392-3.0936,1.4648c-0.76,0.926-1.0648,2.1444-0.8284,3.3204L7.1216,210H0.0004v8h12h88h56.0548v-8
	H104.8792z M33.8428,50.7796c0.0536-0.2604,0.1576-0.5028,0.1576-0.7796c0-0.4588-0.1188-0.8832-0.2608-1.2936l-0.4112-8.2144
	c-0.3008-6.0312,1.756-11.6912,5.7892-15.9336C43.1428,20.328,48.6724,18,54.688,18h2.6248c6.012,0,11.5412,2.332,15.5664,6.5624
	c4.0372,4.2424,6.094,9.9024,5.7932,15.9296L72.1956,170H39.8052L33.8428,50.7796z M15.2796,210l-6.4004-32h27.1212h40h27.1212
	l-6.4004,32H15.2796z"/>
</svg>
