<?xml version="1.0" encoding="utf-8"?>
<!-- Generator: Adobe Illustrator 19.2.0, SVG Export Plug-In . SVG Version: 6.00 Build 0)  -->
<svg version="1.1" id="certificate" xmlns="http://www.w3.org/2000/svg" xmlns:xlink="http://www.w3.org/1999/xlink" x="0px"
	 y="0px" viewBox="0 0 232 160" enable-background="new 0 0 232 160" xml:space="preserve">
<g>
	<path fill="none" d="M8,152h216V8H8V152z M16,48c0-2.2107,1.7912-4,4-4c11.0272,0,20-8.9727,20-20
		c0-1.1211-0.0936-2.2459-0.2772-3.336c-0.1956-1.16,0.1308-2.3475,0.8904-3.2459C41.3732,16.5197,42.4904,16,43.668,16h144.664
		c1.1776,0,2.2948,0.5197,3.0548,1.4181c0.7596,0.8984,1.086,2.0859,0.8904,3.2459C192.0936,21.7541,192,22.8789,192,24
		c0,11.0273,8.9728,20,20,20c2.2088,0,4,1.7893,4,4v64c0,2.2109-1.7912,4-4,4c-11.0272,0-20,8.9729-20,20
		c0,1.1213,0.0936,2.2461,0.2772,3.336c0.1956,1.16-0.1308,2.3477-0.8904,3.2461c-0.76,0.8984-1.8772,1.4179-3.0548,1.4179H43.668
		c-1.1776,0-2.2948-0.5195-3.0548-1.4179c-0.7596-0.8984-1.086-2.0861-0.8904-3.2461C39.9064,138.2461,40,137.1213,40,136
		c0-11.0271-8.9728-20-20-20c-2.2088,0-4-1.7891-4-4V48z"/>
	<path fill="none" d="M48,136h136c0-14.0819,10.4492-25.7695,24-27.7147V51.7149C194.4492,49.7697,184,38.0821,184,24H48
		c0,14.0821-10.4492,25.7697-24,27.7149v56.5704C37.5508,110.2305,48,121.9181,48,136z M160,120H68v-8h92V120z M160,100H68v-8h92
		V100z M92,40h48v8H92V40z M52,56h124.0684v8H52V56z"/>
	<path d="M228,0H4C1.7912,0,0,1.7893,0,4v152c0,2.2109,1.7912,4,4,4h224c2.2088,0,4-1.7891,4-4V4C232,1.7893,230.2088,0,228,0z
		 M224,152H8V8h216V152z"/>
	<path d="M20,116c11.0272,0,20,8.9729,20,20c0,1.1213-0.0936,2.2461-0.2772,3.336c-0.1956,1.16,0.1308,2.3477,0.8904,3.2461
		c0.76,0.8984,1.8772,1.4179,3.0548,1.4179h144.664c1.1776,0,2.2948-0.5195,3.0548-1.4179c0.7596-0.8984,1.086-2.0861,0.8904-3.2461
		C192.0936,138.2461,192,137.1213,192,136c0-11.0271,8.9728-20,20-20c2.2088,0,4-1.7891,4-4V48c0-2.2107-1.7912-4-4-4
		c-11.0272,0-20-8.9727-20-20c0-1.1211,0.0936-2.2459,0.2772-3.336c0.1956-1.16-0.1308-2.3475-0.8904-3.2459
		C190.6268,16.5197,189.5096,16,188.332,16H43.668c-1.1776,0-2.2948,0.5197-3.0548,1.4181
		c-0.7596,0.8984-1.086,2.0859-0.8904,3.2459C39.9064,21.7541,40,22.8789,40,24c0,11.0273-8.9728,20-20,20c-2.2088,0-4,1.7893-4,4
		v64C16,114.2109,17.7912,116,20,116z M24,51.7149C37.5508,49.7697,48,38.0821,48,24h136c0,14.0821,10.4492,25.7697,24,27.7149
		v56.5704c-13.5508,1.9452-24,13.6328-24,27.7147H48c0-14.0819-10.4492-25.7695-24-27.7147V51.7149z"/>
	<rect x="52" y="56" width="124.0684" height="8"/>
	<rect x="68" y="92" width="92" height="8"/>
	<rect x="68" y="112" width="92" height="8"/>
	<rect x="92" y="40" width="48" height="8"/>
</g>
</svg>
