<?xml version="1.0" encoding="utf-8"?>
<!-- Generator: Adobe Illustrator 19.2.0, SVG Export Plug-In . SVG Version: 6.00 Build 0)  -->
<svg version="1.1" id="champagne" xmlns="http://www.w3.org/2000/svg" xmlns:xlink="http://www.w3.org/1999/xlink" x="0px" y="0px"
	 viewBox="0 0 214.4766 214.4764" enable-background="new 0 0 214.4766 214.4764" xml:space="preserve">
<g>
	<path d="M162.3906,37.9412c-1.5-1.5-4.156-1.5-5.656,0l-27.9484,27.9524L69.7774,102.422c-0.2616,0.164-0.504,0.3552-0.7228,0.574
		L1.1718,170.8788c-1.5624,1.5624-1.5624,4.094,0,5.6564l36.7696,36.7696c0.7812,0.7812,1.8048,1.1716,2.828,1.1716
		c1.0236,0,2.0472-0.3904,2.8284-1.1716l22.6172-22.6172c0.0032-0.0036,0.008-0.0044,0.0116-0.008l14.1408-14.1444l31.1132-31.1132
		c0.2188-0.2188,0.41-0.4612,0.574-0.7228l36.5284-59.0048l27.9524-27.9524c1.5624-1.5624,1.5624-4.0936,0-5.656L162.3906,37.9412z
		 M63.3966,182.1932L32.2854,151.082l8.484-8.4884l31.1136,31.1132L63.3966,182.1932z M40.7694,204.8204L9.6562,173.7068
		l16.9708-16.9704l31.1132,31.1132L40.7694,204.8204z M105.4962,140.0936L77.539,168.0508l-31.1132-31.1132l27.9572-27.9572
		l56.3084-34.8556l9.6604,9.6604L105.4962,140.0936z M145.4226,77.5424l-4.2428-4.2436l-4.2424-4.244l22.6252-22.6292l8.4884,8.4884
		L145.4226,77.5424z"/>
	<path d="M77.539,118.9376c-4.8044,0-9.328,1.8708-12.7264,5.2732c-3.3984,3.3984-5.2736,7.918-5.2736,12.7268
		c0,4.8084,1.8712,9.328,5.2736,12.7264c3.3984,3.4024,7.922,5.2736,12.7264,5.2736c4.8088,0,9.3284-1.8752,12.7268-5.2736
		c3.3984-3.3984,5.2732-7.918,5.2732-12.7264c0-4.8088-1.8748-9.3284-5.2732-12.7268S82.3478,118.9376,77.539,118.9376z
		 M84.6094,144.0076c-3.7772,3.7816-10.3556,3.7852-14.1404,0c-1.8908-1.8904-2.93-4.3984-2.93-7.07
		c0-2.672,1.0392-5.18,2.93-7.0704c1.8904-1.8908,4.402-2.9296,7.07-2.9296c2.672,0,5.18,1.0388,7.0704,2.9296
		c1.8908,1.8904,2.9296,4.3984,2.9296,7.0704C87.539,139.6092,86.5002,142.1172,84.6094,144.0076z"/>
	<path d="M173.707,36.2852c1.0236,0,2.0468-0.3908,2.8284-1.172L201.9922,9.656c1.5624-1.5624,1.5624-4.0936,0-5.656
		c-1.5624-1.5624-4.0936-1.5624-5.6564,0L170.879,29.4568c-1.5624,1.5628-1.5624,4.094,0,5.6564
		C171.6602,35.8944,172.6838,36.2852,173.707,36.2852z"/>
	<path d="M210.4766,18.1444c1.5624-1.5624,1.5624-4.0936,0-5.656c-1.5624-1.5628-4.0936-1.5628-5.6564,0l-25.4568,25.4568
		c-1.5624,1.5624-1.5624,4.094,0,5.6564c0.7812,0.7812,1.8048,1.1716,2.828,1.1716c1.0236,0,2.0468-0.3904,2.828-1.1716
		L210.4766,18.1444z"/>
	<path d="M210.4766,48.086h-22.6288c-2.2112,0-4,1.7888-4,4c0,2.2108,1.7888,4,4,4h22.6288c2.2108,0,4-1.7892,4-4
		C214.4766,49.8748,212.6874,48.086,210.4766,48.086z"/>
	<path d="M162.3906,30.6288c2.2112,0,4-1.7892,4-4V4c0-2.2108-1.7888-4-4-4c-2.2108,0-4,1.7892-4,4v22.6288
		C158.3906,28.8396,160.1798,30.6288,162.3906,30.6288z"/>
</g>
</svg>
