<?xml version="1.0" encoding="utf-8"?>
<!-- Generator: Adobe Illustrator 19.2.0, SVG Export Plug-In . SVG Version: 6.00 Build 0)  -->
<svg version="1.1" id="check" xmlns="http://www.w3.org/2000/svg" xmlns:xlink="http://www.w3.org/1999/xlink" x="0px" y="0px"
	 viewBox="0 0 216 216" enable-background="new 0 0 216 216" xml:space="preserve">
<g>
	<path fill="none" d="M108,8C52.8592,8,8,52.8592,8,108s44.8592,100,100,100s100-44.8592,100-100S163.1408,8,108,8z
		 M147.6112,71.7188l-40,84c-0.5176,1.086-1.496,1.8828-2.664,2.168C104.6348,157.9628,104.3164,158,104,158
		c-0.8632,0-1.7128-0.2792-2.414-0.8104l-35.748-27.0628c-1.762-1.334-2.1096-3.8416-0.7756-5.6032
		c1.332-1.764,3.838-2.1152,5.6036-0.7756l31.834,24.0996l37.8888-79.5664c0.9512-1.996,3.3396-2.836,5.33-1.8924
		C147.7148,67.338,148.5604,69.7248,147.6112,71.7188z"/>
	<path d="M108,0C48.4492,0,0,48.4492,0,108s48.4492,108,108,108s108-48.4492,108-108S167.5508,0,108,0z M108,208
		C52.8592,208,8,163.1408,8,108S52.8592,8,108,8s100,44.8592,100,100S163.1408,208,108,208z"/>
	<path d="M145.7188,66.3888c-1.9904-0.9436-4.3788-0.1036-5.33,1.8924L102.5,147.8476L70.666,123.748
		c-1.7656-1.3396-4.2716-0.9884-5.6036,0.7756c-1.334,1.7616-0.9864,4.2692,0.7756,5.6032l35.748,27.0628
		C102.2872,157.7208,103.1368,158,104,158c0.3164,0,0.6348-0.0372,0.9472-0.1132c1.168-0.2852,2.1464-1.082,2.664-2.168l40-84
		C148.5604,69.7248,147.7148,67.338,145.7188,66.3888z"/>
</g>
</svg>
