<?xml version="1.0" encoding="utf-8"?>
<!-- Generator: Adobe Illustrator 19.2.0, SVG Export Plug-In . SVG Version: 6.00 Build 0)  -->
<svg version="1.1" id="chemicalcompound" xmlns="http://www.w3.org/2000/svg" xmlns:xlink="http://www.w3.org/1999/xlink" x="0px"
	 y="0px" viewBox="0 0 220 204" enable-background="new 0 0 220 204" xml:space="preserve">
<g>
	<path fill="none" d="M110,68.5844C85.4539,78.2128,68,102.0824,68,130c0,3.844,0.3987,7.59,1.0327,11.2556
		c11.268,8.9564,25.4892,14.35,40.9673,14.35c15.4779,0,29.6991-5.3936,40.9671-14.35C151.6011,137.59,152,133.844,152,130
		C152,102.0824,134.5459,78.2128,110,68.5844z"/>
	<path fill="none" d="M110,191.4156c17.3763-6.8164,31.1423-20.774,37.7263-38.2644
		c-11.0636,6.5944-23.9372,10.4544-37.7263,10.4544c-13.7893,0-26.6629-3.86-37.7265-10.4544
		C78.8575,170.6416,92.6235,184.5992,110,191.4156z"/>
	<path fill="none" d="M60,130c0-27.8788,15.5071-52.1868,38.3379-64.8016C94.3355,64.4376,90.22,64,86,64
		c-15.5053,0-29.7509,5.4104-41.028,14.3952C44.3391,82.0548,44,85.8,44,89.6056c0,16.4792,6.1131,31.5304,16.1375,43.1084
		C60.1043,131.806,60,130.9164,60,130z"/>
	<path fill="none" d="M110,36c7.7187,0,14-6.2812,14-14c0-7.7188-6.2813-14-14-14c-7.7189,0-14,6.2812-14,14
		C96,29.7188,102.2811,36,110,36z"/>
	<path fill="none" d="M121.6619,65.1984C144.4927,77.8132,160,102.1212,160,130c0,0.9164-0.1045,1.806-0.1377,2.7141
		C169.8867,121.136,176,106.0848,176,89.6056c0-3.8056-0.3393-7.5508-0.972-11.21C163.7507,69.4108,149.5051,64,134,64
		C129.78,64,125.6643,64.4376,121.6619,65.1984z"/>
	<path fill="none" d="M110,60.0728C117.5383,57.4776,125.5915,56,134,56c13.796,0,26.676,3.864,37.7435,10.4644
		c-6.8336-18.1688-21.4744-32.818-40.3864-39.2804C129.0167,36.8156,120.3403,44,110,44c-10.3417,0-19.0181-7.1852-21.3581-16.8184
		c-18.9099,6.466-33.5504,21.1144-40.3848,39.282C59.3247,59.8636,72.2043,56,86,56C94.4083,56,102.4615,57.4776,110,60.0728z"/>
	<path fill="none" d="M180,156c0-10.9228,8.8103-19.8008,19.6939-19.9688C199.8755,134.0232,200,132.0069,200,130
		c0-16.466-6.1033-31.5068-16.1125-43.0812C183.92,87.8156,184,88.7028,184,89.6056c0,22.3268-9.9805,42.3292-25.6657,55.9084
		c-4.5468,21.2168-18.2012,39.0816-36.6724,49.2876C125.6643,195.5624,129.78,196,134,196c20.4187,0,39.7007-9.5344,52.1711-25.612
		C182.3831,166.7464,180,161.6564,180,156z"/>
	<path fill="none" d="M200,144c-6.6173,0-12,5.3828-12,12c0,6.6172,5.3827,12,12,12c6.6171,0,12-5.3828,12-12
		C212,149.3828,206.6171,144,200,144z"/>
	<path fill="none" d="M32,156c0-6.6172-5.3829-12-12-12c-0.568,0-1.112,0.0912-1.6593,0.1676
		c-0.3096,0.134-0.6047,0.2952-0.954,0.348c-0.194,0.0256-0.3732-0.0332-0.5636-0.0348C11.7535,145.8837,8,150.4896,8,156
		c0,6.6172,5.3827,12,12,12C26.6171,168,32,162.6172,32,156z"/>
	<path fill="none" d="M61.6655,145.514C45.9803,131.9348,36,111.9324,36,89.6056c0-0.9028,0.08-1.79,0.1123-2.6868
		C26.1027,98.4932,20,113.534,20,130c0,2.0136,0.1215,4.0264,0.3027,6.0304C31.1875,136.1973,40,145.0764,40,156
		c0,5.66-2.3873,10.7533-6.1797,14.3952C46.2955,186.4832,65.5451,196,86,196c4.22,0,8.3355-0.4376,12.3379-1.1984
		C79.8667,184.5956,66.2123,166.7309,61.6655,145.514z"/>
	<path d="M207.5811,137.5136C207.8343,135.0168,208,132.5036,208,130c0-22.3544-10.0037-42.3808-25.7229-55.9604
		c-5.58-25.8048-24.7088-47.1864-50.5188-55.1197C130.252,8.2472,121.0811,0,110,0C98.92,0,89.7495,8.246,88.2419,18.9172
		c-25.808,7.9372-44.9379,29.3184-50.5188,55.122C22.004,87.6192,12,107.6452,12,130c0,2.5092,0.1731,5.0168,0.4235,7.5116
		C5.1455,140.506,0,147.6556,0,156c0,11.0272,8.9727,20,20,20c2.4819,0,4.8335-0.5112,7.0283-1.3412
		C40.9975,193.0748,62.8,204,86,204c8.4083,0,16.4615-1.4776,24-4.0728c7.5383,2.5952,15.5915,4.0728,24,4.0728
		c23.1567,0,45.0055-10.9396,58.9695-29.3416C195.1651,175.4888,197.5175,176,200,176c11.0271,0,20-8.9728,20-20
		C220,147.6576,214.8563,140.5084,207.5811,137.5136z M176,89.6056c0,16.4792-6.1133,31.5304-16.1377,43.1084
		C159.8955,131.806,160,130.9164,160,130c0-27.8788-15.5073-52.1868-38.3381-64.8016C125.6643,64.4376,129.78,64,134,64
		c15.5051,0,29.7507,5.4108,41.028,14.3956C175.6607,82.0548,176,85.8,176,89.6056z M44.972,78.3952
		C56.2491,69.4104,70.4947,64,86,64c4.22,0,8.3355,0.4376,12.3379,1.1984C75.5071,77.8132,60,102.1212,60,130
		c0,0.9164,0.1043,1.806,0.1375,2.7141C50.1131,121.136,44,106.0848,44,89.6056C44,85.8,44.3391,82.0548,44.972,78.3952z
		 M150.9671,141.2556c-11.268,8.9564-25.4892,14.35-40.9671,14.35c-15.4781,0-29.6993-5.3936-40.9673-14.35
		C68.3987,137.59,68,133.844,68,130c0-27.9176,17.4539-51.7872,42-61.4156c24.5459,9.6284,42,33.498,42,61.4156
		C152,133.844,151.6011,137.59,150.9671,141.2556z M110,163.6056c13.7891,0,26.6627-3.86,37.7263-10.4544
		c-6.584,17.4904-20.35,31.448-37.7263,38.2644c-17.3765-6.8164-31.1425-20.774-37.7265-38.2644
		C83.3371,159.7457,96.2107,163.6056,110,163.6056z M110,8c7.7187,0,14,6.2812,14,14c0,7.7188-6.2813,14-14,14
		c-7.7189,0-14-6.2812-14-14C96,14.2812,102.2811,8,110,8z M88.6419,27.1816C90.9819,36.8148,99.6583,44,110,44
		c10.3403,0,19.0167-7.1844,21.3571-16.816c18.912,6.4624,33.5528,21.1116,40.3864,39.2804C160.676,59.864,147.796,56,134,56
		c-8.4085,0-16.4617,1.4776-24,4.0728C102.4615,57.4776,94.4083,56,86,56c-13.7957,0-26.6753,3.8636-37.7429,10.4636
		C55.0915,48.296,69.732,33.6476,88.6419,27.1816z M8,156c0-5.5104,3.7535-10.1163,8.8231-11.5191
		c0.1904,0.0016,0.3696,0.0604,0.5636,0.0348c0.3493-0.0528,0.6444-0.214,0.954-0.348C18.888,144.0912,19.432,144,20,144
		c6.6171,0,12,5.3828,12,12c0,6.6172-5.3829,12-12,12C13.3827,168,8,162.6172,8,156z M86,196
		c-20.4549,0-39.7045-9.5168-52.1797-25.6048C37.6127,166.7533,40,161.66,40,156c0-10.9236-8.8125-19.8027-19.6973-19.9696
		C20.1215,134.0264,20,132.0136,20,130c0-16.466,6.1027-31.5068,16.1123-43.0812C36.08,87.8156,36,88.7028,36,89.6056
		c0,22.3268,9.9803,42.3292,25.6655,55.9084c4.5468,21.2168,18.2012,39.0816,36.6724,49.2876C94.3355,195.5624,90.22,196,86,196z
		 M134,196c-4.22,0-8.3357-0.4376-12.3381-1.1984c18.4712-10.206,32.1256-28.0708,36.6724-49.2876
		C174.0195,131.9348,184,111.9324,184,89.6056c0-0.9028-0.08-1.79-0.1125-2.6868C193.8967,98.4932,200,113.534,200,130
		c0,2.0069-0.1245,4.0232-0.3061,6.0312C188.8103,136.1992,180,145.0772,180,156c0,5.6564,2.3831,10.7464,6.1711,14.388
		C173.7007,186.4656,154.4187,196,134,196z M200,168c-6.6173,0-12-5.3828-12-12c0-6.6172,5.3827-12,12-12c6.6171,0,12,5.3828,12,12
		C212,162.6172,206.6171,168,200,168z"/>
</g>
</svg>
