<?xml version="1.0" encoding="utf-8"?>
<!-- Generator: Adobe Illustrator 19.2.0, SVG Export Plug-In . SVG Version: 6.00 Build 0)  -->
<svg version="1.1" id="chemicalconnection" xmlns="http://www.w3.org/2000/svg" xmlns:xlink="http://www.w3.org/1999/xlink" x="0px"
	 y="0px" viewBox="0 0 224 172" enable-background="new 0 0 224 172" xml:space="preserve">
<g>
	<path fill="none" d="M152,8c-4.412,0-8,3.5901-8,8c0,4.4101,3.588,8,8,8s8-3.5899,8-8C160,11.5901,156.412,8,152,8z"/>
	<path fill="none" d="M32,68c0-6.6171-5.3828-12-12-12c-6.6172,0-12,5.3829-12,12c0,6.6173,5.3828,12,12,12
		C26.6172,80,32,74.6173,32,68z"/>
	<circle fill="none" cx="132" cy="56" r="4"/>
	<path fill="none" d="M46,104c-9.9256,0-18,8.0745-18,18c0,9.9257,8.0744,18,18,18c9.9256,0,18-8.0743,18-18
		C64,112.0745,55.9256,104,46,104z"/>
	<path fill="none" d="M216,24c0-6.6171-5.3828-12-12-12c-6.6172,0-12,5.3829-12,12c0,6.6173,5.3828,12,12,12
		C210.6172,36,216,30.6173,216,24z"/>
	<path fill="none" d="M172,94c0,9.9257,8.0744,18,18,18c9.9256,0,18-8.0743,18-18c0-9.9255-8.0744-18-18-18
		C180.0744,76,172,84.0745,172,94z"/>
	<path fill="none" d="M124,116c-13.2344,0-24,10.7657-24,24c0,13.2345,10.7656,24,24,24c13.2344,0,24-10.7655,24-24
		C148,126.7657,137.2344,116,124,116z"/>
	<path d="M224,24c0-11.0271-8.9728-20-20-20c-9.184,0-16.8612,6.2581-19.1988,14.7085l-16.8504-2.2212
		C167.956,16.3217,168,16.1669,168,16c0-8.8243-7.1776-16-16-16c-8.8224,0-16,7.1757-16,16c0,4.1369,1.6188,7.8757,4.204,10.7185
		l-6.9628,17.4072C132.8272,44.0825,132.4252,44,132,44c-6.6172,0-12,5.3829-12,12c0,6.6173,5.3828,12,12,12
		c6.6172,0,12-5.3827,12-12c0-3.3011-1.3412-6.2935-3.5052-8.4651l6.5588-16.3972C148.6208,31.652,150.2632,32,152,32
		c5.794,0,10.8312-3.1255,13.6388-7.7499l18.6348,2.4564c1.0848,7.904,6.7556,14.2928,14.2724,16.442L189.2116,68.04
		C175.242,68.4621,164,79.9301,164,94c0,5.7101,1.8724,10.9789,5.0048,15.2729l-17.6864,14.1492
		C145.6976,114.1949,135.5716,108,124,108c-16.2568,0-29.6916,12.196-31.7088,27.9133l-21.4104-6.3908
		C71.6028,127.1389,72,124.6157,72,122c0-14.336-11.664-26-26-26c-3.2464,0-6.3432,0.6245-9.2108,1.7165l-4.646-13.9368
		C36.8868,80.1193,40,74.4409,40,68c0-11.0271-8.9728-20-20-20C8.9728,48,0,56.9729,0,68c0,11.0273,8.9728,20,20,20
		c1.6964,0,3.3172-0.2767,4.8912-0.6763l4.8152,14.4456C23.7952,106.5393,20,113.8313,20,122c0,14.336,11.664,26,26,26
		c8.832,0,16.6384-4.436,21.3396-11.1875l23.516,7.0195c0.3828,0.1133,0.7676,0.168,1.1464,0.168
		c0.0924,0,0.1776-0.0371,0.2688-0.0435C94.2296,159.7373,107.6976,172,124,172c17.6444,0,32-14.3555,32-32
		c0-3.1347-0.4728-6.1575-1.3168-9.0227l19.8148-15.8524c0.0656-0.0524,0.0936-0.1296,0.1552-0.1852
		C178.9604,118.1057,184.2568,120,190,120c14.336,0,26-11.664,26-26c0-11.7751-7.8756-21.7335-18.6312-24.9203l9.514-25.3712
		C216.5376,42.2969,224,34.0405,224,24z M132,60c-2.2052,0-4-1.7927-4-4c0-2.2071,1.7948-4,4-4c2.2052,0,4,1.7929,4,4
		C136,58.2073,134.2052,60,132,60z M152,24c-4.412,0-8-3.5899-8-8c0-4.4099,3.588-8,8-8s8,3.5901,8,8C160,20.4101,156.412,24,152,24
		z M8,68c0-6.6171,5.3828-12,12-12c6.6172,0,12,5.3829,12,12c0,6.6173-5.3828,12-12,12C13.3828,80,8,74.6173,8,68z M46,140
		c-9.9256,0-18-8.0743-18-18c0-9.9255,8.0744-18,18-18c9.9256,0,18,8.0745,18,18C64,131.9257,55.9256,140,46,140z M124,164
		c-13.2344,0-24-10.7655-24-24c0-13.2343,10.7656-24,24-24c13.2344,0,24,10.7657,24,24C148,153.2345,137.2344,164,124,164z M192,24
		c0-6.6171,5.3828-12,12-12c6.6172,0,12,5.3829,12,12c0,6.6173-5.3828,12-12,12C197.3828,36,192,30.6173,192,24z M208,94
		c0,9.9257-8.0744,18-18,18c-9.9256,0-18-8.0743-18-18c0-9.9255,8.0744-18,18-18C199.9256,76,208,84.0745,208,94z"/>
</g>
</svg>
