<?xml version="1.0" encoding="utf-8"?>
<!-- Generator: Adobe Illustrator 19.2.0, SVG Export Plug-In . SVG Version: 6.00 Build 0)  -->
<svg version="1.1" id="chipboard" xmlns="http://www.w3.org/2000/svg" xmlns:xlink="http://www.w3.org/1999/xlink" x="0px" y="0px"
	 viewBox="0 0 232 232" enable-background="new 0 0 232 232" xml:space="preserve">
<g>
	<circle fill="none" cx="160" cy="12" r="4"/>
	<circle fill="none" cx="72" cy="12" r="4"/>
	<circle fill="none" cx="12" cy="160" r="4"/>
	<circle fill="none" cx="72" cy="220" r="4"/>
	<circle fill="none" cx="12" cy="72" r="4"/>
	<circle fill="none" cx="220" cy="72" r="4"/>
	<path fill="none" d="M76,76v80h80V76H76z M148,144c0,2.2108-1.7912,4-4,4H88c-2.2088,0-4-1.7892-4-4V88c0-2.2108,1.7912-4,4-4h56
		c2.2088,0,4,1.7892,4,4V144z"/>
	<circle fill="none" cx="220" cy="160" r="4"/>
	<circle fill="none" cx="160" cy="220" r="4"/>
	<rect x="92" y="92" fill="none" width="48" height="48"/>
	<path d="M144,84H88c-2.2088,0-4,1.7892-4,4v56c0,2.2108,1.7912,4,4,4h56c2.2088,0,4-1.7892,4-4V88C148,85.7892,146.2088,84,144,84z
		 M140,140H92V92h48V140z"/>
	<path d="M220,148c-5.2076,0-9.6064,3.354-11.2628,8H164V76h44.7372c1.6564,4.646,6.0552,8,11.2628,8c6.6172,0,12-5.3828,12-12
		c0-6.6172-5.3828-12-12-12c-5.2076,0-9.6064,3.354-11.2628,8H164V23.2628c4.646-1.6564,8-6.0552,8-11.2628
		c0-6.6172-5.3828-12-12-12c-6.6172,0-12,5.3828-12,12c0,5.2076,3.354,9.6064,8,11.2628V68H76V23.2628
		c4.646-1.6564,8-6.0552,8-11.2628c0-6.6172-5.3828-12-12-12S60,5.3828,60,12c0,5.2076,3.354,9.6064,8,11.2628V68H23.2628
		C21.6064,63.354,17.2076,60,12,60C5.3828,60,0,65.3828,0,72c0,6.6172,5.3828,12,12,12c5.2076,0,9.6064-3.354,11.2628-8H68v80
		H23.2628c-1.6564-4.646-6.0552-8-11.2628-8c-6.6172,0-12,5.3828-12,12s5.3828,12,12,12c5.2076,0,9.6064-3.354,11.2628-8H68v44.7372
		c-4.646,1.6564-8,6.0552-8,11.2628c0,6.6172,5.3828,12,12,12s12-5.3828,12-12c0-5.2076-3.354-9.6064-8-11.2628V164h80v44.7372
		c-4.646,1.6564-8,6.0552-8,11.2628c0,6.6172,5.3828,12,12,12c6.6172,0,12-5.3828,12-12c0-5.2076-3.354-9.6064-8-11.2628V164
		h44.7372c1.6564,4.646,6.0552,8,11.2628,8c6.6172,0,12-5.3828,12-12S226.6172,148,220,148z M12,76c-2.2052,0-4-1.7928-4-4
		c0-2.2072,1.7948-4,4-4s4,1.7928,4,4C16,74.2072,14.2052,76,12,76z M220,68c2.2052,0,4,1.7928,4,4c0,2.2072-1.7948,4-4,4
		c-2.2052,0-4-1.7928-4-4C216,69.7928,217.7948,68,220,68z M160,8c2.2052,0,4,1.7928,4,4c0,2.2072-1.7948,4-4,4
		c-2.2052,0-4-1.7928-4-4C156,9.7928,157.7948,8,160,8z M72,8c2.2052,0,4,1.7928,4,4c0,2.2072-1.7948,4-4,4s-4-1.7928-4-4
		C68,9.7928,69.7948,8,72,8z M12,164c-2.2052,0-4-1.7928-4-4s1.7948-4,4-4s4,1.7928,4,4S14.2052,164,12,164z M72,224
		c-2.2052,0-4-1.7928-4-4s1.7948-4,4-4s4,1.7928,4,4S74.2052,224,72,224z M76,156V76h80v80H76z M160,224c-2.2052,0-4-1.7928-4-4
		s1.7948-4,4-4c2.2052,0,4,1.7928,4,4S162.2052,224,160,224z M220,164c-2.2052,0-4-1.7928-4-4s1.7948-4,4-4c2.2052,0,4,1.7928,4,4
		S222.2052,164,220,164z"/>
</g>
</svg>
