<?xml version="1.0" encoding="utf-8"?>
<!-- Generator: Adobe Illustrator 19.2.0, SVG Export Plug-In . SVG Version: 6.00 Build 0)  -->
<svg version="1.1" id="chippinpoint" xmlns="http://www.w3.org/2000/svg" xmlns:xlink="http://www.w3.org/1999/xlink" x="0px"
	 y="0px" viewBox="0 0 220 216" enable-background="new 0 0 220 216" xml:space="preserve">
<g>
	<path fill="none" d="M108,60c-19.8496,0-36,16.1484-36,36c0,15.4688,23.7772,44.7304,36,58.1328
		c12.2228-13.4064,36-42.6796,36-58.1328C144,76.1484,127.8496,60,108,60z"/>
	<path fill="none" d="M164.0392,40H160h-8h-24h-8H96h-8H64h-8h-4.0392C45.3652,40,40,45.3672,40,51.9608V64v8v20v8v20v8v20v8v8.0392
		C40,170.6328,45.3652,176,51.9608,176H56h8h24h8h24h8h24h8h4.0392C170.6348,176,176,170.6328,176,164.0392V51.9608
		C176,45.3672,170.6348,40,164.0392,40z M110.8944,162.7616C110.1388,163.5508,109.0936,164,108,164
		c-1.0936,0-2.1388-0.4492-2.8944-1.2384C103.4276,161.004,64,119.422,64,96c0-24.2616,19.7384-44,44-44c24.2616,0,44,19.7384,44,44
		C152,119.422,112.5724,161.004,110.8944,162.7616z"/>
	<path d="M220,72v-8h-36V51.9608C184,40.9532,175.0448,32,164.0392,32H160V0h-8v32h-24V0h-8v32H96V0h-8v32H64V0h-8v32h-4.0392
		C40.9552,32,32,40.9532,32,51.9608V64H0v8h32v20H0v8h32v20H0v8h32v20H0v8h32v8.0392C32,175.0468,40.9552,184,51.9608,184H56v32h8
		v-32h24v32h8v-32h24v32h8v-32h24v32h8v-32h4.0392C175.0448,184,184,175.0468,184,164.0392V156h36v-8h-36v-20h36v-8h-36v-20h36v-8
		h-36V72H220z M176,164.0392C176,170.6328,170.6348,176,164.0392,176H160h-8h-24h-8H96h-8H64h-8h-4.0392
		C45.3652,176,40,170.6328,40,164.0392V156v-8v-20v-8v-20v-8V72v-8V51.9608C40,45.3672,45.3652,40,51.9608,40H56h8h24h8h24h8h24h8
		h4.0392C170.6348,40,176,45.3672,176,51.9608V164.0392z"/>
	<path d="M108,52c-24.2616,0-44,19.7384-44,44c0,23.422,39.4276,65.004,41.1056,66.7616C105.8612,163.5508,106.9064,164,108,164
		c1.0936,0,2.1388-0.4492,2.8944-1.2384C112.5724,161.004,152,119.422,152,96C152,71.7384,132.2616,52,108,52z M108,154.1328
		C95.7772,140.7304,72,111.4688,72,96c0-19.8516,16.1504-36,36-36c19.8496,0,36,16.1484,36,36
		C144,111.4532,120.2228,140.7264,108,154.1328z"/>
</g>
</svg>
