<?xml version="1.0" encoding="utf-8"?>
<!-- Generator: Adobe Illustrator 19.2.0, SVG Export Plug-In . SVG Version: 6.00 Build 0)  -->
<svg version="1.1" id="circlearrows" xmlns="http://www.w3.org/2000/svg" xmlns:xlink="http://www.w3.org/1999/xlink" x="0px"
	 y="0px" viewBox="0 0 216 149.9233" enable-background="new 0 0 216 149.9233" xml:space="preserve">
<path d="M216,73.5093c0-30.8787-25.1212-56-56-56s-56,25.1213-56,56c0,26.4669-21.5332,48-48,48s-48-21.5331-48-48
	c0-24.978,19.1852-45.5399,43.5896-47.7763L38.7772,47.9233c-1.1032,1.9145-0.4492,4.3596,1.4648,5.4653
	c0.6312,0.3632,1.3184,0.5347,1.9964,0.5347c1.3828,0,2.7264-0.7167,3.4688-2l16.8084-29.1132
	c1.1036-1.914,0.4492-4.3591-1.4648-5.4647L31.9376,0.537c-1.92-1.1056-4.3616-0.4492-5.4648,1.4648
	c-1.1036,1.9139-0.4492,4.3592,1.4648,5.4647l18.828,10.8713C20.2748,22.7613,0,45.7826,0,73.5093c0,30.8793,25.1212,56,56,56
	s56-25.1207,56-56c0-26.4667,21.5332-48,48-48s48,21.5333,48,48c0,25.754-20.4048,46.7765-45.8888,47.8933l11.2012-19.4008
	c1.1036-1.914,0.4492-4.3596-1.4648-5.4648c-1.92-1.1096-4.3592-0.4476-5.4648,1.4648l-16.8084,29.1132
	c-1.1036,1.9139-0.4492,4.3592,1.4648,5.4647l29.1132,16.8089c0.6308,0.3632,1.3184,0.5347,1.996,0.5347
	c1.3828,0,2.7268-0.7167,3.4688-2c1.1036-1.914,0.4492-4.3591-1.4648-5.4647l-22.5672-13.0292
	C191.7272,128.5793,216,103.8533,216,73.5093z"/>
</svg>
