<?xml version="1.0" encoding="utf-8"?>
<!-- Generator: Adobe Illustrator 19.2.0, SVG Export Plug-In . SVG Version: 6.00 Build 0)  -->
<svg version="1.1" id="cityhall" xmlns="http://www.w3.org/2000/svg" xmlns:xlink="http://www.w3.org/1999/xlink" x="0px" y="0px"
	 viewBox="0 0 228 212" enable-background="new 0 0 228 212" xml:space="preserve">
<g>
	<path d="M226.2188,148.672L204,133.8592V92c0-2.2108-1.7912-4-4-4h-16V72c0-2.2108-1.7912-4-4-4h-32.2228
		C145.9632,50.7208,132.5556,37.1348,116,36.1076V28h24c2.2088,0,4-1.7892,4-4V4c0-2.2108-1.7912-4-4-4h-24h-4h-4v4v20v12.596
		C93.3252,39.3784,81.888,52.1356,80.2228,68H48c-2.2088,0-4,1.7892-4,4v16H28c-2.2088,0-4,1.7892-4,4v41.8592L1.7812,148.672
		C0.668,149.414,0,150.664,0,152v56c0,2.2108,1.7912,4,4,4h24h24h16h20h16h20h16h20h16h24h24c2.2088,0,4-1.7892,4-4v-56
		C228,150.664,227.332,149.414,226.2188,148.672z M116,8h20v12h-20V8z M114,44c13.0716,0,23.8912,10.4552,25.7032,24H88.2968
		C90.1088,54.4552,100.9284,44,114,44z M52,76h124v12H52V76z M8,154.1408l16-10.668V204H8V154.1408z M32,136V96h16h132h16v40v68h-16
		v-56c0-2.2108-1.7912-4-4-4h-16c-2.2088,0-4,1.7892-4,4v56h-12v-56c0-2.2108-1.7912-4-4-4h-16c-2.2088,0-4,1.7892-4,4v56h-12v-56
		c0-2.2108-1.7912-4-4-4H88c-2.2088,0-4,1.7892-4,4v56H72v-56c0-2.2108-1.7912-4-4-4H52c-2.2088,0-4,1.7892-4,4v56H32V136z M56,204
		v-52h8v52H56z M92,204v-52h8v52H92z M128,204v-52h8v52H128z M164,204v-52h8v52H164z M220,204h-16v-60.5272l16,10.668V204z"/>
	<path d="M52,132h16c2.2088,0,4-1.7892,4-4v-16c0-2.2108-1.7912-4-4-4H52c-2.2088,0-4,1.7892-4,4v16C48,130.2108,49.7912,132,52,132
		z M56,116h8v8h-8V116z"/>
	<path d="M88,132h16c2.2088,0,4-1.7892,4-4v-16c0-2.2108-1.7912-4-4-4H88c-2.2088,0-4,1.7892-4,4v16C84,130.2108,85.7912,132,88,132
		z M92,116h8v8h-8V116z"/>
	<path d="M124,132h16c2.2088,0,4-1.7892,4-4v-16c0-2.2108-1.7912-4-4-4h-16c-2.2088,0-4,1.7892-4,4v16
		C120,130.2108,121.7912,132,124,132z M128,116h8v8h-8V116z"/>
	<path d="M160,132h16c2.2088,0,4-1.7892,4-4v-16c0-2.2108-1.7912-4-4-4h-16c-2.2088,0-4,1.7892-4,4v16
		C156,130.2108,157.7912,132,160,132z M164,116h8v8h-8V116z"/>
</g>
</svg>
