<?xml version="1.0" encoding="utf-8"?>
<!-- Generator: Adobe Illustrator 19.2.0, SVG Export Plug-In . SVG Version: 6.00 Build 0)  -->
<svg version="1.1" id="clock" xmlns="http://www.w3.org/2000/svg" xmlns:xlink="http://www.w3.org/1999/xlink" x="0px" y="0px"
	 viewBox="0 0 224 224.492" enable-background="new 0 0 224 224.492" xml:space="preserve">
<g>
	<path fill="none" d="M112,104c-4.4101,0-8,3.59-8,8s3.5899,8,8,8c4.4099,0,8-3.59,8-8S116.4099,104,112,104z"/>
	<path fill="none" d="M196,108h19.8987c-0.9768-25.6616-11.284-48.964-27.6328-66.61l-8.5904,8.5904l-5.656-5.656l8.5904-8.5904
		C164.964,19.3852,141.6615,9.078,116,8.1012V24.492h-8V8.1012c-24.6545,0.9384-47.1249,10.4944-64.5005,25.742l8.4808,8.4812
		l-5.656,5.656l-8.638-8.638C20.2099,57.2132,9.1163,81.332,8.1011,108H28v8H8.1011c0.9384,24.6544,10.4944,47.1248,25.742,64.5004
		l10.4812-10.4808l5.656,5.656l-10.638,10.638C57.2131,203.79,81.332,214.8836,108,215.8988V200h8v15.8988
		c25.6615-0.9768,48.964-11.284,66.6099-27.6328l-10.5904-10.5904l5.656-5.656l10.5904,10.5904
		c16.3488-17.646,26.656-40.9484,27.6328-66.61H196V108z M164,169.6564l-43.9229-43.9232C117.6975,127.1384,114.9587,128,112,128
		c-8.8245,0-16-7.1756-16-16c0-7.4348,5.1179-13.6436,12-15.432V35.8672h8V96.568c6.8819,1.7884,12,7.9972,12,15.432
		c0,2.9588-0.8617,5.6976-2.2669,8.0772L169.6563,164L164,169.6564z"/>
	<path d="M128,112c0-7.4348-5.1181-13.6436-12-15.432V35.8672h-8V96.568c-6.8821,1.7884-12,7.9972-12,15.432
		c0,8.8244,7.1755,16,16,16c2.9587,0,5.6975-0.8616,8.0771-2.2668L164,169.6564L169.6563,164l-43.9232-43.9228
		C127.1383,117.6976,128,114.9588,128,112z M112,120c-4.4101,0-8-3.59-8-8s3.5899-8,8-8c4.4099,0,8,3.59,8,8S116.4099,120,112,120z"
		/>
	<path d="M223.8983,108C221.8283,49.4208,174.5791,2.1716,116,0.1016V0h-8v0.1016C49.4207,2.1716,2.1715,49.4208,0.1015,108H0v8
		h0.1015C2.1715,174.5792,49.4207,221.8284,108,223.8984v0.5936h8v-0.5936c58.5791-2.07,105.8283-49.3192,107.8983-107.8984H224v-8
		H223.8983z M188.2659,182.61l-10.5904-10.5904l-5.656,5.656l10.5904,10.5904C164.964,204.6148,141.6615,214.922,116,215.8988V200
		h-8v15.8988c-26.668-1.0152-50.7869-12.1088-68.6577-29.5852l10.638-10.638l-5.656-5.656l-10.4812,10.4808
		C18.5955,163.1248,9.0395,140.6544,8.1011,116H28v-8H8.1011c1.0152-26.668,12.1088-50.7868,29.5852-68.6576l8.638,8.638
		l5.656-5.656l-8.4808-8.4812C60.8751,18.5956,83.3455,9.0396,108,8.1012V24.492h8V8.1012
		c25.6615,0.9768,48.964,11.284,66.6099,27.6328l-8.5904,8.5904l5.656,5.656l8.5904-8.5904
		c16.3488,17.646,26.656,40.9484,27.6328,66.61H196v8h19.8987C214.9219,141.6616,204.6147,164.964,188.2659,182.61z"/>
</g>
</svg>
