<?xml version="1.0" encoding="utf-8"?>
<!-- Generator: Adobe Illustrator 19.2.0, SVG Export Plug-In . SVG Version: 6.00 Build 0)  -->
<svg version="1.1" id="cloudorganism" xmlns="http://www.w3.org/2000/svg" xmlns:xlink="http://www.w3.org/1999/xlink" x="0px"
	 y="0px" viewBox="0 0 228 212" enable-background="new 0 0 228 212" xml:space="preserve">
<g>
	<path fill="none" d="M198.4064,85.1916c-1.9632-0.5724-3.18-2.5332-2.8184-4.5452C195.8612,79.1212,196,77.5584,196,76
		c0-13.2344-9.8692-24-22-24c-0.9316,0-1.8496,0.0644-2.75,0.1856c-1.9256,0.2636-3.7052-0.8612-4.3244-2.668
		C164.1584,41.4316,156.5528,36,148,36c-0.4748,0-0.9432,0.0156-1.41,0.0488c-1.418,0.086-2.7464-0.5448-3.5508-1.6896
		c-0.8068-1.1464-0.9532-2.6308-0.3888-3.914C143.5448,28.412,144,26.244,144,24c0-8.8224-7.1776-16-16-16
		c-4.2148,0-8.1916,1.6248-11.1992,4.5724c-1.5548,1.5272-4.0468,1.5272-5.6016,0C108.1916,9.6248,104.2148,8,100,8
		c-8.8224,0-16,7.1776-16,16c0,2.4588,0.5412,4.8164,1.6092,7.006c0.6856,1.4024,0.4924,3.074-0.496,4.2832
		c-0.9844,1.2068-2.58,1.7304-4.0976,1.3436C79.3888,36.2128,77.7012,36,76,36c-8.4688,0-16.0488,5.3612-18.8652,13.34
		c-0.5508,1.5624-2.0096,2.6228-3.668,2.666C41.6308,52.3144,32,63.078,32,76c0,1.5584,0.1388,3.1212,0.412,4.6464
		c0.3616,2.012-0.8552,3.9728-2.8184,4.5452C16.8788,88.8944,8,100.742,8,114c0,16.2384,13.2032,29.6932,29.4296,29.994
		c1.416,0.0276,2.7128,0.8008,3.4104,2.0352c0.6952,1.2324,0.6872,2.7424-0.0236,3.9688C37.666,155.4432,36,161.668,36,168
		c0,19.8496,16.1504,36,36,36c10.5412,0,20.5196-4.6016,27.3768-12.6232c1.084-1.2656,2.84-1.7244,4.4024-1.162
		c6.5432,2.3712,13.8984,2.3712,20.4416,0c0.4452-0.16,0.9044-0.2384,1.3612-0.2384c1.1464,0,2.2656,0.4944,3.0412,1.4004
		C135.4804,199.3984,145.4588,204,156,204c19.8496,0,36-16.1504,36-36c0-6.332-1.666-12.5568-4.8164-18.002
		c-0.7108-1.2264-0.7188-2.7364-0.0236-3.9688c0.6976-1.2344,1.9944-2.0076,3.4104-2.0352C206.7968,143.6932,220,130.2384,220,114
		C220,100.742,211.1212,88.8944,198.4064,85.1916z M128.2948,39.7792c4.6896,16.7268,16.6232,22.4296,32.9728,28.6584L158.42,75.914
		c-17.338-6.6056-32.1504-13.7224-37.8284-33.9744L128.2948,39.7792z M99.7052,39.7792l7.7032,2.1604
		C101.7304,62.1916,86.918,69.3084,69.58,75.914l-2.8476-7.4764C83.082,62.2088,95.0156,56.506,99.7052,39.7792z M57.338,105.0724
		c-0.6432,3.3524-1.1436,6.396-1.552,9.1492l0.132,0.2372l-0.1856,0.1036c-1.3128,8.9472-1.52,14.3916-1.5216,14.4628
		l-0.1364,3.9964l-7.9924-0.2676l0.1328-3.996c0.0084-0.2432,0.1492-3.9132,0.8952-10.0968
		c-3.3972,1.1692-8.154,2.3524-13.6216,2.3524c-2.9552,0-6.1056-0.3456-9.342-1.2264l-3.8592-1.0508l2.1016-7.7188l3.8592,1.0508
		c11.1112,3.0312,21.214-2.0888,22.184-2.5996c0.3088-1.8664,0.6508-3.8204,1.0504-5.9044
		c2.7948-14.5528,17.8244-17.8064,25.4472-17.492l3.996,0.166l-0.332,7.992l-3.9844-0.166
		C74.008,94.0604,59.5272,93.67,57.338,105.0724z M87.3416,157.2168c-8.2988,12.754-14.3808,20.1328-14.6364,20.4396l-2.5488,3.08
		l-6.1624-5.0996l2.5488-3.082c0.0608-0.0724,6.0684-7.3672,14.094-19.7012c5.8692-9.0176-0.2128-14.594-1.4924-15.6192
		l-3.0916-2.4804l4.8788-6.252l3.1348,2.4256C88.756,134.5568,95.4764,144.7208,87.3416,157.2168z M89.4296,107.6288l-0.9784-3.8788
		l7.7576-1.9572l0.9748,3.8656c0.0664,0.248,2.6288,9.4472,10.92,12.8336l3.7032,1.512l-3.0236,7.406l-3.7032-1.5116
		C92.912,120.9296,89.5664,108.17,89.4296,107.6288z M123.5292,171.3244c-4.576-5.4668-6.2872-7.514-16.4432-0.3828l-4.5956-6.5472
		c13.6716-9.5956,19.8788-6.9196,27.1716,1.7932L123.5292,171.3244z M122.92,125.8984l-3.7032,1.5116l-3.0236-7.406l3.7032-1.512
		c8.4648-3.4568,10.8928-12.7264,10.916-12.82l0.9788-3.8792l7.7576,1.9572l-0.9784,3.8788
		C138.4336,108.17,135.088,120.9296,122.92,125.8984z M157.8456,180.7384l-2.5508-3.082
		c-0.2556-0.3068-6.3376-7.6856-14.6384-20.4396c-8.1328-12.496-1.4124-22.66,3.2772-26.2892l3.164-2.4472l4.8944,6.328
		l-3.1444,2.4336c-1.2988,1.0432-7.3416,6.6136-1.4864,15.6116c8.0528,12.3728,14.0352,19.6288,14.094,19.7012l2.5528,3.08
		L157.8456,180.7384z M203.8536,119.7872c-3.2364,0.8808-6.3888,1.2264-9.342,1.2264c-5.468,0-10.2248-1.1824-13.6216-2.352
		c0.746,6.1832,0.8868,9.8532,0.8952,10.0964l0.1328,3.996l-7.9924,0.2676l-0.1364-3.9964
		c-0.0016-0.0712-0.2088-5.5156-1.5216-14.4628l-0.1856-0.1036l0.132-0.2372c-0.4084-2.7532-0.9088-5.7968-1.552-9.1492
		c-2.2088-11.498-17.1228-11.0196-17.2596-11.008l-3.996,0.166l-0.332-7.992l3.996-0.166
		c7.6484-0.3128,22.6544,2.9372,25.4472,17.492c0.3996,2.084,0.7416,4.0372,1.0504,5.9024
		c1.0424,0.5404,11.2084,5.5888,22.184,2.6016l3.8592-1.0508l2.1016,7.7188L203.8536,119.7872z"/>
	<path d="M228,114c0-15.6368-9.754-29.7228-24.0996-35.3752C203.9668,77.75,204,76.8748,204,76
		c0.002-17.8888-13.9588-32.4316-30.6896-31.992c-4.072-8.6016-12.2616-14.5472-21.6816-15.7736
		C151.8752,26.8476,152,25.4336,152,24c0-13.2344-10.7656-24-24-24c-5.088,0-9.9452,1.578-14,4.5c-4.0548-2.922-8.912-4.5-14-4.5
		C86.7656,0,76,10.7656,76,24c0,1.3556,0.1092,2.6916,0.33,4.002c-11.2168-0.1524-21.1348,6.3084-25.7284,16.1972
		C35.4844,45.9824,24,59.4452,24,76c0,0.8748,0.0332,1.75,0.0996,2.6248C9.754,84.2772,0,98.3632,0,114
		c0,18.5116,13.5488,34.17,31.246,37.3924C29.1112,156.6388,28,162.2852,28,168c0,24.2616,19.7384,44,44,44
		c11.9824,0,23.3692-4.8632,31.6444-13.4296c6.7148,1.8984,13.9964,1.8984,20.7112,0C132.6308,207.1368,144.0176,212,156,212
		c24.2616,0,44-19.7384,44-44c0-5.7148-1.1112-11.3612-3.246-16.6076C214.4512,148.17,228,132.5116,228,114z M190.5704,143.994
		c-1.416,0.0276-2.7128,0.8008-3.4104,2.0352c-0.6952,1.2324-0.6872,2.7424,0.0236,3.9688C190.334,155.4432,192,161.668,192,168
		c0,19.8496-16.1504,36-36,36c-10.5412,0-20.5196-4.6016-27.3768-12.6232c-0.7756-0.906-1.8948-1.4004-3.0412-1.4004
		c-0.4568,0-0.916,0.0784-1.3612,0.2384c-6.5432,2.3712-13.8984,2.3712-20.4416,0c-1.5624-0.5624-3.3184-0.1036-4.4024,1.162
		C92.5196,199.3984,82.5412,204,72,204c-19.8496,0-36-16.1504-36-36c0-6.332,1.666-12.5568,4.8164-18.002
		c0.7108-1.2264,0.7188-2.7364,0.0236-3.9688c-0.6976-1.2344-1.9944-2.0076-3.4104-2.0352C21.2032,143.6932,8,130.2384,8,114
		c0-13.258,8.8788-25.1056,21.5936-28.8084c1.9632-0.5724,3.18-2.5332,2.8184-4.5452C32.1388,79.1212,32,77.5584,32,76
		c0-12.922,9.6308-23.6856,21.4668-23.994c1.6584-0.0432,3.1172-1.1036,3.668-2.666C59.9512,41.3612,67.5312,36,76,36
		c1.7012,0,3.3888,0.2128,5.0156,0.6328c1.5176,0.3868,3.1132-0.1368,4.0976-1.3436c0.9884-1.2092,1.1816-2.8808,0.496-4.2832
		C84.5412,28.8164,84,26.4588,84,24c0-8.8224,7.1776-16,16-16c4.2148,0,8.1916,1.6248,11.1992,4.5724
		c1.5548,1.5272,4.0468,1.5272,5.6016,0C119.8084,9.6248,123.7852,8,128,8c8.8224,0,16,7.1776,16,16
		c0,2.244-0.4552,4.412-1.3496,6.4452c-0.5644,1.2832-0.418,2.7676,0.3888,3.914c0.8044,1.1448,2.1328,1.7756,3.5508,1.6896
		C147.0568,36.0156,147.5252,36,148,36c8.5528,0,16.1584,5.4316,18.9256,13.5176c0.6192,1.8068,2.3988,2.9316,4.3244,2.668
		C172.1504,52.0644,173.0684,52,174,52c12.1308,0,22,10.7656,22,24c0,1.5584-0.1388,3.1212-0.412,4.6464
		c-0.3616,2.012,0.8552,3.9728,2.8184,4.5452C211.1212,88.8944,220,100.742,220,114
		C220,130.2384,206.7968,143.6932,190.5704,143.994z"/>
	<path d="M74.6092,94.0644l3.9844,0.166l0.332-7.992l-3.996-0.166c-7.6228-0.3144-22.6524,2.9392-25.4472,17.492
		c-0.3996,2.084-0.7416,4.038-1.0504,5.9044c-0.97,0.5108-11.0728,5.6308-22.184,2.5996l-3.8592-1.0508l-2.1016,7.7188
		l3.8592,1.0508c3.2364,0.8808,6.3868,1.2264,9.342,1.2264c5.4676,0,10.2244-1.1832,13.6216-2.3524
		c-0.746,6.1836-0.8868,9.8536-0.8952,10.0968l-0.1328,3.996l7.9924,0.2676l0.1364-3.9964
		c0.0016-0.0712,0.2088-5.5156,1.5216-14.4628l0.1856-0.1036l-0.132-0.2372c0.4084-2.7532,0.9088-5.7968,1.552-9.1492
		C59.5272,93.67,74.008,94.0604,74.6092,94.0644z"/>
	<path d="M84.0664,130.9276l-3.1348-2.4256l-4.8788,6.252l3.0916,2.4804c1.2796,1.0252,7.3616,6.6016,1.4924,15.6192
		c-8.0256,12.334-14.0332,19.6288-14.094,19.7012l-2.5488,3.082l6.1624,5.0996l2.5488-3.08
		c0.2556-0.3068,6.3376-7.6856,14.6364-20.4396C95.4764,144.7208,88.756,134.5568,84.0664,130.9276z"/>
	<path d="M108.7832,127.41l3.0236-7.406l-3.7032-1.512c-8.2912-3.3864-10.8536-12.5856-10.92-12.8336l-0.9748-3.8656l-7.7576,1.9572
		l0.9784,3.8788c0.1368,0.5412,3.4824,13.3008,15.6504,18.2696L108.7832,127.41z"/>
	<path d="M107.4084,41.9396l-7.7032-2.1604C95.0156,56.506,83.082,62.2088,66.7324,68.4376L69.58,75.914
		C86.918,69.3084,101.7304,62.1916,107.4084,41.9396z"/>
	<path d="M201.752,112.0684c-10.9756,2.9872-21.1416-2.0612-22.184-2.6016c-0.3088-1.8652-0.6508-3.8184-1.0504-5.9024
		c-2.7928-14.5548-17.7988-17.8048-25.4472-17.492l-3.996,0.166l0.332,7.992l3.996-0.166c0.1368-0.0116,15.0508-0.49,17.2596,11.008
		c0.6432,3.3524,1.1436,6.396,1.552,9.1492l-0.132,0.2372l0.1856,0.1036c1.3128,8.9472,1.52,14.3916,1.5216,14.4628l0.1364,3.9964
		l7.9924-0.2676l-0.1328-3.996c-0.0084-0.2432-0.1492-3.9132-0.8952-10.0964c3.3968,1.1696,8.1536,2.352,13.6216,2.352
		c2.9532,0,6.1056-0.3456,9.342-1.2264l3.8592-1.0508l-2.1016-7.7188L201.752,112.0684z"/>
	<path d="M147.3612,152.8536c-5.8552-8.998,0.1876-14.5684,1.4864-15.6116l3.1444-2.4336l-4.8944-6.328l-3.164,2.4472
		c-4.6896,3.6292-11.41,13.7932-3.2772,26.2892c8.3008,12.754,14.3828,20.1328,14.6384,20.4396l2.5508,3.082l6.1624-5.1036
		l-2.5528-3.08C161.3964,172.4824,155.414,165.2264,147.3612,152.8536z"/>
	<path d="M139.5488,103.75l-7.7576-1.9572l-0.9788,3.8792c-0.0232,0.0936-2.4512,9.3632-10.916,12.82l-3.7032,1.512l3.0236,7.406
		l3.7032-1.5116c12.168-4.9688,15.5136-17.7284,15.6504-18.2696L139.5488,103.75z"/>
	<path d="M158.42,75.914l2.8476-7.4764c-16.3496-6.2288-28.2832-11.9316-32.9728-28.6584l-7.7032,2.1604
		C126.2696,62.1916,141.082,69.3084,158.42,75.914z"/>
	<path d="M102.4904,164.3944l4.5956,6.5472c10.156-7.1312,11.8672-5.084,16.4432,0.3828l6.1328-5.1368
		C122.3692,157.4748,116.162,154.7988,102.4904,164.3944z"/>
</g>
</svg>
