<?xml version="1.0" encoding="utf-8"?>
<!-- Generator: Adobe Illustrator 19.2.0, SVG Export Plug-In . SVG Version: 6.00 Build 0)  -->
<svg version="1.1" id="cloud" xmlns="http://www.w3.org/2000/svg" xmlns:xlink="http://www.w3.org/1999/xlink" x="0px" y="0px"
	 viewBox="0 0 228 144" enable-background="new 0 0 228 144" xml:space="preserve">
<g>
	<path d="M174,36c-2.496,0-4.994,0.172-7.4608,0.5117C156.5252,14.2249,134.6756,0,110,0C82.42,0,58.4024,18.0253,50.5956,44.1897
		C38.0584,45.5957,27.756,54.672,24.8244,66.9805C9.8828,73.0997,0,87.6917,0,104c0,22.0569,17.9432,40,40,40h136
		c0.248,0,0.492-0.0235,0.7284-0.0683C205.5272,142.504,228,118.9221,228,90C228,60.2249,203.7752,36,174,36z M175.8416,135.9649
		c-0.1344,0.004-0.2672,0.0156-0.3984,0.0351H40c-17.6444,0-32-14.3555-32-32c0-13.6755,8.6856-25.8435,21.6112-30.2771
		c1.4044-0.4808,2.426-1.6976,2.6544-3.1644c1.668-10.6308,10.7032-18.4352,21.4804-18.5564
		c1.8224-0.0216,3.4004-1.2696,3.838-3.0372C63.5604,24.8457,85.1152,8,110,8c22.4492,0,42.2128,13.5157,50.3476,34.4337
		c0.7072,1.8143,2.6192,2.8632,4.5176,2.4728C167.8556,44.3049,170.9296,44,174,44c25.3652,0,46,20.6349,46,46
		C220,114.7989,200.6036,134.9885,175.8416,135.9649z"/>
	<path d="M157.916,72.4885l-44-24c-1.1952-0.6525-2.6368-0.6525-3.832,0l-44,24c-1.6056,0.8748-2.412,2.7284-1.9588,4.5
		C64.576,78.7597,66.172,80,68,80h12v44c0,2.2089,1.7912,4,4,4h16h24h16c2.2088,0,4-1.7911,4-4V80h12
		c1.828,0,3.424-1.2403,3.8752-3.0115C160.328,75.2169,159.5216,73.3633,157.916,72.4885z M112,56.5569L140.3124,72H140H84h-0.3124
		L112,56.5569z M104,120v-20h16v20H104z M136,120h-8V96c0-2.2087-1.7912-4-4-4h-24c-2.2088,0-4,1.7913-4,4v24h-8V80h48V120z"/>
</g>
</svg>
