<?xml version="1.0" encoding="utf-8"?>
<!-- Generator: Adobe Illustrator 19.2.0, SVG Export Plug-In . SVG Version: 6.00 Build 0)  -->
<svg version="1.1" id="college" xmlns="http://www.w3.org/2000/svg" xmlns:xlink="http://www.w3.org/1999/xlink" x="0px" y="0px"
	 viewBox="0 0 216 224" enable-background="new 0 0 216 224" xml:space="preserve">
<g>
	<rect x="64" y="24" width="8" height="32.332"/>
	<rect x="96" y="140" width="24" height="8"/>
	<path d="M88,92c-4.412,0-8,3.59-8,8s3.588,8,8,8s8-3.59,8-8S92.412,92,88,92z"/>
	<path d="M196.0236,184H140v-21.3328c16.7952-10.6436,28-29.3436,28-50.6516v-8.3796c9.1172-1.6728,16-8.9432,16-17.636
		s-6.8828-15.9632-16-17.636V68v-0.0116V20h12v40h8V20h12c2.2088,0,4-1.7892,4-4V4c0-2.2108-1.7912-4-4-4H36c-2.2088,0-4,1.7892-4,4
		v12c0,2.2108,1.7912,4,4,4h12v47.9884V68v0.364C38.8828,70.0368,32,77.3072,32,86s6.8828,15.9632,16,17.636v8.3796
		c0,21.308,11.2048,40.008,28,50.6516V184H19.9764C8.9608,184,0,192.9728,0,204v16c0,2.2108,1.7912,4,4,4h208c2.2088,0,4-1.7892,4-4
		v-16C216,192.9728,207.0392,184,196.0236,184z M176,86c0,4.3408-3.354,8.006-8,9.386V76.614C172.646,77.994,176,81.6592,176,86z
		 M40,8h156v4h-32H52H40V8z M160,20v43.9884H56V20H160z M40,86c0-4.3408,3.354-8.006,8-9.386v18.772C43.354,94.006,40,90.3408,40,86
		z M56,112.0156V104v-8V76v-4h104v4v20v8v8.0156C160,140.6796,136.674,164,108,164S56,140.6796,56,112.0156z M84,166.9564
		C91.3572,170.1816,99.4656,172,108,172s16.6428-1.8184,24-5.0436V184H84V166.9564z M120.9512,192L108,202.7928L95.0488,192
		H120.9512z M208,216H8v-12c0-6.6172,5.3732-12,11.9764-12H80h2.5504l22.8892,19.0744C106.1816,211.6916,107.09,212,108,212
		s1.8184-0.3084,2.5604-0.9256L133.4496,192H136h60.0236C202.6268,192,208,197.3828,208,204V216z"/>
	<path d="M128,108c4.412,0,8-3.59,8-8s-3.588-8-8-8s-8,3.59-8,8S123.588,108,128,108z"/>
</g>
</svg>
