<?xml version="1.0" encoding="utf-8"?>
<!-- Generator: Adobe Illustrator 19.2.0, SVG Export Plug-In . SVG Version: 6.00 Build 0)  -->
<svg version="1.1" id="condo" xmlns="http://www.w3.org/2000/svg" xmlns:xlink="http://www.w3.org/1999/xlink" x="0px" y="0px"
	 viewBox="0 0 228 200" enable-background="new 0 0 228 200" xml:space="preserve">
<g>
	<path d="M224,60c2.2108,0,4-1.7911,4-4V40c0-2.2087-1.7892-4-4-4h-51.0124l6.9188-31.1327
		c0.2616-1.1836-0.0276-2.424-0.7852-3.3692C178.3592,0.5509,177.2148,0,176,0H52c-1.2148,0-2.3592,0.5509-3.1212,1.4981
		c-0.7576,0.9452-1.0468,2.1856-0.7852,3.3692L55.0124,36H4c-2.2108,0-4,1.7913-4,4v16c0,2.2089,1.7892,4,4,4h8v112H4
		c-2.2108,0-4,1.7913-4,4v20c0,2.2089,1.7892,4,4,4h220c2.2108,0,4-1.7911,4-4v-20c0-2.2087-1.7892-4-4-4h-4V60H224z M56.9884,8
		h114.0232l-6.2188,28H63.2072L56.9884,8z M8,44h52h108h52v8h-4H16H8V44z M220,192H8v-12h8h76h48h76h4V192z M136,172H96v-12h40V172z
		 M212,172h-68v-16c0-2.2087-1.7892-4-4-4H92c-2.2108,0-4,1.7913-4,4v16H20V60h192V172z"/>
	<polygon points="64,88 72,88 72,68 40,68 40,76 64,76 	"/>
	<polygon points="184,88 192,88 192,68 160,68 160,76 184,76 	"/>
	<polygon points="104,88 112,88 112,68 80,68 80,76 104,76 	"/>
	<polygon points="144,88 152,88 152,68 120,68 120,76 144,76 	"/>
	<polygon points="64,116 72,116 72,96 40,96 40,104 64,104 	"/>
	<polygon points="184,116 192,116 192,96 160,96 160,104 184,104 	"/>
	<polygon points="104,116 112,116 112,96 80,96 80,104 104,104 	"/>
	<polygon points="144,116 152,116 152,96 120,96 120,104 144,104 	"/>
	<polygon points="64,144 72,144 72,124 40,124 40,132 64,132 	"/>
	<polygon points="184,144 192,144 192,124 160,124 160,132 184,132 	"/>
	<polygon points="104,144 112,144 112,124 80,124 80,132 104,132 	"/>
	<polygon points="144,144 152,144 152,124 120,124 120,132 144,132 	"/>
</g>
</svg>
