<?xml version="1.0" encoding="utf-8"?>
<!-- Generator: Adobe Illustrator 19.2.0, SVG Export Plug-In . SVG Version: 6.00 Build 0)  -->
<svg version="1.1" id="confused" xmlns="http://www.w3.org/2000/svg" xmlns:xlink="http://www.w3.org/1999/xlink" x="0px" y="0px"
	 viewBox="0 0 165.5545 203.1134" enable-background="new 0 0 165.5545 203.1134" xml:space="preserve">
<path d="M164.3827,162.7286l-33.5547-33.5567c-1.5625-1.5625-4.0937-1.5625-5.656,0c-1.5629,1.5623-1.5629,4.0936,0,5.6564
	l26.7267,26.7284H36c-15.4377,0-28-12.5605-28-28c0-15.4397,12.5623-28,28-28h96v-0.2361c17.9739-1.9979,32-17.268,32-35.7639
	c0-18.496-14.0261-33.766-32-35.764v-0.236H14.1011L40.828,6.8283c1.5627-1.5628,1.5627-4.0941,0-5.6564
	c-1.5625-1.5625-4.0937-1.5625-5.656,0L1.6171,34.7286c-1.5624,1.5625-1.5624,4.0936,0,5.6561L35.172,73.9415
	c0.7811,0.7812,1.8043,1.1719,2.828,1.1719c1.0235,0,2.0467-0.3907,2.828-1.1719c1.5627-1.5624,1.5627-4.0936,0-5.6564
	L14.1011,41.5567H128c15.4375,0,28,12.5603,28,28c0,15.4395-12.5625,28-28,28H32v0.236c-17.9741,1.998-32,17.268-32,35.764
	s14.0259,33.766,32,35.764v0.236h119.8987l-26.7267,26.7284c-1.5629,1.5628-1.5629,4.094,0,5.6564
	c0.7811,0.7812,1.8043,1.1719,2.828,1.1719c1.0235,0,2.0467-0.3907,2.828-1.1719l33.5547-33.5568
	C165.9451,166.8222,165.9451,164.2911,164.3827,162.7286z"/>
</svg>
