<?xml version="1.0" encoding="utf-8"?>
<!-- Generator: Adobe Illustrator 19.2.0, SVG Export Plug-In . SVG Version: 6.00 Build 0)  -->
<svg version="1.1" id="constructhanger" xmlns="http://www.w3.org/2000/svg" xmlns:xlink="http://www.w3.org/1999/xlink" x="0px"
	 y="0px" viewBox="0 0 216 224" enable-background="new 0 0 216 224" xml:space="preserve">
<path d="M212,28H108V4c0-2.2088-1.7893-4-4-4H64c-2.2109,0-4,1.7912-4,4v15.7372c-0.0117,0.1768-0.0117,0.3448,0,0.5216V28H4
	c-2.2109,0-4,1.7912-4,4v32c0,2.2088,1.7891,4,4,4h20v108H12c-2.2109,0-4,1.7912-4,4v16H4c-2.2109,0-4,1.7912-4,4v20
	c0,2.2088,1.7891,4,4,4h48c2.2107,0,4-1.7912,4-4v-20c0-2.2088-1.7893-4-4-4h-4v-16c0-2.2088-1.7893-4-4-4H32V68h28v27.79
	c-0.0117,0.1768-0.0117,0.3448,0,0.5216v39.5252c-0.0117,0.1768-0.0117,0.3448,0,0.5216v39.4784
	c-0.0065,0.0976-0.0461,0.1896-0.0457,0.2872c-0.0004,0.0976,0.0392,0.1896,0.0457,0.2872v39.4784
	c-0.0117,0.1768-0.0117,0.3448,0,0.5216V220c0,2.2088,1.7891,4,4,4h40c2.2107,0,4-1.7912,4-4V68h72v48.166h0.0335
	C180.1255,118.2936,181.848,120,184,120c6.6171,0,12,5.3828,12,12s-5.3829,12-12,12c-6.6173,0-12-5.3828-12-12
	c0-2.2088-1.7893-4-4-4c-2.2109,0-4,1.7912-4,4c0,11.0272,8.9727,20,20,20c11.0271,0,20-8.9728,20-20
	c0-9.6576-6.8829-17.7372-16-19.5956V68h24c2.2107,0,4-1.7912,4-4V32C216,29.7912,214.2107,28,212,28z M48,216H8v-12h4h32h4V216z
	 M40,184v12H16v-12h8h8H40z M68,32v-2.2948L78.32,40.024L68,50.3436V32z M100,32v18.3908L89.6323,40.024L100,29.6564V32z
	 M96.3203,58.0236L83.976,70.3676L71.632,58.0244L83.976,45.68L96.3203,58.0236z M68,65.7052L78.32,76.024L68,86.3436V65.7052z
	 M83.976,81.68l14.3675,14.3668l-14.3704,14.3708L69.6055,96.0508L83.976,81.68z M78.3167,116.0736L68,126.3908V105.758
	L78.3167,116.0736z M83.9731,121.73l14.3704,14.3696l-14.368,14.368l-14.37-14.37L83.9731,121.73z M78.3191,156.124L68,166.4432
	v-20.6384L78.3191,156.124z M83.9755,161.7804l14.3436,14.3436l-14.3436,14.3436L69.632,176.124L83.9755,161.7804z M78.3191,196.124
	L68,206.4432v-20.6384L78.3191,196.124z M83.9755,201.7804L98.1951,216H69.756L83.9755,201.7804z M89.632,196.124L100,185.756
	v20.736L89.632,196.124z M89.632,156.124L100,145.756v20.736L89.632,156.124z M89.6291,116.0736L100,105.7032v20.74
	L89.6291,116.0736z M89.6323,76.024L100,65.6564v20.7344L89.6323,76.024z M100,8v10.3436l-16.024,16.024L68,18.3924V8H100z M8,36h52
	v19.7372c-0.0117,0.1768-0.0117,0.3448,0,0.5216V59.79c-0.0049,0.0712-0.04,0.1388-0.0413,0.21H8V36z M208,60h-20h-8h-72V36h100V60z
	"/>
</svg>
