<?xml version="1.0" encoding="utf-8"?>
<!-- Generator: Adobe Illustrator 19.2.0, SVG Export Plug-In . SVG Version: 6.00 Build 0)  -->
<svg version="1.1" id="construction" xmlns="http://www.w3.org/2000/svg" xmlns:xlink="http://www.w3.org/1999/xlink" x="0px"
	 y="0px" viewBox="0 0 220.0392 204" enable-background="new 0 0 220.0392 204" xml:space="preserve">
<g>
	<path d="M60,76H32c-2.2088,0-4,1.7912-4,4v36c0,2.2088,1.7912,4,4,4h28c2.2088,0,4-1.7912,4-4V80C64,77.7912,62.2088,76,60,76z
		 M56,112H36V84h20V112z"/>
	<path d="M60,128H32c-2.2088,0-4,1.7912-4,4v36c0,2.2088,1.7912,4,4,4h28c2.2088,0,4-1.7912,4-4v-36C64,129.7912,62.2088,128,60,128
		z M56,164H36v-28h20V164z"/>
	<path d="M104,76H76c-2.2088,0-4,1.7912-4,4v36c0,2.2088,1.7912,4,4,4h28c2.2088,0,4-1.7912,4-4V80C108,77.7912,106.2088,76,104,76z
		 M100,112H80V84h20V112z"/>
	<path d="M104,128H76c-2.2088,0-4,1.7912-4,4v36c0,2.2088,1.7912,4,4,4h28c2.2088,0,4-1.7912,4-4v-36
		C108,129.7912,106.2088,128,104,128z M100,164H80v-28h20V164z"/>
	<path d="M192,196V8h16c2.2088,0,4-1.7912,4-4s-1.7912-4-4-4h-20h-16c-0.1916,0-0.3828,0.0136-0.5744,0.0412l-138,20
		c-2.076,0.3004-3.5664,2.154-3.416,4.246C30.162,26.3788,31.9024,28,34,28h46v12H64c-2.2088,0-4,1.7912-4,4v16h-8v-8
		c0-2.2088-1.7912-4-4-4H12c-2.2088,0-4,1.7912-4,4v12v132H0v8h12h112h48h16h32.0392v-8H192z M168,8.6216V20H89.4884L168,8.6216z
		 M88,28h80v168h-40V64c0-2.2088-1.7912-4-4-4h-16V44c0-2.2088-1.7912-4-4-4H88V28z M68,48h12h8h12v12H68V48z M16,56h28v4H16V56z
		 M16,196V68h32h16h40h16v128H16z M176,196V8h8v188H176z"/>
</g>
</svg>
