<?xml version="1.0" encoding="utf-8"?>
<!-- Generator: Adobe Illustrator 19.2.0, SVG Export Plug-In . SVG Version: 6.00 Build 0)  -->
<svg version="1.1" id="contemporan" xmlns="http://www.w3.org/2000/svg" xmlns:xlink="http://www.w3.org/1999/xlink" x="0px"
	 y="0px" viewBox="0 0 240 128" enable-background="new 0 0 240 128" xml:space="preserve">
<g>
	<path d="M108,76h16c2.2107,0,4-1.7891,4-4V28c0-2.2087-1.7893-4-4-4h-16c-2.2109,0-4,1.7913-4,4v44C104,74.2109,105.7891,76,108,76
		z M112,32h8v36h-8V32z"/>
	<path d="M144,76h16c2.2107,0,4-1.7891,4-4V28c0-2.2087-1.7893-4-4-4h-16c-2.2109,0-4,1.7913-4,4v44C140,74.2109,141.7891,76,144,76
		z M148,32h8v36h-8V32z"/>
	<path d="M108,100h16c2.2107,0,4-1.7891,4-4V84c0-2.2107-1.7893-4-4-4h-16c-2.2109,0-4,1.7893-4,4v12
		C104,98.2109,105.7891,100,108,100z M112,88h8v4h-8V88z"/>
	<path d="M144,100h16c2.2107,0,4-1.7891,4-4V84c0-2.2107-1.7893-4-4-4h-16c-2.2109,0-4,1.7893-4,4v12
		C140,98.2109,141.7891,100,144,100z M148,88h8v4h-8V88z"/>
	<path d="M236,108h-12V44c0-2.2087-1.7893-4-4-4h-40V20h12c2.2107,0,4-1.7911,4-4V4c0-2.2087-1.7893-4-4-4H76
		c-2.2109,0-4,1.7913-4,4v12c0,2.2089,1.7891,4,4,4h12v20H20c-2.2109,0-4,1.7913-4,4v64H4c-2.2109,0-4,1.7893-4,4v12
		c0,2.2109,1.7891,4,4,4h232c2.2107,0,4-1.7891,4-4v-12C240,109.7893,238.2107,108,236,108z M216,48v60h-8V60c0-2.2107-1.7893-4-4-4
		h-12c-2.2109,0-4,1.7893-4,4v48h-8V48H216z M200,108h-4V64h4V108z M80,8h108v4h-12H92H80V8z M172,20v24v64H96V44V20H172z M24,48h64
		v60h-8V60c0-2.2107-1.7893-4-4-4H64c-2.2109,0-4,1.7893-4,4v48h-8V60c0-2.2107-1.7893-4-4-4H36c-2.2109,0-4,1.7893-4,4v48h-8V48z
		 M72,108h-4V64h4V108z M44,108h-4V64h4V108z M232,120H8v-4h12h16h12h16h12h16h84h16h12h16h12V120z"/>
</g>
</svg>
