<?xml version="1.0" encoding="utf-8"?>
<!-- Generator: Adobe Illustrator 19.2.0, SVG Export Plug-In . SVG Version: 6.00 Build 0)  -->
<svg version="1.1" id="croptool" xmlns="http://www.w3.org/2000/svg" xmlns:xlink="http://www.w3.org/1999/xlink" x="0px" y="0px"
	 viewBox="0 0 208 204" enable-background="new 0 0 208 204" xml:space="preserve">
<g>
	<polygon fill="none" points="61.7811,148 152,148 152,61.5416 	"/>
	<polygon fill="none" points="56,56 56,142.4584 146.2187,56 	"/>
	<path fill="none" d="M156,48c2.2107,0,4,1.7912,4,4v96h16V32H56v16H156z"/>
	<path fill="none" d="M156,156H52c-2.2109,0-4-1.7912-4-4V52V28V8H32v20v24v120h124h24h20v-16h-20H156z"/>
	<rect x="8" y="32" fill="none" width="16" height="16"/>
	<rect x="160" y="180" fill="none" width="16" height="16"/>
	<path d="M204,148h-20V28c0-2.2088-1.7893-4-4-4H56V4c0-2.2088-1.7893-4-4-4H28c-2.2109,0-4,1.7912-4,4v20H4c-2.2109,0-4,1.7912-4,4
		v24c0,2.2088,1.7891,4,4,4h20v120c0,2.2088,1.7891,4,4,4h124v20c0,2.2088,1.7891,4,4,4h24c2.2107,0,4-1.7912,4-4v-20h20
		c2.2107,0,4-1.7912,4-4v-24C208,149.7912,206.2107,148,204,148z M176,32v116h-16V52c0-2.2088-1.7893-4-4-4H56V32H176z M61.7811,148
		L152,61.5416V148H61.7811z M56,56h90.2187L56,142.4584V56z M8,48V32h16v16H8z M176,196h-16v-16h16V196z M200,172h-20h-24H32V52V28
		V8h16v20v24v100c0,2.2088,1.7891,4,4,4h104h24h20V172z"/>
</g>
</svg>
