<?xml version="1.0" encoding="utf-8"?>
<!-- Generator: Adobe Illustrator 19.2.0, SVG Export Plug-In . SVG Version: 6.00 Build 0)  -->
<svg version="1.1" id="cross" xmlns="http://www.w3.org/2000/svg" xmlns:xlink="http://www.w3.org/1999/xlink" x="0px" y="0px"
	 viewBox="0 0 240 208.9203" enable-background="new 0 0 240 208.9203" xml:space="preserve">
<g>
	<path d="M238.2752,101.1682l-51.234-35.414l-5.0548-62.078c-0.1056-1.3104-0.8496-2.4824-1.9864-3.1408
		c-1.1368-0.654-2.5252-0.7108-3.7128-0.1504L120,27.0494L63.7128,0.385C62.5292-0.1774,61.1388-0.1206,60,0.5354
		c-1.1368,0.6584-1.8808,1.8304-1.9864,3.1408l-5.0548,62.078l-51.234,35.414C0.6444,101.9166,0,103.145,0,104.4594
		s0.6444,2.5428,1.7248,3.2912l51.234,35.414l5.0548,62.078c0.1056,1.3104,0.8496,2.4824,1.9864,3.1408
		c1.1388,0.658,2.5312,0.7148,3.7128,0.1504L120,181.8694l56.2872,26.6644c0.5428,0.2576,1.1288,0.3844,1.7128,0.3844
		c0.6916,0,1.3828-0.1796,2-0.5348c1.1368-0.6584,1.8808-1.8304,1.9864-3.1408l5.0548-62.078l51.234-35.414
		c1.0804-0.7484,1.7248-1.9768,1.7248-3.2912S239.3556,101.9166,238.2752,101.1682z M180.9316,137.6606
		c-0.9864,0.6816-1.6132,1.7716-1.7108,2.9668l-4.7384,58.1992l-52.7696-24.998c-0.5428-0.256-1.1268-0.3848-1.7128-0.3848
		s-1.17,0.1288-1.7128,0.3848l-52.7696,24.998l-4.7384-58.1992c-0.0976-1.1952-0.7244-2.2852-1.7108-2.9668l-48.0332-33.2012
		l48.0332-33.2012c0.9864-0.6816,1.6132-1.7716,1.7108-2.9668l4.7384-58.1992l52.7696,24.998c1.086,0.5116,2.3396,0.5116,3.4256,0
		l52.7696-24.998l4.7384,58.1992c0.0976,1.1952,0.7244,2.2852,1.7108,2.9668l48.0332,33.2012L180.9316,137.6606z"/>
	<path d="M163.8868,36.1214c0.42-1.7244-0.3496-3.5196-1.8868-4.408c-1.5332-0.8848-3.4748-0.6544-4.7616,0.5704L120,67.813
		L82.7616,32.2838C81.4764,31.059,79.5412,30.8266,78,31.7134c-1.5372,0.8884-2.3068,2.6836-1.8868,4.408L88.2636,86.137
		l-49.3884,14.4844c-1.7052,0.5-2.8752,2.0628-2.8752,3.838s1.17,3.338,2.8752,3.838l49.3884,14.4844l-12.1504,50.0156
		c-0.42,1.7244,0.3496,3.5196,1.8868,4.408c1.5372,0.8908,3.4784,0.6604,4.7616-0.5704L120,141.1058l37.2384,35.5292
		c0.7636,0.7288,1.7576,1.1056,2.7636,1.1056c0.6836,0,1.3748-0.1756,1.998-0.5352c1.5372-0.8884,2.3068-2.6836,1.8868-4.408
		l-12.1504-50.0156l49.3888-14.4844c1.7048-0.5,2.8748-2.0628,2.8748-3.838s-1.17-3.338-2.8748-3.838L151.7364,86.137
		L163.8868,36.1214z M185.7872,104.4594l-39.9628,11.7208c-2.0508,0.6016-3.266,2.7068-2.762,4.7812l9.83,40.4708l-30.1308-28.75
		c-0.7732-0.7364-1.7676-1.1056-2.7616-1.1056s-1.9884,0.3692-2.7616,1.1056l-30.1308,28.75l9.83-40.4708
		c0.504-2.0744-0.7112-4.1796-2.762-4.7812l-39.9628-11.7208l39.9628-11.7208c2.0508-0.6016,3.266-2.7068,2.762-4.7812
		l-9.83-40.4708l30.1308,28.75c1.5468,1.4728,3.9764,1.4728,5.5232,0l30.1308-28.75l-9.83,40.4708
		c-0.504,2.0744,0.7112,4.1796,2.762,4.7812L185.7872,104.4594z"/>
</g>
</svg>
