<?xml version="1.0" encoding="utf-8"?>
<!-- Generator: Adobe Illustrator 19.2.0, SVG Export Plug-In . SVG Version: 6.00 Build 0)  -->
<svg version="1.1" id="crownofthorns" xmlns="http://www.w3.org/2000/svg" xmlns:xlink="http://www.w3.org/1999/xlink" x="0px"
	 y="0px" viewBox="0 0 224 213.4288" enable-background="new 0 0 224 213.4288" xml:space="preserve">
<path d="M222,103.2492l-19.1549-11.0456c-1.5296-9.6132-4.566-18.7257-8.8388-27.1097l9.0208-20.2315
	c0.582-1.3068,0.426-2.824-0.418-3.9805c-0.8356-1.1563-2.25-1.7695-3.656-1.6267l-22.0416,2.3284
	c-6.73-6.7076-14.5012-12.3612-23.0304-16.742l-4.592-21.6724c-0.2971-1.3984-1.3164-2.5332-2.68-2.9748
	c-1.3436-0.4356-2.8476-0.1228-3.914,0.834l-16.418,14.7988c-4.6544-0.7284-9.4211-1.1133-14.2771-1.1133
	s-9.6229,0.3849-14.2773,1.1133L81.3047,1.0284c-1.0664-0.9568-2.5664-1.2732-3.914-0.834c-1.3636,0.4416-2.3827,1.5764-2.68,2.9748
	l-4.592,21.6724c-8.5292,4.3808-16.3004,10.0344-23.0304,16.742l-22.0416-2.3284c-1.4216-0.1388-2.8204,0.4704-3.656,1.6267
	c-0.844,1.1565-1,2.6737-0.418,3.9805l9.0208,20.2315c-4.2728,8.384-7.3092,17.4965-8.8388,27.1097L2,103.2492
	c-1.2385,0.7148-2,2.0352-2,3.4647c0,1.4297,0.7615,2.7501,2,3.4649l19.1547,11.0456c1.5296,9.6132,4.566,18.7255,8.8388,27.1095
	l-9.0208,20.2317c-0.582,1.3068-0.426,2.824,0.418,3.9803c0.8356,1.1545,2.2304,1.748,3.656,1.6269l22.0416-2.3284
	c6.73,6.7076,14.5012,12.3612,23.0304,16.742l4.592,21.6724c0.2973,1.3984,1.3164,2.5332,2.68,2.9748
	c1.3512,0.4392,2.8512,0.1248,3.914-0.834l16.418-14.7988c4.6544,0.7284,9.4213,1.1131,14.2773,1.1131s9.6227-0.3847,14.2771-1.1131
	l16.418,14.7988c0.7464,0.672,1.7032,1.0292,2.68,1.0292c0.414,0,0.832-0.0644,1.234-0.1952
	c1.3636-0.4416,2.3829-1.5764,2.68-2.9748l4.592-21.6724c8.5292-4.3808,16.3004-10.0344,23.0304-16.742l22.0416,2.3284
	c1.41,0.1232,2.8204-0.4724,3.656-1.6269c0.844-1.1563,1-2.6735,0.418-3.9803l-9.0208-20.2317
	c4.2728-8.384,7.3092-17.4963,8.8388-27.1095L222,110.1788c1.2383-0.7148,2-2.0352,2-3.4649
	C224,105.2844,223.2383,103.964,222,103.2492z M193.5223,86.8276l-7.3232-4.2228l3.4716-7.786
	C191.2623,78.68,192.516,82.7044,193.5223,86.8276z M196,106.7139c0,3.2365-0.2269,6.4173-0.5849,9.5597l-16.3372,9.4208
	c-1.7732,1.0235-2.488,3.2228-1.6524,5.094l7.6616,17.1808c-3.1776,5.6072-7.0028,10.7824-11.3376,15.4952l-18.6364-1.9692
	c-2.0584-0.2013-3.91,1.1444-4.336,3.1484l-3.898,18.3903c-5.7484,2.6385-11.8056,4.7105-18.1588,5.9989l-14.0408-12.6568
	c-0.7616-0.6856-1.7224-1.0292-2.6795-1.0292c-0.9573,0-1.9181,0.3436-2.6797,1.0292l-14.0408,12.6568
	c-6.3532-1.2884-12.4104-3.3604-18.1588-5.9989l-3.898-18.3903c-0.422-2.004-2.2656-3.3497-4.336-3.1484l-18.6364,1.9692
	c-4.3348-4.7128-8.16-9.888-11.3376-15.4952l7.6616-17.1808c0.8356-1.8712,0.1208-4.0705-1.6524-5.094l-16.3372-9.4208
	C28.2267,113.1312,28,109.9504,28,106.7139c0-3.2363,0.2267-6.4171,0.5847-9.5595l16.3372-9.4208
	c1.7732-1.0237,2.488-3.2228,1.6524-5.094l-7.6616-17.1808c3.1776-5.6072,7.0028-10.7824,11.3376-15.4952l18.6364,1.9692
	c2.0704,0.1876,3.914-1.1444,4.336-3.1484l3.898-18.3905c5.7484-2.6383,11.8056-4.7103,18.1588-5.9987l14.0408,12.6568
	c1.5232,1.3708,3.836,1.3708,5.3592,0l14.0408-12.6568c6.3532,1.2884,12.4104,3.3604,18.1588,5.9987l3.898,18.3905
	c0.426,2.004,2.2776,3.336,4.336,3.1484l18.6364-1.9692c4.3348,4.7128,8.16,9.888,11.3376,15.4952l-7.6616,17.1808
	c-0.8356,1.8712-0.1208,4.0703,1.6524,5.094l16.3372,9.4208C195.7731,100.2968,196,103.4776,196,106.7139z M189.0603,56.5484
	c-1.7208-2.6348-3.5668-5.178-5.5408-7.6168l9.3788-0.9912L189.0603,56.5484z M166.268,42.708l-8.4125,0.8888l-1.7448-8.2332
	C159.6755,37.5752,163.084,40.0044,166.268,42.708z M142.8983,11.6144l1.9464,9.1828c-2.9032-1.1136-5.874-2.0873-8.9096-2.906
	L142.8983,11.6144z M112,22.7139c2.1211,0,4.2015,0.1633,6.2835,0.3185L112,28.6964l-6.2837-5.664
	C107.7983,22.8772,109.8787,22.7139,112,22.7139z M81.1015,11.6144l6.9632,6.2768c-3.0356,0.8187-6.0064,1.7924-8.9096,2.906
	L81.1015,11.6144z M67.8891,35.3636l-1.7448,8.2332L57.732,42.708C60.916,40.0044,64.3243,37.5752,67.8891,35.3636z
	 M31.1015,47.9404l9.3788,0.9912c-1.974,2.4388-3.82,4.982-5.5408,7.6168L31.1015,47.9404z M34.3291,74.8188l3.4716,7.786
	l-7.3232,4.2228C31.484,82.7044,32.7375,78.68,34.3291,74.8188z M12.008,106.7139l8.1107-4.6771
	C20.0407,103.5864,20,105.1452,20,106.7139c0,1.5689,0.0407,3.1277,0.1187,4.6773L12.008,106.7139z M30.4775,126.6004l7.3232,4.2228
	l-3.4716,7.786C32.7375,134.748,31.484,130.7236,30.4775,126.6004z M34.9395,156.8796c1.7208,2.6348,3.5668,5.178,5.5408,7.6168
	l-9.3788,0.9912L34.9395,156.8796z M57.732,170.72l8.4123-0.8888l1.7448,8.2332C64.3243,175.8528,60.916,173.4236,57.732,170.72z
	 M81.1015,201.8136l-1.9464-9.1828c2.9032,1.1136,5.874,2.0871,8.9096,2.906L81.1015,201.8136z M112,190.7139
	c-2.1213,0-4.2017-0.1631-6.2837-0.3183l6.2837-5.664l6.2835,5.664C116.2015,190.5508,114.1211,190.7139,112,190.7139z
	 M142.8983,201.8136l-6.9632-6.2768c3.0356-0.8189,6.0064-1.7924,8.9096-2.906L142.8983,201.8136z M156.1107,178.0644l1.7448-8.2332
	l8.4125,0.8888C163.084,173.4236,159.6755,175.8528,156.1107,178.0644z M192.8983,165.4876l-9.3788-0.9912
	c1.974-2.4388,3.82-4.982,5.5408-7.6168L192.8983,165.4876z M189.6707,138.6092l-3.4716-7.786l7.3232-4.2228
	C192.516,130.7236,191.2623,134.748,189.6707,138.6092z M203.8811,111.3912c0.078-1.5496,0.1189-3.1084,0.1189-4.6773
	c0-1.5687-0.0409-3.1275-0.1189-4.6771l8.1109,4.6771L203.8811,111.3912z"/>
</svg>
