<?xml version="1.0" encoding="utf-8"?>
<!-- Generator: Adobe Illustrator 19.2.0, SVG Export Plug-In . SVG Version: 6.00 Build 0)  -->
<svg version="1.1" id="crufixion" xmlns="http://www.w3.org/2000/svg" xmlns:xlink="http://www.w3.org/1999/xlink" x="0px" y="0px"
	 viewBox="0 0 232 184" enable-background="new 0 0 232 184" xml:space="preserve">
<path d="M192,140.4313V84h24.1544v-8H192V56h-8v20h-24v8h24v53.6233c-14.9536-4.7812-32.6468-7.99-52-9.1393V56h28
	c2.2088,0,4-1.7911,4-4V32c0-2.2087-1.7912-4-4-4h-28V4c0-2.2087-1.7912-4-4-4h-20c-2.2088,0-4,1.7913-4,4v24H76
	c-2.2088,0-4,1.7913-4,4v20c0,2.2089,1.7912,4,4,4h28v72.2629c-19.1996,0.8472-36.8676,3.7204-52,8.1352V84h24.1544v-8H52V56h-8v20
	H20v8h24v54.9633C17.056,148.4045,0,163.1409,0,180c0,2.2089,1.7912,4,4,4h224c2.2088,0,4-1.7911,4-4
	C232,163.9909,216.6184,149.8973,192,140.4313z M112,128V52c0-2.2087-1.7912-4-4-4H80V36h28c2.2088,0,4-1.7911,4-4V8h12v24
	c0,2.2089,1.7912,4,4,4h28v12h-28c-2.2088,0-4,1.7913-4,4v76H112z M8.4648,176C13.6132,153.9397,60.7636,136,116,136
	s102.3868,17.9397,107.5352,40H8.4648z"/>
</svg>
