<?xml version="1.0" encoding="utf-8"?>
<!-- Generator: Adobe Illustrator 19.2.0, SVG Export Plug-In . SVG Version: 6.00 Build 0)  -->
<svg version="1.1" id="cupmedal" xmlns="http://www.w3.org/2000/svg" xmlns:xlink="http://www.w3.org/1999/xlink" x="0px" y="0px"
	 viewBox="0 0 207.8527 212.5115" enable-background="new 0 0 207.8527 212.5115" xml:space="preserve">
<g>
	<polygon fill="none" points="68.0183,184.5115 48.0183,184.5115 48.0183,204.5115 160.0183,204.5115 160.0183,184.5115 
		140.0183,184.5115 	"/>
	<path fill="none" d="M40.7683,20.5115H8.0399c0.184,11.8665,3.826,49.8261,39.8588,76.2477l5.1024-64.4948L40.7683,20.5115z"/>
	<polygon fill="none" points="74.4911,176.5115 133.5455,176.5115 129.5455,168.5115 78.4911,168.5115 	"/>
	<path fill="none" d="M105.1355,67.8084l-1.1172-2.2616l-1.1172,2.2616c-0.582,1.1796-1.7088,2-3.0116,2.1876l-2.4944,0.3632
		l1.8068,1.7616c0.9416,0.918,1.3712,2.2424,1.1504,3.5392l-0.4256,2.4844l2.2304-1.172c0.582-0.3084,1.2224-0.4609,1.8612-0.4609
		c0.6388,0,1.2792,0.1525,1.8612,0.4609l2.2304,1.172l-0.4256-2.4844c-0.2208-1.2968,0.2092-2.6212,1.1504-3.5392l1.8068-1.7616
		l-2.4944-0.3632C106.8443,69.8084,105.7175,68.988,105.1355,67.8084z"/>
	<path fill="none" d="M62.9459,8l-8.1112,102.5428c-0.6932,8.7616,5.8944,18.0352,14.3848,20.25l34.7988,9.0744l34.7988-9.0744
		c8.6368-2.25,15.09-11.336,14.3848-20.25L145.0907,8H62.9459z M122.0278,70.4296l-6.1032,5.9492l1.4412,8.4024
		c0.256,1.5-0.3612,3.0156-1.5916,3.91c-0.6976,0.508-1.5236,0.7656-2.3516,0.7656c-0.6368,0-1.2756-0.1524-1.8616-0.4608
		l-7.5428-3.9648l-7.5428,3.9648c-1.34,0.7108-2.9768,0.5936-4.2132-0.3048c-1.2304-0.8944-1.8476-2.41-1.5917-3.91l1.4412-8.4024
		l-6.1032-5.9492c-1.09-1.0624-1.4824-2.6524-1.012-4.1016c0.4708-1.4452,1.7228-2.5,3.2304-2.7188l8.432-1.2264l3.7732-7.6408
		c1.3476-2.7345,5.8244-2.7345,7.172,0l3.7732,7.6408l8.432,1.2264c1.5076,0.2188,2.7596,1.2736,3.2304,2.7188
		C123.5103,67.7772,123.1179,69.3672,122.0278,70.4296z"/>
	<path fill="none" d="M167.0867,20.5115L155.0223,32.102l5.106,64.5328c35.9876-26.4848,39.5408-64.2932,39.6948-76.1233H167.0867z"
		/>
	<path d="M207.7254,16.1872c-0.17-2.078-1.9044-3.6757-3.9864-3.6757h-38.262c-1.0332,0-2.0252,0.3985-2.7712,1.1133l-8.4992,8.1636
		l-1.4324-18.1049C152.6082,1.6052,150.8718,0,148.7858,0H59.2507c-2.086,0-3.8224,1.6052-3.9884,3.6835l-1.4452,18.2669
		l-8.668-8.3256c-0.746-0.7148-1.7384-1.1133-2.7716-1.1133H4.1139c-2.082,0-3.8164,1.5977-3.9864,3.6757
		c-0.1864,2.2752-3.9228,55.852,47.0332,89.9003l-0.3024,3.8225c-0.9964,12.5975,8.1288,25.4415,20.3416,28.6252l32.8184,8.5563
		v13.42h-24c-1.5156,0-2.9004,0.8557-3.578,2.2109l-6.8948,13.7891H44.0183c-2.2088,0-4,1.7893-4,4v28c0,2.2109,1.7912,4,4,4h120
		c2.2088,0,4-1.7891,4-4v-28c0-2.2107-1.7912-4-4-4H142.491l-6.8948-13.7891c-0.6776-1.3552-2.0624-2.2109-3.578-2.2109h-24v-13.42
		l32.8184-8.5563c12.418-3.2384,21.3536-15.8088,20.3416-28.6252l-0.312-3.9432C211.635,71.9128,207.9118,18.4595,207.7254,16.1872z
		 M160.0183,204.5115h-112v-20h20h72h20V204.5115z M129.5455,168.5115l4,8H74.4911l4-8H129.5455z M8.0399,20.5115h32.7284
		l12.2328,11.7529l-5.1024,64.4948C11.8659,70.3376,8.2239,32.378,8.0399,20.5115z M138.817,130.7928l-34.7988,9.0744
		l-34.7988-9.0744c-8.4904-2.2148-15.078-11.4884-14.3848-20.25L62.9459,8h82.1448l8.1112,102.5428
		C153.907,119.4568,147.4538,128.5428,138.817,130.7928z M160.1283,96.6348l-5.106-64.5328l12.0644-11.5905h32.7364
		C199.6691,32.3416,196.1158,70.15,160.1283,96.6348z"/>
	<path d="M119.8094,63.6092l-8.432-1.2264l-3.7732-7.6408c-1.3476-2.7345-5.8244-2.7345-7.172,0l-3.7732,7.6408l-8.432,1.2264
		c-1.5076,0.2188-2.7596,1.2736-3.2304,2.7188c-0.4704,1.4492-0.078,3.0392,1.012,4.1016l6.1032,5.9492l-1.4412,8.4024
		c-0.256,1.5,0.3612,3.0156,1.5917,3.91c1.2364,0.8984,2.8732,1.0156,4.2132,0.3048l7.5428-3.9648l7.5428,3.9648
		c0.586,0.3084,1.2248,0.4608,1.8616,0.4608c0.828,0,1.654-0.2576,2.3516-0.7656c1.2304-0.8944,1.8476-2.41,1.5916-3.91
		l-1.4412-8.4024l6.1032-5.9492c1.09-1.0624,1.4824-2.6524,1.012-4.1016C122.569,64.8828,121.317,63.828,119.8094,63.6092z
		 M108.8346,72.1208c-0.9412,0.918-1.3712,2.2424-1.1504,3.5392l0.4256,2.4844l-2.2304-1.172
		c-0.582-0.3084-1.2224-0.4609-1.8612-0.4609c-0.6388,0-1.2792,0.1525-1.8612,0.4609l-2.2304,1.172l0.4256-2.4844
		c0.2208-1.2968-0.2088-2.6212-1.1504-3.5392l-1.8068-1.7616l2.4944-0.3632c1.3028-0.1876,2.4296-1.008,3.0116-2.1876l1.1172-2.2616
		l1.1172,2.2616c0.582,1.1796,1.7088,2,3.0116,2.1876l2.4944,0.3632L108.8346,72.1208z"/>
</g>
</svg>
