<?xml version="1.0" encoding="utf-8"?>
<!-- Generator: Adobe Illustrator 19.2.0, SVG Export Plug-In . SVG Version: 6.00 Build 0)  -->
<svg version="1.1" id="cut" xmlns="http://www.w3.org/2000/svg" xmlns:xlink="http://www.w3.org/1999/xlink" x="0px" y="0px"
	 viewBox="0 0 216 216.1992" enable-background="new 0 0 216 216.1992" xml:space="preserve">
<g>
	<polygon fill="none" points="168,48.1992 144,48.1992 136,48.1992 112,48.1992 104,48.1992 80,48.1992 72,48.1992 48,48.1992 
		48,72.1992 48,80.1992 48,104.1992 48,112.1992 48,136.1992 48,144.1992 48,168 48,168.1992 72,168.1992 72,168 80,168 
		80,168.1992 104,168.1992 104,168 112,168 112,168.1992 136,168.1992 136,168 144,168 144,168.1992 168,168.1992 168,144.1992 
		168,136.1992 168,112.1992 168,104.1992 168,80.1992 168,72.1992 	"/>
	<path d="M216,80.1992v-8h-40v-24v-4V0h-8v40.1992h-24V0h-8v40.1992h-24V0h-8v40.1992H80V0h-8v40.1992H48h-4H0v8h40v24H0v8h40v24H0
		v8h40v24H0v8h40V168v4.1992v44h8v-40h24v40h8v-40h24v40h8v-40h24v40h8v-40h24h4h44v-8h-40v-24h40v-8h-40v-24h40v-8h-40v-24H216z
		 M168,104.1992v8v24v8v24h-24V168h-8v0.1992h-24V168h-8v0.1992H80V168h-8v0.1992H48V168v-23.8008v-8v-24v-8v-24v-8v-24h24h8h24h8
		h24h8h24v24v8V104.1992z"/>
</g>
</svg>
