<?xml version="1.0" encoding="utf-8"?>
<!-- Generator: Adobe Illustrator 19.2.0, SVG Export Plug-In . SVG Version: 6.00 Build 0)  -->
<svg version="1.1" id="davidstar" xmlns="http://www.w3.org/2000/svg" xmlns:xlink="http://www.w3.org/1999/xlink" x="0px" y="0px"
	 viewBox="0 0 168.0001 199.8457" enable-background="new 0 0 168.0001 199.8457" xml:space="preserve">
<path d="M141.9081,99.8457l25.588-46.0584c0.6896-1.2384,0.67-2.75-0.0488-3.9688c-0.7188-1.2228-2.0292-1.9728-3.4472-1.9728
	h-50.9808L87.4961,1.9041c-1.41-2.5388-5.582-2.5388-6.992,0L54.9809,47.8457H4.0001c-1.418,0-2.7284,0.75-3.4472,1.9728
	c-0.7188,1.2188-0.7384,2.7304-0.0488,3.9688l25.588,46.0584l-25.588,46.0584c-0.6896,1.2384-0.67,2.75,0.0488,3.9688
	c0.7188,1.2228,2.0292,1.9728,3.4472,1.9728h50.9808l25.5232,45.9416c0.7048,1.2692,2.0428,2.0584,3.496,2.0584
	s2.7912-0.7892,3.496-2.0584l25.5232-45.9416h50.9808c1.418,0,2.7284-0.75,3.4472-1.9728c0.7188-1.2188,0.7384-2.7304,0.0488-3.9688
	L141.9081,99.8457z M157.2013,55.8457l-19.8688,35.764l-19.8688-35.764H157.2013z M132.7565,99.8457l-24.444,44H59.6877l-24.444-44
	l24.444-44h48.6248L132.7565,99.8457z M84.0001,12.0841l19.8676,35.7616H64.1325L84.0001,12.0841z M10.7989,55.8457h39.7376
	l-19.8688,35.764L10.7989,55.8457z M10.7989,143.8457l19.8688-35.764l19.8688,35.764H10.7989z M84.0001,187.6073l-19.8676-35.7616
	h39.7352L84.0001,187.6073z M117.4637,143.8457l19.8688-35.764l19.8688,35.764H117.4637z"/>
</svg>
