<?xml version="1.0" encoding="utf-8"?>
<!-- Generator: Adobe Illustrator 19.2.0, SVG Export Plug-In . SVG Version: 6.00 Build 0)  -->
<svg version="1.1" id="decortree" xmlns="http://www.w3.org/2000/svg" xmlns:xlink="http://www.w3.org/1999/xlink" x="0px" y="0px"
	 viewBox="0 0 148.0016 223.8174" enable-background="new 0 0 148.0016 223.8174" xml:space="preserve">
<g>
	<path d="M147.618,194.1066L79.5904,50.2762l7.8284,4.1172c0.5861,0.3068,1.2264,0.4592,1.8632,0.4592
		c0.828,0,1.6524-0.258,2.3516-0.7636c1.2304-0.8948,1.8476-2.4124,1.59-3.9124l-2.5627-14.9452l10.8595-10.586
		c1.0896-1.0624,1.4805-2.6524,1.0116-4.0996c-0.4728-1.4472-1.7228-2.5036-3.2304-2.7224l-15.004-2.18L77.5868,2.0478
		c-1.344-2.7304-5.828-2.7304-7.172,0L63.704,15.6434l-15.004,2.18c-1.5076,0.2188-2.7576,1.2752-3.2304,2.7224
		c-0.4687,1.4472-0.078,3.0372,1.0116,4.0996l10.8597,10.586L54.778,50.1766c-0.2576,1.5,0.3596,3.0176,1.59,3.9124
		c1.242,0.8964,2.8672,1.0116,4.2148,0.3044l7.8284-4.1172L0.3836,194.1066c-0.586,1.24-0.496,2.6932,0.2384,3.8516
		c0.7344,1.158,2.0076,1.8592,3.3789,1.8592h58.3435l-17.1715,17.172c-1.5629,1.5624-1.5629,4.0936,0,5.656
		c0.7811,0.7812,1.8043,1.172,2.828,1.172c1.0235,0,2.0467-0.3908,2.828-1.172l22.8283-22.828h0.6872l22.8285,22.828
		c0.7811,0.7812,1.8043,1.172,2.828,1.172c1.0235,0,2.0467-0.3908,2.828-1.172c1.5627-1.5624,1.5627-4.0936,0-5.656l-17.1717-17.172
		h58.3437c1.3711,0,2.6443-0.7012,3.3787-1.8592C148.114,196.7998,148.204,195.3466,147.618,194.1066z M64.4304,30.9718
		l-6.5624-6.3964l9.0664-1.3164c1.3048-0.1896,2.4296-1.008,3.0116-2.1896l4.0549-8.2128l4.0547,8.2128
		c0.582,1.1816,1.7068,2,3.0116,2.1896l9.0664,1.3164l-6.5624,6.3964c-0.9416,0.918-1.3712,2.242-1.1484,3.5388l1.5468,9.0296
		l-8.1056-4.264c-0.586-0.3064-1.2224-0.4588-1.8631-0.4588c-0.6409,0-1.2773,0.1524-1.8633,0.4588l-8.1056,4.264l1.5468-9.0296
		C65.8016,33.2138,65.372,31.8898,64.4304,30.9718z M10.3172,191.8174L74.0009,57.173l63.6835,134.6444H10.3172z"/>
	<path d="M44.0009,151.8174c-8.8245,0-16,7.1776-16,16s7.1755,16,16,16c8.8243,0,16-7.1776,16-16S52.8252,151.8174,44.0009,151.8174
		z M44.0009,175.8174c-4.4101,0-8-3.588-8-8s3.5899-8,8-8c4.4099,0,8,3.588,8,8S48.4108,175.8174,44.0009,175.8174z"/>
	<path d="M76.0009,157.8174c0,9.9256,8.0743,18,18,18c9.9255,0,18-8.0744,18-18s-8.0745-18-18-18
		C84.0752,139.8174,76.0009,147.8918,76.0009,157.8174z M104.0009,157.8174c0,5.5136-4.4845,10-10,10c-5.5157,0-10-4.4864-10-10
		s4.4843-10,10-10C99.5164,147.8174,104.0009,152.3038,104.0009,157.8174z"/>
	<path d="M80.0009,111.8174c0-6.6172-5.3829-12-12-12c-6.6173,0-12,5.3828-12,12c0,6.6172,5.3827,12,12,12
		C74.618,123.8174,80.0009,118.4346,80.0009,111.8174z M68.0009,115.8174c-2.2073,0-4-1.7948-4-4s1.7927-4,4-4
		c2.2071,0,4,1.7948,4,4S70.208,115.8174,68.0009,115.8174z"/>
	
		<rect x="50.0012" y="134.9893" transform="matrix(0.7071 -0.7071 0.7071 0.7071 -84.4639 79.7224)" width="7.9994" height="13.6562"/>
	
		<rect x="67.1727" y="81.8177" transform="matrix(0.7071 -0.7071 0.7071 0.7071 -39.0078 77.4624)" width="13.6562" height="7.9994"/>
	<rect x="88.0009" y="115.8174" width="8" height="12"/>
	<rect x="104.0009" y="175.8174" width="16" height="8"/>
</g>
</svg>
