<?xml version="1.0" encoding="utf-8"?>
<!-- Generator: Adobe Illustrator 19.2.0, SVG Export Plug-In . SVG Version: 6.00 Build 0)  -->
<svg version="1.1" id="decreaseanalysis" xmlns="http://www.w3.org/2000/svg" xmlns:xlink="http://www.w3.org/1999/xlink" x="0px"
	 y="0px" viewBox="0 0 192.7287 169.1056" enable-background="new 0 0 192.7287 169.1056" xml:space="preserve">
<g>
	<rect y="113.1056" width="8" height="56"/>
	<rect x="16" y="77.1056" width="8" height="92"/>
	<rect x="32" y="69.1056" width="8" height="99.6368"/>
	<rect x="48" y="57.1056" width="8" height="111.6368"/>
	<rect x="64" y="33.1056" width="8" height="136"/>
	<rect x="80" y="29.1056" width="8" height="140"/>
	<rect x="96" y="45.0352" width="8" height="124.0704"/>
	<rect x="112" y="61.1036" width="8" height="107.5588"/>
	<rect x="128" y="69.1036" width="8" height="99.5588"/>
	<rect x="144" y="113.1056" width="8" height="56"/>
	<rect x="160" y="97.1056" width="8" height="72"/>
	<rect x="176" y="108.9124" width="8" height="60.1932"/>
	<path d="M188.7811,25.6152c-0.2696-2.1932-2.2656-3.7224-4.4588-3.4824c-2.1916,0.2696-3.752,2.2656-3.4823,4.4592l3.2963,26.8368
		L115.752,0l-4.9261,6.3048l63.3128,49.466l-16.754,2.0556c-2.1916,0.2696-3.752,2.2656-3.4824,4.4568
		c0.25,2.0276,1.9744,3.514,3.9648,3.514c0.164,0,0.328-0.01,0.492-0.0296l30.8576-3.7872c1.0528-0.1288,2.0096-0.6716,2.664-1.5076
		c0.6524-0.836,0.9473-1.8964,0.8184-2.9512L188.7811,25.6152z"/>
</g>
</svg>
