<?xml version="1.0" encoding="utf-8"?>
<!-- Generator: Adobe Illustrator 19.2.0, SVG Export Plug-In . SVG Version: 6.00 Build 0)  -->
<svg version="1.1" id="dentistfemale" xmlns="http://www.w3.org/2000/svg" xmlns:xlink="http://www.w3.org/1999/xlink" x="0px"
	 y="0px" viewBox="0 0 200 216" enable-background="new 0 0 200 216" xml:space="preserve">
<g>
	<path d="M116,128v-4h-8v4c0,4.41-3.588,8-8,8s-8-3.59-8-8v-4h-8v4c0,8.8244,7.1776,16,16,16S116,136.8244,116,128z"/>
	<path d="M72,84c-4.412,0-8,3.59-8,8s3.588,8,8,8s8-3.59,8-8S76.412,84,72,84z"/>
	<path d="M179.9608,176H144h-20v-14.1952c1.6004-0.5128,3.1532-1.1264,4.6728-1.8048H178c1.412,0,2.7188-0.746,3.4396-1.9572
		c0.7204-1.2148,0.748-2.7184,0.072-3.9568l-23.4644-43.0184C166.108,108.7448,172,102.0164,172,94
		c0-8.6928-6.8828-15.9632-16-17.636V76V23.9608C156,10.75,145.2384,0,132.0096,0H67.9904C54.7616,0,44,10.75,44,23.9608V76v0.364
		C34.8828,78.0368,28,85.3072,28,94c0,8.0164,5.892,14.7448,13.9528,17.0676L18.4884,154.086
		c-0.676,1.2384-0.6484,2.742,0.072,3.9568C19.2812,159.254,20.588,160,22,160h49.3256c1.52,0.6784,3.0732,1.2924,4.6744,1.8056V176
		H56H20.0392C8.9904,176,0,184.9728,0,196v16c0,2.2108,1.7912,4,4,4h192c2.2088,0,4-1.7892,4-4v-16
		C200,184.9728,191.0096,176,179.9608,176z M52,118v-6v-8V84v-4h96v4v20v8v6c0,20.9532-17.0468,38-38.002,38H90
		C69.0468,156,52,138.9532,52,118z M140.8732,152c8.01-7.2804,13.456-17.3112,14.7828-28.6112L171.2616,152H140.8732z M164,94
		c0,4.3408-3.354,8.006-8,9.386V84.614C160.646,85.994,164,89.6592,164,94z M52,23.9608C52,15.16,59.174,8,67.9904,8h64.0192
		C140.826,8,148,15.16,148,23.9608V72H52V23.9608z M36,94c0-4.3408,3.354-8.006,8-9.386v18.772C39.354,102.006,36,98.3408,36,94z
		 M28.7384,152l15.6056-28.6112c1.3264,11.3,6.772,21.3308,14.7816,28.6112H28.7384z M84,163.5624
		C85.9688,163.8208,87.962,164,90,164h19.998c2.0388,0,4.0324-0.1796,6.002-0.4376V176H84V163.5624z M80,184h40h11.6992
		L100,207.0548L68.3008,184H80z M8,196c0-6.6172,5.4004-12,12.0392-12h34.66l33,24H8V196z M192,208h-79.6992l33-24h34.66
		C186.5996,184,192,189.3828,192,196V208z"/>
	<path d="M128,100c4.412,0,8-3.59,8-8s-3.588-8-8-8s-8,3.59-8,8S123.588,100,128,100z"/>
	<path d="M120,28h-8v-8c0-2.2108-1.7912-4-4-4H92c-2.2088,0-4,1.7892-4,4v8h-8c-2.2088,0-4,1.7892-4,4v16c0,2.2108,1.7912,4,4,4h8v8
		c0,2.2108,1.7912,4,4,4h16c2.2088,0,4-1.7892,4-4v-8h8c2.2088,0,4-1.7892,4-4V32C124,29.7892,122.2088,28,120,28z M116,44h-8
		c-2.2088,0-4,1.7892-4,4v8h-8v-8c0-2.2108-1.7912-4-4-4h-8v-8h8c2.2088,0,4-1.7892,4-4v-8h8v8c0,2.2108,1.7912,4,4,4h8V44z"/>
</g>
</svg>
