<?xml version="1.0" encoding="utf-8"?>
<!-- Generator: Adobe Illustrator 19.2.0, SVG Export Plug-In . SVG Version: 6.00 Build 0)  -->
<svg version="1.1" id="dentistmale" xmlns="http://www.w3.org/2000/svg" xmlns:xlink="http://www.w3.org/1999/xlink" x="0px"
	 y="0px" viewBox="0 0 216 220" enable-background="new 0 0 216 220" xml:space="preserve">
<g>
	<rect x="96" y="132" width="36.3964" height="8"/>
	<path d="M88,96c0-4.41-3.588-8-8-8s-8,3.59-8,8s3.588,8,8,8S88,100.41,88,96z"/>
	<path d="M196.0236,180H140v-12.0016c15.4424-0.0152,28-12.5664,28-27.9904v-24.372c9.1172-1.6728,16-8.9432,16-17.636
		s-6.8828-15.9632-16-17.636V72V51.3372l0.6504-0.1184L162.08,15.078C160.5412,6.6212,152.6152,0,144.0352,0H71.9648
		c-8.58,0-16.506,6.6212-18.0448,15.078l-6.5704,36.1408L48,51.3372V72v8.364C38.8828,82.0368,32,89.3072,32,98
		s6.8828,15.9632,16,17.636v24.372c0,15.424,12.5576,27.9752,28,27.9904V180H19.9764C8.9608,180,0,188.9728,0,200v16
		c0,2.2108,1.7912,4,4,4h208c2.2088,0,4-1.7892,4-4v-16C216,188.9728,207.0392,180,196.0236,180z M176,98
		c0,4.3408-3.354,8.006-8,9.386V88.614C172.646,89.994,176,93.6592,176,98z M56,52h25.1796C80.4208,54.5372,80,57.2192,80,60
		s0.4208,5.4624,1.1796,8H56V52z M89.6952,68C88.618,65.5456,88,62.8472,88,60c0-11.0272,8.9728-20,20-20s20,8.9728,20,20
		c0,2.8472-0.618,5.5456-1.6952,8H126v0.5604C122.7792,75.2988,115.9528,80,108,80s-14.7792-4.7012-18-11.4396V68H89.6952z
		 M134.8204,52H160v16h-25.1796C135.5792,65.4624,136,62.7808,136,60S135.5792,54.5372,134.8204,52z M61.7912,16.508
		C62.6308,11.8984,67.2892,8,71.9648,8h72.0704c4.6756,0,9.334,3.8984,10.1736,8.508L159.2064,44H132
		c-0.3252,0-0.614,0.1116-0.9168,0.1848C126.0316,36.8348,117.5728,32,108,32s-18.0316,4.8348-23.0832,12.1848
		C84.614,44.1116,84.3252,44,84,44H56.7936L61.7912,16.508z M40,98c0-4.3408,3.354-8.006,8-9.386v18.772
		C43.354,106.006,40,102.3408,40,98z M56,140.008V116v-8V88v-8v-4h28h1.0552C90.1216,83.2428,98.51,88,108,88
		s17.8784-4.7572,22.9448-12H132h28v4v8v20v8v24.008c0,11.0232-8.9844,19.992-20.0272,19.992H132H84h-7.9728
		C64.9844,160,56,151.0312,56,140.008z M84,168h48v12H84V168z M208,212H8v-12c0-6.6172,5.3732-12,11.9764-12H80h56h60.0236
		C202.6268,188,208,193.3828,208,200V212z"/>
	<path d="M136,104c4.412,0,8-3.59,8-8s-3.588-8-8-8s-8,3.59-8,8S131.588,104,136,104z"/>
	<path d="M108,76c8.8224,0,16-7.1756,16-16s-7.1776-16-16-16s-16,7.1756-16,16S99.1776,76,108,76z M108,52c4.412,0,8,3.59,8,8
		s-3.588,8-8,8s-8-3.59-8-8S103.588,52,108,52z"/>
</g>
</svg>
