<?xml version="1.0" encoding="utf-8"?>
<!-- Generator: Adobe Illustrator 19.2.0, SVG Export Plug-In . SVG Version: 6.00 Build 0)  -->
<svg version="1.1" id="deskoffice" xmlns="http://www.w3.org/2000/svg" xmlns:xlink="http://www.w3.org/1999/xlink" x="0px" y="0px"
	 viewBox="0 0 204.0663 189.9979" enable-background="new 0 0 204.0663 189.9979" xml:space="preserve">
<g>
	<path d="M204,65.9979h-8h-20.7709c8.4544-10.1123,11.9236-20.396,10.2629-30.6367C181.9843,13.744,156.8555,0.9552,155.7891,0.42
		c-1.9728-0.9804-4.3712-0.1876-5.3636,1.7852c-0.988,1.9724-0.1912,4.3788,1.7816,5.3672c0.0156,0.0076,0.156,0.0808,0.368,0.194
		l-8.3128,8.3132c-4.8116-3.6137-10.62-5.5972-16.7468-5.5972c-7.4804,0-14.5115,2.914-19.8008,8.2032
		c-1.5624,1.5624-1.5624,4.0936,0,5.656l33.9416,33.9416c0.7812,0.7812,1.8044,1.172,2.828,1.172
		c1.0237,0,2.0468-0.3908,2.828-1.172c5.2892-5.2893,8.2032-12.3204,8.2032-19.8008c0-6.1268-1.9835-11.9352-5.5972-16.7468
		l9.5952-9.5948c6.8545,4.9064,16.3092,13.5048,18.084,24.5291c1.4804,9.1837-2.6992,18.7733-12.4255,28.5
		c-0.2445,0.2445-0.3825,0.5437-0.5501,0.828H92H76H24H4c-2.2108,0-4,1.7893-4,4v88v16v16h8v-12h16h68c2.2108,0,4-1.7891,4-4v-100
		h100v116h8v-116h0.0663v-8H204z M144.2031,49.5176l-27.7228-27.7228c3.246-2.156,7.0508-3.3124,11.0352-3.3124
		c3.9808,0,7.7828,1.1632,11.0268,3.3172l-0.1988,0.1983L144,27.6544l0.1983-0.1988c2.154,3.244,3.3172,7.046,3.3172,11.0268
		C147.5155,42.4668,146.3591,46.2716,144.2031,49.5176z M20,169.9979H8v-12v-84h12V169.9979z M88,169.9979H28v-96h48h12V169.9979z"
		/>
	<rect x="72" y="109.9979" width="8" height="28"/>
</g>
</svg>
