<?xml version="1.0" encoding="utf-8"?>
<!-- Generator: Adobe Illustrator 19.2.0, SVG Export Plug-In . SVG Version: 6.00 Build 0)  -->
<svg version="1.1" id="desk3" xmlns="http://www.w3.org/2000/svg" xmlns:xlink="http://www.w3.org/1999/xlink" x="0px" y="0px"
	 viewBox="0 0 232 136" enable-background="new 0 0 232 136" xml:space="preserve">
<g>
	<path d="M220.0272,0H11.9728C5.3712,0,0,5.3924,0,12.0196v3.9608C0,22.6076,5.3712,28,11.9728,28H12v44v39.9668
		C12,118.6016,17.3732,124,23.9764,124H24v12h8v-12h32v12h8v-12h0.0236C78.6268,124,84,118.6016,84,111.9668V72V28h64v44v39.9668
		C148,118.6016,153.3732,124,159.9764,124H160v12h8v-12h32v12h8v-12h0.0236C214.6268,124,220,118.6016,220,111.9668V72V28h0.0272
		C226.6288,28,232,22.6076,232,15.9804v-3.9608C232,5.3924,226.6288,0,220.0272,0z M76,111.9668
		C76,114.1916,74.2168,116,72.0236,116H72h-8H32h-8h-0.0236C21.7832,116,20,114.1916,20,111.9668V76h56V111.9668z M76,68H20V28h56
		V68z M212,111.9668c0,2.2248-1.7832,4.0332-3.9764,4.0332H208h-8h-32h-8h-0.0236c-2.1932,0-3.9764-1.8084-3.9764-4.0332V76h56
		V111.9668z M212,68h-56V28h56V68z M224,15.9804C224,18.1972,222.2188,20,220.0272,20H216h-64H80H16h-4.0272
		C9.7812,20,8,18.1972,8,15.9804v-3.9608C8,9.8028,9.7812,8,11.9728,8h208.0544C222.2188,8,224,9.8028,224,12.0196V15.9804z"/>
	<rect x="42.6548" y="36" width="8" height="8"/>
	<rect x="42.6548" y="83.6552" width="8" height="8"/>
	<rect x="180" y="36" width="8" height="8"/>
	<rect x="180" y="83.6552" width="8" height="8"/>
</g>
</svg>
