<?xml version="1.0" encoding="utf-8"?>
<!-- Generator: Adobe Illustrator 19.2.0, SVG Export Plug-In . SVG Version: 6.00 Build 0)  -->
<svg version="1.1" id="deskchair" xmlns="http://www.w3.org/2000/svg" xmlns:xlink="http://www.w3.org/1999/xlink" x="0px" y="0px"
	 viewBox="0 0 172 228" enable-background="new 0 0 172 228" xml:space="preserve">
<g>
	<path d="M148,88v8h8v30.16l-8.5461,7.3264c-4.0372-9.3116-30.4116-12.2004-47.4539-13.0904V108h32
		c1.1171,0,2.1835-0.4668,2.9375-1.2872c0.7576-0.8204,1.1404-1.92,1.0508-3.0312l-8-100C127.8203,1.6016,126.0859,0,124,0H48
		c-2.0861,0-3.8205,1.6016-3.9885,3.6816l-8,100c-0.0896,1.1112,0.2932,2.2108,1.0508,3.0312C37.8163,107.5332,38.8827,108,40,108
		h32v12.396c-17.0837,0.892-43.5393,3.7936-47.4781,13.1588l-8.5804-7.3556v-30.16c0-0.014-0.0076-0.0256-0.008-0.0392H24v-8H0v8
		h7.9491c-0.0004,0.0136-0.0076,0.0252-0.0076,0.0392v32c0,1.168,0.5116,2.2772,1.3985,3.0368l14,12
		c0.2007,0.1724,0.4379,0.2604,0.66,0.386V160c0,2.2088,1.7891,4,4,4h44v24.9804c-12.924,1.6416-23.9945,5.3896-27.1021,11.4776
		C39.7895,201.8348,36,206.462,36,212c0,6.6172,5.3827,12,12,12c6.6171,0,12-5.3828,12-12c0-4.2276-2.2089-7.9328-5.5217-10.0712
		C59.1375,199.34,70.3003,196,88,196c15.4591,0,25.9083,2.548,31.4183,4.918C115.0695,202.7228,112,207.006,112,212
		c0,6.6172,5.3827,12,12,12c6.6171,0,12-5.3828,12-12c0-3.5928-1.6197-6.7848-4.1293-8.9852
		c-1.0836-8.2912-15.5344-12.9708-31.8707-14.4728V164h44c2.2107,0,4-1.7912,4-4v-16.6112
		c0.2007-0.1184,0.4183-0.1944,0.6015-0.3516l14-12C163.4883,130.2772,164,129.168,164,128V96h8v-8H148z M51.6915,8h68.6168
		l7.3597,92H96H76H44.332L51.6915,8z M80,120v-12h12v12H80z M48,216c-2.2073,0-4-1.7948-4-4c0-2.1772,1.7527-3.9396,3.9211-3.9844
		c0.0264,0.0012,0.0484,0.0156,0.0749,0.0156c0.0283,0,0.052-0.0156,0.08-0.0156C50.2459,208.0584,52,209.8216,52,212
		C52,214.2052,50.2071,216,48,216z M124,216c-2.2073,0-4-1.7948-4-4s1.7927-4,4-4c2.2071,0,4,1.7948,4,4S126.2071,216,124,216z
		 M92,188H80v-24h12V188z M140,156H96H76H32v-19.6076C34.4219,133.4532,52.6563,128,86,128c33.3435,0,51.5779,5.4532,54,8.3924V156z
		"/>
	<path d="M86,200c-7.7189,0-14,6.2812-14,14s6.2811,14,14,14c7.7187,0,14-6.2812,14-14S93.7187,200,86,200z M86,220
		c-3.3085,0-6-2.6916-6-6s2.6915-6,6-6c3.3083,0,6,2.6916,6,6S89.3083,220,86,220z"/>
	<rect x="68" y="24" width="36" height="8"/>
	<rect x="68" y="48" width="36" height="8"/>
	<rect x="68" y="76" width="36" height="8"/>
</g>
</svg>
