<?xml version="1.0" encoding="utf-8"?>
<!-- Generator: Adobe Illustrator 19.2.0, SVG Export Plug-In . SVG Version: 6.00 Build 0)  -->
<svg version="1.1" id="diamond" xmlns="http://www.w3.org/2000/svg" xmlns:xlink="http://www.w3.org/1999/xlink" x="0px" y="0px"
	 viewBox="0 0 175.6867 200" enable-background="new 0 0 175.6867 200" xml:space="preserve">
<g>
	<polygon fill="none" points="59.1028,76 87.8588,180.8749 116.6148,76 	"/>
	<path fill="none" d="M124.3316,68h37.5524c2.6876,0,4.7248-0.756,5.4496-2.0215c0.7244-1.2636,0.3436-3.4004-1.0176-5.7128
		l-27.8496-47.3436C136.9504,10.3457,132.8412,8,129.8452,8H94.3316L124.3316,68z"/>
	<polygon fill="none" points="60.3316,68 115.386,68 87.8588,12.9433 	"/>
	<path fill="none" d="M161.884,76H124.91l-27.3848,99.8737l67.7204-93.3032c1.7948-2.4768,1.992-4.2208,1.6132-4.9628
		C166.482,76.8653,164.9504,76,161.884,76z"/>
	<path fill="none" d="M13.8336,68H51.386l30-60H45.8724c-2.998,0-7.1052,2.3457-8.6192,4.9221h-0.002L9.4,60.2657
		c-1.3616,2.3183-1.7444,4.4552-1.0236,5.7168C9.1008,67.2461,11.14,68,13.8336,68z"/>
	<path fill="none" d="M50.8076,76h-36.974c-3.0744,0-4.6056,0.8653-4.9844,1.6077c-0.3752,0.74-0.178,2.4824,1.6228,4.9628
		l67.7204,93.3032L50.8076,76z"/>
	<path d="M172.6268,72.0021c0.6152-0.6324,1.2124-1.2832,1.652-2.0508c2.1972-3.842,1.8084-8.8496-1.0664-13.7404L145.3608,8.8673
		C142.39,3.8125,135.718,0,129.8452,0H45.8724c-5.8748,0-12.5448,3.8125-15.5156,8.8673L2.5052,56.2109
		c-2.92,4.9668-3.3008,9.8476-1.072,13.7444c0.4424,0.7736,1.0336,1.4224,1.6412,2.0552c-0.614,0.6956-1.0548,1.3812-1.3524,1.9644
		c-1.1368,2.2284-2.3516,6.9196,2.2776,13.2948L84.55,198.248c0.002,0.0025,0.004,0.0049,0.006,0.008l0.0664,0.0917
		c0.2128,0.2944,0.4692,0.5436,0.7456,0.7652c0.0796,0.0636,0.1672,0.1104,0.2512,0.168c0.242,0.1652,0.4968,0.3024,0.7688,0.4108
		c0.1052,0.042,0.206,0.0832,0.3152,0.1163C87.0756,199.9213,87.46,200,87.8588,200c0.3988,0,0.7832-0.0787,1.1556-0.192
		c0.1092-0.0331,0.21-0.0743,0.3152-0.1163c0.272-0.1084,0.5268-0.2456,0.7688-0.4108c0.084-0.0576,0.1716-0.1044,0.2512-0.168
		c0.2764-0.2216,0.5328-0.4708,0.7456-0.7652l0.0664-0.0917c0.002-0.0031,0.004-0.0055,0.006-0.008L171.72,87.2697
		c4.6212-6.3712,3.4044-11.0644,2.2656-13.2948C173.6876,73.3897,173.244,72.7005,172.6268,72.0021z M138.4664,12.9221
		l27.8496,47.3436c1.3612,2.3124,1.742,4.4492,1.0176,5.7128C166.6088,67.244,164.5716,68,161.884,68h-37.5524l-30-60h35.5136
		C132.8412,8,136.9504,10.3457,138.4664,12.9221z M59.1028,76h57.512l-28.756,104.8749L59.1028,76z M60.3316,68l27.5272-55.0567
		L115.386,68H60.3316z M9.4,60.2657l27.8512-47.3436h0.002C38.7672,10.3457,42.8744,8,45.8724,8H81.386l-30,60H13.8336
		c-2.6936,0-4.7328-0.7539-5.4572-2.0175C7.6556,64.7209,8.0384,62.584,9.4,60.2657z M8.8492,77.6077
		C9.228,76.8653,10.7592,76,13.8336,76h36.974l27.3848,99.8737L10.472,82.5705C8.6712,80.0901,8.474,78.3477,8.8492,77.6077z
		 M165.2456,82.5705l-67.7204,93.3032L124.91,76h36.974c3.0664,0,4.598,0.8653,4.9748,1.6077
		C167.2376,78.3497,167.0404,80.0937,165.2456,82.5705z"/>
</g>
</svg>
