<?xml version="1.0" encoding="utf-8"?>
<!-- Generator: Adobe Illustrator 19.2.0, SVG Export Plug-In . SVG Version: 6.00 Build 0)  -->
<svg version="1.1" id="difference" xmlns="http://www.w3.org/2000/svg" xmlns:xlink="http://www.w3.org/1999/xlink" x="0px" y="0px"
	 viewBox="0 0 208.213 208.25" enable-background="new 0 0 208.213 208.25" xml:space="preserve">
<g>
	<polygon fill="none" points="114.5565,68 132.213,50.3436 132.213,13.6564 77.8681,68 	"/>
	<rect x="76.213" y="76" fill="none" width="56" height="56"/>
	<path fill="none" d="M8.213,78.3416L78.5545,8H45.6069c-0.1619,0.2648-0.2859,0.5464-0.5152,0.7752L8.213,45.6564V78.3416z"/>
	<path fill="none" d="M89.5977,8c-0.1652,0.2744-0.296,0.5656-0.5332,0.8028L9.0097,88.8576
		c-0.2352,0.2352-0.5244,0.3644-0.7967,0.5292v36.9548L126.5565,8H89.5977z"/>
	<polygon fill="none" points="140.213,130.3428 194.5565,76 157.8693,76 140.213,93.6564 	"/>
	<polygon fill="none" points="68.213,77.6552 13.8673,132 50.5565,132 68.213,114.3436 	"/>
	<path fill="none" d="M200.213,162.6024v-32.948L129.8673,200h32.6892l36.8792-36.8808
		C199.665,162.8896,199.9477,162.7648,200.213,162.6024z"/>
	<polygon fill="none" points="93.8693,140 76.213,157.6564 76.213,194.3416 130.5557,140 	"/>
	<polygon fill="none" points="61.8693,132 68.213,132 68.213,125.6564 	"/>
	<polygon fill="none" points="173.869,200 200.213,200 200.213,173.6544 	"/>
	<polygon fill="none" points="82.5565,140 76.213,140 76.213,146.3436 	"/>
	<polygon fill="none" points="34.5549,8 8.213,8 8.213,34.3436 	"/>
	<polygon fill="none" points="146.5565,76 140.213,76 140.213,82.3436 	"/>
	<polygon fill="none" points="125.8693,68 132.213,68 132.213,61.6564 	"/>
	<path fill="none" d="M119.3537,199.2012l80.0544-80.0548c0.2376-0.2372,0.5292-0.3692,0.8049-0.534v-36.956L81.8673,200h36.9556
		C118.9877,199.7264,119.1177,199.4372,119.3537,199.2012z"/>
	<path d="M204.213,68h-64V4c0-2.2088-1.7893-4-4-4h-132c-2.2109,0-4,1.7912-4,4v38.966c-0.284,0.8352-0.284,1.7328,0,2.568V136
		c0,2.2088,1.7891,4,4,4h64v64c0,2.2088,1.7891,4,4,4h90.4659c0.4176,0.1424,0.8472,0.25,1.284,0.25
		c0.4368,0,0.8664-0.1076,1.284-0.25h38.9661c2.2107,0,4-1.7912,4-4V72C208.213,69.7912,206.4237,68,204.213,68z M129.8673,200
		l70.3457-70.3456v32.948c-0.2653,0.1624-0.548,0.2872-0.7773,0.5168L162.5565,200H129.8673z M76.213,157.6564L93.8693,140h36.6864
		L76.213,194.3416V157.6564z M13.8673,132L68.213,77.6552v36.6884L50.5565,132H13.8673z M45.6069,8h32.9476L8.213,78.3416V45.6564
		L45.0917,8.7752C45.321,8.5464,45.445,8.2648,45.6069,8z M8.213,89.3868c0.2723-0.1648,0.5615-0.294,0.7967-0.5292L89.0645,8.8028
		C89.3017,8.5656,89.4325,8.2744,89.5977,8h36.9588L8.213,126.3416V89.3868z M132.213,50.3436L114.5565,68H77.8681l54.3449-54.3436
		V50.3436z M76.213,76h56v56h-56V76z M194.5565,76l-54.3435,54.3428V93.6564L157.8693,76H194.5565z M200.213,81.6564v36.956
		c-0.2757,0.1648-0.5673,0.2968-0.8049,0.534l-80.0544,80.0548c-0.236,0.236-0.366,0.5252-0.5308,0.7988H81.8673L200.213,81.6564z
		 M146.5565,76l-6.3435,6.3436V76H146.5565z M125.8693,68l6.3437-6.3436V68H125.8693z M34.5549,8L8.213,34.3436V8H34.5549z
		 M61.8693,132l6.3437-6.3436V132H61.8693z M82.5565,140l-6.3435,6.3436V140H82.5565z M173.869,200l26.344-26.3456V200H173.869z"/>
</g>
</svg>
