<?xml version="1.0" encoding="utf-8"?>
<!-- Generator: Adobe Illustrator 19.2.0, SVG Export Plug-In . SVG Version: 6.00 Build 0)  -->
<svg version="1.1" id="directions" xmlns="http://www.w3.org/2000/svg" xmlns:xlink="http://www.w3.org/1999/xlink" x="0px" y="0px"
	 viewBox="0 0 216.9024 228" enable-background="new 0 0 216.9024 228" xml:space="preserve">
<g>
	<path d="M188.6484,44.3713C188.1212,44.1249,187.5508,44,186.9689,44h-104c-2.2109,0-4,1.7893-4,4v36c0,2.2109,1.7891,4,4,4h104
		c0.5819,0,1.1523-0.1251,1.6795-0.3711c18.746-8.6716,28.254-15.9532,28.254-21.6289
		C216.9024,60.3245,207.3944,53.0429,188.6484,44.3713z M186.082,80H86.9689V52h99.1131c10.6096,4.9845,20.6288,11.2073,22.6172,14
		C206.7108,68.7929,196.6916,75.0117,186.082,80z"/>
	<path d="M166.9689,96H29.586c-0.586,0-1.168,0.1289-1.6992,0.3789C9.3828,105.0585,0,112.332,0,118s9.3828,12.9417,27.8868,21.6213
		C28.418,139.8713,29,140,29.586,140h137.3829c2.2107,0,4-1.7891,4-4v-36C170.9689,97.7893,169.1796,96,166.9689,96z M162.9689,132
		H30.4844C20,127.004,10.1132,120.7773,8.1876,118c1.9256-2.7771,11.8124-9,22.2968-14h132.4845V132z"/>
	<path d="M130.9689,152c0-2.2107-1.7893-4-4-4h-28c-2.2109,0-4,1.7893-4,4v68c0,2.2109,1.7891,4,4,4h28c2.2107,0,4-1.7891,4-4V152z
		 M122.9689,216h-20v-60h20V216z"/>
	<path d="M98.9689,36h28c2.2107,0,4-1.7891,4-4V4c0-2.2107-1.7893-4-4-4h-28c-2.2109,0-4,1.7893-4,4v28
		C94.9689,34.2109,96.758,36,98.9689,36z M102.9689,8h20v20h-20V8z"/>
	<path d="M158.9689,196c-15.4377,0-28,12.5625-28,28c0,2.2109,1.7891,4,4,4c2.2107,0,4-1.7891,4-4c0-11.0271,8.9727-20,20-20
		c2.2107,0,4-1.7891,4-4C162.9689,197.7893,161.1796,196,158.9689,196z"/>
	<path d="M66.9689,196c-2.2109,0-4,1.7893-4,4c0,2.2109,1.7891,4,4,4c11.0271,0,20,8.9729,20,20c0,2.2109,1.7891,4,4,4
		c2.2107,0,4-1.7891,4-4C94.9689,208.5625,82.4064,196,66.9689,196z"/>
</g>
</svg>
