<?xml version="1.0" encoding="utf-8"?>
<!-- Generator: Adobe Illustrator 19.2.0, SVG Export Plug-In . SVG Version: 6.00 Build 0)  -->
<svg version="1.1" id="disk" xmlns="http://www.w3.org/2000/svg" xmlns:xlink="http://www.w3.org/1999/xlink" x="0px" y="0px"
	 viewBox="0 0 224.657 227.9993" enable-background="new 0 0 224.657 227.9993" xml:space="preserve">
<g>
	<path d="M112.3286,89.9993c-13.2345,0-24,10.7657-24,24c0,13.2345,10.7655,24,24,24c13.2343,0,24-10.7655,24-24
		C136.3286,100.765,125.5629,89.9993,112.3286,89.9993z M112.3286,129.9993c-8.8245,0-16-7.1755-16-16c0-8.8243,7.1755-16,16-16
		c8.8243,0,16,7.1757,16,16C128.3286,122.8238,121.1529,129.9993,112.3286,129.9993z"/>
	<path d="M203.2541,157.105l20.2932-21.2424c1.0196-1.0664,1.3712-2.6052,0.91-4.0076c-0.4607-1.4024-1.6524-2.4376-3.1052-2.6917
		l-15.6016-2.7539l3.7968-0.6716c1.3164-0.2305,2.4296-1.1056,2.9688-2.332l11.8045-26.9025
		c0.5899-1.3475,0.3947-2.9179-0.5193-4.0783c-0.9104-1.156-2.3636-1.7264-3.84-1.4648l-15.6056,2.75l3.344-1.9296
		c1.16-0.672,1.906-1.8748,1.992-3.2068l1.8908-29.3164c0.0936-1.4728-0.6288-2.8792-1.8828-3.6564
		c-1.25-0.7812-2.8244-0.7968-4.1096-0.0664l-13.7188,7.922l2.4768-2.9533c0.8592-1.0235,1.1525-2.4103,0.7772-3.6955l-8.25-28.1992
		c-0.414-1.414-1.574-2.488-3.0196-2.7888c-1.4372-0.3088-2.9372,0.2108-3.8828,1.3435l-10.1836,12.1329l1.3164-3.6212
		c0.4572-1.2576,0.258-2.656-0.5352-3.734L153.1721,8.265c-0.8708-1.1912-2.3475-1.8084-3.7888-1.5937
		c-1.4612,0.2109-2.6876,1.2069-3.1916,2.5937l-5.418,14.8868v-3.8556c0-1.336-0.668-2.586-1.7811-3.328L114.5473,0.6713
		c-1.2267-0.8163-2.8088-0.8947-4.1056-0.1991c-1.3008,0.6951-2.1131,2.0508-2.1131,3.5271V19.843l-1.3205-3.6248
		c-0.4568-1.258-1.5115-2.2032-2.8124-2.5196L75.6529,6.7454c-1.4144-0.332-2.9376,0.1172-3.926,1.2188
		c-0.9844,1.0976-1.2812,2.6484-0.7772,4.0351l5.418,14.8945l-2.4844-2.9568c-0.8556-1.0276-2.1836-1.5508-3.5-1.4064
		l-29.1992,3.2268c-1.4688,0.164-2.7268,1.1168-3.2736,2.488c-0.5508,1.3712-0.3008,2.9296,0.6484,4.0588l10.1876,12.1404
		l-3.3436-1.9296c-1.1604-0.668-2.5823-0.7188-3.7736-0.1212l-26.336,13.0196c-1.3204,0.6524-2.1756,1.9844-2.2228,3.4572
		c-0.0504,1.4724,0.7188,2.8552,1.9964,3.5936l13.7224,7.922l-3.8007-0.668c-1.3397-0.246-2.668,0.2068-3.5857,1.1756
		L1.1097,92.1362c-1.0196,1.0664-1.3712,2.6052-0.91,4.0076c0.4609,1.4024,1.6524,2.4376,3.1052,2.6915l15.6016,2.7541
		l-3.7968,0.6716c-1.3164,0.2303-2.4296,1.1056-2.9688,2.332L0.3366,131.4953c-0.5901,1.3477-0.3949,2.9181,0.5191,4.0785
		c0.9104,1.156,2.4024,1.742,3.84,1.4648l15.6056-2.75l-3.344,1.9296c-1.16,0.672-1.906,1.8748-1.992,3.2068l-1.8908,29.3164
		c-0.0936,1.4728,0.6292,2.8792,1.8828,3.6564c1.254,0.7812,2.832,0.8048,4.1096,0.0664l13.7224-7.9256l-2.4804,2.9607
		c-0.8632,1.0237-1.1523,2.4101-0.7772,3.6953l8.25,28.1956c0.414,1.414,1.574,2.488,3.0196,2.7888
		c1.4372,0.3163,2.9372-0.2108,3.8828-1.3437l10.1836-12.1327l-1.3164,3.6212c-0.4572,1.2576-0.258,2.656,0.5352,3.734
		l17.3984,23.676c0.8708,1.1876,2.3357,1.7968,3.7888,1.5935c1.4612-0.2107,2.6876-1.2067,3.1916-2.5935l5.418-14.8868v3.8556
		c0,1.336,0.668,2.586,1.7813,3.328l24.4451,16.2967c0.668,0.4457,1.4416,0.672,2.2189,0.672c0.6483,0,1.2967-0.1563,1.8867-0.4727
		c1.3008-0.6953,2.1133-2.0508,2.1133-3.5273v-15.8435l1.3203,3.6248c0.4568,1.258,1.5117,2.2032,2.8124,2.5196l28.5428,6.9532
		c1.422,0.3436,2.9416-0.1172,3.926-1.2188c0.9844-1.0976,1.2812-2.6484,0.7772-4.0353l-5.418-14.8943l2.4844,2.9608
		c0.8596,1.0196,2.176,1.5392,3.5,1.4024l29.1992-3.2268c1.4688-0.164,2.7268-1.1172,3.2736-2.488
		c0.5508-1.3712,0.3008-2.9296-0.6484-4.0588l-10.1836-12.1368l3.3396,1.93c1.1564,0.664,2.5745,0.7148,3.7736,0.1208
		l26.336-13.0232c1.3204-0.6524,2.1756-1.9844,2.2228-3.4572c0.0504-1.4724-0.7188-2.8552-1.9964-3.5936l-13.7224-7.922
		l3.8009,0.668C201.0041,158.523,202.3366,158.0698,203.2541,157.105z M213.9886,100.1362l-7.9413,18.0976l-5.8907,1.0408
		c0.1035-1.7468,0.172-3.5028,0.172-5.2753c0-3.8387-0.2741-7.6123-0.7533-11.3227L213.9886,100.1362z M112.3286,193.9993
		c-44.1133,0-80-35.8867-80-80c0-44.1131,35.8867-80,80-80c44.1131,0,80,35.8869,80,80
		C192.3286,158.1126,156.4417,193.9993,112.3286,193.9993z M203.1177,66.2026l-1.2736,19.7188l-5.1784,2.9924
		c-1.5976-5.3608-3.6952-10.5044-6.2352-15.3865L203.1177,66.2026z M181.2933,38.0306l5.5508,18.9687l-3.862,4.6049
		c-3.3132-4.4556-7.0396-8.5844-11.118-12.338L181.2933,38.0306z M151.1529,19.023l11.7028,15.9296l-2.0551,5.6504
		c-4.6013-3.0492-9.5-5.6828-14.6505-7.8352L151.1529,19.023z M132.7737,22.437v5.9856c-5.3144-1.27-10.8084-2.068-16.4451-2.3216
		V11.4722L132.7737,22.437z M100.2229,20.9642l2.0488,5.6268c-5.5908,0.6396-11.0288,1.7888-16.254,3.4292l-4.9976-13.7316
		L100.2229,20.9642z M69.1333,30.7182l3.8596,4.5968c-4.9784,2.4988-9.688,5.4512-14.0736,8.8116l-9.4267-11.2364L69.1333,30.7182z
		 M25.5393,59.273l17.7188-8.758l5.2252,3.0172c-3.8088,4.0196-7.2396,8.3944-10.2436,13.0736L25.5393,59.273z M12.0549,92.2574
		l13.6524-14.2892l5.8976,1.0372c-2.1928,5.0384-3.9184,10.3219-5.1412,15.7948L12.0549,92.2574z M10.6686,127.8626l7.9411-18.0976
		l5.8909-1.0408c-0.1037,1.7468-0.172,3.5028-0.172,5.2751c0,3.8389,0.2739,7.612,0.7531,11.3225L10.6686,127.8626z
		 M21.5393,161.7962l1.2736-19.7188l5.1784-2.9924c1.5976,5.3608,3.6952,10.5044,6.2352,15.3863L21.5393,161.7962z
		 M43.3597,189.9682l-5.5468-18.9689l3.862-4.6047c3.3128,4.4552,7.0396,8.584,11.1177,12.338L43.3597,189.9682z M73.5041,208.9758
		l-11.7028-15.9296l2.0553-5.6504c4.6011,3.0492,9.5003,5.6824,14.6503,7.8348L73.5041,208.9758z M91.8833,205.5618v-5.9856
		c5.3144,1.27,10.8084,2.068,16.4453,2.3216v14.6288L91.8833,205.5618z M124.4341,207.0346l-2.0488-5.6268
		c5.5908-0.6396,11.0288-1.7888,16.254-3.4292l4.9976,13.7316L124.4341,207.0346z M155.5237,197.2806l-3.8596-4.5968
		c4.9784-2.4988,9.688-5.4512,14.0736-8.8116l9.4269,11.2364L155.5237,197.2806z M199.1177,168.7258l-17.7148,8.762l-5.2296-3.0208
		c3.8088-4.0197,7.24-8.3948,10.244-13.074L199.1177,168.7258z M193.0521,148.9934c2.1928-5.0384,3.918-10.3212,5.1412-15.7941
		l14.4088,2.5421l-13.6524,14.2892L193.0521,148.9934z"/>
</g>
</svg>
