<?xml version="1.0" encoding="utf-8"?>
<!-- Generator: Adobe Illustrator 19.2.0, SVG Export Plug-In . SVG Version: 6.00 Build 0)  -->
<svg version="1.1" id="dispersion" xmlns="http://www.w3.org/2000/svg" xmlns:xlink="http://www.w3.org/1999/xlink" x="0px" y="0px"
	 viewBox="0 0 212.2851 206.7863" enable-background="new 0 0 212.2851 206.7863" xml:space="preserve">
<g>
	<path fill="none" d="M55.6803,107.3919c-0.7948,5.516-3.1923,10.5084-6.7196,14.5l26.7324,17.8216
		c6.9432-9.0944,11.3088-20.2232,12.1124-32.3216H55.6803z"/>
	<path fill="none" d="M48.9607,84.8919c3.5273,3.9916,5.9248,8.984,6.7196,14.5h32.1252
		c-0.8036-12.0984-5.1692-23.2272-12.1124-32.3216L48.9607,84.8919z"/>
	<path fill="none" d="M42.5779,79.5327l27.7764-18.5176C60.3735,51.0407,46.9459,44.5139,32,43.5247v32.1868
		C35.832,76.2639,39.4083,77.5887,42.5779,79.5327z"/>
	<path fill="none" d="M115.8983,99.3919c-0.8028-17.85-6.9508-34.3248-16.8748-47.8752l-16.706,11.1376
		c7.7948,10.3656,12.6745,22.9972,13.4796,36.7376H115.8983z"/>
	<path fill="none" d="M48,103.3919c0-11.0272-8.9729-20-20-20c-11.0273,0-20,8.9728-20,20c0,11.0272,8.9727,20,20,20
		C39.0271,123.3919,48,114.4191,48,103.3919z"/>
	<path fill="none" d="M82.3175,144.1295l16.706,11.1372c9.924-13.55,16.072-30.0248,16.8748-47.8748H95.7971
		C94.992,121.1323,90.1123,133.7639,82.3175,144.1295z"/>
	<path fill="none" d="M32,131.0723v32.1868c14.9459-0.9892,28.3735-7.516,38.3543-17.4904l-27.7764-18.5176
		C39.4083,129.1951,35.832,130.5199,32,131.0723z"/>
	<path d="M186.828,77.9347c-1.5625-1.5624-4.0937-1.5624-5.656,0c-1.5629,1.5628-1.5629,4.094,0,5.6564l15.8007,15.8008h-73.0744
		c-0.8036-19.4904-7.4456-37.4904-18.22-52.3116l39.318-26.212l-5.2268,20.9492c-0.5312,2.1448,0.7696,4.3164,2.914,4.8516
		c0.3245,0.0784,0.6525,0.1172,0.9728,0.1172c1.7928,0,3.4216-1.2148,3.8788-3.0312l8.7068-34.9296l-34.9256-8.7108
		c-2.1443-0.5196-4.3123,0.7732-4.8516,2.914c-0.5312,2.1444,0.7736,4.3164,2.914,4.8516l22.3276,5.5664l-41.0168,27.3452
		c-17.6184-20.4296-43.66-33.4-72.6895-33.4v8c26.2563,0,49.8475,11.5728,65.9851,29.8692l-16.86,11.24
		C64.7343,43.5255,47.3155,35.3919,28,35.3919h-4v40.3196c-13.5449,1.952-24,13.6044-24,27.6804s10.4551,25.7284,24,27.6804v40.3196
		h4c19.3155,0,36.7343-8.1336,49.1251-21.1092l16.86,11.24C77.8475,179.8191,54.2563,191.3919,28,191.3919v8
		c29.0295,0,55.0711-12.9704,72.6895-33.4l41.0168,27.3452l-22.3276,5.5664c-2.1404,0.5352-3.4452,2.7072-2.914,4.8516
		c0.4572,1.8164,2.086,3.0312,3.8788,3.0312c0.3205,0,0.6485-0.0388,0.9728-0.1172l34.9256-8.7108l-8.7068-34.9296
		c-0.5391-2.1408-2.7188-3.4376-4.8516-2.914c-2.1444,0.5352-3.4452,2.7068-2.914,4.8516l5.2268,20.9492l-39.318-26.212
		c10.7744-14.8212,17.4164-32.8212,18.22-52.3116h73.0744l-15.8007,15.8008c-1.5629,1.5624-1.5629,4.0936,0,5.6564
		c0.7811,0.7812,1.8043,1.1716,2.828,1.1716c1.0235,0,2.0467-0.3904,2.828-1.1716l25.4571-25.4572L186.828,77.9347z
		 M99.0235,51.5167c9.924,13.5504,16.072,30.0252,16.8748,47.8752H95.7971c-0.8051-13.7404-5.6848-26.372-13.4796-36.7376
		L99.0235,51.5167z M48.9607,121.8919c3.5273-3.9916,5.9248-8.984,6.7196-14.5h32.1252
		c-0.8036,12.0984-5.1692,23.2272-12.1124,32.3216L48.9607,121.8919z M55.6803,99.3919c-0.7948-5.516-3.1923-10.5084-6.7196-14.5
		l26.7324-17.8216c6.9432,9.0944,11.3088,20.2232,12.1124,32.3216H55.6803z M70.3543,61.0151L42.5779,79.5327
		C39.4083,77.5887,35.832,76.2639,32,75.7115V43.5247C46.9459,44.5139,60.3735,51.0407,70.3543,61.0151z M8,103.3919
		c0-11.0272,8.9727-20,20-20c11.0271,0,20,8.9728,20,20c0,11.0272-8.9729,20-20,20C16.9727,123.3919,8,114.4191,8,103.3919z
		 M32,163.2591v-32.1868c3.832-0.5524,7.4083-1.8772,10.5779-3.8212l27.7764,18.5176C60.3735,155.7431,46.9459,162.2699,32,163.2591
		z M99.0235,155.2667l-16.706-11.1372c7.7948-10.3656,12.6745-22.9972,13.4796-36.7376h20.1012
		C115.0955,125.2419,108.9475,141.7167,99.0235,155.2667z"/>
</g>
</svg>
