<?xml version="1.0" encoding="utf-8"?>
<!-- Generator: Adobe Illustrator 19.2.0, SVG Export Plug-In . SVG Version: 6.00 Build 0)  -->
<svg version="1.1" id="dj" xmlns="http://www.w3.org/2000/svg" xmlns:xlink="http://www.w3.org/1999/xlink" x="0px" y="0px"
	 viewBox="0 0 232 108" enable-background="new 0 0 232 108" xml:space="preserve">
<g>
	<path d="M211.9803,0H20.0195C8.9803,0,0,8.9764,0,20.0116v67.9768C0,99.0236,8.9803,108,20.0195,108h191.9608
		C223.0195,108,232,99.0236,232,87.9884V20.0116C232,8.9764,223.0195,0,211.9803,0z M224,87.9884
		C224,94.6112,218.6091,100,211.9803,100H20.0195C13.3907,100,8,94.6112,8,87.9884V20.0116C8,13.3888,13.3907,8,20.0195,8h191.9608
		C218.6091,8,224,13.3888,224,20.0116V87.9884z"/>
	<path d="M182,16c-20.9533,0-38,17.0468-38,38s17.0467,38,38,38c20.9531,0,38-17.0468,38-38S202.9531,16,182,16z M182,84
		c-3.9185,0-7.6533-0.7764-11.088-2.1488l9.0567-14.0564C180.6375,67.8932,181.3043,68,182,68c7.7187,0,14-6.2812,14-14
		s-6.2813-14-14-14c-7.7189,0-14,6.2812-14,14c0,4.12,1.8227,7.7928,4.6659,10.3576l-8.7252,13.542
		C156.704,72.4168,152,63.7588,152,54c0-16.5428,13.4571-30,30-30c16.5427,0,30,13.4572,30,30S198.5427,84,182,84z M182,60
		c-0.5745,0-1.1189-0.1064-1.6449-0.258c-0.332-0.2092-0.694-0.3104-1.0536-0.4124C177.3523,58.338,176,56.3332,176,54
		c0-3.3084,2.6915-6,6-6c3.3083,0,6,2.6916,6,6S185.3083,60,182,60z"/>
	<path d="M50,16c-20.9533,0-38,17.0468-38,38s17.0467,38,38,38c20.9531,0,38-17.0468,38-38S70.9531,16,50,16z M50,84
		c-16.5429,0-30-13.4572-30-30c0-7.832,3.0407-14.9492,7.9723-20.2968L38.6059,45.922C36.9791,48.2088,36,50.9864,36,54
		c0,7.7188,6.2811,14,14,14c7.7187,0,14-6.2812,14-14s-6.2813-14-14-14c-1.7981,0-3.5049,0.37-5.0857,0.9908l-10.79-12.3996
		C38.7351,25.6996,44.1667,24,50,24c16.5427,0,30,13.4572,30,30S66.5427,84,50,84z M50,48c3.3083,0,6,2.6916,6,6s-2.6917,6-6,6
		c-3.3085,0-6-2.6916-6-6S46.6915,48,50,48z"/>
	<path d="M104,24c-2.2109,0-4,1.7912-4,4v28h-4c-2.2109,0-4,1.7912-4,4s1.7891,4,4,4h4v8.1816c0,2.2092,1.7891,4,4,4
		c2.2107,0,4-1.7908,4-4V28C108,25.7912,106.2107,24,104,24z"/>
	<path d="M116,24c-2.2109,0-4,1.7912-4,4v44.1816c0,2.2092,1.7891,4,4,4c2.2107,0,4-1.7908,4-4V28C120,25.7912,118.2107,24,116,24z"
		/>
	<path d="M136,40h-4V28c0-2.2088-1.7893-4-4-4c-2.2109,0-4,1.7912-4,4v44.1816c0,2.2092,1.7891,4,4,4c2.2107,0,4-1.7908,4-4V48h4
		c2.2107,0,4-1.7912,4-4S138.2107,40,136,40z"/>
</g>
</svg>
