<?xml version="1.0" encoding="utf-8"?>
<!-- Generator: Adobe Illustrator 19.2.0, SVG Export Plug-In . SVG Version: 6.00 Build 0)  -->
<svg version="1.1" id="dollartag" xmlns="http://www.w3.org/2000/svg" xmlns:xlink="http://www.w3.org/1999/xlink" x="0px" y="0px"
	 viewBox="0 0 104 209.0098" enable-background="new 0 0 104 209.0098" xml:space="preserve">
<g>
	<path fill="none" d="M52,49.0098c4.412,0,8-3.5899,8-8c0-4.4099-3.588-8-8-8s-8,3.5901-8,8C44,45.4199,47.588,49.0098,52,49.0098z"
		/>
	<path fill="none" d="M91.3104,38.9787L55.5684,9.1895C54.6172,8.3967,53.3084,8.0018,52,8.0018s-2.6172,0.3949-3.5684,1.1877
		l-35.742,29.7892C10.2344,41.0215,8,45.8147,8,49.0295v147.9608c0,2.2148,1.8028,4.0195,4.0196,4.0195h79.9608
		c2.2168,0,4.0196-1.8047,4.0196-4.0195V49.0295C96,45.7559,93.8084,41.0607,91.3104,38.9787z M52,25.0098c8.8224,0,16,7.1757,16,16
		c0,8.8245-7.1776,16-16,16s-16-7.1755-16-16C36,32.1855,43.1776,25.0098,52,25.0098z M52.5,129.0098c9.9256,0,18,8.0745,18,18
		c0,9.9257-8.0744,18-18,18c-0.1748,0-0.3368-0.0467-0.5104-0.0515c0,0.0184,0.0104,0.0332,0.0104,0.0515v4c0,2.2109-1.7912,4-4,4
		s-4-1.7891-4-4v-4c0-0.7127,0.2364-1.3467,0.5628-1.9259c-5.936-2.9452-10.0628-9.0101-10.0628-16.0741c0-2.2107,1.7912-4,4-4
		s4,1.7893,4,4c0,5.5157,4.4864,10,10,10s10-4.4843,10-10c0-5.5155-4.4864-10-10-10c-9.9256,0-18-8.0743-18-18
		c0-6.8355,3.8736-12.7207,9.5-15.768v-6.232c0-2.2107,1.7912-4,4-4s4,1.7893,4,4v4.0505c0.17-0.0048,0.3288-0.0505,0.5-0.0505
		c9.9256,0,18,8.0745,18,18c0,2.2109-1.7912,4-4,4s-4-1.7891-4-4c0-5.5155-4.4864-10-10-10s-10,4.4845-10,10
		C42.5,124.5255,46.9864,129.0098,52.5,129.0098z"/>
	<path d="M96.4316,32.8303L60.6896,3.0411c-4.8712-4.0548-12.508-4.0548-17.3792,0L7.5684,32.8303
		C3.254,36.4279,0,43.3887,0,49.0295v147.9608c0,6.6288,5.3924,12.0195,12.0196,12.0195h79.9608
		c6.6272,0,12.0196-5.3907,12.0196-12.0195V49.0295C104,43.3887,100.746,36.4279,96.4316,32.8303z M96,196.9903
		c0,2.2148-1.8028,4.0195-4.0196,4.0195H12.0196c-2.2168,0-4.0196-1.8047-4.0196-4.0195V49.0295
		c0-3.2148,2.2344-8.008,4.6896-10.0508l35.742-29.7892c0.9512-0.7928,2.26-1.1877,3.5684-1.1877s2.6172,0.3949,3.5684,1.1877
		l35.742,29.7892C93.8084,41.0607,96,45.7559,96,49.0295V196.9903z"/>
	<path d="M52.5,109.0098c5.5136,0,10,4.4845,10,10c0,2.2109,1.7912,4,4,4s4-1.7891,4-4c0-9.9255-8.0744-18-18-18
		c-0.1712,0-0.33,0.0457-0.5,0.0505v-4.0505c0-2.2107-1.7912-4-4-4s-4,1.7893-4,4v6.232c-5.6264,3.0473-9.5,8.9325-9.5,15.768
		c0,9.9257,8.0744,18,18,18c5.5136,0,10,4.4845,10,10c0,5.5157-4.4864,10-10,10s-10-4.4843-10-10c0-2.2107-1.7912-4-4-4
		s-4,1.7893-4,4c0,7.064,4.1268,13.1289,10.0628,16.0741C44.2364,163.6631,44,164.2971,44,165.0098v4c0,2.2109,1.7912,4,4,4
		s4-1.7891,4-4v-4c0-0.0183-0.0104-0.0331-0.0104-0.0515c0.1736,0.0048,0.3356,0.0515,0.5104,0.0515c9.9256,0,18-8.0743,18-18
		c0-9.9255-8.0744-18-18-18c-5.5136,0-10-4.4843-10-10C42.5,113.4943,46.9864,109.0098,52.5,109.0098z"/>
	<path d="M52,57.0098c8.8224,0,16-7.1755,16-16c0-8.8243-7.1776-16-16-16s-16,7.1757-16,16C36,49.8343,43.1776,57.0098,52,57.0098z
		 M52,33.0098c4.412,0,8,3.5901,8,8c0,4.4101-3.588,8-8,8s-8-3.5899-8-8C44,36.5999,47.588,33.0098,52,33.0098z"/>
</g>
</svg>
