<?xml version="1.0" encoding="utf-8"?>
<!-- Generator: Adobe Illustrator 19.2.0, SVG Export Plug-In . SVG Version: 6.00 Build 0)  -->
<svg version="1.1" id="drummer" xmlns="http://www.w3.org/2000/svg" xmlns:xlink="http://www.w3.org/1999/xlink" x="0px" y="0px"
	 viewBox="0 0 152 203.3628" enable-background="new 0 0 152 203.3628" xml:space="preserve">
<path d="M151.9788,75.174c-0.216-17.1924-29.484-30.3404-69.2768-31.678l-1.472-1.7524l29.5436-35.17
	c0.6308-0.75,0.9372-1.662,0.9372-2.57c0-1.1408-0.486-2.2736-1.4276-3.0648c-1.6932-1.4236-4.2148-1.2028-5.6348,0.4904
	L76.0068,35.526L47.3652,1.4292c-1.418-1.6932-3.9396-1.912-5.6348-0.4904c-0.9412,0.7912-1.4276,1.924-1.4276,3.0648
	c0,0.908,0.3064,1.82,0.9376,2.57l29.5432,35.17l-1.472,1.752c-39.8,1.3348-69.0744,14.484-69.2904,31.6784
	C0.0204,75.2104,0,75.2416,0,75.2788v96.084c0,18.242,32.674,32,76,32s76-13.758,76-32v-96.084
	C152,75.2416,151.9796,75.2104,151.9788,75.174z M125.7812,99.9052c7.572-2.6968,13.7504-6.0336,18.2188-9.848v64.1964
	L125.7812,99.9052z M62.2628,51.8872L45.2404,72.152c-0.6312,0.75-0.9376,1.662-0.9376,2.57c0,1.1408,0.4864,2.2736,1.4276,3.0648
	c0.75,0.6308,1.662,0.9372,2.5704,0.9372c1.1408,0,2.2736-0.4864,3.0644-1.4276L73.102,51.4196
	c0.9704-0.0148,1.9128-0.0568,2.898-0.0568c0.99,0,1.9372,0.042,2.912,0.0572l21.7364,25.8764
	c0.7912,0.9432,1.924,1.4276,3.0644,1.4276c0.9084,0,1.8204-0.3064,2.5704-0.9372c0.9416-0.7912,1.4276-1.924,1.4276-3.0648
	c0-0.908-0.3064-1.82-0.9372-2.57l-17.022-20.264C122.312,54.3668,144,65.3624,144,75.3628
	c0,11.1368-26.9088,23.4908-65.7664,23.956c-0.4068-0.124-0.8328-0.1964-1.2728-0.1904c-0.42,0.0128-0.8256,0.0944-1.208,0.2296
	c-14.0532-0.0188-26.5624-1.6088-36.9288-4.136c-0.1516-0.042-0.2844-0.124-0.4432-0.1484
	c-0.0592-0.0088-0.114,0.0096-0.1732,0.0032C19.472,90.4048,8,82.6264,8,75.3628C8,65.3608,29.6948,54.3632,62.2628,51.8872z
	 M117.04,102.56l-4.5848,73.6952l-29.288-69.0348C95.7244,106.7684,107.1876,105.1244,117.04,102.56z M71.3848,107.2712
	l-23.7012,67.2832l-5.5004-70.3468C50.9924,105.9628,60.828,107.028,71.3848,107.2712z M32.2956,101.856L8,161.5596V90.0572
	C13.6144,94.85,21.934,98.892,32.2956,101.856z M10.2784,177.022c0.048-0.0956,0.1316-0.16,0.1728-0.2608l24.6444-60.5624
	l5.906,75.5372C25.628,188.2884,14.7248,182.7916,10.2784,177.022z M49.54,193.3624l27.8916-79.1792l32.9616,77.6956
	c-9.8608,2.1592-21.4832,3.484-34.3932,3.484C66.4024,195.3628,57.5272,194.6216,49.54,193.3624z M119.6492,189.4556l4.3392-69.7296
	l18.408,54.916c0.0972,0.288,0.2856,0.5088,0.4372,0.7584C139.9576,180.59,131.7468,185.7008,119.6492,189.4556z"/>
</svg>
