<?xml version="1.0" encoding="utf-8"?>
<!-- Generator: Adobe Illustrator 19.2.0, SVG Export Plug-In . SVG Version: 6.00 Build 0)  -->
<svg version="1.1" id="duplicate" xmlns="http://www.w3.org/2000/svg" xmlns:xlink="http://www.w3.org/1999/xlink" x="0px" y="0px"
	 viewBox="0 0 160 208" enable-background="new 0 0 160 208" xml:space="preserve">
<path d="M156,0H20c-2.2088,0-4,1.7913-4,4v12H4c-2.2088,0-4,1.7913-4,4v184c0,2.2089,1.7912,4,4,4h136c2.2088,0,4-1.7911,4-4v-12h12
	c2.2088,0,4-1.7911,4-4V4C160,1.7913,158.2088,0,156,0z M136,200H8V24h92v32c0,2.2089,1.7912,4,4,4h32V200z M108,29.6565
	L130.3436,52H108V29.6565z M152,184h-8V56c0-0.0871-0.0444-0.1651-0.05-0.2515c-0.0224-0.3532-0.0908-0.6928-0.2048-1.028
	c-0.0436-0.1288-0.0776-0.254-0.134-0.3772c-0.1948-0.4248-0.44-0.8284-0.7832-1.1713l-36-36
	c-0.3432-0.3435-0.7476-0.5891-1.1724-0.784c-0.1228-0.0563-0.2468-0.0895-0.3744-0.1331c-0.3368-0.1149-0.6776-0.1829-1.032-0.2052
	C104.1636,16.044,104.086,16,104,16H24V8h128V184z"/>
</svg>
