<?xml version="1.0" encoding="utf-8"?>
<!-- Generator: Adobe Illustrator 19.2.0, SVG Export Plug-In . SVG Version: 6.00 Build 0)  -->
<svg version="1.1" id="earthcomposition" xmlns="http://www.w3.org/2000/svg" xmlns:xlink="http://www.w3.org/1999/xlink" x="0px"
	 y="0px" viewBox="0 0 232 232" enable-background="new 0 0 232 232" xml:space="preserve">
<g>
	<path fill="none" d="M120.1172,52.1248v127.75C153.4864,177.8008,180,149.9432,180,116S153.4864,54.1992,120.1172,52.1248z"/>
	<path fill="none" d="M95.6388,80.7872c-2.1956,4.7168-5.4648,8.072-8.092,10.7676c-3.9492,4.0544-3.75,4.32-3.1544,5.1112
		c2.138,2.8388,15.1368,7.246,27.6076,10.2988v-34.478C106.2944,73.4316,97.9488,75.8232,95.6388,80.7872z"/>
	<path fill="none" d="M33.254,150.2208c1.7556-1.8008,3.8788-3.7288,6.0624-5.7072c4.1076-3.7208,11.75-10.6464,11.2752-13.328
		c-0.0604-0.334-0.7184-1.1252-2.8164-1.9748c-17.2656-7-17.6892-18.7088-18.332-36.4356
		c-0.3808-10.578,8.1504-15.6696,15.678-20.162c9.6972-5.7888,15.0136-9.5584,11.5232-19.7284
		c-3.7428-10.9044-5.584-17.884-6.43-22.4508C24.5684,50.1984,8,81.1928,8,116c0,19.6284,5.29,38.0336,14.4796,53.912
		C24.4208,163.8324,27.8056,155.8056,33.254,150.2208z"/>
	<path fill="none" d="M204,116c0-47.182-37.3268-85.7988-84-87.8984v16.0956c37.8272,2.0392,68,33.414,68,71.8028
		s-30.1728,69.7636-68,71.8028v16.0956C166.6732,201.7988,204,163.182,204,116z"/>
	<path fill="none" d="M120,8.1016v12c51.0844,2.1064,92,44.306,92,95.8984s-40.9156,93.792-92,95.8984v12
		C177.702,221.7836,224,174.2096,224,116S177.702,10.2164,120,8.1016z"/>
	<path fill="none" d="M112,115.1952c-9.5672-2.2344-29.3052-7.4864-33.998-13.7168c-4.922-6.5388,0.1288-11.7224,3.8164-15.5056
		c2.3184-2.3812,4.9452-5.0764,6.5664-8.5608C92.7072,68.1244,105.4792,65.2528,112,64.3768V8.1016
		c-19.9968,0.7328-38.6124,6.9256-54.4164,17.1328c0.0708,1.9,0.844,8.206,6.6272,25.0528
		c5.7696,16.8064-6.2284,23.9668-14.99,29.1952c-7.4356,4.4376-11.9824,7.4396-11.7812,13.004
		c0.6816,18.83,1.408,24.4724,13.3396,29.3104c4.4844,1.8184,7.0704,4.506,7.6896,7.9904
		c1.248,7.0372-6.3928,13.9588-13.7792,20.6544c-2.0568,1.8632-4.0568,3.6716-5.7092,5.3652
		c-6.8452,7.0176-9.9096,19.716-10.6388,23.1648c18.896,26.2292,49.2388,43.6652,83.6584,44.9268V115.1952z"/>
	<path d="M232,116C232,52.0372,179.9628,0,116,0S0,52.0372,0,116c0,62.6216,49.8856,113.7792,112,115.8984V232h8v-0.1016
		C182.1144,229.7792,232,178.6216,232,116z M112,106.9648c-12.4708-3.0528-25.4696-7.46-27.6076-10.2988
		c-0.5956-0.7912-0.7948-1.0568,3.1544-5.1112c2.6272-2.6956,5.8964-6.0508,8.092-10.7676c2.31-4.964,10.6556-7.3556,16.3612-8.3004
		V106.9648z M120,187.8028c37.8272-2.0392,68-33.414,68-71.8028s-30.1728-69.7636-68-71.8028V28.1016
		C166.6732,30.2012,204,68.818,204,116s-37.3268,85.7988-84,87.8984V187.8028z M120.1172,179.8748v-127.75
		C153.4864,54.1992,180,82.0568,180,116S153.4864,177.8008,120.1172,179.8748z M50.2144,30.434
		c0.846,4.5668,2.6872,11.5464,6.43,22.4508c3.4904,10.17-1.826,13.9396-11.5232,19.7284
		c-7.5276,4.4924-16.0588,9.584-15.678,20.162c0.6428,17.7268,1.0664,29.4356,18.332,36.4356
		c2.098,0.8496,2.756,1.6408,2.8164,1.9748c0.4748,2.6816-7.1676,9.6072-11.2752,13.328c-2.1836,1.9784-4.3068,3.9064-6.0624,5.7072
		c-5.4484,5.5848-8.8332,13.6116-10.7744,19.6912C13.29,154.0336,8,135.6284,8,116C8,81.1928,24.5684,50.1984,50.2144,30.434z
		 M28.3416,178.9716c0.7292-3.4488,3.7936-16.1472,10.6388-23.1648c1.6524-1.6936,3.6524-3.502,5.7092-5.3652
		c7.3864-6.6956,15.0272-13.6172,13.7792-20.6544c-0.6192-3.4844-3.2052-6.172-7.6896-7.9904
		c-11.9316-4.838-12.658-10.4804-13.3396-29.3104c-0.2012-5.5644,4.3456-8.5664,11.7812-13.004
		c8.7616-5.2284,20.7596-12.3888,14.99-29.1952c-5.7832-16.8468-6.5564-23.1528-6.6272-25.0528
		C73.3876,15.0272,92.0032,8.8344,112,8.1016v56.2752c-6.5208,0.876-19.2928,3.7476-23.6152,13.0352
		c-1.6212,3.4844-4.248,6.1796-6.5664,8.5608c-3.6876,3.7832-8.7384,8.9668-3.8164,15.5056
		c4.6928,6.2304,24.4308,11.4824,33.998,13.7168v108.7032C77.5804,222.6368,47.2376,205.2008,28.3416,178.9716z M120,223.8984v-12
		c51.0844-2.1064,92-44.306,92-95.8984s-40.9156-93.792-92-95.8984v-12C177.702,10.2164,224,57.7904,224,116
		S177.702,221.7836,120,223.8984z"/>
</g>
</svg>
