<?xml version="1.0" encoding="utf-8"?>
<!-- Generator: Adobe Illustrator 19.2.0, SVG Export Plug-In . SVG Version: 6.00 Build 0)  -->
<svg version="1.1" id="emptytag" xmlns="http://www.w3.org/2000/svg" xmlns:xlink="http://www.w3.org/1999/xlink" x="0px" y="0px"
	 viewBox="0 0 186.192 186.1971" enable-background="new 0 0 186.192 186.1971" xml:space="preserve">
<g>
	<path d="M183.3596,6.6424c-0.0996-2.0588-1.746-3.7072-3.8068-3.8048l-59.3964-2.828c-1.1308-0.082-2.2208,0.3672-3.0176,1.168
		L1.172,117.1423c-0.75,0.75-1.172,1.7656-1.172,2.828c0,1.0628,0.422,2.0784,1.172,2.8284l62.2264,62.2265
		c0.7816,0.7811,1.8048,1.1719,2.8284,1.1719c1.0232,0,2.0468-0.3908,2.828-1.1719L185.0196,69.0603
		c0.7968-0.7968,1.2208-1.8944,1.168-3.0196L183.3596,6.6424z M66.2268,176.5407L9.6564,119.9703L121.5452,8.0836l53.996,2.5744
		l2.5704,53.9959L66.2268,176.5407z"/>
	<path d="M128.4512,35.1188c-3.0212,3.0236-4.6856,7.0391-4.6856,11.3128c0,4.2731,1.6644,8.2927,4.6856,11.3123
		c3.0236,3.0232,7.0412,4.6877,11.3144,4.6877c4.2736,0,8.2912-1.6645,11.3128-4.6877c3.0212-3.0196,4.6872-7.0352,4.6872-11.3123
		c0-4.2737-1.664-8.2892-4.6872-11.3128C145.0352,29.072,134.4944,29.072,128.4512,35.1188z M145.422,52.0875
		c-3.0236,3.0236-8.2912,3.0236-11.3144,0c-1.51-1.5116-2.342-3.5196-2.342-5.6559c0-2.1369,0.832-4.1449,2.342-5.6564
		c1.5116-1.5116,3.5216-2.3436,5.658-2.3436c2.1368,0,4.1448,0.832,5.6564,2.3436c1.5116,1.5115,2.3436,3.5195,2.3436,5.6564
		C147.7656,48.5679,146.9336,50.5759,145.422,52.0875z"/>
</g>
</svg>
