<?xml version="1.0" encoding="utf-8"?>
<!-- Generator: Adobe Illustrator 19.2.0, SVG Export Plug-In . SVG Version: 6.00 Build 0)  -->
<svg version="1.1" id="engagement" xmlns="http://www.w3.org/2000/svg" xmlns:xlink="http://www.w3.org/1999/xlink" x="0px" y="0px"
	 viewBox="0 0 212 201.2431" enable-background="new 0 0 212 201.2431" xml:space="preserve">
<g>
	<path d="M94.3068,66.868c0.5368,0.25,1.1152,0.3751,1.6932,0.3751c0.5548,0,1.1076-0.1131,1.6252-0.3435
		c1.0312-0.4612,25.2868-11.3984,31.3456-27.1876c2.9764-7.754,3.6036-15.926,1.7656-23.0196
		c-1.9648-7.5744-6.4768-13.0624-12.7032-15.4533c-6.9668-2.6755-15-0.9567-21.9552,4.5589
		c-4.8692-2.6056-14.6016-7.0156-20.9804-4.5589c-6.2264,2.3909-10.7384,7.8789-12.7032,15.4533
		C60.5568,23.786,61.1836,31.958,64.16,39.712C70.2052,55.458,93.326,66.4072,94.3068,66.868z M70.1388,18.7005
		c1.2988-5.004,4.078-8.5548,7.826-9.9924c0.4044-0.1564,0.9064-0.2264,1.4844-0.2264c3.754,0,10.7284,3.0116,15.0488,5.6172
		c1.5448,0.9256,3.5196,0.7188,4.8244-0.5277c5.1364-4.8827,11.0584-6.7067,15.8436-4.8631c3.748,1.4376,6.5272,4.9884,7.826,9.9924
		c1.424,5.492,0.8948,11.9336-1.49,18.1444c-3.7168,9.6836-18.3164,18.4608-25.4436,21.9532
		c-5.0604-2.6368-20.3512-11.3284-24.4296-21.9532C69.244,30.634,68.7148,24.1924,70.1388,18.7005z"/>
	<path d="M144,65.2431c-37.496,0-68,30.504-68,68c0,13.2697,3.8244,26.1249,11.0584,37.1877
		c1.2092,1.8476,3.6856,2.3632,5.5372,1.156c1.8496-1.2108,2.3672-3.6872,1.1584-5.5388C87.3732,156.2941,84,144.9505,84,133.2431
		c0-33.0859,26.916-60,60-60s60,26.9141,60,60c0,33.0861-26.916,60-60,60c-10.664,0-21.1348-2.832-30.2812-8.1915
		c-1.9064-1.1132-4.3536-0.4765-5.4728,1.43c-1.1172,1.906-0.4764,4.3592,1.4296,5.4764
		c10.3712,6.0744,22.2404,9.2851,34.3244,9.2851c37.496,0,68-30.504,68-68S181.496,65.2431,144,65.2431z"/>
	<path d="M111.1972,97.5049c-1.3456-1.75-3.8612-2.082-5.6092-0.7344c-1.752,1.344-2.08,3.8556-0.7344,5.6096
		C112.1444,111.872,116,123.2392,116,135.2431c0,29.7773-24.2248,54-54,54s-54-24.2227-54-54c0-29.7771,24.2248-54,54-54
		c7.3204,0,14.418,1.4377,21.0956,4.2737c2.0412,0.8748,4.3828-0.086,5.246-2.1172c0.8636-2.0316-0.0836-4.3792-2.1168-5.2424
		C78.5508,74.8957,70.4004,73.2431,62,73.2431c-34.1876,0-62,27.8125-62,62c0,34.1877,27.8124,62,62,62s62-27.8123,62-62
		C124,121.458,119.5724,108.4111,111.1972,97.5049z"/>
</g>
</svg>
