<?xml version="1.0" encoding="utf-8"?>
<!-- Generator: Adobe Illustrator 19.2.0, SVG Export Plug-In . SVG Version: 6.00 Build 0)  -->
<svg version="1.1" id="engineer" xmlns="http://www.w3.org/2000/svg" xmlns:xlink="http://www.w3.org/1999/xlink" x="0px" y="0px"
	 viewBox="0 0 192.0363 232" enable-background="new 0 0 192.0363 232" xml:space="preserve">
<path d="M191.346,218.1713c0.0564-0.0864,0.0888-0.186,0.1384-0.2772c0.3976-0.7196,0.6384-1.5328,0.5229-2.4096
	c-0.0113-0.0845-0.064-0.1496-0.0805-0.2316c-0.0075-0.0396-0.0292-0.072-0.038-0.1112c-0.1084-0.4764-0.2744-0.9208-0.5335-1.3132
	c-0.0229-0.0348-0.0589-0.0588-0.0825-0.0928c-0.27-0.3824-0.5812-0.7224-0.9592-0.9892c-0.0823-0.0588-0.1848-0.084-0.272-0.1364
	c-0.3583-0.2144-0.7268-0.396-1.1368-0.4888c-0.0295-0.0072-0.0512-0.0288-0.0812-0.0352l-73.0976-15.3888
	c0.1352-0.8868,0.2733-1.7736,0.2733-2.6973v-13.916c7.3059-2.8455,13.7351-7.2095,19.1835-13.1543
	c7.0992-7.7424,11.8548-17.3084,15.0268-27.086c0.0196,0,0.0396,0.004,0.0592,0.004c4.3124,0,8.4884-1.3904,11.992-4.0312
	c4.2656-3.2148,7.0276-7.8984,7.7696-13.1876c1.3752-9.7828-4.6324-18.8809-13.7416-21.786
	c0.0748-3.5704,0.024-6.5949-0.0592-8.8429h7.7697c1.836,0,3.4335-1.2499,3.8787-3.0311l4-16
	c0.3008-1.1952,0.0312-2.4609-0.7264-3.4296c-0.758-0.9728-1.922-1.5393-3.1523-1.5393h-8.2657
	c-2.3388-23.94-17.558-45.1995-39.7343-55.4127v-0.5676C119.9993,5.3909,114.6008,0,107.964,0H76.0344
	c-6.6368,0-12.0351,5.3909-12.0351,12.0197v1.828C43.6833,24.3605,30.188,44.684,28.0073,68h-8.008
	c-1.2305,0-2.3945,0.5665-3.1525,1.5393c-0.7576,0.9687-1.0272,2.2344-0.7264,3.4296l4,16C20.5656,90.7501,22.1633,92,23.9993,92
	h7.7695c-0.084,2.2633-0.1352,5.3125-0.058,8.9153c-8.948,3.0044-14.8064,12.0336-13.446,21.7136
	c0.7425,5.2892,3.504,9.9728,7.7696,13.1876c3.4376,2.5904,7.524,3.96,11.7496,4.0115c3.172,9.7833,7.9284,19.3549,15.0316,27.1017
	c6.4256,7.0108,14.1884,11.8696,23.1837,14.5644V194c0,0.9237,0.1379,1.8105,0.2731,2.6973L3.1748,212.0861
	c-1.906,0.4024-3.25,2.1212-3.1715,4.0704c0.0739,1.9492,1.5467,3.5584,3.4803,3.8084l92.0237,12
	C95.6788,231.9885,95.8508,232,96.0228,232c0.1716,0,0.3436-0.0115,0.5156-0.0351l92.0192-12
	c0.1324-0.0172,0.236-0.094,0.3632-0.1236c0.2592-0.0628,0.5025-0.1416,0.742-0.2533c0.2388-0.108,0.4584-0.2227,0.668-0.3727
	c0.1472-0.1064,0.272-0.23,0.4036-0.356C190.9624,218.6445,191.1744,218.432,191.346,218.1713z M162.1084,121.5117
	c-0.7304,5.196-4.702,9.0923-9.5856,10.0536c1.8784-7.8524,2.878-15.548,3.3696-22.2516
	C160.1836,111.6293,162.8264,116.4097,162.1084,121.5117z M25.1244,76h6.6248c2.1484,0,3.9101-1.6951,3.996-3.8435
	c0.8144-20.5516,11.4941-38.8412,28.2541-49.1332V24c0,2.2109,1.7891,4,4,4c2.2107,0,4-1.7891,4-4V12.0197
	C71.9993,9.8049,73.8076,8,76.0344,8h11.9649v8c0,2.2109,1.7891,4,4,4c2.2107,0,4-1.7891,4-4V8h11.9647
	c2.2268,0,4.0353,1.8049,4.0353,4.0197V24c0,2.2109,1.7891,4,4,4c2.2107,0,4-1.7891,4-4v-2.4867
	c18.78,10.0836,31.1667,29.3936,32.004,50.6432c0.0819,2.1484,1.8475,3.8435,3.996,3.8435h6.8751l-2,8h-8.8751h-116h-8.8749
	L25.1244,76z M148.2064,92c0.068,1.9897,0.1056,4.7541,0.0432,8h-8.2503h-40h-12h-40h-8.2505c-0.0624-3.2459-0.0248-6.0103,0.0432-8
	H148.2064z M103.9993,108h32v16h-24c-4.4101,0-8-3.5899-8-8V108z M51.9993,108h32v8c0,4.4101-3.5901,8-8,8h-24V108z
	 M26.1868,121.5117c-0.7028-4.9924,1.8028-9.6928,5.9304-12.0632c0.4932,6.6572,1.4876,14.2808,3.3452,22.0624
	C30.742,130.4405,26.904,126.5909,26.1868,121.5117z M40.1092,108h3.8901v20c0,2.2109,1.7891,4,4,4h28c8.8243,0,16-7.1755,16-16v-8
	h4v8c0,8.8245,7.1755,16,16,16h28c2.2107,0,4-1.7891,4-4v-20h3.8899c-1.1316,16.2653-5.2459,38.9685-18.6164,53.5393
	C120.468,171.1369,108.6008,176,93.9993,176c-14.6017,0-26.4689-4.8631-35.2737-14.4607
	C45.3553,146.9685,41.2408,124.2653,40.1092,108z M93.9993,184c4.944,0,9.5915-0.5483,14-1.5219V194c0,5.5157-4.5,10-10.0353,10
	h-3.9296c-5.5351,0-10.0351-4.4843-10.0351-10v-10.7851C87.2116,183.6965,90.5233,184,93.9993,184z M96.0228,223.9649
	l-68.2032-8.8904l51.4212-10.8272C82.5012,208.9213,87.9073,212,94.0344,212h3.9296c6.1273,0,11.5332-3.0787,14.7936-7.7527
	l51.44,10.8296L96.0228,223.9649z"/>
</svg>
