<?xml version="1.0" encoding="utf-8"?>
<!-- Generator: Adobe Illustrator 19.2.0, SVG Export Plug-In . SVG Version: 6.00 Build 0)  -->
<svg version="1.1" id="envelopecircle" xmlns="http://www.w3.org/2000/svg" xmlns:xlink="http://www.w3.org/1999/xlink" x="0px"
	 y="0px" viewBox="0 0 228 160" enable-background="new 0 0 228 160" xml:space="preserve">
<g>
	<path fill="none" d="M178.2043,52.4832l-73.88,52.7708C103.6287,105.75,102.8163,106,102,106c-0.8165,0-1.6289-0.25-2.3245-0.746
		L8,39.7712v106.5724l56.3711-56.3708c1.5624-1.5628,4.0936-1.5628,5.656,0c1.5628,1.5624,1.5628,4.0936,0,5.656L13.6563,152
		h176.6872l-56.3708-56.3712c-1.5628-1.5624-1.5628-4.0936,0-5.656c1.5624-1.5628,4.0936-1.5628,5.656,0L196,146.3436V59.8988
		C189.1991,59.4472,183.0227,56.7308,178.2043,52.4832z"/>
	<path fill="none" d="M16.4795,36L102,97.086l70.9255-50.6604c-2.0524-3.1228-3.55-6.6416-4.3208-10.4256H16.4795z"/>
	<circle fill="none" cx="198" cy="30" r="10"/>
	<path fill="none" d="M198,8c-12.1289,0-22,9.8712-22,22c0,5.4724,2.0219,10.4732,5.3415,14.3272
		c0.2052,0.1872,0.4396,0.3324,0.6076,0.5672c0.0444,0.062,0.0492,0.136,0.0892,0.1996C186.0515,49.3356,191.7151,52,198,52
		c12.1287,0,22-9.8712,22-22C220,17.8712,210.1287,8,198,8z M198,48c-9.9257,0-18-8.0744-18-18c0-9.9256,8.0743-18,18-18
		c9.9255,0,18,8.0744,18,18C216,39.9256,207.9255,48,198,48z"/>
	<path d="M228,30c0-16.5428-13.4573-30-30-30c-15.868,0-28.8621,12.3904-29.8989,28H4c-0.1133,0-0.208,0.0548-0.3189,0.0644
		c-0.2696,0.022-0.52,0.0812-0.7804,0.1572C2.648,28.2952,2.4095,28.3712,2.18,28.4908C1.9687,28.6,1.7851,28.7384,1.5935,28.8856
		c-0.228,0.1768-0.4348,0.3576-0.6204,0.5784c-0.0684,0.0812-0.164,0.124-0.2272,0.2116c-0.0828,0.1164-0.0992,0.2532-0.168,0.3748
		C0.44,30.2912,0.328,30.532,0.2419,30.8008c-0.0832,0.2608-0.1299,0.5144-0.1576,0.7824C0.0687,31.7268,0,31.852,0,32v124
		c0,0.5204,0.1059,1.0392,0.308,1.528c0.4051,0.9792,1.1847,1.7588,2.164,2.164C2.9607,159.894,3.4795,160,4,160h196
		c0.5203,0,1.0387-0.106,1.5275-0.308c0.9796-0.4052,1.7592-1.1852,2.1645-2.1648C203.8939,157.0388,204,156.5204,204,156V59.3952
		C217.6771,56.608,228,44.4884,228,30z M139.6287,89.9728c-1.5624-1.5628-4.0936-1.5628-5.656,0
		c-1.5628,1.5624-1.5628,4.0936,0,5.656L190.3435,152H13.6563l56.3708-56.3712c1.5628-1.5624,1.5628-4.0936,0-5.656
		c-1.5624-1.5628-4.0936-1.5628-5.656,0L8,146.3436V39.7712l91.6755,65.4828C100.3711,105.75,101.1835,106,102,106
		c0.8163,0,1.6287-0.25,2.3243-0.746l73.88-52.7708c4.8184,4.2476,10.9948,6.964,17.7957,7.4156v86.4448L139.6287,89.9728z
		 M102,97.086L16.4795,36h152.1252c0.7708,3.784,2.2684,7.3028,4.3208,10.4256L102,97.086z M198,52
		c-6.2849,0-11.9485-2.6644-15.9617-6.906c-0.04-0.0636-0.0448-0.1376-0.0892-0.1996c-0.168-0.2348-0.4024-0.38-0.6076-0.5672
		C178.0219,40.4732,176,35.4724,176,30c0-12.1288,9.8711-22,22-22c12.1287,0,22,9.8712,22,22C220,42.1288,210.1287,52,198,52z"/>
	<path d="M198,12c-9.9257,0-18,8.0744-18,18c0,9.9256,8.0743,18,18,18c9.9255,0,18-8.0744,18-18C216,20.0744,207.9255,12,198,12z
		 M198,40c-5.5157,0-10-4.4844-10-10c0-5.5156,4.4843-10,10-10c5.5155,0,10,4.4844,10,10C208,35.5156,203.5155,40,198,40z"/>
</g>
</svg>
