<?xml version="1.0" encoding="utf-8"?>
<!-- Generator: Adobe Illustrator 19.2.0, SVG Export Plug-In . SVG Version: 6.00 Build 0)  -->
<svg version="1.1" id="equal" xmlns="http://www.w3.org/2000/svg" xmlns:xlink="http://www.w3.org/1999/xlink" x="0px" y="0px"
	 viewBox="0 0 216 216" enable-background="new 0 0 216 216" xml:space="preserve">
<g>
	<path fill="none" d="M108,8C52.8591,8,8,52.8592,8,108s44.8591,100,100,100c55.1407,0,100-44.8592,100-100S163.1407,8,108,8z
		 M160,132H56c-2.2109,0-4-1.7912-4-4s1.7891-4,4-4h104c2.2107,0,4,1.7912,4,4S162.2107,132,160,132z M160,96H56
		c-2.2109,0-4-1.7912-4-4s1.7891-4,4-4h104c2.2107,0,4,1.7912,4,4S162.2107,96,160,96z"/>
	<path d="M108,0C48.4491,0,0,48.4492,0,108s48.4491,108,108,108c59.5507,0,108-48.4492,108-108S167.5507,0,108,0z M108,208
		C52.8591,208,8,163.1408,8,108S52.8591,8,108,8c55.1407,0,100,44.8592,100,100S163.1407,208,108,208z"/>
	<path d="M160,88H56c-2.2109,0-4,1.7912-4,4s1.7891,4,4,4h104c2.2107,0,4-1.7912,4-4S162.2107,88,160,88z"/>
	<path d="M160,124H56c-2.2109,0-4,1.7912-4,4s1.7891,4,4,4h104c2.2107,0,4-1.7912,4-4S162.2107,124,160,124z"/>
</g>
</svg>
