<?xml version="1.0" encoding="utf-8"?>
<!-- Generator: Adobe Illustrator 19.2.0, SVG Export Plug-In . SVG Version: 6.00 Build 0)  -->
<svg version="1.1" id="exclusion" xmlns="http://www.w3.org/2000/svg" xmlns:xlink="http://www.w3.org/1999/xlink" x="0px" y="0px"
	 viewBox="0 0 208.213 208" enable-background="new 0 0 208.213 208" xml:space="preserve">
<g>
	<path fill="none" d="M89.5977,8c-0.1652,0.2744-0.296,0.5656-0.5332,0.8028L9.0097,88.8576
		c-0.2352,0.2352-0.5244,0.3644-0.7967,0.5292v36.9548L126.5565,8H89.5977z"/>
	<polygon fill="none" points="114.5565,68 132.213,50.3436 132.213,13.6564 77.8681,68 	"/>
	<path fill="none" d="M8.213,78.3416L78.5545,8H45.6069c-0.1619,0.2648-0.2859,0.5464-0.5152,0.7752L8.213,45.6564V78.3416z"/>
	<rect x="76.213" y="76" fill="none" width="56" height="56"/>
	<polygon fill="none" points="68.213,77.6552 13.8673,132 50.5565,132 68.213,114.3436 	"/>
	<polygon fill="none" points="125.8693,68 132.213,68 132.213,61.6564 	"/>
	<path fill="none" d="M140.213,136c0,2.2088-1.7893,4-4,4h-60v60h124V76h-60V136z"/>
	<polygon fill="none" points="61.8693,132 68.213,132 68.213,125.6564 	"/>
	<polygon fill="none" points="34.5549,8 8.213,8 8.213,34.3436 	"/>
	<path d="M204.213,68h-64V4c0-2.2088-1.7893-4-4-4h-132c-2.2109,0-4,1.7912-4,4v38.966c-0.284,0.8352-0.284,1.7328,0,2.568V136
		c0,2.2088,1.7891,4,4,4h64v64c0,2.2088,1.7891,4,4,4h132c2.2107,0,4-1.7912,4-4V72C208.213,69.7912,206.4237,68,204.213,68z
		 M13.8673,132L68.213,77.6552v36.6884L50.5565,132H13.8673z M45.6069,8h32.9476L8.213,78.3416V45.6564L45.0917,8.7752
		C45.321,8.5464,45.445,8.2648,45.6069,8z M8.213,89.3868c0.2723-0.1648,0.5615-0.294,0.7967-0.5292L89.0645,8.8028
		C89.3017,8.5656,89.4325,8.2744,89.5977,8h36.9588L8.213,126.3416V89.3868z M132.213,50.3436L114.5565,68H77.8681l54.3449-54.3436
		V50.3436z M76.213,76h56v56h-56V76z M125.8693,68l6.3437-6.3436V68H125.8693z M34.5549,8L8.213,34.3436V8H34.5549z M61.8693,132
		l6.3437-6.3436V132H61.8693z M200.213,200h-124v-60h60c2.2107,0,4-1.7912,4-4V76h60V200z"/>
</g>
</svg>
