<?xml version="1.0" encoding="utf-8"?>
<!-- Generator: Adobe Illustrator 19.2.0, SVG Export Plug-In . SVG Version: 6.00 Build 0)  -->
<svg version="1.1" id="explosion" xmlns="http://www.w3.org/2000/svg" xmlns:xlink="http://www.w3.org/1999/xlink" x="0px" y="0px"
	 viewBox="0 0 220 224.0026" enable-background="new 0 0 220 224.0026" xml:space="preserve">
<g>
	<path fill="none" d="M123.2595,165.819c-2.5232,0-4.9492,0.5352-7.2068,1.5936l-3.09,1.4416l-1.914-2.8204
		c-2.5644-3.7772-6.8612-6.0312-11.494-6.0312c-7.5976,0-13.7776,6.0352-13.7776,13.4532v4.3672l-4.3516-0.3164
		c-0.3708-0.0312-0.748-0.0508-1.1288-0.0508c-6.7812,0-12.2968,5.3828-12.2968,12c0,6.2384,4.9844,11.496,11.3496,11.9688
		l3.1288,0.2304l0.5196,3.0936c1.0956,6.5236,6.8124,11.254,13.5936,11.254c7.598,0,13.7796-6.0352,13.7796-13.4532
		c0-0.5272-0.0312-1.0468-0.09-1.5584l-0.826-7.1564l6.5096,3.082c2.2872,1.086,4.7404,1.6328,7.2948,1.6328
		c9.2308,0,16.7404-7.3396,16.7404-16.3632C139.9998,173.1626,132.4902,165.819,123.2595,165.819z"/>
	<path d="M123.2595,157.819c-2.6188,0-5.1696,0.3944-7.6152,1.1756c-4.0956-4.4256-9.908-6.992-16.0896-6.992
		c-10.6604,0-19.5568,7.586-21.42,17.5664c-10.1776,1.0664-18.1348,9.578-18.1348,19.8868c0,9.406,6.7344,17.4724,15.8008,19.5076
		c2.7892,8.8672,11.1076,15.0392,20.7908,15.0392c10.8108,0,19.8068-7.7968,21.4944-17.9844
		c1.6876,0.3516,3.414,0.5312,5.1736,0.5312c13.6428,0,24.7404-10.9296,24.7404-24.3632
		C147.9998,168.7486,136.9023,157.819,123.2595,157.819z M123.2595,198.5494c-2.5544,0-5.0076-0.5468-7.2948-1.6328l-6.5096-3.082
		l0.826,7.1564c0.0588,0.5116,0.09,1.0312,0.09,1.5584c0,7.418-6.1816,13.4532-13.7796,13.4532
		c-6.7812,0-12.498-4.7304-13.5936-11.254l-0.5196-3.0936l-3.1288-0.2304c-6.3652-0.4728-11.3496-5.7304-11.3496-11.9688
		c0-6.6172,5.5156-12,12.2968-12c0.3808,0,0.758,0.0196,1.1288,0.0508l4.3516,0.3164v-4.3672c0-7.418,6.18-13.4532,13.7776-13.4532
		c4.6328,0,8.9296,2.254,11.494,6.0312l1.914,2.8204l3.09-1.4416c2.2576-1.0584,4.6836-1.5936,7.2068-1.5936
		c9.2308,0,16.7404,7.3436,16.7404,16.3672C139.9998,191.2098,132.4902,198.5494,123.2595,198.5494z"/>
	<path d="M58.5038,99.9442c0.7304,1.3164,2.0936,2.0584,3.5,2.0584c0.656,0,1.324-0.16,1.9392-0.504
		c1.93-1.074,2.6272-3.5076,1.5528-5.4376l-40-72c-1.0684-1.9296-3.504-2.6328-5.4392-1.5544
		c-1.93,1.074-2.6272,3.5076-1.5528,5.4376L58.5038,99.9442z"/>
	<path d="M86.1055,138.9126c0.4296,1.844,2.074,3.09,3.8904,3.09c0.3008,0,0.6076-0.0352,0.9124-0.1056
		c2.152-0.5,3.488-2.6524,2.986-4.8044l-28-120c-0.502-2.1484-2.66-3.4844-4.8028-2.9844c-2.152,0.5-3.488,2.6524-2.986,4.8044
		L86.1055,138.9126z"/>
	<path d="M95.9958,88.0026c0.084,0,0.168-0.004,0.254-0.008c2.2052-0.1364,3.8808-2.0348,3.742-4.242l-4-64
		c-0.1384-2.2072-2.0076-3.8048-4.242-3.742c-2.2052,0.1364-3.8808,2.0348-3.742,4.242l4,64
		C92.1406,86.3738,93.9003,88.0026,95.9958,88.0026z"/>
	<path d="M105.5331,133.9754c0.1584,0.0192,0.3164,0.0272,0.4728,0.0272c2,0,3.7264-1.496,3.9668-3.5312l8-68
		c0.2576-2.1952-1.3108-4.1836-3.506-4.4416c-2.1816-0.2772-4.1796,1.3088-4.4396,3.504l-8,68
		C101.7694,131.729,103.3379,133.7174,105.5331,133.9754z"/>
	<path d="M142.625,95.8542l-28,44c-1.1856,1.8632-0.6368,4.336,1.2264,5.5232c0.666,0.422,1.41,0.6252,2.1444,0.6252
		c1.3224,0,2.6152-0.6564,3.3792-1.8516l28-44c1.1852-1.8632,0.6364-4.336-1.2268-5.5236
		C146.285,93.4478,143.8123,93.9946,142.625,95.8542z"/>
	<path d="M151.7498,89.311c0.6896,0.4688,1.4728,0.6916,2.246,0.6916c1.2792,0,2.5372-0.6132,3.3124-1.75l34-50
		c1.2424-1.828,0.7676-4.3164-1.0584-5.5584c-1.828-1.2424-4.3144-0.766-5.5584,1.0584l-34,50
		C149.449,85.5806,149.9238,88.069,151.7498,89.311z"/>
	<path d="M124.4998,101.7098c0.492,0.1992,1,0.2928,1.498,0.2928c1.582,0,3.08-0.9452,3.7108-2.5l38-94
		c0.8284-2.0508-0.162-4.3788-2.2088-5.2072c-2.0528-0.8356-4.3788,0.1644-5.2088,2.2072l-38,94
		C121.4626,98.5534,122.453,100.8814,124.4998,101.7098z"/>
	<path d="M184.955,89.409l-46,54c-1.4316,1.6796-1.2304,4.2068,0.4512,5.6404c0.752,0.6408,1.6736,0.9532,2.5916,0.9532
		c1.1308,0,2.256-0.4764,3.0468-1.4064l46-54c1.4316-1.6796,1.2304-4.2068-0.4512-5.6404
		C188.9158,87.5222,186.3886,87.7254,184.955,89.409z"/>
	<path d="M183.5994,134.8034l-32,24c-1.7676,1.324-2.1248,3.832-0.7988,5.5976c0.7852,1.0508,1.9864,1.6016,3.2032,1.6016
		c0.834,0,1.6756-0.2616,2.3964-0.8008l32-24c1.7676-1.3244,2.1248-3.832,0.7988-5.5976
		C187.8766,133.8346,185.373,133.479,183.5994,134.8034z"/>
	<path d="M219.1582,113.5454c-1.3596-1.742-3.8772-2.0624-5.6136-0.6992l-18,14c-1.744,1.3556-2.0584,3.8672-0.7032,5.6136
		c0.7892,1.0116,1.9688,1.5428,3.1604,1.5428c0.8592,0,1.7244-0.2736,2.4532-0.8436l18-14
		C220.199,117.8034,220.5134,115.2918,219.1582,113.5454z"/>
	<path d="M39.6463,102.7682c-1.7852,1.2968-2.1816,3.8008-0.8808,5.586l32,44c0.7832,1.078,2.002,1.6484,3.2384,1.6484
		c0.8144,0,1.6384-0.25,2.3496-0.7656c1.7852-1.2968,2.1816-3.8008,0.8808-5.586l-32-44
		C43.9334,101.8618,41.4334,101.4674,39.6463,102.7682z"/>
	<path d="M26.9762,96.6238c0.7912,0.91,1.9044,1.3788,3.0256,1.3788c0.9276,0,1.8612-0.3204,2.6172-0.9764
		c1.67-1.4492,1.8496-3.9728,0.4044-5.6448l-26-30c-1.4456-1.66-3.9728-1.8516-5.6428-0.4024s-1.8496,3.9728-0.4044,5.6448
		L26.9762,96.6238z"/>
	<path d="M60.7167,155.069l-54-50c-1.6212-1.504-4.1504-1.4064-5.6524,0.2148c-1.5,1.6212-1.4024,4.1524,0.2188,5.6524l54,50
		c0.7696,0.7148,1.744,1.0664,2.7168,1.0664c1.0744,0,2.1464-0.4296,2.9356-1.2812
		C62.4355,159.1002,62.3378,156.569,60.7167,155.069z"/>
	<path d="M47.4355,166.2682l-26-10c-2.0588-0.7852-4.3732,0.2344-5.17,2.2968c-0.7928,2.0624,0.2364,4.3792,2.2988,5.172l26,10
		c0.4728,0.1796,0.9572,0.2656,1.4356,0.2656c1.6056,0,3.1212-0.9728,3.7344-2.5624
		C50.5271,169.3774,49.4978,167.061,47.4355,166.2682z"/>
</g>
</svg>
