<?xml version="1.0" encoding="utf-8"?>
<!-- Generator: Adobe Illustrator 19.2.0, SVG Export Plug-In . SVG Version: 6.00 Build 0)  -->
<svg version="1.1" id="fallingstar" xmlns="http://www.w3.org/2000/svg" xmlns:xlink="http://www.w3.org/1999/xlink" x="0px"
	 y="0px" viewBox="0 0 220.6715 215.8174" enable-background="new 0 0 220.6715 215.8174" xml:space="preserve">
<g>
	<path fill="none" d="M168.3983,46.081L152,12.8566L135.6015,46.081c-0.582,1.1816-1.7072,2-3.0116,2.1896l-36.6644,5.326
		l15.2465,14.8616c11.7779-3.0276,24.1179-4.6408,36.828-4.6408c2.2107,0,4,1.7912,4,4s-1.7893,4-4,4
		c-10.3061,0-20.3433,1.1524-30.0209,3.2752l4.478,4.3656c0.8509,0.8312,1.2556,1.994,1.1664,3.1676
		c7.8396-1.8164,15.992-2.8084,24.3765-2.8084c2.2107,0,4,1.7912,4,4s-1.7893,4-4,4c-8.9213,0-17.5661,1.1916-25.8025,3.3932
		l-4.854,28.308l32.7932-17.2424c0.586-0.3064,1.2224-0.4588,1.8633-0.4588c0.6407,0,1.2771,0.1524,1.8631,0.4588l32.7932,17.2424
		l-6.262-36.5196c-0.2223-1.2968,0.2072-2.6212,1.1484-3.5408l26.5316-25.8616l-36.6644-5.326
		C170.1055,48.081,168.9803,47.2626,168.3983,46.081z"/>
	<path d="M220.4763,49.5674c-0.4723-1.4472-1.7224-2.504-3.2304-2.7228l-42.6052-6.1892L155.5859,2.0478
		c-1.344-2.7304-5.828-2.7304-7.172,0l-19.0548,38.6076l-42.6052,6.1892c-1.508,0.2188-2.7579,1.2756-3.2304,2.7228
		c-0.4688,1.4492-0.0784,3.0372,1.0116,4.1016l17.8316,17.38C43.0263,90.3326,0,146.131,0,211.8174c0,2.2088,1.7891,4,4,4
		c2.2107,0,4-1.7912,4-4C8,148.1934,50.6783,94.3822,108.8987,77.415l6.4684,6.3048l-0.2092,1.2196
		C71.6183,98.8714,40,139.715,40,187.8174c0,2.2088,1.7891,4,4,4c2.2107,0,4-1.7912,4-4c0-43.0664,27.3651-79.8604,65.62-93.9092
		l-5.5301,32.2472c-0.2579,1.5,0.3592,3.0176,1.5896,3.912c1.2384,0.8964,2.8712,1.0116,4.2148,0.3048L152,110.337l38.1055,20.0352
		c0.586,0.3064,1.2265,0.4588,1.8632,0.4588c0.828,0,1.6524-0.2576,2.3516-0.7636c1.2304-0.8944,1.8477-2.412,1.5896-3.912
		l-7.2772-42.4356l30.832-30.0508C220.5547,52.6046,220.9451,51.0166,220.4763,49.5674z M181.5427,79.4582
		c-0.9412,0.9196-1.3707,2.244-1.1484,3.5408l6.262,36.5196l-32.7932-17.2424c-0.586-0.3064-1.2224-0.4588-1.8631-0.4588
		c-0.6409,0-1.2773,0.1524-1.8633,0.4588l-32.7932,17.2424l4.854-28.308c8.2364-2.2016,16.8812-3.3932,25.8025-3.3932
		c2.2107,0,4-1.7912,4-4s-1.7893-4-4-4c-8.3845,0-16.5369,0.992-24.3765,2.8084c0.0892-1.1736-0.3155-2.3364-1.1664-3.1676
		l-4.478-4.3656c9.6776-2.1228,19.7148-3.2752,30.0209-3.2752c2.2107,0,4-1.7912,4-4s-1.7893-4-4-4
		c-12.7101,0-25.0501,1.6132-36.828,4.6408L95.9255,53.5966l36.6644-5.326c1.3044-0.1896,2.4296-1.008,3.0116-2.1896L152,12.8566
		l16.3983,33.2244c0.582,1.1816,1.7072,2,3.0116,2.1896l36.6644,5.326L181.5427,79.4582z"/>
</g>
</svg>
