<?xml version="1.0" encoding="utf-8"?>
<!-- Generator: Adobe Illustrator 19.2.0, SVG Export Plug-In . SVG Version: 6.00 Build 0)  -->
<svg version="1.1" id="farm" xmlns="http://www.w3.org/2000/svg" xmlns:xlink="http://www.w3.org/1999/xlink" x="0px" y="0px"
	 viewBox="0 0 145.6162 229.8876" enable-background="new 0 0 145.6162 229.8876" xml:space="preserve">
<path d="M145.3031,224.3349l-32-76c-0.6252-1.4824-2.0784-2.4473-3.6876-2.4473h-12v-25.7847l20.1092,23.0036
	c0.7288,0.834,1.7716,1.328,2.8772,1.3651c0.0448,0.0021,0.0896,0.0021,0.1348,0.0021c1.0584,0,2.078-0.42,2.828-1.172
	l20.506-20.5076c0.7832-0.7832,1.2068-1.8556,1.17-2.9632c-0.0372-1.1052-0.5316-2.1484-1.3656-2.8768l-51.5088-45.026
	l50.802-44.4096c0.834-0.7284,1.328-1.7716,1.3652-2.8768c0.0372-1.1076-0.3868-2.1796-1.17-2.9628l-20.506-20.506
	c-0.7832-0.7832-1.8924-1.2128-2.9628-1.17c-1.1052,0.0372-2.1484,0.5312-2.8768,1.3652L71.9323,52.9429L27.5199,2.1377
	c-0.7288-0.8341-1.7716-1.328-2.8772-1.3652c-1.1112-0.0332-2.1776,0.3868-2.9628,1.17L1.1723,22.4481
	c-0.7832,0.7832-1.2072,1.8555-1.17,2.9632c0.0372,1.1052,0.5312,2.1483,1.3652,2.8768l51.5708,45.0824L2.1995,117.7236
	c-0.834,0.7285-1.328,1.7717-1.3652,2.8769c-0.0372,1.1076,0.3868,2.1796,1.17,2.9628l20.5056,20.508
	c0.75,0.752,1.7696,1.172,2.8284,1.172c0.0448,0,0.0896,0,0.1348-0.002c1.1052-0.0372,2.1484-0.5312,2.8768-1.3652l21.2656-24.3264
	v26.3379h-12c-1.6092,0-3.0624,0.9649-3.6876,2.4473l-32,76c-0.5196,1.2364-0.3868,2.6484,0.3556,3.7656
	c0.7404,1.1151,1.992,1.7871,3.332,1.7871h52h32h52c1.34,0,2.5916-0.672,3.332-1.7871
	C145.6898,226.9833,145.8227,225.5713,145.3031,224.3349z M120.9319,134.6201L78.7151,86.3273l8.3808-8.3812l48.2932,42.2168
	L120.9319,134.6201z M72.6527,81.0773l-8.486-8.4864l8.4868-8.4856l8.4856,8.4856L72.6527,81.0773z M120.2247,9.8545
	l14.4572,14.4571L86.3891,66.5285l-8.3812-8.3812L120.2247,9.8545z M24.3107,10.6241l42.2188,48.2928l-8.3828,8.3808L9.8539,25.0809
	L24.3107,10.6241z M25.1427,135.3897l-14.4568-14.4572l48.2928-42.2169l8.3808,8.3809L25.1427,135.3897z M57.6155,110.3981
	l15.7584-18.0265l16.2416,18.5797v34.9363h-32V110.3981z M61.6155,221.8876v-36h24v36H61.6155z M93.6155,221.8876v-40
	c0-2.2087-1.7912-4-4-4h-32c-2.2088,0-4,1.7913-4,4v40H11.6391l28.6328-68h13.3436h40h13.3436l28.6328,68H93.6155z"/>
</svg>
