<?xml version="1.0" encoding="utf-8"?>
<!-- Generator: Adobe Illustrator 19.2.0, SVG Export Plug-In . SVG Version: 6.00 Build 0)  -->
<svg version="1.1" id="favorite" xmlns="http://www.w3.org/2000/svg" xmlns:xlink="http://www.w3.org/1999/xlink" x="0px" y="0px"
	 viewBox="0 0 156 212" enable-background="new 0 0 156 212" xml:space="preserve">
<g>
	<path d="M154.828,40.3009L115.6523,1.1701C114.9023,0.42,113.8827,0,112.8243,0H4C1.7891,0,0,1.7913,0,4v204c0,2.2089,1.7891,4,4,4
		h148c2.2107,0,4-1.7911,4-4V43.1309C156,42.0685,155.5779,41.0509,154.828,40.3009z M142.3435,40H116V13.6565L142.3435,40z M8,204
		V8h100v36c0,2.2089,1.7891,4,4,4h36v156H8z"/>
	<path d="M128,68H28c-2.2109,0-4,1.7913-4,4v112c0,2.2089,1.7891,4,4,4h100c2.2107,0,4-1.7911,4-4V72
		C132,69.7913,130.2107,68,128,68z M124,180H32V76h92V180z"/>
	<path d="M57.5351,136.6505l-3.4608,20.1796c-0.258,1.5,0.3592,3.0176,1.5897,3.912c1.2383,0.8948,2.8711,1.0139,4.2111,0.3048
		L78,151.5197l18.1251,9.5272c0.582,0.3068,1.2224,0.4592,1.8592,0.4592c0.828,0,1.6564-0.2581,2.3517-0.764
		c1.2303-0.8944,1.8475-2.412,1.5895-3.912l-3.4608-20.1796l14.664-14.2912c1.09-1.0644,1.4804-2.652,1.012-4.1012
		c-0.4727-1.4476-1.7228-2.504-3.2308-2.7228l-20.2616-2.9452l-9.0624-18.3596c-1.344-2.7305-5.828-2.7305-7.172,0l-9.0624,18.3596
		l-20.2616,2.9452c-1.508,0.2188-2.7579,1.2752-3.2308,2.7228c-0.4684,1.4492-0.078,3.0368,1.012,4.1012L57.5351,136.6505z
		 M68.5819,120.2053c1.3048-0.1896,2.4296-1.008,3.0116-2.1896L78,105.0373l6.4063,12.9784c0.582,1.1816,1.7068,2,3.0116,2.1896
		l14.324,2.082l-10.3668,10.1016c-0.9416,0.9196-1.3711,2.244-1.1488,3.5408l2.4457,14.2636l-12.8129-6.7344
		C79.2771,143.1525,78.6407,143,78,143c-0.6409,0-1.2773,0.1525-1.8593,0.4589l-12.8127,6.7344l2.4455-14.2636
		c0.2225-1.2968-0.2072-2.6212-1.1484-3.5408l-10.3672-10.1016L68.5819,120.2053z"/>
</g>
</svg>
