<?xml version="1.0" encoding="utf-8"?>
<!-- Generator: Adobe Illustrator 19.2.0, SVG Export Plug-In . SVG Version: 6.00 Build 0)  -->
<svg version="1.1" id="fingersignal" xmlns="http://www.w3.org/2000/svg" xmlns:xlink="http://www.w3.org/1999/xlink" x="0px"
	 y="0px" viewBox="0 0 127.9952 232" enable-background="new 0 0 127.9952 232" xml:space="preserve">
<g>
	<path d="M113.0868,95.4336c-3.2244,0-5.6676,1.5116-7.5156,3.7068c-0.0564-0.6872-0.0896-1.2812-0.0896-1.754
		c0-10.0504-5.5528-16.5428-14.1484-16.5428c-3.7988,0-6.7052,1.0588-8.8672,2.5548c-1.2988-4.4924-5.1096-9.4768-12.4124-9.4768
		c-4.0252,0-7.1152,1.2032-9.414,2.7228C60.546,64.9216,60.454,53.086,60.454,52.1952C60.454,48.0544,55.4872,40,46.384,40
		c-7.8264,0-12.1956,7.3476-13.5432,11.6872c-0.1052,0.344-0.166,0.6992-0.1776,1.0548l-1.8964,57.1992
		c-3.3164-6.254-8.0628-12.246-11.6348-14.0704c-4.1428-2.1172-11.1448-0.6796-15.2988,3.1252
		c-3.8476,3.5156-4.8556,8.5156-2.7656,13.7148c1.664,4.1328,2.6736,8.9924,3.8416,14.6172c1.4924,7.1796,3.3476,16.1092,7.2988,27
		c6.34,17.5,26.1388,35.9844,31.6564,40.8984v13.1564C43.8644,221.406,54.4756,232,67.5204,232h25.9084
		c13.0448,0,23.658-10.6016,23.658-23.6368v-15.8048c6.6544-9.1212,10.6272-25.5468,10.7992-26.2696
		c0.072-0.3044,0.1092-0.6172,0.1092-0.9296v-54.6524C127.9952,101.57,122.0048,95.4336,113.0868,95.4336z M119.9952,164.8672
		c-0.6856,2.6992-4.5236,17.0976-10.006,23.8008c-0.584,0.7148-0.9024,1.6092-0.9024,2.5312v17.164
		c0,8.6212-7.0232,15.6368-15.658,15.6368H67.5204c-8.6328,0-15.656-7.004-15.656-15.6172V193.414
		c0-1.172-0.5136-2.2852-1.4064-3.0468c-0.242-0.2032-24.2048-20.758-30.7304-38.7656c-3.754-10.3516-5.4708-18.6136-6.9844-25.9024
		c-1.248-6-2.324-11.1796-4.254-15.9728c-1.0408-2.59-0.238-3.8556,0.5784-4.672c1.582-1.582,4.154-2.1716,5.584-2.1716
		c0.3688,0,0.664,0.0388,0.8436,0.1132c2.6972,1.3788,9.252,10.6756,10.9492,17.3984c0.6916,2.7304,1.0392,5.328,1.3456,7.6132
		c0.586,4.3712,1.0508,7.8204,3.664,9.9024c1.1856,0.9452,2.7952,1.1328,4.17,0.504c1.3712-0.6368,2.2696-1.9884,2.3204-3.5
		l2.6932-81.2736C41.1828,52.2656,43.1396,48,46.384,48c4.6348,0,6.0368,4.3124,6.07,4.1992c0,1.8788,0.3772,48.2732,0.3772,48.2732
		c0.0176,2.1136,1.6736,3.8476,3.7832,3.9612c2.1444,0.2344,3.9412-1.4301,4.1892-3.5276l1.7776-15.1404
		c0.7384-1.1524,2.9452-3.844,7.4724-3.844c4.0392,0,4.7912,3.348,4.9612,5.0704l2.5096,16.2268
		c0.3224,2.078,2.2208,3.57,4.3068,3.3708c2.1016-0.1872,3.6952-1.9724,3.6444-4.078l-0.246-10.3828
		c0.4296-1.0312,1.8556-3.2852,6.1036-3.2852c5.082,0,6.1484,4.6444,6.1484,8.5428c0,4.844,2.3184,17.3516,2.582,18.762
		c0.3652,1.9568,2.1388,3.4024,4.1056,3.2576c1.988-0.086,3.6092-1.6208,3.8064-3.6016c0.5548-5.6012,2.9592-12.3708,5.1112-12.3708
		c5.7092,0,6.9084,3.9568,6.9084,7.2732V164.8672z"/>
	<path d="M11.9952,44c2.2088,0,4-1.7892,4-4c0-17.6448,14.3556-32,32-32s32,14.3552,32,32c0,2.2108,1.7912,4,4,4
		c2.2088,0,4-1.7892,4-4c0-22.0548-17.9432-40-40-40s-40,17.9452-40,40C7.9952,42.2108,9.7864,44,11.9952,44z"/>
	<path d="M47.9952,16c-13.2344,0-24,10.7656-24,24c0,2.2108,1.7912,4,4,4s4-1.7892,4-4c0-8.8245,7.1776-16,16-16s16,7.1755,16,16
		c0,2.2108,1.7912,4,4,4c2.2088,0,4-1.7892,4-4C71.9952,26.7656,61.2296,16,47.9952,16z"/>
</g>
</svg>
