<?xml version="1.0" encoding="utf-8"?>
<!-- Generator: Adobe Illustrator 19.2.0, SVG Export Plug-In . SVG Version: 6.00 Build 0)  -->
<svg version="1.1" id="fishsign" xmlns="http://www.w3.org/2000/svg" xmlns:xlink="http://www.w3.org/1999/xlink" x="0px" y="0px"
	 viewBox="0 0 231.0005 86.6912" enable-background="new 0 0 231.0005 86.6912" xml:space="preserve">
<path d="M196.7672,44.0364L229.578,16.406c1.6876-1.4236,1.9064-3.9472,0.4804-5.6365c-1.4176-1.6875-3.9452-1.9143-5.6364-0.4843
	l-33.6496,28.3363C165.5284,15.106,123.0548,0,81.5081,0c-39.9809,0-70.34,15.6308-81.2033,41.8124
	c-0.4064,0.9824-0.4064,2.084,0,3.0664c10.8633,26.1816,41.2188,41.8124,81.2033,41.8124c40.8407,0,82.5807-14.5948,107.968-37.4272
	c0.2811-0.034,0.5647-0.0508,0.8367-0.1452l34.1873,27.35c0.7383,0.5896,1.6211,0.8767,2.496,0.8767
	c1.176,0,2.336-0.5135,3.1291-1.5019c1.3789-1.7244,1.0976-4.2421-0.6251-5.6212L196.7672,44.0364z M8.3632,43.3455
	C18.5156,21.1775,45.6876,8,81.5081,8c38.5071,0,77.7267,13.4604,101.7671,34.5908c0.126,0.3784,0.2984,0.7244,0.5372,1.0556
	c-23.992,21.3956-63.5172,35.0448-102.3043,35.0448C45.6876,78.6912,18.5116,65.5135,8.3632,43.3455z"/>
</svg>
