<?xml version="1.0" encoding="utf-8"?>
<!-- Generator: Adobe Illustrator 19.2.0, SVG Export Plug-In . SVG Version: 6.00 Build 0)  -->
<svg version="1.1" id="flag" xmlns="http://www.w3.org/2000/svg" xmlns:xlink="http://www.w3.org/1999/xlink" x="0px" y="0px"
	 viewBox="0 0 175.999 200.0509" enable-background="new 0 0 175.999 200.0509" xml:space="preserve">
<g>
	<path d="M150.4415,62l25.164-52.2655c0.0688-0.1444,0.0976-0.2988,0.1484-0.4484c0.0568-0.1652,0.1301-0.3252,0.1644-0.4948
		c0.0257-0.1273,0.018-0.2564,0.0312-0.3844c0.0208-0.206,0.0532-0.4104,0.042-0.6164c-0.0068-0.128-0.0464-0.2516-0.0652-0.3785
		c-0.0308-0.2031-0.0492-0.4071-0.1108-0.604c-0.0592-0.1899-0.1604-0.3659-0.2484-0.5471
		c-0.0588-0.1196-0.094-0.2476-0.1648-0.3624c-0.002-0.0032-0.0048-0.0052-0.0068-0.0084
		c-0.0035-0.0061-0.0052-0.0132-0.0088-0.0188c-0.1464-0.2336-0.3296-0.434-0.5168-0.6288c-0.0419-0.0436-0.072-0.0992-0.116-0.1412
		c-0.204-0.1936-0.4352-0.3504-0.6736-0.496c-0.048-0.0296-0.0872-0.0724-0.1363-0.0996c-0.22-0.122-0.4593-0.2028-0.6989-0.2817
		c-0.0804-0.0267-0.1528-0.0723-0.2348-0.0939C172.684,4.0449,172.3451,4,172,4H80H8V0H0v8v52v20v16v20v84.0509h8V120h164
		c1.3751,0,2.6563-0.7071,3.3867-1.8711c0.7304-1.164,0.8124-2.6249,0.2188-3.8632L150.4415,62z M8,84h143.5271l4,8H8V84z M8,76V64
		h72h62.5223L148.3,76H8z M84,48h63.5271l-4,8H84V48z M152.152,40H84V28h73.9295L152.152,40z M161.5271,20H84v-8h81.5271
		L161.5271,20z M76,12v12v20v12H8V12H76z M8,112v-12h151.8551l5.7776,12H8z"/>
	<path d="M31.0467,37.5585l-1.2187,7.094c-0.2577,1.5,0.3595,3.0155,1.5899,3.91c1.2304,0.9024,2.8672,1.0156,4.2148,0.3048
		L42,45.5197l6.3671,3.3476c0.586,0.3084,1.2264,0.4607,1.8632,0.4607c0.828,0,1.6564-0.2575,2.3516-0.7655
		c1.2304-0.8945,1.8476-2.41,1.5901-3.91l-1.2189-7.094l5.156-5.0232c1.09-1.0624,1.4808-2.6524,1.012-4.1016
		c-0.4728-1.4452-1.7228-2.5-3.2304-2.7188l-7.1212-1.0352l-3.1836-6.4492c-1.344-2.7345-5.828-2.7345-7.172,0l-3.1836,6.4492
		l-7.1212,1.0352c-1.5076,0.2188-2.7576,1.2736-3.2304,2.7188c-0.4688,1.4492-0.078,3.0392,1.012,4.1016L31.0467,37.5585z
		 M38.4607,32.2929c1.3048-0.1872,2.43-1.0076,3.012-2.1872L42,29.0393l0.5271,1.0664c0.582,1.1796,1.7072,2,3.012,2.1872
		l1.1796,0.172l-0.8556,0.836c-0.9412,0.918-1.3711,2.242-1.1484,3.5391l0.1992,1.1757l-1.0508-0.5548
		C43.2771,37.1525,42.6407,37,42,37c-0.6409,0-1.2773,0.1525-1.8633,0.4609l-1.0508,0.5548l0.1992-1.1757
		c0.2229-1.2971-0.2072-2.6211-1.1484-3.5391l-0.8556-0.836L38.4607,32.2929z"/>
</g>
</svg>
