<?xml version="1.0" encoding="utf-8"?>
<!-- Generator: Adobe Illustrator 19.2.0, SVG Export Plug-In . SVG Version: 6.00 Build 0)  -->
<svg version="1.1" id="flame" xmlns="http://www.w3.org/2000/svg" xmlns:xlink="http://www.w3.org/1999/xlink" x="0px" y="0px"
	 viewBox="0 0 96 226" enable-background="new 0 0 96 226" xml:space="preserve">
<path d="M96,86c0-2.2108-1.7893-4-4-4H79.964c4.7171-12.2724,5.6063-20.712,2.9187-26.9296
	c-3.1056-7.1956-10.2892-9.7812-17.2384-12.2812C59.672,40.6368,53.5,38.418,48.9883,33.3436
	c-3.5352-3.9804-4.9612-7.7888-4.3556-11.6404c1.2928-8.2148,11.2892-14.1916,11.3828-14.246c1.5624-0.9144,2.3165-2.758,1.8476-4.5
	C57.3907,1.2108,55.8083,0,54,0c-0.7345,0-18.2073,0.336-41.1445,29.5272c-6.4884,8.258-9.18,17.1836-7.9964,26.5276
	C6.2423,66.9664,12.6623,76.098,17.9991,82H4c-2.2109,0-4,1.7892-4,4c0,16.6864,8.5667,31.3956,21.5235,40H20
	c-2.2109,0-4,1.7892-4,4s1.7891,4,4,4h4.3331l7.6824,88.3476C32.1951,224.414,33.9255,226,36,226h24
	c2.0743,0,3.8047-1.586,3.9843-3.6524L71.6667,134H76c2.2107,0,4-1.7892,4-4s-1.7893-4-4-4h-1.5237
	C87.4331,117.3956,96,102.6864,96,86z M12.7967,55.0468c-0.906-7.1404,1.2304-14.0624,6.3476-20.574
	c7.2148-9.1836,13.7148-15.1836,19.094-19.1016c-0.6916,1.578-1.2148,3.2616-1.5,5.0468
	c-1.004,6.2928,1.1052,12.4296,6.2732,18.2384c5.8636,6.5976,13.332,9.2852,19.922,11.66
	c6.742,2.4256,10.9572,4.1056,12.6056,7.9256C77.4739,62.7184,76.064,70.538,71.3283,82H29.4311
	C25.9859,79.07,14.4863,68.3948,12.7967,55.0468z M56.332,218H39.668l-7.3049-84h31.2736L56.332,218z M48,126
	c-20.7073,0-37.7893-15.8164-39.8009-36h79.6016C85.7891,110.1836,68.7071,126,48,126z"/>
</svg>
