<?xml version="1.0" encoding="utf-8"?>
<!-- Generator: Adobe Illustrator 19.2.0, SVG Export Plug-In . SVG Version: 6.00 Build 0)  -->
<svg version="1.1" id="flowers" xmlns="http://www.w3.org/2000/svg" xmlns:xlink="http://www.w3.org/1999/xlink" x="0px" y="0px"
	 viewBox="0 0 140.6595 233.1347" enable-background="new 0 0 140.6595 233.1347" xml:space="preserve">
<g>
	<path d="M131.0296,121.1347H97.7572c-0.15-2.7168-0.5144-7.3336-1.3764-13.1492c0.2256,0.0048,0.4548,0.04,0.68,0.04
		c12.0588,0,23.244-6.6056,31.834-18.9104c10.1132-14.4884,14.6288-34.7108,9.8596-44.16c-1.8304-3.6288-4.926-5.6836-8.7208-5.7852
		c-10.9936-0.3696-23.6188,11.1124-32.7144,21.4296c2.098-10.1048,2.9492-21.2176-1.6412-26.3748
		c-1.6896-1.8948-4.8084-3.9104-10.0684-2.75c-6.3728,1.418-10.9548,4.5232-13.6212,9.2304
		c-1.0312,1.8208-1.6296,3.7164-1.996,5.5696c-2.24-2.4372-4.6376-4.7676-7.252-6.9252c-0.3096-0.254-0.666-0.3944-1.018-0.5412
		l7.7644-9.572c0.7536-0.9296,1.0508-2.1484,0.8104-3.3204c-0.2404-1.1756-0.9924-2.1796-2.0508-2.7384L56.35,16.9003
		L53.4632,3.7635c-0.256-1.168-1.0236-2.16-2.09-2.7032c-1.0684-0.5468-2.32-0.5856-3.418-0.1012l-12.324,5.3828L23.5608,0.4083
		c-1.074-0.5276-2.33-0.5432-3.42-0.0508c-1.0896,0.492-1.9004,1.4528-2.2108,2.6092l-3.4708,12.9924l-12.164,5.738
		c-1.084,0.512-1.8808,1.4804-2.174,2.6408c-0.2928,1.16-0.0488,2.3904,0.6624,3.3552l7.994,10.8164l-3.1016,13.09
		c-0.2752,1.164-0.0156,2.3908,0.7112,3.3436c0.7244,0.9532,1.8396,1.5316,3.0348,1.5744l13.4416,0.492l8.2988,10.586
		c0.7404,0.9416,1.8612,1.504,3.0588,1.5312c0.0292,0,0.0604,0,0.0896,0c1.164,0,2.2736-0.5076,3.0332-1.3944l8.7676-10.1992
		l13.4492,0.1096c1.1524-0.1368,2.336-0.5196,3.1036-1.4376s1.082-2.1328,0.8592-3.3088l-0.4396-2.3144
		c22.0024,22.9844,25.9568,60.1928,26.6412,70.5528H59.0296c-1.1368,0-2.2208,0.4844-2.9804,1.332
		c-0.758,0.8476-1.1212,1.9764-0.996,3.1096l11.5192,104c0.2248,2.0232,1.9376,3.5584,3.9768,3.5584H119.51
		c2.0392,0,3.752-1.5352,3.9768-3.5584l11.5192-104c0.1252-1.1332-0.238-2.262-0.996-3.1096
		C133.2504,121.6191,132.1664,121.1347,131.0296,121.1347z M44.3208,49.5175c-1.0568,0.1484-2.2992,0.5-3.0664,1.3944
		l-6.8008,7.9144l-6.4396-8.2152c-0.7264-0.9256-1.826-1.4844-3.002-1.5272l-10.4276-0.3828l2.406-10.1524
		c0.2716-1.1444,0.0236-2.3516-0.6756-3.3008l-6.2032-8.3944l9.4376-4.4492c1.0664-0.5,1.8556-1.4452,2.16-2.586l2.6936-10.082
		l9.3632,4.6056c1.0564,0.5192,2.2852,0.5508,3.3672,0.074l9.5624-4.1756l2.2404,10.1912c0.252,1.1484,0.998,2.1288,2.0388,2.6796
		l9.2288,4.8712l-6.5724,8.1016c-0.7404,0.914-1.0432,2.1092-0.8224,3.2656l1.9472,10.254L44.3208,49.5175z M129.5844,47.1659
		c0.078,0,0.156,0,0.2344,0.004c0.4412,0.0116,1.1072,0.0272,1.7948,1.3868c3.0724,6.0896-0.3104,23.1328-9.2772,35.9804
		c-5.3548,7.6712-14.4208,16.4364-27.364,15.3756c-1.114-5.5452-2.6604-11.682-4.7976-18.0068
		c0.636-0.2944,1.226-0.6956,1.6476-1.318C100.6468,67.6035,118.6252,47.1659,129.5844,47.1659z M78.2716,56.1151
		c-0.0212-0.0624-2.078-6.6016,0.678-11.4688c1.5232-2.6912,4.2696-4.4452,8.3944-5.3592c1.7736-0.4064,2.1952,0.078,2.3576,0.2576
		c2.9744,3.3384,0.6588,18.3744-3.5376,32.0196c-2.166-4.9048-4.7268-9.7832-7.7696-14.4524
		C78.372,56.7791,78.382,56.4463,78.2716,56.1151z M115.928,225.1347H74.1312l-10.6348-96h63.0664L115.928,225.1347z"/>
	<path d="M33.0296,25.1347c-5.5136,0-10,4.4844-10,10s4.4864,10,10,10s10-4.4844,10-10S38.5432,25.1347,33.0296,25.1347z
		 M33.0296,37.1347c-1.1036,0-2-0.8984-2-2s0.8964-2,2-2s2,0.8984,2,2S34.1332,37.1347,33.0296,37.1347z"/>
</g>
</svg>
