<?xml version="1.0" encoding="utf-8"?>
<!-- Generator: Adobe Illustrator 19.2.0, SVG Export Plug-In . SVG Version: 6.00 Build 0)  -->
<svg version="1.1" id="focus" xmlns="http://www.w3.org/2000/svg" xmlns:xlink="http://www.w3.org/1999/xlink" x="0px" y="0px"
	 viewBox="0 0 232 91.9989" enable-background="new 0 0 232 91.9989" xml:space="preserve">
<g>
	<path d="M109.9356,42.4989l-76-42c-1.2404-0.6856-2.746-0.662-3.9688,0.0547C28.748,1.2725,28,2.5828,28,3.9989v20H4
		c-2.2088,0-4,1.7912-4,4v36c0,2.2088,1.7912,4,4,4h24v20c0,1.416,0.748,2.7264,1.9668,3.4452
		c0.6268,0.3692,1.33,0.5548,2.0332,0.5548c0.666,0,1.332-0.1661,1.9356-0.5l76-42c1.2732-0.7032,2.0644-2.0448,2.0644-3.5
		C112,44.5437,111.2088,43.2021,109.9356,42.4989z M36,81.2176V63.9989c0-2.2088-1.7912-4-4-4H8v-28h24c2.2088,0,4-1.7912,4-4V10.78
		l63.7304,35.2189L36,81.2176z"/>
	<path d="M228,23.9989h-24v-20c0-1.4161-0.748-2.7264-1.9669-3.4453c-1.2228-0.7167-2.7284-0.7403-3.9688-0.0547l-75.9999,42
		c-1.2732,0.7032-2.0644,2.0448-2.0644,3.5c0,1.4552,0.7912,2.7968,2.0644,3.5l75.9999,42c0.6037,0.3339,1.2696,0.5,1.9357,0.5
		c0.7031,0,1.4063-0.1856,2.0331-0.5548C203.252,90.7253,204,89.4149,204,87.9989v-20h24c2.2087,0,4-1.7912,4-4v-36
		C232,25.7901,230.2087,23.9989,228,23.9989z M224,59.9989h-24c-2.2089,0-4,1.7912-4,4v17.2187l-63.7304-35.2187L196,10.78v17.2189
		c0,2.2088,1.7911,4,4,4h24V59.9989z"/>
</g>
</svg>
