<?xml version="1.0" encoding="utf-8"?>
<!-- Generator: Adobe Illustrator 19.2.0, SVG Export Plug-In . SVG Version: 6.00 Build 0)  -->
<svg version="1.1" id="forest" xmlns="http://www.w3.org/2000/svg" xmlns:xlink="http://www.w3.org/1999/xlink" x="0px" y="0px"
	 viewBox="0 0 232.0078 223.4552" enable-background="new 0 0 232.0078 223.4552" xml:space="preserve">
<path d="M230.3445,186.9552c-0.5808-0.418-9.962-7.0432-26.5688-13.838c0.1072-0.3612,0.2253-0.7208,0.2253-1.1172v-16h20
	c1.2383,0,2.4063-0.5744,3.164-1.5548c0.7579-0.9804,1.0195-2.2556,0.7071-3.4548l-24-92C203.4109,57.2284,201.8214,56,200.0011,56
	c-1.8205,0-3.4101,1.2284-3.8713,2.9904l-24,92c-0.3124,1.1992-0.0508,2.4744,0.7073,3.4548
	c0.7575,0.9804,1.9255,1.5548,3.164,1.5548h20v14.1212c-7.0977-2.5452-15.2045-4.9884-24.2501-6.998
	c-7.06-1.5696-15.0392-2.8916-23.7499-3.7668V136h24c1.2383,0,2.4063-0.5724,3.164-1.5528c0.7579-0.9784,1.0195-2.252,0.7071-3.4512
	l-28-108c-0.4572-1.7636-2.0468-2.996-3.8711-2.996c-1.8245,0-3.4141,1.2324-3.8713,2.996l-28,108
	c-0.3124,1.1992-0.0508,2.4728,0.7073,3.4512c0.7575,0.9804,1.9255,1.5528,3.164,1.5528h24v22.712
	c-26.484-1.6396-59.2077,1.3496-96,15.2264V148h32c1.2383,0,2.4023-0.5724,3.16-1.5488c0.7579-0.9764,1.0235-2.25,0.7151-3.4472
	l-36-140C43.4189,1.2364,41.8253,0,40.001,0c-1.8245,0-3.4181,1.2364-3.8749,3.004l-36,140
	c-0.3088,1.1972-0.0432,2.4708,0.7149,3.4472C1.5985,147.4276,2.7625,148,4.001,148h32v28c0,0.3672,0.1163,0.6964,0.2087,1.0332
	c-4.592,1.8984-9.2228,3.91-13.9276,6.162c-1.992,0.9532-2.836,3.342-1.8828,5.334c0.9492,1.9904,3.332,2.834,5.336,1.8808
	c13.2372-6.334,26.0208-11.1268,38.3284-14.7596c0.0248,0.0164,0.0368,0.044,0.0624,0.0604
	c15.1168,9.7308,32.4528,27.7424,34.7812,44.3008c0.2812,2,1.992,3.4436,3.9568,3.4436c0.1836,0,0.3712-0.012,0.5624-0.0392
	c2.1876-0.3084,3.7112-2.33,3.4025-4.5176c-2.4005-17.0624-17.356-34.5528-32.7225-45.9776
	c7.3764-1.8272,14.5716-3.2568,21.5388-4.2744c0.2277,0.4776,0.5488,0.9192,0.9728,1.2892
	c10.5509,9.2228,23.8984,14.3028,36.8048,19.2168c18.2461,6.9472,35.4844,13.5096,43.3044,30.8888
	c0.668,1.4804,2.1252,2.3592,3.6524,2.3592c0.5468,0,1.1056-0.1152,1.6368-0.3536c2.0156-0.908,2.914-3.2752,2.008-5.2908
	c-9.18-20.3928-28.7892-27.8596-47.754-35.0804c-10.438-3.9724-21.1584-8.0808-29.9672-14.326
	c72.056-6.8808,118.7568,25.66,119.3732,26.1036c0.7072,0.5056,1.5196,0.748,2.3285,0.748c1.2419,0,2.4723-0.578,3.2499-1.666
	C232.5437,190.7404,232.1377,188.246,230.3445,186.9552z M200.0011,75.8456L218.8253,148h-37.6488L200.0011,75.8456z
	 M144.0011,39.9396L166.8331,128h-45.664L144.0011,39.9396z M9.161,140l30.84-119.9376L70.841,140H9.161z"/>
</svg>
