<?xml version="1.0" encoding="utf-8"?>
<!-- Generator: Adobe Illustrator 19.2.0, SVG Export Plug-In . SVG Version: 6.00 Build 0)  -->
<svg version="1.1" id="fruitheart" xmlns="http://www.w3.org/2000/svg" xmlns:xlink="http://www.w3.org/1999/xlink" x="0px" y="0px"
	 viewBox="0 0 184.0518 216.1262" enable-background="new 0 0 184.0518 216.1262" xml:space="preserve">
<g>
	<path fill="none" d="M118.6235,43.1977c6.1232-10.6036,6.2696-23.5684,0.504-35.1116
		c-12.8788,0.7776-24.0332,7.3868-30.1544,17.9904c-6.1228,10.6035-6.2696,23.5704-0.504,35.1112
		C101.3463,60.4105,112.5023,53.8009,118.6235,43.1977z"/>
	<path fill="none" d="M113.3519,111.8809c-7.246,0-13.9724,3.6096-17.996,9.6564c-1.4804,2.2344-5.1796,2.2344-6.66,0
		c-4.0236-6.0468-10.75-9.6564-17.996-9.6564c-6.4064,0-13.7736,4.1212-18.3324,10.258c-2.068,2.7851-5.2656,8.3672-3.4316,14.4451
		c2.6936,8.9301,26.8928,29.8713,43.09,42.2777c16.1972-12.4104,40.3964-33.3556,43.09-42.2777
		c1.834-6.0779-1.3636-11.66-3.4316-14.4451C127.1255,116.0021,119.7583,111.8809,113.3519,111.8809z"/>
	<path fill="none" d="M141.2739,74.3461c-15.4688-3.8148-32.7832,2.7868-46.2852,17.6716l-2.9628,3.2656l-2.9628-3.2656
		C78.0827,79.9145,64.5883,73.2833,51.6039,73.2833c-2.9824,0-5.9356,0.3496-8.828,1.0628
		c-10.3828,2.5624-19.1876,9.4372-25.4648,19.8828c-9.3632,15.582-11.7892,37.4412-6.4924,58.4688
		c9.2208,36.5976,38.59,60.9452,65.4336,54.3552h0.002c5.4728-1.3516,14.6328-3.1052,15.0216-3.1796l0.75-0.1444l0.75,0.1444
		c0.3888,0.0744,9.5488,1.828,15.0216,3.1796c26.8496,6.6212,56.2168-17.7576,65.4356-54.3552
		c5.2968-21.0276,2.8708-42.8868-6.4924-58.4688C160.4635,83.7833,151.6587,76.9085,141.2739,74.3461z M142.7759,138.8969
		c-4.5156,14.9568-43.8748,44.828-48.3496,48.1836c-0.7108,0.5348-1.5548,0.8004-2.4004,0.8004
		c-0.8456,0-1.6896-0.2656-2.4004-0.8004c-4.4744-3.3556-43.834-33.2268-48.3496-48.1836
		c-2.1076-6.9884-0.4492-14.6329,4.67-21.5276c6.086-8.1952,15.8028-13.4884,24.754-13.4884c8.1364,0,15.7948,3.3184,21.326,9.0744
		c5.5312-5.756,13.1896-9.0744,21.326-9.0744c8.9512,0,18.668,5.2932,24.754,13.4884
		C143.2251,124.264,144.8835,131.9085,142.7759,138.8969z"/>
	<path d="M113.3519,103.8809c-8.1364,0-15.7948,3.3184-21.326,9.0744c-5.5312-5.756-13.1896-9.0744-21.326-9.0744
		c-8.9512,0-18.668,5.2932-24.754,13.4884c-5.1192,6.8947-6.7776,14.5392-4.67,21.5276
		c4.5156,14.9568,43.8752,44.828,48.3496,48.1836c0.7108,0.5348,1.5548,0.8004,2.4004,0.8004c0.8456,0,1.6896-0.2656,2.4004-0.8004
		c4.4748-3.3556,43.834-33.2268,48.3496-48.1836c2.1076-6.9884,0.4492-14.6329-4.67-21.5276
		C132.0199,109.1741,122.3031,103.8809,113.3519,103.8809z M135.1159,136.584c-2.6936,8.9221-26.8928,29.8673-43.09,42.2777
		c-16.1972-12.4064-40.3964-33.3476-43.09-42.2777c-1.834-6.0779,1.3636-11.66,3.4316-14.4451
		c4.5588-6.1368,11.926-10.258,18.3324-10.258c7.246,0,13.9724,3.6096,17.996,9.6564c1.4804,2.2344,5.1796,2.2344,6.66,0
		c4.0236-6.0468,10.75-9.6564,17.996-9.6564c6.4064,0,13.7736,4.1212,18.3324,10.258
		C133.7523,124.924,136.9499,130.5061,135.1159,136.584z"/>
	<path d="M173.5983,90.1097c-7.3968-12.3108-17.9124-20.4472-30.4084-23.5292c-17.2208-4.2424-36.0916,2.076-51.164,16.9684
		c-15.0704-14.8964-33.9296-21.2148-51.166-16.9684c-12.494,3.082-23.0096,11.2184-30.4064,23.5292
		C-0.1361,107.7365-2.8317,131.26,3.0611,154.6505c9.1132,36.172,36.5664,61.4728,64.34,61.4728
		c3.5956,0,7.2008-0.4256,10.7672-1.3048c4.3888-1.082,11.5392-2.492,13.8576-2.9412c2.3184,0.4492,9.4668,1.8592,13.8556,2.9412
		c31.1288,7.6876,64.8164-19.3124,75.1092-60.168C186.8835,131.26,184.1879,107.7365,173.5983,90.1097z M173.2331,152.6977
		c-9.2188,36.5976-38.586,60.9764-65.4356,54.3552c-5.4728-1.3516-14.6328-3.1052-15.0216-3.1796l-0.75-0.1444l-0.75,0.1444
		c-0.3888,0.0744-9.5488,1.828-15.0216,3.1796h-0.002c-26.8436,6.59-56.2128-17.7576-65.4336-54.3552
		c-5.2968-21.0276-2.8708-42.8868,6.4924-58.4688c6.2772-10.4456,15.082-17.3204,25.4648-19.8828
		c2.8924-0.7132,5.8456-1.0628,8.828-1.0628c12.9844,0,26.4788,6.6312,37.4592,18.7344l2.9628,3.2656l2.9628-3.2656
		c13.502-14.8848,30.8164-21.4864,46.2852-17.6716c10.3848,2.5624,19.1896,9.4372,25.4668,19.8828
		C176.1039,109.8109,178.5299,131.6701,173.2331,152.6977z"/>
	<path d="M83.7995,69.2737l2.334-0.0097c16.748-0.0763,31.484-8.3243,39.4196-22.0663c7.9316-13.7404,7.7092-30.6272-0.5996-45.172
		L123.7975,0l-2.334,0.0101c-16.75,0.076-31.4864,8.324-39.42,22.0664c-7.9336,13.742-7.7108,30.6288,0.5996,45.1715
		L83.7995,69.2737z M88.9731,26.0765c6.1212-10.6036,17.2756-17.2128,30.1544-17.9904c5.7656,11.5432,5.6192,24.508-0.504,35.1116
		c-6.1212,10.6032-17.2772,17.2128-30.1544,17.99C82.7035,49.6469,82.8503,36.68,88.9731,26.0765z"/>
</g>
</svg>
