<?xml version="1.0" encoding="utf-8"?>
<!-- Generator: Adobe Illustrator 19.2.0, SVG Export Plug-In . SVG Version: 6.00 Build 0)  -->
<svg version="1.1" id="fullscreen" xmlns="http://www.w3.org/2000/svg" xmlns:xlink="http://www.w3.org/1999/xlink" x="0px" y="0px"
	 viewBox="0 0 192 192" enable-background="new 0 0 192 192" xml:space="preserve">
<g>
	<path fill="none" d="M94,76c-9.9257,0-18,8.0744-18,18s8.0743,18,18,18c9.9255,0,18-8.0744,18-18S103.9255,76,94,76z"/>
	<path d="M4,56c2.2107,0,4-1.7912,4-4V13.6564l59.2031,59.2048c0.7812,0.7812,1.8049,1.172,2.828,1.172
		c1.0236,0,2.0468-0.3908,2.828-1.172c1.5628-1.5624,1.5628-4.0936,0-5.656L13.6563,8H52c2.2107,0,4-1.7912,4-4s-1.7893-4-4-4H4
		C1.7891,0,0,1.7912,0,4v48C0,54.2088,1.7891,56,4,56z"/>
	<path d="M188,0h-48c-2.2109,0-4,1.7912-4,4s1.7891,4,4,4h38.3435l-59.2028,59.2052c-1.5628,1.5624-1.5628,4.0936,0,5.656
		c0.7812,0.7812,1.8044,1.172,2.828,1.172c1.0233,0,2.0468-0.3908,2.828-1.172L184,13.6564V52c0,2.2088,1.7891,4,4,4
		c2.2107,0,4-1.7912,4-4V4C192,1.7912,190.2107,0,188,0z"/>
	<path d="M188,136c-2.2109,0-4,1.7912-4,4v38.3456l-61.172-61.1736c-1.5625-1.5628-4.0937-1.5628-5.656,0
		c-1.5629,1.5624-1.5629,4.0936,0,5.656L178.3415,184H140c-2.2109,0-4,1.7912-4,4s1.7891,4,4,4h48c2.2107,0,4-1.7912,4-4v-48
		C192,137.7912,190.2107,136,188,136z"/>
	<path d="M69.172,117.172L8,178.3456V140c0-2.2088-1.7893-4-4-4c-2.2109,0-4,1.7912-4,4v48c0,2.2088,1.7891,4,4,4h48
		c2.2107,0,4-1.7912,4-4s-1.7893-4-4-4H13.6583l61.1697-61.172c1.5627-1.5624,1.5627-4.0936,0-5.656
		C73.2655,115.6092,70.7343,115.6092,69.172,117.172z"/>
	<path d="M94,68c-14.336,0-26,11.664-26,26s11.664,26,26,26s26-11.664,26-26S108.336,68,94,68z M94,112c-9.9257,0-18-8.0744-18-18
		s8.0743-18,18-18c9.9255,0,18,8.0744,18,18S103.9255,112,94,112z"/>
</g>
</svg>
