<?xml version="1.0" encoding="utf-8"?>
<!-- Generator: Adobe Illustrator 19.2.0, SVG Export Plug-In . SVG Version: 6.00 Build 0)  -->
<svg version="1.1" id="giftbox" xmlns="http://www.w3.org/2000/svg" xmlns:xlink="http://www.w3.org/1999/xlink" x="0px" y="0px"
	 viewBox="0 0 192 216.4165" enable-background="new 0 0 192 216.4165" xml:space="preserve">
<path d="M188,44.4165h-65.3156c1.7712-0.7988,3.5476-1.6572,5.3156-2.6776c16.5116-9.5352,25.0508-24.6116,19.4452-34.3224
	c-2.91-5.0392-8.824-7.6308-16.8672-7.4024c-7.0624,0.2384-15.082,2.754-22.578,7.082c-3.6992,2.1368-7.0756,4.6056-10,7.2776
	c-2.9244-2.672-6.3008-5.1408-10-7.2776c-7.496-4.328-15.5156-6.8436-22.578-7.082c-8-0.2304-13.9532,2.3632-16.8672,7.4024
	C42.9492,17.1273,51.4884,32.2037,68,41.7389c1.7676,1.0204,3.5436,1.8788,5.3144,2.6776H72H4c-2.2108,0-4,1.7912-4,4v48
	c0,2.2088,1.7892,4,4,4h8v99.088c0,9.326,7.578,16.912,16.8908,16.912H80h32h51.1092c9.3128,0,16.8908-7.586,16.8908-16.912v-99.088
	h8c2.2108,0,4-1.7912,4-4v-48C192,46.2077,190.2108,44.4165,188,44.4165z M116,92.4165h-4H80h-4v-40h40V92.4165z M95.4844,37.4165
	c-1.3436-2.326-0.6564-5.998,1.8828-10.076c0.1804-0.2896,0.4376-0.5696,0.6328-0.858c0.1952,0.2884,0.4524,0.5684,0.6328,0.858
	c2.5392,4.078,3.2264,7.75,1.8828,10.076c-0.5124,0.8876-1.43,1.5576-2.5164,2.1152C96.914,38.9741,95.9972,38.3041,95.4844,37.4165
	z M112,14.0257c6.3788-3.6852,13.0744-5.822,18.8476-6.0156c0.2776-0.0096,0.5548-0.0136,0.8244-0.0136
	c4.3788,0,7.578,1.2284,8.8436,3.42c2.84,4.914-3.246,15.7304-16.5156,23.3924c-5.8104,3.356-11.4032,5.14-16.154,5.7564
	c2.3796-4.9136,1.5616-11.0596-2.424-17.4556c-0.6008-0.9636-1.2864-1.9148-2.0092-2.8588
	C105.8976,17.9865,108.7992,15.8745,112,14.0257z M55.4844,11.4165c1.3436-2.326,4.8944-3.5624,9.668-3.4064
	C70.9256,8.2037,77.6212,10.3405,84,14.0257c3.2008,1.8488,6.1024,3.9608,8.5872,6.2252c-0.7228,0.944-1.4084,1.8952-2.0092,2.8588
	c-3.9848,6.3948-4.8028,12.5392-2.4256,17.4524C83.4016,39.9453,77.8092,38.1625,72,34.8089
	C58.7304,27.1469,52.6444,16.3305,55.4844,11.4165z M8,52.4165h60v40H16H8V52.4165z M20,199.5045v-99.088h52h4v108H28.8908
	C23.9884,208.4165,20,204.4185,20,199.5045z M84,208.4165v-108h24v108H84z M172,199.5045c0,4.914-3.9884,8.912-8.8908,8.912H116
	v-108h4h52V199.5045z M184,92.4165h-8h-52v-40h60V92.4165z"/>
</svg>
