<?xml version="1.0" encoding="utf-8"?>
<!-- Generator: Adobe Illustrator 19.2.0, SVG Export Plug-In . SVG Version: 6.00 Build 0)  -->
<svg version="1.1" id="glasses" xmlns="http://www.w3.org/2000/svg" xmlns:xlink="http://www.w3.org/1999/xlink" x="0px" y="0px"
	 viewBox="0 0 216 172" enable-background="new 0 0 216 172" xml:space="preserve">
<g>
	<path d="M212,164c-6.6173,0-12-5.3828-12-12V52h-0.4045c-1.8584-9.1172-9.938-16-19.5955-16c-0.0713,0-0.1305,0.0368-0.2009,0.0404
		C177.804,15.838,160.7183,0,140,0c-19.3157,0-35.4765,13.7656-39.1937,32H79.1935C75.4763,13.7656,59.3155,0,40,0
		C17.9451,0,0,17.9452,0,40s17.9451,40,40,40c22.0547,0,40-17.9452,40-40h20c0,22.0548,17.9451,40,40,40
		c20.7183,0,37.804-15.838,39.7991-36.0404C179.8695,43.9632,179.9287,44,180,44c6.6171,0,12,5.3828,12,12v96.086h0.0087
		C192.0563,163.0728,201.0019,172,212,172c2.2107,0,4-1.7892,4-4S214.2107,164,212,164z M40,72C22.3555,72,8,57.6444,8,40
		S22.3555,8,40,8c17.6443,0,32,14.3556,32,32S57.6443,72,40,72z M140,72c-17.6445,0-32-14.3556-32-32s14.3555-32,32-32
		c17.6443,0,32,14.3556,32,32S157.6443,72,140,72z"/>
	<path d="M132.8751,17.5l-16,20c-1.3791,1.7264-1.098,4.242,0.6249,5.6248c0.7383,0.59,1.6211,0.8752,2.496,0.8752
		c1.176,0,2.336-0.5156,3.1291-1.5l16-20c1.3789-1.7264,1.0976-4.242-0.6251-5.6252C136.7695,15.496,134.2615,15.7852,132.8751,17.5
		z"/>
	<path d="M32.8751,17.5l-16,20c-1.3791,1.7264-1.098,4.242,0.6249,5.6248C18.2383,43.7148,19.1211,44,19.996,44
		c1.176,0,2.336-0.5156,3.1291-1.5l16-20c1.3789-1.7264,1.0976-4.242-0.6251-5.6252C36.7735,15.496,34.2579,15.7852,32.8751,17.5z"
		/>
</g>
</svg>
