<?xml version="1.0" encoding="utf-8"?>
<!-- Generator: Adobe Illustrator 19.2.0, SVG Export Plug-In . SVG Version: 6.00 Build 0)  -->
<svg version="1.1" id="globetree" xmlns="http://www.w3.org/2000/svg" xmlns:xlink="http://www.w3.org/1999/xlink" x="0px" y="0px"
	 viewBox="0 0 136 232" enable-background="new 0 0 136 232" xml:space="preserve">
<g>
	<path d="M72,60.2028v-4.522C85.5464,53.7296,96,42.078,96,28C96,12.5604,83.4396,0,68,0S40,12.5604,40,28
		c0,14.078,10.4536,25.7296,24,27.6808v4.522C28.3688,62.2912,0,91.854,0,128c0,36.5724,62.496,100.1268,65.1584,102.8144
		C65.9084,231.5724,66.9316,232,68,232s2.0916-0.4276,2.8416-1.1856C73.504,228.1268,136,164.5724,136,128
		C136,91.854,107.6312,62.2912,72,60.2028z M68,96.6756L92.8008,132L68,167.3244L43.1972,132L68,96.6756z M71.2736,87.416
		c-1.4964-2.1328-5.0508-2.1328-6.5472,0l-13.0572,18.5968L28.5564,82.9004C39.1152,73.6532,52.8952,68,68,68
		s28.8848,5.6532,39.4436,14.9004l-23.1132,23.1132L71.2736,87.416z M48,28c0-11.0272,8.9728-20,20-20s20,8.9728,20,20
		s-8.9728,20-20,20S48,39.0272,48,28z M68,222.2344C55.7324,209.3184,8,157.1836,8,128c0-15.1044,5.6536-28.8848,14.9-39.4432
		l24.1028,24.1024l-11.9656,17.042c-0.9688,1.3788-0.9688,3.2188,0,4.5976l29.6892,42.2852
		c0.7484,1.0664,1.9708,1.7012,3.2736,1.7012s2.5252-0.6348,3.2736-1.7012l29.6872-42.2852c0.9688-1.3788,0.9688-3.2188,0-4.5976
		l-11.9644-17.0416L113.1,88.5568C122.3464,99.1152,128,112.8956,128,128C128,157.168,80.2676,209.3144,68,222.2344z"/>
	<path d="M84,28c0-8.8224-7.1776-16-16-16s-16,7.1776-16,16s7.1776,16,16,16S84,36.8224,84,28z M60,28c0-4.412,3.588-8,8-8
		s8,3.588,8,8s-3.588,8-8,8S60,32.412,60,28z"/>
</g>
</svg>
