<?xml version="1.0" encoding="utf-8"?>
<!-- Generator: Adobe Illustrator 19.2.0, SVG Export Plug-In . SVG Version: 6.00 Build 0)  -->
<svg version="1.1" id="graduatehat" xmlns="http://www.w3.org/2000/svg" xmlns:xlink="http://www.w3.org/1999/xlink" x="0px"
	 y="0px" viewBox="0 0 205.672 183.662" enable-background="new 0 0 205.672 183.662" xml:space="preserve">
<g>
	<path fill="none" d="M147.8245,167.662c0,4.4101,3.5899,8,8,8c4.4099,0,8-3.5899,8-8c0-4.4099-3.5901-8-8-8
		C151.4144,159.662,147.8245,163.2521,147.8245,167.662z"/>
	<path fill="none" d="M159.8245,83.662v45.3449c3.6455-1.5044,6.3459-2.8324,8-3.7004V78.6249l-8.1713,4.1864
		C159.7165,83.094,159.8245,83.3601,159.8245,83.662z"/>
	<path fill="none" d="M111.7816,107.3377c-2.5508,1.3088-5.7464,1.9612-8.9456,1.9612c-3.1992,0-6.3944-0.6524-8.9452-1.9612
		L39.8245,79.6373v45.6616c6.66,3.4804,30.1875,14.3631,64,14.3631c20.1607,0,36.5731-3.8387,48-7.6843V86.822L111.7816,107.3377z"
		/>
	<path fill="none" d="M108.1328,9.0801c-2.7732-1.4221-7.82-1.4221-10.5936,0L8.7696,54.5605
		c-0.0584,0.0312-0.1131,0.0624-0.168,0.09c0.0549,0.0272,0.1096,0.0584,0.168,0.0896l88.7696,45.4804
		c2.7736,1.422,7.8204,1.422,10.5936,0l88.7696-45.4804c0.0588-0.0312,0.1136-0.0624,0.168-0.0896
		c-0.0544-0.0276-0.1092-0.0588-0.168-0.09L108.1328,9.0801z M39.8285,59.662c-1.4689,0-2.8789-0.8083-3.5821-2.2107
		c-0.9884-1.9768-0.1876-4.3792,1.7888-5.3672l16-8c1.9768-0.9844,4.3752-0.1876,5.3672,1.7888
		c0.9884,1.9768,0.1876,4.3792-1.7888,5.3672l-16,8C41.0392,59.5253,40.43,59.662,39.8285,59.662z M73.6136,59.2401l-16,8
		c-0.5744,0.2852-1.1836,0.4219-1.7851,0.4219c-1.4689,0-2.8789-0.8083-3.5821-2.2107c-0.9884-1.9768-0.1876-4.3792,1.7888-5.3672
		l16-8c1.9768-0.9768,4.3792-0.1876,5.3672,1.7888C76.3908,55.8497,75.59,58.2521,73.6136,59.2401z"/>
	<path d="M200.5508,47.4433L111.7816,1.9629c-5.1016-2.6172-12.7891-2.6172-17.8908,0L5.1212,47.4433
		C1.8672,49.1113-0.0035,51.7365,0,54.6505c0,2.914,1.8672,5.5388,5.1212,7.2068L31.8468,75.55
		c-0.0012,0.0397-0.0223,0.0725-0.0223,0.112v52c0,1.3945,0.7263,2.6877,1.9139,3.4141
		c1.1096,0.676,27.6604,16.5859,70.0861,16.5859c19.8027,0,36.0875-3.4703,48-7.2355V152.23c-6.8821,1.7885-12,7.9973-12,15.432
		c0,8.8245,7.1755,16,16,16c8.8243,0,16-7.1755,16-16c0-7.4347-5.1181-13.6435-12-15.432v-14.588
		c8.6575-3.332,13.6219-6.2836,14.0859-6.5659c1.1876-0.7264,1.9141-2.0196,1.9141-3.4141v-52c0-0.3655-0.116-0.6935-0.2077-1.0295
		l24.934-12.7752c3.254-1.668,5.1252-4.2928,5.1212-7.2068C205.672,51.7365,203.8048,49.1113,200.5508,47.4433z M163.8245,167.662
		c0,4.4101-3.5901,8-8,8c-4.4101,0-8-3.5899-8-8c0-4.4099,3.5899-8,8-8C160.2344,159.662,163.8245,163.2521,163.8245,167.662z
		 M103.8245,139.662c-33.8125,0-57.34-10.8827-64-14.3631V79.6373l54.0663,27.7004c2.5508,1.3088,5.746,1.9612,8.9452,1.9612
		c3.1992,0,6.3948-0.6524,8.9456-1.9612l40.0429-20.5157v45.1557C140.3976,135.8233,123.9852,139.662,103.8245,139.662z
		 M167.8245,125.3065c-1.6541,0.868-4.3545,2.196-8,3.7004V83.662c0-0.3019-0.108-0.568-0.1713-0.8507l8.1713-4.1864V125.3065z
		 M196.9024,54.7401l-88.7696,45.4804c-2.7732,1.422-7.82,1.422-10.5936,0L8.7696,54.7401
		c-0.0584-0.0312-0.1131-0.0624-0.168-0.0896c0.0549-0.0276,0.1096-0.0588,0.168-0.09L97.5392,9.0801
		c2.7736-1.4221,7.8204-1.4221,10.5936,0l88.7696,45.4804c0.0588,0.0312,0.1136,0.0624,0.168,0.09
		C197.016,54.6777,196.9612,54.7089,196.9024,54.7401z"/>
	<path d="M59.4024,45.8729c-0.992-1.9764-3.3904-2.7732-5.3672-1.7888l-16,8c-1.9764,0.988-2.7772,3.3904-1.7888,5.3672
		c0.7032,1.4024,2.1132,2.2107,3.5821,2.2107c0.6015,0,1.2107-0.1367,1.7851-0.4219l16-8
		C59.59,50.2521,60.3908,47.8497,59.4024,45.8729z"/>
	<path d="M70.0352,52.0841l-16,8c-1.9764,0.988-2.7772,3.3904-1.7888,5.3672c0.7032,1.4024,2.1132,2.2107,3.5821,2.2107
		c0.6015,0,1.2107-0.1367,1.7851-0.4219l16-8c1.9764-0.988,2.7772-3.3904,1.7888-5.3672
		C74.4144,51.8965,72.012,51.1073,70.0352,52.0841z"/>
</g>
</svg>
