<?xml version="1.0" encoding="utf-8"?>
<!-- Generator: Adobe Illustrator 19.2.0, SVG Export Plug-In . SVG Version: 6.00 Build 0)  -->
<svg version="1.1" id="graphcomparereport" xmlns="http://www.w3.org/2000/svg" xmlns:xlink="http://www.w3.org/1999/xlink" x="0px"
	 y="0px" viewBox="0 0 220 180.1776" enable-background="new 0 0 220 180.1776" xml:space="preserve">
<g>
	<path fill="none" d="M152.382,172h39.158c-12.6484-8.5912-32.2748-23.7372-44.6864-42.162
		c-3.7052-5.502-6.7248-10.9728-9.6448-16.2636c-6.9356-12.568-12.9792-23.4288-25.6936-30.4812
		c3.9308,15.4416,6.2084,30.4284,6.9652,40.3308C120.736,152.954,147.7816,169.4072,152.382,172z"/>
	<path fill="none" d="M138.088,171.9588c-10.8556-8.576-25.7932-24.4724-27.584-47.9256
		c-1.0028-13.1144-3.9692-29.7012-8.4608-45.2928c-14.6484-5.2896-26.6904-2.3952-40.7404,9.2344
		c-3.8972,3.228-8.052,9.8432-12.1476,18.1052c-0.2336,18.216,0.5412,40.0056,2.7668,65.7868l45.4684,0.092H138.088z"/>
	<path fill="none" d="M56.2012,81.8144c14.4508-11.964,27.91-15.9808,42.9256-12.3184
		c-5.5732-16.4324-12.8532-30.6192-21.3144-36.6348c-3.9628-2.8144-7.8904-3.656-11.998-2.572
		c-6.4812,1.7132-13.9972,19.6308-16.12,58.9892C51.8584,86.1776,54.0368,83.6068,56.2012,81.8144z"/>
	<path fill="none" d="M41.3828,123.7412c-6.7692,17.0132-12.738,35.9268-16.2108,48.0712l18.7252,0.038
		C43.054,161.7364,41.7872,143.8096,41.3828,123.7412z"/>
	<path d="M220,172h-13.5704c-6.1668-3.6576-36.7004-22.5244-52.9392-46.6308c-3.51-5.2092-6.4416-10.5216-9.2776-15.6604
		c-7.3496-13.318-14.2908-25.8964-29.5508-34.0504c-2.046-1.094-4.044-2.0292-6.0196-2.8836
		c-5.926-19.5404-14.558-38.1604-26.1952-46.4332c-5.9376-4.2224-12.2188-5.498-18.6796-3.7868
		C46.6664,27.076,41.8392,65.9328,41.31,103.9716C29.5892,128.008,19.6188,162.024,16.81,172H8V0H0v172v8h8h109.6056l88.0332,0.1776
		c0,0,0.0056,0,0.0076,0c0.3696,0,0.7188-0.0824,1.062-0.1776H220V172z M49.1552,106.08
		c4.0956-8.262,8.2504-14.8772,12.1476-18.1052c14.05-11.6296,26.092-14.524,40.7404-9.2344
		c4.4916,15.5916,7.458,32.1784,8.4608,45.2928c1.7908,23.4532,16.7284,39.3496,27.584,47.9256H97.3904l-45.4684-0.092
		C49.6964,146.0856,48.9216,124.296,49.1552,106.08z M137.2088,113.5744c2.92,5.2908,5.9396,10.7616,9.6448,16.2636
		c12.4116,18.4248,32.038,33.5708,44.6864,42.162h-39.158c-4.6004-2.5928-31.646-19.046-33.9016-48.576
		c-0.7568-9.9024-3.0344-24.8892-6.9652-40.3308C124.2296,90.1456,130.2732,101.0064,137.2088,113.5744z M65.8144,30.2892
		c4.1076-1.084,8.0352-0.2424,11.998,2.572c8.4612,6.0156,15.7412,20.2024,21.3144,36.6348
		c-15.0156-3.6624-28.4748,0.3544-42.9256,12.3184c-2.1644,1.7924-4.3428,4.3632-6.5068,7.464
		C51.8172,49.92,59.3332,32.0024,65.8144,30.2892z M41.3828,123.7412c0.4044,20.0684,1.6712,37.9952,2.5144,48.1092l-18.7252-0.038
		C28.6448,159.668,34.6136,140.7544,41.3828,123.7412z"/>
</g>
</svg>
