<?xml version="1.0" encoding="utf-8"?>
<!-- Generator: Adobe Illustrator 19.2.0, SVG Export Plug-In . SVG Version: 6.00 Build 0)  -->
<svg version="1.1" id="hearts" xmlns="http://www.w3.org/2000/svg" xmlns:xlink="http://www.w3.org/1999/xlink" x="0px" y="0px"
	 viewBox="0 0 223.1105 199.8248" enable-background="new 0 0 223.1105 199.8248" xml:space="preserve">
<path d="M214.9412,53.7039c-13.08-18.004-39.1288-23.4259-65.7148-14.0311C138.4196,13.6257,116.9372-2.1007,94.826,0.2273
	c-26.9892,2.834-46.4876,31.0796-46.4424,66.3552c-12.0956-2.4152-23.8052-0.3672-32.8916,6.4808
	C5.3924,80.6729-0.1076,92.9929,0.0016,107.7584c0.1076,14.3164,5.5176,29.3008,15.2328,42.1956
	c18.5604,24.6328,68.412,48.4804,70.5252,49.4844c0.5448,0.2575,1.1308,0.3864,1.7148,0.3864c0.9084,0,1.8088-0.3084,2.5392-0.91
	c1.1992-0.9852,20.3728-16.834,36.6552-35.6796c0.2948-0.0048,0.5912-0.0328,0.8896-0.1056
	c28.1444-6.8868,48.842-15.0508,61.5176-24.2657c15.164-11.0155,26.254-25.8083,31.2284-41.6523
	C225.41,80.9461,223.5056,65.4929,214.9412,53.7039z M86.8924,191.0869c-10.0216-4.9924-50.0352-25.7304-65.2676-45.9456
	c-8.6912-11.5348-13.5292-24.832-13.6232-37.4453C7.912,95.532,12.2812,85.5008,20.3044,79.454c0.002,0,0.002,0,0.002,0
	c5.248-3.9572,11.6564-5.8908,18.5644-5.8908c10.3848,0,21.8928,4.3712,32.258,12.8007c0.8436,0.6877,1.9296,0.996,3.0096,0.8673
	c1.08-0.1328,2.0608-0.6993,2.7128-1.5664c13.3536-17.7969,32.4924-25.4376,47.6428-19.004
	c19.5312,8.2892,26.086,37.0276,14.6132,64.0548C129.2244,153.9968,95.41,183.8132,86.8924,191.0869z M212.6716,94.8172
	c-4.4628,14.2187-14.5136,27.5624-28.2988,37.578c-10.2652,7.4604-27.2352,14.5033-49.388,20.5456
	c4.786-6.4108,8.8612-12.9172,11.4856-19.1004c13.1972-31.0896,4.7424-64.5312-18.8516-74.5468
	c-17.6268-7.4724-39.1676-0.082-54.6504,18.3948c-5.3592-3.9012-10.9616-6.842-16.5852-8.8676
	C55.5456,37.1424,72.646,10.5993,95.662,8.1805c19.4668-2.0076,38.5508,13.2304,47.5096,38
	c0.3712,1.0235,1.1408,1.8515,2.1348,2.2932c0.996,0.4412,2.1252,0.4608,3.1328,0.0543
	c24.4064-9.9215,48.5292-5.9451,60.0292,9.8789C215.5076,68.0945,217,81.0239,212.6716,94.8172z"/>
</svg>
