<?xml version="1.0" encoding="utf-8"?>
<!-- Generator: Adobe Illustrator 19.2.0, SVG Export Plug-In . SVG Version: 6.00 Build 0)  -->
<svg version="1.1" id="heatspike" xmlns="http://www.w3.org/2000/svg" xmlns:xlink="http://www.w3.org/1999/xlink" x="0px" y="0px"
	 viewBox="0 0 163.4296 211.996" enable-background="new 0 0 163.4296 211.996" xml:space="preserve">
<g>
	<path fill="none" d="M95.082,99.8124c-2.9492-2.3908-6-4.8672-8.3908-8.1992c-2.1092-2.9452-3.7304-5.7656-4.9763-8.3164
		c-1.2461,2.5508-2.8673,5.3712-4.9765,8.3124c-2.3908,3.336-5.4416,5.8124-8.3908,8.2032
		c-5.1952,4.2148-9.3007,7.5428-9.3007,14.5156c0,12.5,10.168,22.668,22.668,22.668s22.668-10.168,22.668-22.668
		C104.3829,107.3552,100.2772,104.0272,95.082,99.8124z"/>
	<path fill="none" d="M110.9648,90.5196c-5.6952-4.6172-11.5819-9.3908-16.0468-15.6212
		c-6.5548-9.1524-10.6604-17.6288-13.2031-24.2776c-2.5429,6.6488-6.6485,15.1252-13.2033,24.2736
		c-4.4647,6.2344-10.3516,11.008-16.0468,15.6252c-10.7772,8.742-20.0819,16.2888-20.0819,32.1444
		c0,27.2032,22.1287,49.332,49.332,49.332c27.2031,0,49.332-22.1288,49.332-49.332
		C131.0469,106.8084,121.742,99.2616,110.9648,90.5196z M81.7149,144.996c-16.9101,0-30.668-13.758-30.668-30.668
		c0-10.7852,6.5155-16.0664,12.2615-20.7304c2.6564-2.1524,5.1644-4.1876,6.93-6.6484c6.3904-8.922,7.5036-16.414,7.5116-16.4884
		c0.2772-1.9764,1.9689-3.4532,3.9649-3.4532c0.004,0,0.0115,0,0.0195,0c2,0.008,3.6876,1.4884,3.9452,3.4728
		c0.008,0.0548,1.1212,7.5468,7.5116,16.4728c1.7656,2.4568,4.2736,4.492,6.93,6.6444c5.746,4.664,12.2617,9.9452,12.2617,20.7304
		C112.3829,131.238,98.6248,144.996,81.7149,144.996z"/>
	<path fill="none" d="M125.492,82.0312c-8.2028-6.6564-16.6872-13.5352-23.0508-22.422
		c-11.0976-15.4844-17.3084-29.5936-20.7263-39.664c-3.4181,10.0704-9.6289,24.1796-20.7265,39.664
		c-6.3636,8.8868-14.848,15.7656-23.0508,22.422C22.5392,94.5156,8,106.3084,8,130.2812c0,40.6444,33.0664,73.7148,73.7149,73.7148
		c40.6483,0,73.7147-33.0704,73.7147-73.7148C155.4296,106.3084,140.8904,94.5156,125.492,82.0312z M81.7149,179.996
		c-31.6133,0-57.332-25.7188-57.332-57.332c0-19.668,12.2419-29.5976,23.0427-38.3556c5.5276-4.4804,10.7464-8.7148,14.586-14.074
		C75.4608,51.4608,77.7264,35.6288,77.75,35.4688C78.0196,33.4844,79.7109,32,81.7149,32c0.004,0,0.004,0,0.008,0
		c2.0075,0.004,3.6991,1.492,3.9567,3.4804c0.0236,0.1484,2.2892,15.9804,15.7384,34.7576c3.8396,5.3556,9.0584,9.59,14.586,14.0704
		c10.8008,8.758,23.0429,18.6876,23.0429,38.3556C139.0469,154.2772,113.328,179.996,81.7149,179.996z"/>
	<path d="M116.004,84.3084c-5.5276-4.4804-10.7464-8.7148-14.586-14.0704C87.9688,51.4608,85.7032,35.6288,85.6796,35.4804
		C85.422,33.492,83.7304,32.004,81.7229,32c-0.004,0-0.004,0-0.008,0c-2.004,0-3.6953,1.4844-3.9649,3.4688
		c-0.0236,0.16-2.2892,15.992-15.7384,34.7656c-3.8396,5.3592-9.0584,9.5936-14.586,14.074
		c-10.8008,8.758-23.0427,18.6876-23.0427,38.3556c0,31.6132,25.7187,57.332,57.332,57.332c31.6131,0,57.332-25.7188,57.332-57.332
		C139.0469,102.996,126.8048,93.0664,116.004,84.3084z M81.7149,171.996c-27.2033,0-49.332-22.1288-49.332-49.332
		c0-15.8556,9.3047-23.4024,20.0819-32.1444c5.6952-4.6172,11.5821-9.3908,16.0468-15.6252
		c6.5548-9.1484,10.6604-17.6248,13.2033-24.2736c2.5427,6.6488,6.6483,15.1252,13.2031,24.2776
		c4.4649,6.2304,10.3516,11.004,16.0468,15.6212c10.7772,8.742,20.0821,16.2888,20.0821,32.1444
		C131.0469,149.8672,108.918,171.996,81.7149,171.996z"/>
	<path d="M130.5312,75.8164c-8.1483-6.6096-15.8476-12.8556-21.59-20.8632C89.0352,27.164,85.7109,3.7068,85.6796,3.4724
		C85.414,1.4844,83.7189,0,81.7149,0c0,0-0.004,0-0.008,0c-2.0037,0.004-3.6993,1.488-3.9569,3.4804
		c-0.0311,0.2304-3.258,23.5508-23.2616,51.4728c-5.7424,8.0076-13.4415,14.2536-21.59,20.8632
		C16.7229,88.9336,0,102.496,0,130.2812c0,45.0584,36.6564,81.7148,81.7149,81.7148c45.0583,0,81.7147-36.6564,81.7147-81.7148
		C163.4296,102.496,146.7069,88.9336,130.5312,75.8164z M81.7149,203.996C41.0664,203.996,8,170.9256,8,130.2812
		c0-23.9728,14.5392-35.7656,29.9376-48.25c8.2028-6.6564,16.6872-13.5352,23.0508-22.422
		c11.0976-15.4844,17.3084-29.5936,20.7265-39.664c3.4179,10.0704,9.6287,24.1796,20.7263,39.664
		c6.3636,8.8868,14.848,15.7656,23.0508,22.422c15.3984,12.4844,29.9376,24.2772,29.9376,48.25
		C155.4296,170.9256,122.3632,203.996,81.7149,203.996z"/>
	<path d="M100.1212,93.5976c-2.6564-2.1524-5.1644-4.1876-6.93-6.6444c-6.3904-8.926-7.5036-16.418-7.5116-16.4728
		c-0.2576-1.9844-1.9452-3.4648-3.9452-3.4728c-0.008,0-0.0155,0-0.0195,0c-1.996,0-3.6877,1.4768-3.9649,3.4532
		c-0.008,0.0744-1.1212,7.5664-7.5116,16.4884c-1.7656,2.4608-4.2736,4.496-6.93,6.6484
		c-5.746,4.664-12.2615,9.9452-12.2615,20.7304c0,16.91,13.7579,30.668,30.668,30.668c16.9099,0,30.668-13.758,30.668-30.668
		C112.3829,103.5428,105.8672,98.2616,100.1212,93.5976z M81.7149,136.996c-12.5,0-22.668-10.168-22.668-22.668
		c0-6.9728,4.1055-10.3008,9.3007-14.5156c2.9492-2.3908,6-4.8672,8.3908-8.2032c2.1092-2.9412,3.7304-5.7616,4.9765-8.3124
		c1.2459,2.5508,2.8671,5.3712,4.9763,8.3164c2.3908,3.332,5.4416,5.8084,8.3908,8.1992c5.1952,4.2148,9.3009,7.5428,9.3009,14.5156
		C104.3829,126.828,94.2149,136.996,81.7149,136.996z"/>
</g>
</svg>
