<?xml version="1.0" encoding="utf-8"?>
<!-- Generator: Adobe Illustrator 19.2.0, SVG Export Plug-In . SVG Version: 6.00 Build 0)  -->
<svg version="1.1" id="hexagonalstructure" xmlns="http://www.w3.org/2000/svg" xmlns:xlink="http://www.w3.org/1999/xlink" x="0px"
	 y="0px" viewBox="0 0 196 220" enable-background="new 0 0 196 220" xml:space="preserve">
<g>
	<path fill="none" d="M36,66c0-7.7188-6.2812-14-14-14c-7.7188,0-14,6.2812-14,14s6.2812,14,14,14C29.7188,80,36,73.7188,36,66z"/>
	<path fill="none" d="M98,36c7.7188,0,14-6.2812,14-14S105.7188,8,98,8c-7.7188,0-14,6.2812-14,14S90.2812,36,98,36z"/>
	<path fill="none" d="M174,80c7.7188,0,14-6.2812,14-14s-6.2812-14-14-14c-7.7188,0-14,6.2812-14,14S166.2812,80,174,80z"/>
	<path fill="none" d="M98,184c-7.7188,0-14,6.2812-14,14s6.2812,14,14,14c7.7188,0,14-6.2812,14-14S105.7188,184,98,184z"/>
	<path fill="none" d="M22,140c-7.7188,0-14,6.2812-14,14s6.2812,14,14,14c7.7188,0,14-6.2812,14-14S29.7188,140,22,140z"/>
	<path fill="none" d="M174,140c-7.7188,0-14,6.2812-14,14s6.2812,14,14,14c7.7188,0,14-6.2812,14-14S181.7188,140,174,140z"/>
	<path fill="none" d="M152,154c0-11.436,8.7732-20.8536,19.9416-21.8956V87.8956C160.7732,86.8536,152,77.436,152,66
		c0-3.2176,0.7116-6.2668,1.958-9.0244c-6.268-3.6444-12.9664-7.5968-19.5304-11.4736c-6.5368-3.8604-12.8696-7.5988-18.464-10.8436
		C111.9764,40.2992,105.418,44,98,44c-7.2648,0-13.6992-3.5548-17.7076-9L42.028,56.9468C43.2832,59.712,44,62.7708,44,66
		c0,11.436-8.7732,20.8536-19.9416,21.8956v44.2088C35.2268,133.1464,44,142.564,44,154c0,3.3076-0.7548,6.4344-2.068,9.252
		c6.4576,3.7364,13.416,7.7808,20.2436,11.752c6.2788,3.6504,12.3784,7.196,17.8448,10.3592C84.006,179.71,90.5724,176,98,176
		c7.3148,0,13.7892,3.6024,17.7912,9.1112c6.356-3.66,13.348-7.668,20.1932-11.5896c6.444-3.6936,12.6624-7.2568,18.0416-10.3556
		C152.7384,160.3712,152,157.2736,152,154z M98,140c-16.5428,0-30-13.4572-30-30s13.4572-30,30-30c16.5428,0,30,13.4572,30,30
		S114.5428,140,98,140z"/>
	<path fill="none" d="M98,88c-12.1308,0-22,9.8692-22,22s9.8692,22,22,22c12.1308,0,22-9.8692,22-22S110.1308,88,98,88z"/>
	<path d="M98,80c-16.5428,0-30,13.4572-30,30s13.4572,30,30,30c16.5428,0,30-13.4572,30-30S114.5428,80,98,80z M98,132
		c-12.1308,0-22-9.8692-22-22s9.8692-22,22-22c12.1308,0,22,9.8692,22,22S110.1308,132,98,132z"/>
	<path d="M179.8792,132.8216c0.0084-0.1068,0.0624-0.1984,0.0624-0.308V87.162C189.1912,84.5612,196,76.07,196,66
		c0-12.1308-9.8692-22-22-22c-6.0272,0-11.4928,2.4396-15.4704,6.3788c-6.4084-3.7196-13.2924-7.782-20.0316-11.7636
		c-6.8136-4.0264-13.418-7.9232-19.1836-11.2636C119.7456,25.6348,120,23.8488,120,22c0-12.1308-9.8692-22-22-22
		C85.8692,0,76,9.8692,76,22c0,2.0028,0.2924,3.9352,0.7964,5.7804L37.4416,50.3532C33.4664,46.4296,28.0132,44,22,44
		C9.8692,44,0,53.8692,0,66c0,10.07,6.8088,18.5612,16.0584,21.162v45.2812c0,0.1328,0.0632,0.2452,0.076,0.3752
		C6.846,135.3944,0,143.9028,0,154c0,12.1308,9.8692,22,22,22c5.9312,0,11.3124-2.37,15.2728-6.2
		c6.6316,3.8348,13.8276,8.0172,20.8816,12.12c6.5416,3.802,12.888,7.492,18.5248,10.754C76.252,194.3828,76,196.16,76,198
		c0,12.1308,9.8692,22,22,22c12.1308,0,22-9.8692,22-22c0-1.9532-0.2808-3.8376-0.7604-5.6416
		c6.4932-3.7416,13.6864-7.8652,20.7232-11.8956c6.7044-3.842,13.1688-7.5472,18.6912-10.7296
		C162.6212,173.6036,168.0328,176,174,176c12.1308,0,22-9.8692,22-22C196,143.9076,189.1604,135.4024,179.8792,132.8216z M174,52
		c7.7188,0,14,6.2812,14,14s-6.2812,14-14,14c-7.7188,0-14-6.2812-14-14S166.2812,52,174,52z M98,8c7.7188,0,14,6.2812,14,14
		s-6.2812,14-14,14c-7.7188,0-14-6.2812-14-14S90.2812,8,98,8z M8,66c0-7.7188,6.2812-14,14-14c7.7188,0,14,6.2812,14,14
		s-6.2812,14-14,14C14.2812,80,8,73.7188,8,66z M22,168c-7.7188,0-14-6.2812-14-14s6.2812-14,14-14c7.7188,0,14,6.2812,14,14
		S29.7188,168,22,168z M98,212c-7.7188,0-14-6.2812-14-14s6.2812-14,14-14c7.7188,0,14,6.2812,14,14S105.7188,212,98,212z
		 M135.9844,173.5216c-6.8452,3.9216-13.8372,7.9296-20.1932,11.5896C111.7892,179.6024,105.3148,176,98,176
		c-7.4276,0-13.994,3.71-17.9796,9.3632c-5.4664-3.1632-11.566-6.7088-17.8448-10.3592c-6.8276-3.9712-13.786-8.0156-20.2436-11.752
		C43.2452,160.4344,44,157.3076,44,154c0-11.436-8.7732-20.8536-19.9416-21.8956V87.8956C35.2268,86.8536,44,77.436,44,66
		c0-3.2292-0.7168-6.288-1.972-9.0532L80.2924,35C84.3008,40.4452,90.7352,44,98,44c7.418,0,13.9764-3.7008,17.9636-9.3416
		c5.5944,3.2448,11.9272,6.9832,18.464,10.8436c6.564,3.8768,13.2624,7.8292,19.5304,11.4736C152.7116,59.7332,152,62.7824,152,66
		c0,11.436,8.7732,20.8536,19.9416,21.8956v44.2088C160.7732,133.1464,152,142.564,152,154c0,3.2736,0.7384,6.3712,2.026,9.166
		C148.6468,166.2648,142.4284,169.828,135.9844,173.5216z M174,168c-7.7188,0-14-6.2812-14-14s6.2812-14,14-14
		c7.7188,0,14,6.2812,14,14S181.7188,168,174,168z"/>
</g>
</svg>
