<?xml version="1.0" encoding="utf-8"?>
<!-- Generator: Adobe Illustrator 19.2.0, SVG Export Plug-In . SVG Version: 6.00 Build 0)  -->
<svg version="1.1" id="hipgirl" xmlns="http://www.w3.org/2000/svg" xmlns:xlink="http://www.w3.org/1999/xlink" x="0px" y="0px"
	 viewBox="0 0 202.7714 232.0075" enable-background="new 0 0 202.7714 232.0075" xml:space="preserve">
<g>
	<rect x="88" y="148.0075" width="24" height="8"/>
	<path d="M72,108.0075c-4.4101,0-8,3.5901-8,8c0,4.4101,3.5899,8,8,8c4.4099,0,8-3.5899,8-8
		C80,111.5976,76.4099,108.0075,72,108.0075z"/>
	<path d="M179.9607,192.0075H156h-32v-14.1947c1.6007-0.5128,3.1539-1.1268,4.6735-1.8053H178c1.4099,0,2.7187-0.7459,3.4415-1.9571
		c0.7185-1.2149,0.746-2.7184,0.07-3.9568l-23.4644-43.0184C166.108,124.7524,172,118.024,172,110.0075
		c0-8.4163-6.4773-15.4455-15.1617-17.4059c48.7984-54.4088,46.6204-59.4256,45.5444-61.8324
		c-0.7576-1.7032-2.4376-2.7617-4.3827-2.7617h-36.84l12.2463-19.9023c0.8672-1.406,0.7772-3.1992-0.2188-4.5156
		c-1-1.3124-2.7072-1.8712-4.2852-1.4296c0,0-13.9844,3.996-35.9532,9.9884c-11.4688,3.1288-21.7851,6.7576-29.1484,9.5624
		l9.6056-15.6056c0.8396-1.3632,0.7852-3.0977-0.1408-4.406c-0.922-1.3048-2.5312-1.9612-4.1055-1.6016
		c-2.3673,0.5076-58.0897,12.6912-68.8009,36.2536c-8.6492,19.0283,0.2584,44.0532,4.306,53.5776
		C44.2807,90.5432,44,91.2284,44,92.0075v0.364c-9.1173,1.6729-16,8.9433-16,17.636c0,8.0165,5.892,14.7449,13.9527,17.0677
		l-23.4644,43.0184c-0.676,1.2384-0.6483,2.7419,0.07,3.9568c0.7228,1.2112,2.0316,1.9571,3.4417,1.9571h49.3263
		c1.5196,0.6785,3.0728,1.2925,4.6737,1.8053v14.1947H52H20.0391c-11.0508,0-20.0391,8.9729-20.0391,20v16c0,2.2109,1.7891,4,4,4
		h192c2.2107,0,4-1.7891,4-4v-16C200,200.9804,191.0115,192.0075,179.9607,192.0075z M52,134.0075v-6v-8v-20v-4h96v4v20v8v6
		c0,20.9533-17.0469,38-38,38H90C69.0467,172.0075,52,154.9608,52,134.0075z M140.8735,168.0075
		c8.0096-7.2803,13.4556-17.3111,14.7825-28.6111l15.6055,28.6111H140.8735z M164,110.0075c0,4.3409-3.3541,8.0061-8,9.3861v-18.772
		C160.6459,102.0016,164,105.6668,164,110.0075z M47.6407,39.664c6.2616-13.7736,35.5428-24.3984,53.828-29.422L90.5935,27.91
		c-0.918,1.496-0.7575,3.41,0.3948,4.7304c1.156,1.3204,3.0312,1.7264,4.6368,1.0236c0.1756-0.0784,17.9684-7.9456,39.4256-13.7972
		c10.9493-2.9844,19.918-5.4764,26.172-7.2264L150.5935,29.91c-0.7615,1.2344-0.7928,2.7852-0.0855,4.0508
		c0.7067,1.2616,2.0427,2.0467,3.492,2.0467h39.0351c-5.8568,9.2477-24.6944,31.7897-42.822,52H52.5667
		C49.3663,80.7364,39.944,56.5955,47.6407,39.664z M36,110.0075c0-4.3407,3.3539-8.0059,8-9.3859v18.772
		C39.3539,118.0136,36,114.3484,36,110.0075z M28.7383,168.0075l15.6057-28.6111c1.3267,11.3,6.7727,21.3308,14.7823,28.6111
		H28.7383z M84,179.57c1.9687,0.2584,3.9619,0.4375,6,0.4375h20c2.0379,0,4.0311-0.1791,6-0.4375v12.4375H84V179.57z M80,200.0075
		h40h21.8671L104,223.3124l-37.8673-23.3049H80z M8,212.0075c0-6.6171,5.4023-12,12.0391-12h30.828l39,24H8V212.0075z M192,224.0075
		h-73.8673l39-24h22.828c6.6368,0,12.0393,5.3829,12.0393,12V224.0075z"/>
	<path d="M128,124.0075c4.4099,0,8-3.5899,8-8c0-4.4099-3.5901-8-8-8c-4.4101,0-8,3.5901-8,8
		C120,120.4176,123.5899,124.0075,128,124.0075z"/>
</g>
</svg>
