<?xml version="1.0" encoding="utf-8"?>
<!-- Generator: Adobe Illustrator 19.2.0, SVG Export Plug-In . SVG Version: 6.00 Build 0)  -->
<svg version="1.1" id="holdhands" xmlns="http://www.w3.org/2000/svg" xmlns:xlink="http://www.w3.org/1999/xlink" x="0px" y="0px"
	 viewBox="0 0 230.0076 211.902" enable-background="new 0 0 230.0076 211.902" xml:space="preserve">
<g>
	<path d="M66.6071,117.574c-0.5348-0.4804-1.1912-0.8084-1.8984-0.9492c-1-0.1912-9.8984-1.7812-14.2068,3.5588
		c-4.2344,5.242-1.8124,12.1092-1.5216,12.8748c0.168,0.4452,0.416,0.8556,0.7304,1.2148l4.3164,4.9336l-13.6288-6.246
		L21.9587,85.8476c-0.1404-0.3632-0.334-0.6992-0.572-1.008c-1.8928-2.414-7.0136-5.8712-14.2072-3.4764
		c-7.8748,2.6248-7.7772,10.8904-6.588,15.0936c3.0628,15.836,10.6096,52.7268,15.432,57.914
		c2.3336,2.512,11.8924,9.5,27.3592,20.7072c9.758,7.0704,23.0392,16.6952,25.174,18.8476c1.326,2.3944,8.4196,14.41,18.75,17.34
		c1.5,0.4256,3.0056,0.6364,4.5,0.6364c3.0448,0,6.0408-0.8788,8.8376-2.6092c4.2636-2.6368,7.1036-7.5508,8.4436-14.5976
		c2.9432-15.4844-1.9688-38.2344-4.7444-41.9532C101.6463,149.1208,72.4355,122.8124,66.6071,117.574z M96.4355,202.488
		c-2.3068,1.426-4.51,1.7736-6.9472,1.0784c-6.8712-1.9456-12.8812-11.4024-14-13.6368
		c-0.9316-1.8632-3.5704-4.0508-27.4104-21.3284c-10.7264-7.7732-24.0604-17.4372-26.158-19.6364
		c-2.5784-3.4964-8.8868-30.2696-13.5996-54.582c-0.1328-0.4612-1.2248-4.5588,1.3868-5.426
		c2.8024-0.9336,4.4492,0.0156,5.0916,0.5432l18.7384,47.8788c0.3768,0.9648,1.1152,1.746,2.0584,2.1796l32.0724,14.7032
		c1.7148,0.7892,3.744,0.2656,4.8728-1.246c1.1272-1.512,1.0452-3.6056-0.1972-5.0236l-16.0528-18.3476
		c-0.2692-1.0976-0.5468-3.2188,0.4336-4.4336c0.682-0.84,3.2112-1.1212,5.428-0.8828
		c16.2576,14.6212,34.088,31.0076,35.6796,33.0508C100.3847,161.8984,106.5407,196.238,96.4355,202.488z"/>
	<path d="M222.8279,81.3632c-7.1992-2.3948-12.3164,1.0624-14.2068,3.4764c-0.2384,0.3088-0.4316,0.6448-0.5724,1.008
		l-18.4396,47.1132l-13.6288,6.246l4.3164-4.9336c0.3144-0.3592,0.5624-0.7696,0.7304-1.2148
		c0.2912-0.7656,2.7132-7.6328-1.5212-12.8788c-4.3088-5.332-13.2152-3.746-14.2072-3.5548
		c-0.7072,0.1408-1.3632,0.4688-1.8984,0.9492c-5.828,5.2384-35.0392,31.5468-37.7344,35.168
		c-2.7772,3.7188-7.6896,26.4688-4.746,41.9532c1.3396,7.0468,4.1796,11.9608,8.4412,14.5976
		c2.7988,1.7304,5.7952,2.6092,8.84,2.6092c1.494,0,3-0.2108,4.5-0.6364c10.328-2.93,17.422-14.9416,18.75-17.34
		c2.1328-2.1524,15.416-11.7772,25.1736-18.8476c15.4668-11.2072,25.0256-18.1952,27.3596-20.7072
		c4.824-5.1912,12.3712-42.078,15.4316-57.914C230.6055,92.2536,230.7031,83.988,222.8279,81.3632z M221.6951,94.3592
		c-0.0408,0.1288-0.074,0.2616-0.0996,0.3984c-4.6212,23.9376-10.9276,50.7072-13.5076,54.2072
		c-2.096,2.1992-15.43,11.8632-26.1584,19.6364c-23.8396,17.2776-26.4784,19.4652-27.408,21.3284
		c-1.1212,2.2344-7.1308,11.6912-14.002,13.6368c-2.4316,0.6992-4.6428,0.3516-6.9492-1.0784
		c-10.1036-6.25-3.9472-40.5896-1.4964-44.9608c1.6916-2.1876,19.5236-18.578,35.7832-33.1992
		c2.0412-0.2108,4.6996-0.0196,5.426,0.8788c0.9668,1.1992,0.7148,3.2932,0.4316,4.4416l-16.0508,18.3436
		c-1.242,1.418-1.324,3.5116-0.1972,5.0236c1.1288,1.5116,3.164,2.0352,4.8732,1.246l32.072-14.7032
		c0.9436-0.4336,1.6816-1.2148,2.0588-2.1796l18.7304-47.8596c0.6952-0.57,2.3396-1.492,5.0996-0.5624
		C222.9119,89.824,221.8203,93.9216,221.6951,94.3592z"/>
	<path d="M79.2735,65.6052c1.1776,0,2.3608-0.0544,3.5456-0.156c3.1452,9.262,4.6152,16.928,4.6416,17.074
		c0.3596,1.926,2.0392,3.2696,3.93,3.2696c0.242,0,0.486-0.0236,0.7324-0.0664c2.1716-0.4024,3.6072-2.4884,3.2048-4.66
		c-0.122-0.6572-1.7924-9.4068-5.462-19.7656c7.3804-13.5252,6.7552-30.1652-1.9208-43.0276
		C78.8711,4.824,62.6619-2.1212,46.6599,0.574c-1.1384,0.1916-2.1364,0.8672-2.742,1.8516
		c-8.498,13.828-8.1272,31.4532,0.9472,44.9024C52.6367,58.8552,65.6423,65.6052,79.2735,65.6052z M49.8143,8.2068
		c12.3204-1.3984,24.5196,4.1916,31.498,14.5432c5.64,8.3572,7.0388,18.6968,4.2876,28.114
		c-2.5932-5.5212-5.7408-10.92-9.5512-15.3056c-1.4472-1.664-3.9784-1.84-5.6424-0.3944c-1.668,1.4492-1.846,3.9764-0.3968,5.6444
		c4.0076,4.6112,7.2456,10.6644,9.8084,16.7256c-11.2024,0.1812-21.9456-5.22-28.32-14.6788
		C44.5175,32.5116,43.9179,19.1052,49.8143,8.2068z"/>
	<path d="M98.8867,122.7148c0.5584,0.2696,1.1484,0.3944,1.7304,0.3944c1.4884,0,2.918-0.836,3.6072-2.2656
		c0.0884-0.1852,3.9596-8.1304,10.6312-18.67c7.6332,2.6672,15.532,4.0448,23.3964,4.0448c18.1424,0,36.0136-6.9176,49.5056-19.9452
		c20.0296-19.3476,26.9416-48.8008,17.6096-75.0428c-0.3868-1.09-1.2248-1.9572-2.2988-2.3792
		c-25.9004-10.242-55.578-4.3632-75.6096,14.9768c-19.3804,18.7172-26.4324,46.8956-18.4176,72.4756
		c-7.336,11.4132-11.638,20.2636-12.0276,21.0712C96.0567,119.3672,96.8943,121.7576,98.8867,122.7148z M133.0175,29.5856
		c17.332-16.75,42.8164-22.1208,65.3984-13.9452c7.3868,22.8476,1.1232,48.1328-16.2168,64.8752
		c-16.6844,16.1112-40.9008,21.6524-62.8132,14.778c8.85-12.9324,21.0488-27.828,35.2156-37.1884
		c1.8436-1.2148,2.3496-3.6992,1.1328-5.5388c-1.2168-1.848-3.6916-2.3516-5.5432-1.1328
		c-14.0876,9.3056-26.1244,23.3152-35.1752,36.0404C110.8307,66.5912,117.4299,44.6376,133.0175,29.5856z"/>
</g>
</svg>
