<?xml version="1.0" encoding="utf-8"?>
<!-- Generator: Adobe Illustrator 19.2.0, SVG Export Plug-In . SVG Version: 6.00 Build 0)  -->
<svg version="1.1" id="horn" xmlns="http://www.w3.org/2000/svg" xmlns:xlink="http://www.w3.org/1999/xlink" x="0px" y="0px"
	 viewBox="0 0 231.4466 207.4061" enable-background="new 0 0 231.4466 207.4061" xml:space="preserve">
<g>
	<path d="M71.6503,81.7265c-11.2344-4.996-20.1896-4.9764-25.2228,0.0588c-0.6124,0.6116-1.1444,1.286-1.608,2.0112
		c-0.9616,0.4212-1.7608,1.2032-2.1496,2.27L0.2439,202.0313c-0.5352,1.4608-0.1736,3.1016,0.9276,4.2032
		c0.764,0.7656,1.7852,1.1716,2.8284,1.1716c0.4608,0,0.9256-0.078,1.3748-0.242l115.9648-42.426
		c1.0644-0.3908,1.8496-1.19,2.2724-2.1516c0.7132-0.4624,1.3908-0.9864,2.0108-1.606
		c11.0216-11.0236-3.4316-37.3752-22.6288-56.5704C92.8339,94.2501,81.7011,86.1953,71.6503,81.7265z M44.8863,103.2909
		c0.4368,1.2112,0.9176,2.4448,1.4828,3.7168c4.4684,10.0548,12.5252,21.1836,22.6852,31.344
		c10.7708,10.7704,23.7884,20.0324,35.0928,24.1552l-93.4304,34.1844L44.8863,103.2909z M119.9667,155.3241
		c-4.7268,4.7188-24.2268-1.6016-45.256-22.6288c-9.4824-9.4804-16.9512-19.758-21.0292-28.9376
		c-3.4004-7.6484-4.0116-13.9024-1.5976-16.3164c0.9804-0.9804,2.5896-1.4608,4.668-1.4608c3.0468,0,7.1016,1.0352,11.6484,3.0548
		c9.1776,4.082,19.4532,11.5504,28.9372,21.0312C118.3671,131.0977,124.6891,150.5977,119.9667,155.3241z"/>
	<path d="M62.1307,68.6053c0.42,0.1408,0.8476,0.2072,1.2656,0.2072c1.6756,0,3.2364-1.0588,3.7948-2.7344l14.1428-42.4256
		c0.6992-2.098-0.4336-4.3636-2.5296-5.0588c-2.1032-0.7072-4.3632,0.4336-5.0604,2.5272l-14.1424,42.426
		C58.9023,65.6445,60.0351,67.9101,62.1307,68.6053z"/>
	<path d="M83.8787,79.5037c0.664,0.422,1.4084,0.6252,2.1424,0.6252c1.3224,0,2.6172-0.6564,3.3792-1.8516l39.5976-62.2264
		c1.1856-1.8636,0.6368-4.336-1.2284-5.5236c-1.8596-1.1836-4.336-0.6328-5.5216,1.2264L82.6503,73.9805
		C81.4647,75.8437,82.0135,78.3165,83.8787,79.5037z"/>
	<path d="M124.0135,69.2657l-18.3848,21.2108c-1.4452,1.672-1.2656,4.1952,0.4044,5.6444c0.7556,0.6564,1.6892,0.9768,2.6172,0.9768
		c1.1192,0,2.2344-0.4688,3.0252-1.3788l18.3848-21.2112c1.4452-1.672,1.2656-4.1952-0.4044-5.6444
		C127.9899,67.4141,125.4607,67.6017,124.0135,69.2657z"/>
	<path d="M120.8435,113.6485c0.7656,1.1872,2.0528,1.836,3.3692,1.836c0.7404,0,1.4904-0.2032,2.16-0.6368l39.5976-25.4572
		c1.8576-1.1912,2.3948-3.668,1.2012-5.5272c-1.1952-1.8556-3.6696-2.4064-5.5292-1.1992l-39.5976,25.4568
		C120.1871,109.3125,119.6503,111.7889,120.8435,113.6485z"/>
	<path d="M202.9879,108.9061c-0.6424-2.1172-2.8904-3.3084-4.99-2.664l-65.0548,19.7968c-2.1132,0.6448-3.3064,2.8792-2.662,4.9924
		c0.5252,1.7264,2.1092,2.836,3.824,2.836c0.3868,0,0.7796-0.0548,1.166-0.172l65.0548-19.7968
		C202.4391,113.2537,203.6327,111.0193,202.9879,108.9061z"/>
	<path d="M176.5351,148.4961h-31.1136c-2.2088,0-4,1.7892-4,4s1.7912,4,4,4h31.1136c2.2088,0,4-1.7892,4-4
		S178.7439,148.4961,176.5351,148.4961z"/>
	<path d="M136.9335,63.1561c1.158,0,2.3064-0.5,3.0976-1.4688l12.7284-15.5544c1.3984-1.7072,1.1464-4.2268-0.5624-5.6252
		c-1.7092-1.4024-4.2304-1.1484-5.6288,0.5624l-12.7288,15.5548c-1.3984,1.7072-1.1464,4.2268,0.5628,5.6252
		C135.1463,62.8593,136.0427,63.1561,136.9335,63.1561z"/>
	<path d="M79.5819,14.9961c0.2656,0.0548,0.5292,0.078,0.7888,0.078c1.8672,0,3.5392-1.3124,3.918-3.2148l1.4144-7.0704
		c0.4336-2.168-0.9708-4.2732-3.1368-4.7068c-2.174-0.4456-4.2776,0.9688-4.7072,3.1368l-1.414,7.07
		C76.0115,12.4569,77.4159,14.5625,79.5819,14.9961z"/>
	<path d="M199.1619,148.4961h-11.3144c-2.2092,0-4,1.7892-4,4s1.7908,4,4,4h11.3144c2.2088,0,4-1.7892,4-4
		S201.3707,148.4961,199.1619,148.4961z"/>
	<path d="M231.3043,103.3553c-0.584-2.1288-2.7812-3.3748-4.912-2.8044l-15.5548,4.246c-2.1308,0.582-3.3884,2.7812-2.8064,4.914
		c0.4864,1.7772,2.0976,2.9452,3.8572,2.9452c0.348,0,0.7032-0.0468,1.0548-0.1404l15.5548-4.2464
		C230.6287,107.6873,231.8867,105.4881,231.3043,103.3553z"/>
</g>
</svg>
