<?xml version="1.0" encoding="utf-8"?>
<!-- Generator: Adobe Illustrator 19.2.0, SVG Export Plug-In . SVG Version: 6.00 Build 0)  -->
<svg version="1.1" id="hotel" xmlns="http://www.w3.org/2000/svg" xmlns:xlink="http://www.w3.org/1999/xlink" x="0px" y="0px"
	 viewBox="0 0 164.0508 231.8204" enable-background="new 0 0 164.0508 231.8204" xml:space="preserve">
<g>
	<path d="M144,223.8204v-12v-24v-12v-24v-12v-24v-12v-24v-16c0-2.2108-1.7912-4-4-4H24c-2.2088,0-4,1.7892-4,4v16v24v12v24v12v24v12
		v24v12H0v8h24h116h24.0508v-8H144z M28,83.8204h108v16H28V83.8204z M28,119.8204h108v16H28V119.8204z M136,143.8204v4H28v-4H136z
		 M28,155.8204h108v16H28V155.8204z M136,107.8204v4H28v-4H136z M28,179.8204h108v4H28V179.8204z M28,191.8204h108v16H28V191.8204z
		 M136,67.8204v8H28v-8H136z M28,223.8204v-8h108v8H28z"/>
	<path d="M10.1916,32.3088L8.3028,43.3244c-0.258,1.5,0.3572,3.0156,1.5896,3.91c1.2344,0.8984,2.8672,1.0156,4.2132,0.3048
		L24,42.34l9.8944,5.1992C34.4804,47.8476,35.1192,48,35.756,48c0.828,0,1.654-0.2576,2.3516-0.7656
		c1.2324-0.8944,1.8476-2.41,1.5896-3.91l-1.8888-11.0156l8.004-7.8048c1.092-1.0624,1.4844-2.6524,1.0136-4.0976
		c-0.4704-1.4492-1.7224-2.504-3.2284-2.7228l-11.0644-1.6092L27.588,6.0508c-1.3476-2.7344-5.8284-2.7344-7.176,0l-4.9452,10.0236
		L4.4024,17.6836c-1.506,0.2188-2.758,1.2736-3.2284,2.7228c-0.4708,1.4452-0.0784,3.0352,1.0136,4.0976L10.1916,32.3088z
		 M18.6992,23.6876c1.3028-0.1876,2.4276-1.008,3.0116-2.1876L24,16.8596L26.2892,21.5c0.584,1.1796,1.7088,2,3.0116,2.1876
		l5.1232,0.746l-3.7052,3.6132c-0.9436,0.918-1.3752,2.2424-1.1504,3.5392l0.8748,5.1016l-4.582-2.4064
		c-0.582-0.3084-1.2224-0.4608-1.8612-0.4608s-1.2792,0.1524-1.8612,0.4608l-4.582,2.4064l0.8748-5.1016
		c0.2248-1.2968-0.2068-2.6212-1.1504-3.5392l-3.7052-3.6132L18.6992,23.6876z"/>
	<path d="M67.2404,30.6172l-2.1152,12.3244c-0.256,1.5,0.3592,3.0156,1.5916,3.91c1.2324,0.8984,2.8652,1.0156,4.2128,0.3048
		L82,41.34l11.0704,5.8164c0.586,0.3084,1.2244,0.4608,1.8612,0.4608c0.828,0,1.6544-0.2576,2.3516-0.7656
		c1.2324-0.8944,1.8476-2.41,1.592-3.91l-2.1156-12.3244l8.9552-8.7304c1.092-1.0624,1.4844-2.6524,1.0136-4.0976
		c-0.4704-1.4492-1.7224-2.504-3.2284-2.7228l-12.3788-1.8008L85.588,2.0508c-1.3476-2.7344-5.8284-2.7344-7.176,0l-5.5332,11.2148
		L60.5,15.0664c-1.506,0.2188-2.758,1.2736-3.2284,2.7228c-0.4708,1.4452-0.0784,3.0352,1.0136,4.0976L67.2404,30.6172z
		 M76.1112,20.8788c1.3028-0.1872,2.428-1.0076,3.012-2.1872L82,12.8596l2.8768,5.832c0.584,1.1796,1.7092,2,3.012,2.1872
		l6.4372,0.9376l-4.656,4.5392c-0.9436,0.918-1.3752,2.242-1.1504,3.5392l1.0996,6.41l-5.758-3.0236
		c-0.582-0.3084-1.2224-0.4608-1.8612-0.4608s-1.2792,0.1524-1.8612,0.4608l-5.758,3.0236l1.0996-6.41
		c0.2248-1.2972-0.2068-2.6212-1.1504-3.5392l-4.656-4.5392L76.1112,20.8788z"/>
	<path d="M126.1916,32.3088l-1.8888,11.0156c-0.258,1.5,0.3572,3.0156,1.5896,3.91c1.2384,0.8984,2.8692,1.0156,4.2132,0.3048
		L140,42.34l9.8944,5.1992C150.4804,47.8476,151.1192,48,151.756,48c0.828,0,1.654-0.2576,2.3516-0.7656
		c1.2324-0.8944,1.8476-2.41,1.5896-3.91l-1.8888-11.0156l8.004-7.8048c1.092-1.0624,1.4844-2.6524,1.0136-4.0976
		c-0.4704-1.4492-1.7224-2.504-3.2284-2.7228l-11.0644-1.6092L143.588,6.0508c-1.3476-2.7344-5.8284-2.7344-7.176,0l-4.9452,10.0236
		l-11.0644,1.6092c-1.506,0.2188-2.758,1.2736-3.2284,2.7228c-0.4708,1.4452-0.0784,3.0352,1.0136,4.0976L126.1916,32.3088z
		 M134.6992,23.6876c1.3028-0.1876,2.4276-1.008,3.0116-2.1876L140,16.8596l2.2892,4.6404c0.584,1.1796,1.7088,2,3.0116,2.1876
		l5.1232,0.746l-3.7052,3.6132c-0.9436,0.918-1.3752,2.2424-1.1504,3.5392l0.8748,5.1016l-4.582-2.4064
		c-0.582-0.3084-1.2224-0.4608-1.8612-0.4608s-1.2792,0.1524-1.8612,0.4608l-4.582,2.4064l0.8748-5.1016
		c0.2248-1.2968-0.2068-2.6212-1.1504-3.5392l-3.7052-3.6132L134.6992,23.6876z"/>
</g>
</svg>
