<?xml version="1.0" encoding="utf-8"?>
<!-- Generator: Adobe Illustrator 19.2.0, SVG Export Plug-In . SVG Version: 6.00 Build 0)  -->
<svg version="1.1" id="houselocation" xmlns="http://www.w3.org/2000/svg" xmlns:xlink="http://www.w3.org/1999/xlink" x="0px"
	 y="0px" viewBox="0 0 168 224" enable-background="new 0 0 168 224" xml:space="preserve">
<g>
	<path d="M125.7892,64.422l-40-20c-1.1252-0.5628-2.4532-0.5628-3.5784,0l-40,20c-1.658,0.83-2.5292,2.6912-2.1032,4.498
		C40.5332,70.7248,42.1444,72,44,72h12v40c0,2.2088,1.7912,4,4,4h16h16h16c2.2088,0,4-1.7912,4-4V72h12
		c1.8556,0,3.4668-1.2752,3.8924-3.08C128.3184,67.1132,127.4472,65.252,125.7892,64.422z M84,52.4728L107.0568,64H60.9432
		L84,52.4728z M80,108V92h8v16H80z M104,108h-8V88c0-2.2088-1.7912-4-4-4H76c-2.2088,0-4,1.7912-4,4v20h-8V72h40V108z"/>
	<path d="M84,0C37.6816,0,0,37.6816,0,84c0,45.7872,64.7228,140,84,140s84-94.2128,84-140C168,37.6816,130.3184,0,84,0z M84,216
		C71.4316,216,8,127.1308,8,84C8,42.0936,42.0936,8,84,8s76,34.0936,76,76C160,127.1308,96.5684,216,84,216z"/>
	<path d="M84,20c-35.2892,0-64,28.7108-64,64s28.7108,64,64,64s64-28.7108,64-64S119.2892,20,84,20z M84,140
		c-30.8788,0-56-25.1212-56-56s25.1212-56,56-56s56,25.1212,56,56S114.8788,140,84,140z"/>
</g>
</svg>
