<?xml version="1.0" encoding="utf-8"?>
<!-- Generator: Adobe Illustrator 19.2.0, SVG Export Plug-In . SVG Version: 6.00 Build 0)  -->
<svg version="1.1" id="internetconnection" xmlns="http://www.w3.org/2000/svg" xmlns:xlink="http://www.w3.org/1999/xlink" x="0px"
	 y="0px" viewBox="0 0 227.9998 216" enable-background="new 0 0 227.9998 216" xml:space="preserve">
<g>
	<path fill="none" d="M90.5859,57.5312c0,16.1692-4.2848,30.4376-11.1696,40.3296C94.0659,89.6332,104,73.9652,104,56H90.5383
		C90.5471,56.514,90.5859,57.0136,90.5859,57.5312z"/>
	<path fill="none" d="M90.044,48h13.2335c-2.7192-16.1076-13.4508-29.506-27.9752-35.9152
		C83.0003,20.1104,88.4147,32.9068,90.044,48z"/>
	<path fill="none" d="M52,48V11.6692C41.2047,14.6652,32.3223,29.4508,30.0071,48H52z"/>
	<path fill="none" d="M21.952,48c1.6295-15.092,7.0451-27.888,14.7431-35.914C22.1715,18.496,11.4415,31.8932,8.7223,48H21.952z"/>
	<path fill="none" d="M60,11.6696V48h21.9891C79.6739,29.4516,70.7923,14.6664,60,11.6696z"/>
	<path fill="none" d="M60,103.3892c12.5891-3.496,22.5859-23.046,22.5859-45.858c0-0.516-0.036-1.0188-0.0459-1.5312H60V103.3892z"
		/>
	<path fill="none" d="M52,103.3896V56H29.456c-0.0101,0.5124-0.0461,1.0152-0.0461,1.5312
		C29.4099,80.3436,39.4075,99.8944,52,103.3896z"/>
	<path fill="none" d="M21.4099,57.5312c0-0.5176,0.0388-1.0172,0.0476-1.5312H8c0,17.964,9.9327,33.6312,24.5803,41.8592
		C25.6955,87.9672,21.4099,73.6992,21.4099,57.5312z"/>
	<rect x="132" y="148" fill="none" width="80" height="40"/>
	<polygon fill="none" points="130.7071,196 125.9063,208 218.0935,208 213.2927,196 	"/>
	<path d="M112,56c0-30.8788-25.1213-56-56-56C25.1211,0,0,25.1212,0,56s25.1211,56,56,56C86.8787,112,112,86.8788,112,56z
		 M29.456,56H52v47.3896c-12.5925-3.4952-22.5901-23.046-22.5901-45.8584C29.4099,57.0152,29.4459,56.5124,29.456,56z
		 M82.5859,57.5312c0,22.812-9.9968,42.362-22.5859,45.858V56h22.54C82.5499,56.5124,82.5859,57.0152,82.5859,57.5312z M60,48
		V11.6696C70.7923,14.6664,79.6739,29.4516,81.9891,48H60z M52,11.6692V48H30.0071C32.3223,29.4508,41.2047,14.6652,52,11.6692z
		 M79.4163,97.8608c6.8848-9.892,11.1696-24.1604,11.1696-40.3296c0-0.5176-0.0388-1.0172-0.0476-1.5312H104
		C104,73.9652,94.0659,89.6332,79.4163,97.8608z M103.2775,48H90.044c-1.6293-15.0932-7.0437-27.8896-14.7417-35.9152
		C89.8267,18.494,100.5583,31.8924,103.2775,48z M36.6951,12.086C28.9971,20.112,23.5815,32.908,21.952,48H8.7223
		C11.4415,31.8932,22.1715,18.496,36.6951,12.086z M8,56h13.4575c-0.0088,0.514-0.0476,1.0136-0.0476,1.5312
		c0,16.168,4.2856,30.436,11.1704,40.328C17.9327,89.6312,8,73.964,8,56z"/>
	<path d="M227.7147,210.5156L220,191.2284V144c0-2.2108-1.7893-4-4-4h-88c-2.2109,0-4,1.7892-4,4v47.2284l-7.7149,19.2872
		c-0.4924,1.2304-0.34,2.6288,0.4024,3.7264C117.4335,215.34,118.672,216,120,216h104c1.328,0,2.5663-0.66,3.3123-1.758
		C228.0547,213.1444,228.2071,211.746,227.7147,210.5156z M132,148h80v40h-80V148z M125.9063,208l4.8008-12h82.5856l4.8008,12
		H125.9063z"/>
	<path d="M102.828,165.8592c-1.5625-1.5624-4.0937-1.5624-5.656,0c-1.5629,1.5628-1.5629,4.094,0,5.6564L101.6563,176H60v-33.6564
		l4.4843,4.4844c0.7812,0.7812,1.8048,1.172,2.828,1.172c1.0237,0,2.0468-0.3908,2.8284-1.172c1.5624-1.5624,1.5624-4.0936,0-5.656
		l-10.3856-10.3852C59.236,129.18,57.7803,128,56,128c-1.7805,0-3.236,1.18-3.7553,2.7864L41.8591,141.172
		c-1.5624,1.5624-1.5624,4.0936,0,5.656c1.5628,1.5628,4.094,1.5628,5.6564,0L52,142.3436V180c0,2.2108,1.7891,4,4,4h45.6563
		l-4.4843,4.4844c-1.5629,1.5624-1.5629,4.0936,0,5.6564c0.7811,0.7812,1.8043,1.1716,2.828,1.1716
		c1.0235,0,2.0467-0.3904,2.828-1.1716l11.3127-11.3128c1.5624-1.5624,1.5624-4.0936,0-5.656L102.828,165.8592z"/>
</g>
</svg>
