<?xml version="1.0" encoding="utf-8"?>
<!-- Generator: Adobe Illustrator 19.2.0, SVG Export Plug-In . SVG Version: 6.00 Build 0)  -->
<svg version="1.1" id="key" xmlns="http://www.w3.org/2000/svg" xmlns:xlink="http://www.w3.org/1999/xlink" x="0px" y="0px"
	 viewBox="0 0 224 132" enable-background="new 0 0 224 132" xml:space="preserve">
<g>
	<rect x="64" y="68" fill="none" width="16" height="32"/>
	<rect x="24" y="68" fill="none" width="16" height="32"/>
	<path fill="none" d="M180,28c-11.0273,0-20,8.9784-20,20.0156v35.9688C160,95.0216,168.9727,104,180,104
		c11.0271,0,20-8.9784,20-20.0156V48.0156C200,36.9784,191.0271,28,180,28z"/>
	<path fill="none" d="M180,8c-19.8517,0-36,16.1504-36,36v4H8v12h8h32h8h32h56v27.998C144,107.8496,160.1483,124,180,124
		c19.8515,0,36-16.1504,36-36.002V44.002C216,24.1504,199.8515,8,180,8z M208,83.9844C208,99.4316,195.4375,112,180,112
		c-15.4377,0-28-12.5684-28-28.0156V48.0156C152,32.5684,164.5623,20,180,20c15.4375,0,28,12.5684,28,28.0156V83.9844z"/>
	<path d="M180,0c-22.9141,0-41.7929,17.6056-43.8205,40H0v28h16v40h32V68h8v40h32V68h48v19.998C136,112.2616,155.7383,132,180,132
		c24.2615,0,44-19.7384,44-44.002V44.002C224,19.7384,204.2615,0,180,0z M40,100H24V68h16V100z M80,100H64V68h16V100z M216,87.998
		C216,107.8496,199.8515,124,180,124c-19.8517,0-36-16.1504-36-36.002V60H88H56h-8H16H8V48h136v-4c0-19.8496,16.1483-36,36-36
		c19.8515,0,36,16.1504,36,36.002V87.998z"/>
	<path d="M180,20c-15.4377,0-28,12.5684-28,28.0156v35.9688C152,99.4316,164.5623,112,180,112c15.4375,0,28-12.5684,28-28.0156
		V48.0156C208,32.5684,195.4375,20,180,20z M200,83.9844C200,95.0216,191.0271,104,180,104c-11.0273,0-20-8.9784-20-20.0156V48.0156
		C160,36.9784,168.9727,28,180,28c11.0271,0,20,8.9784,20,20.0156V83.9844z"/>
</g>
</svg>
