<?xml version="1.0" encoding="utf-8"?>
<!-- Generator: Adobe Illustrator 19.2.0, SVG Export Plug-In . SVG Version: 6.00 Build 0)  -->
<svg version="1.1" id="keys" xmlns="http://www.w3.org/2000/svg" xmlns:xlink="http://www.w3.org/1999/xlink" x="0px" y="0px"
	 viewBox="0 0 224 104" enable-background="new 0 0 224 104" xml:space="preserve">
<g>
	<path d="M172,0c-20.118,0-37.5668,11.5053-46.2104,28.2617C125.378,28.1189,124.9524,28,124.492,28H20
		c-0.8652,0-1.7072,0.2813-2.4004,0.8009l-16,12c-0.0744,0.056-0.112,0.1436-0.182,0.2044c-0.2136,0.184-0.3816,0.3952-0.5524,0.62
		C0.7176,41.8197,0.5736,42.0025,0.464,42.22c-0.1224,0.2417-0.1876,0.4993-0.2596,0.7661
		C0.158,43.1597,0.056,43.3117,0.0332,43.492c-0.0108,0.0857,0.0236,0.1677,0.0184,0.2533C0.0456,43.8341,0,43.9097,0,44
		c0,0.1913,0.0828,0.3545,0.1088,0.5385c0.036,0.262,0.0668,0.5132,0.154,0.7628c0.094,0.2696,0.232,0.5016,0.3784,0.7416
		c0.088,0.1451,0.1228,0.3148,0.23,0.4491l19.5136,24.5c0.7596,0.9533,1.91,1.508,3.1288,1.508h20.7832
		c1.0608,0,2.0784-0.4219,2.8284-1.172l9.2792-9.2811l6.9824,6.9804c0.75,0.75,1.7676,1.172,2.828,1.172H84.922
		c1.0604,0,2.078-0.422,2.828-1.172l6.1484-6.1484l12.248,12.25c0.75,0.75,1.7676,1.172,2.8284,1.172h15.4744
		c0.5212,0,1.0124-0.1152,1.4688-0.2964C134.608,92.6181,151.9864,104,172,104c28.674,0,52-23.328,52-52S200.674,0,172,0z
		 M110.6308,68.3009L96.7264,54.3945c-1.5-1.5-4.156-1.5-5.656,0l-7.8048,7.8048H67.8712l-8.6388-8.6368
		C57.67,52,55.1388,52,53.576,53.5625L42.6408,64.5H25.4416L12.2992,48H96c2.2088,0,4-1.7891,4-4c0-2.2107-1.7912-4-4-4H16.0016
		l5.3324-4h101.2108C120.908,41.0457,120,46.416,120,52c0,5.6969,0.9544,11.1669,2.6552,16.3009H110.6308z M172,96
		c-24.2616,0-44-19.7383-44-44c0-24.2615,19.7384-44,44-44s44,19.7385,44,44C216,76.2617,196.2616,96,172,96z"/>
	<path d="M196,36c-8.8224,0-16,7.1757-16,16c0,8.8245,7.1776,16,16,16c8.8224,0,16-7.1755,16-16C212,43.1757,204.8224,36,196,36z
		 M196,60c-4.412,0-8-3.5899-8-8c0-4.4099,3.588-8,8-8s8,3.5901,8,8C204,56.4101,200.412,60,196,60z"/>
</g>
</svg>
