<?xml version="1.0" encoding="utf-8"?>
<!-- Generator: Adobe Illustrator 19.2.0, SVG Export Plug-In . SVG Version: 6.00 Build 0)  -->
<svg version="1.1" id="landscapecircle" xmlns="http://www.w3.org/2000/svg" xmlns:xlink="http://www.w3.org/1999/xlink" x="0px"
	 y="0px" viewBox="0 0 216 216" enable-background="new 0 0 216 216" xml:space="preserve">
<g>
	<polygon fill="none" points="39.4024,140 96.5976,140 68,117.1212 	"/>
	<polygon fill="none" points="111.6816,140 180.3184,140 146,90.9764 	"/>
	<path fill="none" d="M88,96c8.8224,0,16-7.1756,16-16s-7.1776-16-16-16c-8.8224,0-16,7.1756-16,16S79.1776,96,88,96z"/>
	<path fill="none" d="M108,8C52.8592,8,8,52.8592,8,108s44.8592,100,100,100c55.1408,0,100-44.8592,100-100S163.1408,8,108,8z
		 M88,56c13.2344,0,24,10.7656,24,24s-10.7656,24-24,24c-13.2344,0-24-10.7656-24-24S74.7656,56,88,56z M188,148h-80h-4H28
		c-1.6992,0-3.2128-1.0744-3.7752-2.6756c-0.5608-1.6016-0.0508-3.3868,1.2772-4.4496l40-32c1.4608-1.164,3.5352-1.164,4.996,0
		l34.1072,27.286l38.1176-54.4536c1.496-2.1408,5.0584-2.1408,6.5544,0l42,60c0.8556,1.2224,0.9592,2.8164,0.2716,4.1404
		C190.8592,147.172,189.492,148,188,148z"/>
	<path d="M108,0C48.4492,0,0,48.4492,0,108s48.4492,108,108,108c59.5508,0,108-48.4492,108-108S167.5508,0,108,0z M108,208
		C52.8592,208,8,163.1408,8,108S52.8592,8,108,8c55.1408,0,100,44.8592,100,100S163.1408,208,108,208z"/>
	<path d="M191.2772,141.7072l-42-60c-1.496-2.1408-5.0584-2.1408-6.5544,0l-38.1176,54.4536l-34.1072-27.286
		c-1.4608-1.164-3.5352-1.164-4.996,0l-40,32c-1.328,1.0628-1.838,2.848-1.2772,4.4496C24.7872,146.9256,26.3008,148,28,148h76h4h80
		c1.492,0,2.8592-0.828,3.5488-2.1524C192.2364,144.5236,192.1328,142.9296,191.2772,141.7072z M39.4024,140L68,117.1212
		L96.5976,140H39.4024z M111.6816,140L146,90.9764L180.3184,140H111.6816z"/>
	<path d="M88,104c13.2344,0,24-10.7656,24-24s-10.7656-24-24-24c-13.2344,0-24,10.7656-24,24S74.7656,104,88,104z M88,64
		c8.8224,0,16,7.1756,16,16s-7.1776,16-16,16c-8.8224,0-16-7.1756-16-16S79.1776,64,88,64z"/>
</g>
</svg>
