<?xml version="1.0" encoding="utf-8"?>
<!-- Generator: Adobe Illustrator 19.2.0, SVG Export Plug-In . SVG Version: 6.00 Build 0)  -->
<svg version="1.1" id="laptop" xmlns="http://www.w3.org/2000/svg" xmlns:xlink="http://www.w3.org/1999/xlink" x="0px" y="0px"
	 viewBox="0 0 235.9999 164" enable-background="new 0 0 235.9999 164" xml:space="preserve">
<g>
	<path fill="none" d="M212.0002,8h-184v100h184V8z M72.0002,14.3437L77.6566,20l-32.34,32.34l-5.6564-5.6563L72.0002,14.3437z
		 M44.0002,73.6565L38.3438,68l53.6564-53.6563L97.6566,20L44.0002,73.6565z"/>
	<path fill="none" d="M26.6662,116l-16.666,40h216.4512l-13.334-40H26.6662z M76.0002,152h-20v-8h20V152z M152.0002,152h-68v-8h68
		V152z M180.0002,152h-20v-8h20V152z"/>
	<path d="M235.795,158.7345l-15.7948-47.3848V4c0-2.2107-1.7912-4-4-4h-192c-2.2088,0-4,1.7893-4,4v107.2017L0.3086,158.4609
		c-0.5156,1.2344-0.3788,2.6448,0.3636,3.758C1.4142,163.332,2.6622,164,4.0002,164h228c1.2852,0,2.492-0.6171,3.244-1.66
		C235.9962,161.2969,236.2014,159.9533,235.795,158.7345z M28.0002,8h184v100h-184V8z M10.0002,156l16.666-40h186.4512l13.334,40
		H10.0002z"/>
	
		<rect x="35.7905" y="29.3422" transform="matrix(0.7071 -0.7071 0.7071 0.7071 -6.3955 51.2439)" width="45.7357" height="7.9993"/>
	<rect x="30.0594" y="40.0004" transform="matrix(0.7071 -0.7071 0.7071 0.7071 -11.1961 60.97)" width="75.8816" height="7.9994"/>
	<rect x="84.0002" y="144" width="68" height="8"/>
	<rect x="160.0002" y="144" width="20" height="8"/>
	<rect x="56.0002" y="144" width="20" height="8"/>
</g>
</svg>
