<?xml version="1.0" encoding="utf-8"?>
<!-- Generator: Adobe Illustrator 19.2.0, SVG Export Plug-In . SVG Version: 6.00 Build 0)  -->
<svg version="1.1" id="lifesignal" xmlns="http://www.w3.org/2000/svg" xmlns:xlink="http://www.w3.org/1999/xlink" x="0px" y="0px"
	 viewBox="0 0 224.002 159.9996" enable-background="new 0 0 224.002 159.9996" xml:space="preserve">
<g>
	<path fill="none" d="M200.002,59.9996c-8.8245,0-16,7.1776-16,16s7.1755,16,16,16c8.8243,0,16-7.1776,16-16
		S208.8263,59.9996,200.002,59.9996z"/>
	<path d="M200.002,51.9996c-12.0049,0-21.9485,8.8672-23.6985,20.3908h-17.3252l-16.0584-49.844
		c-0.5392-1.67-2.164-2.7636-3.8556-2.7732c-1.754,0.0212-3.2888,1.1816-3.7888,2.8632l-18.008,60.7576l-16.2344-44.2224
		c-0.6056-1.6468-2.1132-2.7268-3.9728-2.6152c-1.7536,0.0956-3.242,1.326-3.664,3.0332l-23.25,93.918L55.2439,3.5444
		c-0.2148-1.9004-1.7459-3.3788-3.652-3.5312c-1.8984-0.1544-3.6564,1.0608-4.172,2.9044L19.1855,103.4292L7.842,64.6384
		c-0.6213-2.1212-2.836-3.342-4.9613-2.7168c-2.1208,0.6208-3.3396,2.8416-2.7187,4.9628l15.2619,52.1836
		c0.5,1.7052,2.0624,2.8768,3.8396,2.8768c0.008,0,0.0156,0,0.0196,0c1.7852-0.0096,3.3476-1.1992,3.832-2.918l26.5-94.3436
		l15.1096,131.7716c0.2188,1.9236,1.7853,3.412,3.7148,3.5368c0.086,0.006,0.1756,0.008,0.2616,0.008
		c1.8244,0,3.4336-1.244,3.8788-3.0392L98.0255,54.1872l15.8944,43.2948c0.5936,1.6192,2.2264,2.746,3.8828,2.6192
		c1.7228-0.0548,3.2148-1.2092,3.7073-2.8612l17.7615-59.928l12.9844,40.3048c0.5352,1.6524,2.0704,2.7736,3.8084,2.7736h20.3588
		c2.0709,11.142,11.8456,19.6092,23.5789,19.6092c13.2343,0,24-10.7656,24-24S213.2363,51.9996,200.002,51.9996z M200.002,91.9996
		c-8.8245,0-16-7.1776-16-16s7.1755-16,16-16c8.8243,0,16,7.1776,16,16S208.8263,91.9996,200.002,91.9996z"/>
</g>
</svg>
