<?xml version="1.0" encoding="utf-8"?>
<!-- Generator: Adobe Illustrator 19.2.0, SVG Export Plug-In . SVG Version: 6.00 Build 0)  -->
<svg version="1.1" id="lightbulb" xmlns="http://www.w3.org/2000/svg" xmlns:xlink="http://www.w3.org/1999/xlink" x="0px" y="0px"
	 viewBox="0 0 168.984 228.7108" enable-background="new 0 0 168.984 228.7108" xml:space="preserve">
<g>
	<path d="M108.492,93.6056V64.2188v-12c0-8.8244-7.1776-16-16.002-16h-3.998V4c0-2.2108-1.7912-4-4-4c-2.2088,0-4,1.7892-4,4
		v32.2188h-3.998c-8.8244,0-16.002,7.1756-16.002,16v12v29.3868c-19.5272,9.2576-32,28.836-32,50.6132c0,30.8788,25.1212,56,56,56
		c30.8788,0,56-25.1212,56-56C140.492,122.4416,128.0192,102.8632,108.492,93.6056z M68.492,52.2188c0-4.41,3.59-8,8.002-8H92.49
		c4.412,0,8.002,3.59,8.002,8v8h-32V52.2188z M84.492,192.2188c-26.4668,0-48-21.5312-48-48
		c0-19.4376,11.5956-36.836,29.5412-44.3244c1.488-0.6208,2.4588-2.078,2.4588-3.6912V68.2188h12v52h-12c-2.2088,0-4,1.7892-4,4
		s1.7912,4,4,4h32c2.2088,0,4-1.7892,4-4s-1.7912-4-4-4h-12v-52h12v27.9844c0,1.6132,0.9708,3.0704,2.4588,3.6912
		c17.9456,7.4884,29.5412,24.8868,29.5412,44.3244C132.492,170.6876,110.9588,192.2188,84.492,192.2188z"/>
	<path d="M20.492,140.2188H4c-2.2092,0-4,1.7892-4,4s1.7908,4,4,4h16.492c2.2088,0,4-1.7892,4-4S22.7008,140.2188,20.492,140.2188z"
		/>
	<path d="M36.41,101.7932c0.7812,0.7812,1.8048,1.1716,2.828,1.1716c1.0236,0,2.0468-0.3904,2.8284-1.1716
		c1.5624-1.5628,1.5624-4.094,0-5.6564l-11.6624-11.66c-1.5624-1.5628-4.0936-1.5628-5.656,0c-1.5628,1.5624-1.5628,4.0936,0,5.656
		L36.41,101.7932z"/>
	<path d="M129.746,102.9648c1.0232,0,2.0468-0.3904,2.828-1.1716l11.662-11.6604c1.5628-1.5624,1.5628-4.0936,0-5.656
		c-1.5624-1.5628-4.0936-1.5628-5.656,0l-11.6624,11.66c-1.5624,1.5624-1.5624,4.0936,0,5.6564
		C127.6992,102.5744,128.7224,102.9648,129.746,102.9648z"/>
	<path d="M84.492,204.2188c-2.2088,0-4,1.7892-4,4v16.492c0,2.2112,1.7912,4,4,4c2.2088,0,4-1.7888,4-4v-16.492
		C88.492,206.008,86.7008,204.2188,84.492,204.2188z"/>
	<path d="M36.41,186.6484l-11.662,11.6604c-1.5628,1.5624-1.5628,4.0936,0,5.656c0.7812,0.7812,1.8044,1.172,2.828,1.172
		c1.0236,0,2.0468-0.3908,2.828-1.172l11.6624-11.66c1.5624-1.5624,1.5624-4.094,0-5.6564
		C40.5036,185.086,37.9724,185.086,36.41,186.6484z"/>
	<path d="M164.984,140.2188h-16.492c-2.2088,0-4,1.7892-4,4s1.7912,4,4,4h16.492c2.2092,0,4-1.7892,4-4
		S167.1932,140.2188,164.984,140.2188z"/>
	<path d="M132.574,186.6484c-1.5624-1.5624-4.0936-1.5624-5.6564,0c-1.5624,1.5624-1.5624,4.094,0,5.6564l11.6624,11.66
		c0.7812,0.7812,1.8044,1.172,2.828,1.172c1.0236,0,2.0468-0.3908,2.828-1.172c1.5628-1.5624,1.5628-4.0936,0-5.656
		L132.574,186.6484z"/>
</g>
</svg>
