<?xml version="1.0" encoding="utf-8"?>
<!-- Generator: Adobe Illustrator 19.2.0, SVG Export Plug-In . SVG Version: 6.00 Build 0)  -->
<svg version="1.1" id="lightingbolt" xmlns="http://www.w3.org/2000/svg" xmlns:xlink="http://www.w3.org/1999/xlink" x="0px"
	 y="0px" viewBox="0 0 134.6412 232.962" enable-background="new 0 0 134.6412 232.962" xml:space="preserve">
<g>
	<path fill="none" d="M59.1214,109.2668V24.9112L9.8926,148.8916h69.4612c2.2088,0,4,1.7892,4,4V209.47l41.2204-96.2032H63.1214
		C60.9122,113.2668,59.1214,111.4776,59.1214,109.2668z"/>
	<path d="M133.9806,107.0636c-0.7404-1.1212-1.996-1.7968-3.34-1.7968H67.1214V3.9972c0-1.918-1.3636-3.5664-3.2484-3.9296
		c-1.8768-0.3476-3.7596,0.6716-4.4684,2.4532L0.2834,151.4152c-0.4904,1.2304-0.338,2.6248,0.408,3.7228
		c0.7444,1.0976,1.9824,1.7536,3.3088,1.7536h71.3536v72.0704c0,1.8983,1.3356,3.5352,3.1952,3.918
		c0.2696,0.0548,0.5392,0.082,0.8068,0.082c1.572,0,3.0348-0.9337,3.6736-2.4257l51.2872-119.6955
		C134.8478,109.6064,134.721,108.1888,133.9806,107.0636z M83.3538,209.47v-56.5784c0-2.2108-1.7912-4-4-4H9.8926L59.1214,24.9112
		v84.3556c0,2.2108,1.7908,4,4,4h61.4528L83.3538,209.47z"/>
</g>
</svg>
