<?xml version="1.0" encoding="utf-8"?>
<!-- Generator: Adobe Illustrator 19.2.0, SVG Export Plug-In . SVG Version: 6.00 Build 0)  -->
<svg version="1.1" id="localconnection" xmlns="http://www.w3.org/2000/svg" xmlns:xlink="http://www.w3.org/1999/xlink" x="0px"
	 y="0px" viewBox="0 0 239.9999 192" enable-background="new 0 0 239.9999 192" xml:space="preserve">
<g>
	<rect x="144" y="124" fill="none" width="80" height="40"/>
	<polygon fill="none" points="142.7071,172 137.9063,184 230.0935,184 225.2927,172 	"/>
	<polygon fill="none" points="14.7071,56 9.9063,68 102.0935,68 97.2927,56 	"/>
	<rect x="16" y="8" fill="none" width="80" height="40"/>
	<path d="M116,40c30.8787,0,56,25.1212,56,56c0,2.2108,1.7891,4,4,4c2.2107,0,4-1.7892,4-4c0-35.2892-28.7109-64-64-64
		c-2.2109,0-4,1.7892-4,4S113.7891,40,116,40z"/>
	<path d="M116,152c-30.8789,0-56-25.1212-56-56c0-2.2108-1.7893-4-4-4c-2.2109,0-4,1.7892-4,4c0,35.2892,28.7107,64,64,64
		c2.2107,0,4-1.7892,4-4S118.2107,152,116,152z"/>
	<path d="M239.7147,186.5156L232,167.2284V120c0-2.2108-1.7893-4-4-4h-88c-2.2109,0-4,1.7892-4,4v47.2284l-7.7149,19.2872
		c-0.4924,1.2304-0.34,2.6288,0.4024,3.7264C129.4335,191.34,130.672,192,132,192h104c1.328,0,2.5663-0.66,3.3123-1.758
		C240.0547,189.1444,240.2071,187.746,239.7147,186.5156z M144,124h80v40h-80V124z M137.9063,184l4.8008-12h82.5856l4.8008,12
		H137.9063z"/>
	<path d="M111.3123,74.242c0.7424-1.0976,0.8948-2.496,0.4024-3.7264L104,51.2284V4c0-2.2108-1.7893-4-4-4H12C9.7891,0,8,1.7892,8,4
		v47.2284L0.2851,70.5156c-0.4924,1.2304-0.34,2.6288,0.4024,3.7264C1.4335,75.34,2.672,76,4,76h104
		C109.328,76,110.5663,75.34,111.3123,74.242z M16,8h80v40H16V8z M9.9063,68l4.8008-12h82.5856l4.8008,12H9.9063z"/>
</g>
</svg>
