<?xml version="1.0" encoding="utf-8"?>
<!-- Generator: Adobe Illustrator 19.2.0, SVG Export Plug-In . SVG Version: 6.00 Build 0)  -->
<svg version="1.1" id="loveeye" xmlns="http://www.w3.org/2000/svg" xmlns:xlink="http://www.w3.org/1999/xlink" x="0px" y="0px"
	 viewBox="0 0 224.0002 148.7184" enable-background="new 0 0 224.0002 148.7184" xml:space="preserve">
<g>
	<path d="M223.6604,72.742C204.1291,28.5544,160.3011,0,112.0004,0C63.6955,0,19.8675,28.5544,0.3399,72.742
		c-0.4532,1.0312-0.4532,2.2032,0,3.2344c19.5276,44.1876,63.3556,72.742,111.6605,72.742c48.3007,0,92.1287-28.5544,111.66-72.742
		C224.1135,74.9452,224.1135,73.7732,223.6604,72.742z M112.0004,140.7184c-44.5469,0-85.0197-25.988-103.6137-66.3592
		C26.9807,33.988,67.4535,8,112.0004,8c44.5427,0,85.0155,25.988,103.6131,66.3592
		C197.0159,114.7304,156.5431,140.7184,112.0004,140.7184z"/>
	<path d="M112.8284,12.3592c-35.2893,0-64,28.7108-64,64s28.7107,64,64,64c35.2891,0,64-28.7108,64-64
		S148.1175,12.3592,112.8284,12.3592z M112.8284,132.3592c-30.8789,0-56-25.1212-56-56s25.1211-56,56-56c30.8787,0,56,25.1212,56,56
		S143.7071,132.3592,112.8284,132.3592z"/>
	<path d="M129.1915,43.324c-6.1756,0-12.0076,2.3944-16.3631,6.578c-4.3557-4.1836-10.1877-6.578-16.3633-6.578
		c-13.0352,0-23.6367,10.6016-23.6367,23.6368c0,11.2032,27.1875,43.8008,36.9099,46.742c1.1644,0.3556,2.1916,0.3792,3.0901,0.2148
		c0.34,0.0628,0.6951,0.1016,1.0743,0.1016c0.6208-0.0036,1.2928-0.0976,2.0156-0.3164
		c9.7224-2.9412,36.9101-35.5388,36.9101-46.742C152.8284,53.9256,142.2267,43.324,129.1915,43.324z M114.2931,105.7848
		c-0.4567-0.1796-0.9567-0.2772-1.4647-0.2772s-1.008,0.0976-1.4649,0.2772c-7.1564-3.3476-30.5351-31.32-30.5351-38.824
		c0-8.6212,7.0155-15.6368,15.6367-15.6368c5.246,0,10.1212,2.6172,13.0313,6.996c1.4843,2.2268,5.1795,2.2268,6.664,0
		c2.9099-4.3788,7.7851-6.996,13.0311-6.996c8.6212,0,15.6369,7.0156,15.6369,15.6368
		C144.8284,74.4648,121.4495,102.4372,114.2931,105.7848z"/>
</g>
</svg>
