<?xml version="1.0" encoding="utf-8"?>
<!-- Generator: Adobe Illustrator 19.2.0, SVG Export Plug-In . SVG Version: 6.00 Build 0)  -->
<svg version="1.1" id="lowtemperature" xmlns="http://www.w3.org/2000/svg" xmlns:xlink="http://www.w3.org/1999/xlink" x="0px"
	 y="0px" viewBox="0 0 100 220" enable-background="new 0 0 100 220" xml:space="preserve">
<g>
	<path fill="none" d="M48,24c2.2088,0,4,1.7912,4,4s-1.7912,4-4,4h-8v20h8c2.2088,0,4,1.7912,4,4s-1.7912,4-4,4h-8v20h8
		c2.2088,0,4,1.7912,4,4s-1.7912,4-4,4h-8v20h8h12V18.008C60,12.4904,55.5136,8,50,8s-10,4.4904-10,10.008V24H48z"/>
	<path fill="none" d="M62.7912,130.5392C61.1288,130.0116,60,128.4708,60,126.7264v-10.7068H40v10.7068
		c0,1.7444-1.1288,3.2852-2.7912,3.8128C19.7384,136.082,8,152.0548,8,170.2852C8,193.2872,26.8416,212,50,212
		s42-18.7128,42-41.7148C92,152.0548,80.2616,136.082,62.7912,130.5392z"/>
	<path d="M68,123.8888V116v-3.9804V18.008C68,8.078,59.9256,0,50,0S32,8.078,32,18.008v94.0116V116v7.8888
		c-19.258,7.3592-32,25.6504-32,46.3964C0,197.6972,22.4296,220,50,220s50-22.3028,50-49.7148
		C100,149.5392,87.258,131.248,68,123.8888z M50,8c5.5136,0,10,4.4904,10,10.008V108H48h-8V88h8c2.2088,0,4-1.7912,4-4
		s-1.7912-4-4-4h-8V60h8c2.2088,0,4-1.7912,4-4s-1.7912-4-4-4h-8V32h8c2.2088,0,4-1.7912,4-4s-1.7912-4-4-4h-8v-5.992
		C40,12.4904,44.4864,8,50,8z M50,212c-23.1584,0-42-18.7128-42-41.7148c0-18.2304,11.7384-34.2032,29.2088-39.746
		C38.8712,130.0116,40,128.4708,40,126.7264v-10.7068h20v10.7068c0,1.7444,1.1288,3.2852,2.7912,3.8128
		C80.2616,136.082,92,152.0548,92,170.2852C92,193.2872,73.1584,212,50,212z"/>
</g>
</svg>
