<?xml version="1.0" encoding="utf-8"?>
<!-- Generator: Adobe Illustrator 19.2.0, SVG Export Plug-In . SVG Version: 6.00 Build 0)  -->
<svg version="1.1" id="mask" xmlns="http://www.w3.org/2000/svg" xmlns:xlink="http://www.w3.org/1999/xlink" x="0px" y="0px"
	 viewBox="0 0 232.1026 161.1875" enable-background="new 0 0 232.1026 161.1875" xml:space="preserve">
<path d="M229.8757,0.9879c-1.016-0.738-3.1916-1.742-6.4652-0.1052c-14.8864,7.4412-21.7692,7.336-42.2304,7.0116
	c-4.7656-0.074-10.2188-0.16-16.6172-0.16c-26.7304,0-42.1168,15.2627-48.5116,23.5596
	C109.6565,22.997,94.2701,7.7343,67.5397,7.7343c-6.3984,0-11.8516,0.086-16.6172,0.16c-20.4612,0.328-27.344,0.4296-42.2304-7.0116
	C5.4225-0.7541,3.2429,0.2499,2.2269,0.9879c-1.2812,0.9416-2.6872,2.8672-2.082,6.7032
	c1.8752,11.8792,23.3088,44.5628,51.59,53.9024c3.59,1.1875,7.4064,1.6992,11.332,1.6992c21.2452,0,45.4832-15.0268,52.9844-20.0416
	c7.5012,5.0148,31.7392,20.0416,52.9844,20.0416c3.922,0,7.742-0.5117,11.332-1.6992c15.5656-5.1405,29.032-17.352,38.33-29.2744
	l-21.6932,124.1808c-0.3788,2.1756,1.078,4.246,3.254,4.6288c0.2304,0.0392,0.4648,0.0588,0.6912,0.0588
	c1.9064,0,3.5976-1.3672,3.9376-3.3128l25.1896-144.1968c0.9632-2.3032,1.6232-4.3544,1.8808-5.9868
	C232.5629,3.8551,231.1569,1.9295,229.8757,0.9879z M54.2429,53.9999c-23.7032-7.832-40.8128-33.422-45.1644-44.0704
	c14.1644,6.4024,22.9416,6.2656,41.9688,5.9648c4.7304-0.074,10.1448-0.16,16.4924-0.16c24.7148,0,38.246,14.9452,43.0196,21.5427
	C101.1489,43.3867,72.8481,60.1483,54.2429,53.9999z M177.8597,53.9999c-18.6092,6.1368-46.8632-10.59-56.2928-16.7072
	c4.8204-6.5704,18.496-21.5584,42.996-21.5584c6.3476,0,11.762,0.086,16.4924,0.16c18.7336,0.2936,27.552,0.424,41.5196-5.7712
	l-0.234,1.3388C217.1117,22.845,200.5141,46.5183,177.8597,53.9999z"/>
</svg>
