<?xml version="1.0" encoding="utf-8"?>
<!-- Generator: Adobe Illustrator 19.2.0, SVG Export Plug-In . SVG Version: 6.00 Build 0)  -->
<svg version="1.1" id="measurement" xmlns="http://www.w3.org/2000/svg" xmlns:xlink="http://www.w3.org/1999/xlink" x="0px"
	 y="0px" viewBox="0 0 196 224" enable-background="new 0 0 196 224" xml:space="preserve">
<path d="M192,180H48V4c0-2.2088-1.7893-4-4-4H4C1.7891,0,0,1.7912,0,4v216c0,0.0428,0.0167,0.082,0.0183,0.1248
	c0.0052,0.1768,0.0472,0.3488,0.0764,0.5256c0.0368,0.2188,0.0693,0.4344,0.14,0.6416c0.016,0.0468,0.0133,0.0956,0.0308,0.1416
	c0.0452,0.1172,0.1276,0.2088,0.1828,0.32c0.0988,0.2004,0.1984,0.396,0.3296,0.5776c0.1036,0.1428,0.2228,0.2656,0.3436,0.3928
	c0.1456,0.1544,0.2924,0.3012,0.462,0.4312c0.146,0.1124,0.3,0.2012,0.46,0.292c0.1132,0.0644,0.2068,0.1532,0.3276,0.2072
	c0.056,0.0248,0.1172,0.0144,0.1736,0.0372C3.004,223.8732,3.4863,224,4,224h188c2.2107,0,4-1.7912,4-4v-36
	C196,181.7912,194.2107,180,192,180z M40,8v174.2188l-16,14.4004l-16,14.4V168h16c2.2107,0,4-1.7912,4-4s-1.7893-4-4-4H8v-12h16
	c2.2107,0,4-1.7912,4-4s-1.7893-4-4-4H8v-12h16c2.2107,0,4-1.7912,4-4s-1.7893-4-4-4H8v-12h16c2.2107,0,4-1.7912,4-4s-1.7893-4-4-4
	H8V88h16c2.2107,0,4-1.7912,4-4s-1.7893-4-4-4H8V68h16c2.2107,0,4-1.7912,4-4s-1.7893-4-4-4H8V48h16c2.2107,0,4-1.7912,4-4
	s-1.7893-4-4-4H8V28h16c2.2107,0,4-1.7912,4-4s-1.7893-4-4-4H8V8H40z M188,216H14.4231l18.6668-16.8L45.5351,188H188V216z"/>
</svg>
