<?xml version="1.0" encoding="utf-8"?>
<!-- Generator: Adobe Illustrator 19.2.0, SVG Export Plug-In . SVG Version: 6.00 Build 0)  -->
<svg version="1.1" id="meshtool" xmlns="http://www.w3.org/2000/svg" xmlns:xlink="http://www.w3.org/1999/xlink" x="0px" y="0px"
	 viewBox="0 0 204 204" enable-background="new 0 0 204 204" xml:space="preserve">
<g>
	<path fill="none" d="M196,60.3964C189.1608,60.9896,175.0232,62,158,62c-5.1692,0-11.1424-0.7984-17.6004-2.0272
		c-0.004,9.0772,0.8988,17.7684,3.368,24.6816c3.854,10.7928,6.4912,22.2784,8.1116,33.3816
		c17.568,0.2832,35.526,4.4116,44.1208,6.6856V60.3964z"/>
	<path fill="none" d="M122.7812,127.2928c6.094-3.7436,12.3984-7.5448,21.1084-8.8136
		c-1.5624-10.3444-4.0516-21.0392-7.6572-31.1336c-2.9512-8.2636-3.9328-18.536-3.8256-29.0388
		c-6.3448-1.4376-13.03-3.1496-19.8832-4.9144C94.9252,48.8636,76.7684,44.21,62.836,44.0328
		c-3.25,13.576-4.3876,28.4408,0.828,40.3636c8.3952,19.1876,14.038,37.3588,16.776,53.4132C83.0196,137.9288,85.5524,138,88,138
		C105.3456,138,114.2108,132.5548,122.7812,127.2928z"/>
	<path fill="none" d="M56.336,87.6036c-5.7284-13.0932-4.9676-28.7208-1.864-43.0248C33.9732,47.354,13.7352,60.1944,8,64.0904
		v62.2812c5.8792,1.416,36.534,8.5804,64.2228,10.9004C69.4884,122.3652,64.1676,105.5068,56.336,87.6036z"/>
	<path fill="none" d="M114.5176,45.6464c6.256,1.6104,12.382,3.1868,18.1772,4.5292c1.0136-17.36,4.3924-34.0788,6.234-42.1756
		H76.4084c-2.2276,4.3292-7.4596,15.1328-11.4124,28.1132C79.5372,36.684,97.2812,41.2096,114.5176,45.6464z"/>
	<path fill="none" d="M74.3588,196h71.77c-2.2156-6.6368-4.8448-18.2172-2.0332-30.8672c2.0348-9.158,2.486-23.2348,0.8216-38.728
		c-7.0148,1.0468-12.1768,4.16-17.9484,7.7044C117.8924,139.6836,107.6076,146,88,146c-2.1032,0-4.256-0.0448-6.4432-0.128
		c0.8312,7.4208,1.0408,14.3536,0.4236,20.5264C80.6848,179.3584,77.0016,189.8452,74.3588,196z"/>
	<path fill="none" d="M56.5544,36.246C59.9272,24.3896,64.46,14.1284,67.4416,8H8v46.5316
		C17.6552,48.4912,36.92,37.9832,56.5544,36.246z"/>
	<path fill="none" d="M74.0196,165.6016c0.6016-6.0148,0.3444-12.8456-0.5564-20.1992c-26.754-2.0148-56.126-8.5928-65.4632-10.8048
		V196h57.5544C67.692,191.5888,72.5564,180.2364,74.0196,165.6016z"/>
	<path fill="none" d="M152.8788,126.0576c1.6936,16.2744,1.1836,31.1016-0.9744,40.8096
		c-2.8268,12.7256,0.878,24.424,2.7292,29.1328H196v-62.9816C189.1104,131.126,170.6452,126.5272,152.8788,126.0576z"/>
	<path fill="none" d="M140.622,51.8712C147.1252,53.1572,153.0556,54,158,54c17.358,0,31.6476-1.0672,38-1.6328V8h-48.8496
		C145.518,15.016,141.6056,33.3868,140.622,51.8712z"/>
	<path d="M200,0H4C1.7912,0,0,1.7912,0,4v196c0,2.2108,1.7912,4,4,4h196c2.2088,0,4-1.7892,4-4V4C204,1.7912,202.2088,0,200,0z
		 M81.5568,145.872C83.744,145.9552,85.8968,146,88,146c19.6076,0,29.8924-6.3164,38.9688-11.8908
		c5.7716-3.5444,10.9336-6.6576,17.9484-7.7044c1.6644,15.4932,1.2132,29.57-0.8216,38.728
		c-2.8116,12.65-0.1824,24.2304,2.0332,30.8672h-71.77c2.6428-6.1548,6.326-16.6416,7.6216-29.6016
		C82.5976,160.2256,82.388,153.2928,81.5568,145.872z M8,64.0904c5.7352-3.896,25.9732-16.7364,46.472-19.5116
		c-3.1036,14.304-3.8644,29.9316,1.864,43.0248c7.8316,17.9032,13.1524,34.7616,15.8868,49.6684
		C44.534,134.952,13.8792,127.7876,8,126.3716V64.0904z M138.9288,8c-1.8416,8.0968-5.2204,24.8156-6.234,42.1756
		c-5.7952-1.3424-11.9212-2.9188-18.1772-4.5292c-17.2364-4.4368-34.9804-8.9624-49.5216-9.5332
		C68.9488,23.1328,74.1808,12.3292,76.4084,8H138.9288z M63.664,84.3964c-5.2156-11.9228-4.078-26.7876-0.828-40.3636
		c13.9324,0.1772,32.0892,4.8308,49.6876,9.3596c6.8532,1.7648,13.5384,3.4768,19.8832,4.9144
		c-0.1072,10.5028,0.8744,20.7752,3.8256,29.0388c3.6056,10.0944,6.0948,20.7892,7.6572,31.1336
		c-8.71,1.2688-15.0144,5.07-21.1084,8.8136C114.2108,132.5548,105.3456,138,88,138c-2.4476,0-4.9804-0.0712-7.56-0.1904
		C77.702,121.7552,72.0592,103.584,63.664,84.3964z M143.7676,84.6544c-2.4692-6.9132-3.372-15.6044-3.368-24.6816
		C146.8576,61.2016,152.8308,62,158,62c17.0232,0,31.1608-1.0104,38-1.6036v64.3252c-8.5948-2.274-26.5528-6.4024-44.1208-6.6856
		C150.2588,106.9328,147.6216,95.4472,143.7676,84.6544z M196,52.3672C189.6476,52.9328,175.358,54,158,54
		c-4.9444,0-10.8748-0.8428-17.378-2.1288C141.6056,33.3868,145.518,15.016,147.1504,8H196V52.3672z M67.4416,8
		c-2.9816,6.1284-7.5144,16.3896-10.8872,28.246C36.92,37.9832,17.6552,48.4912,8,54.5316V8H67.4416z M8,134.5976
		c9.3372,2.212,38.7092,8.79,65.4632,10.8048c0.9008,7.3536,1.158,14.1844,0.5564,20.1992
		C72.5564,180.2364,67.692,191.5888,65.5544,196H8V134.5976z M154.6336,196c-1.8512-4.7088-5.556-16.4072-2.7292-29.1328
		c2.158-9.708,2.668-24.5352,0.9744-40.8096c17.7664,0.4696,36.2316,5.0684,43.1212,6.9608V196H154.6336z"/>
</g>
</svg>
