<?xml version="1.0" encoding="utf-8"?>
<!-- Generator: Adobe Illustrator 19.2.0, SVG Export Plug-In . SVG Version: 6.00 Build 0)  -->
<svg version="1.1" id="microscope" xmlns="http://www.w3.org/2000/svg" xmlns:xlink="http://www.w3.org/1999/xlink" x="0px" y="0px"
	 viewBox="0 0 204 210.4948" enable-background="new 0 0 204 210.4948" xml:space="preserve">
<g>
	<rect x="24" y="174.4948" fill="none" width="76" height="8"/>
	
		<rect x="32.0009" y="46.4965" transform="matrix(0.5 -0.866 0.866 0.5 -12.124 103.9916)" fill="none" width="103.9981" height="31.9986"/>
	<polygon fill="none" points="104,190.4948 20,190.4948 8,190.4948 8,202.4948 176,202.4948 176,190.4948 	"/>
	<circle fill="none" cx="172" cy="94.4948" r="8"/>
	<path d="M180,182.4948h-30.5484c32.1096-14.3732,54.5484-46.6056,54.5484-84c0-50.7284-41.2717-92-92-92
		c-1.1292,0-2.1396,0.476-2.8668,1.2292l-12.4536-7.19c-0.918-0.5276-2.0076-0.672-3.0352-0.3984
		c-1.0252,0.2732-1.8984,0.9452-2.4296,1.8632l-56,96.994c-1.1036,1.914-0.4492,4.3596,1.4648,5.4648l34.6408,20
		c0.6132,0.3536,1.3048,0.5352,2,0.5352c0.3476,0,0.6952-0.0448,1.0352-0.1368c1.0252-0.2732,1.8984-0.9452,2.4296-1.8632l56-96.994
		c1.1036-1.914,0.4492-4.3596-1.4648-5.4648l-9.3332-5.3888C163.6068,20.1072,196,55.5612,196,98.4948c0,46.3184-37.6816,84-84,84
		h-4v-12c0-2.2088-1.7912-4-4-4H20c-2.2088,0-4,1.7912-4,4v12H4c-2.2088,0-4,1.7912-4,4v20c0,2.2088,1.7912,4,4,4h176
		c2.2088,0,4-1.7912,4-4v-20C184,184.286,182.2088,182.4948,180,182.4948z M71.8556,115.528l-27.7112-16l52-90.0644l27.7112,16
		L71.8556,115.528z M24,174.4948h76v8H24V174.4948z M176,202.4948H8v-12h12h84h72V202.4948z"/>
	
		<rect x="43.9995" y="104.6057" transform="matrix(0.4472 -0.8944 0.8944 0.4472 -86.6067 112.8576)" width="8.001" height="43.7781"/>
	<path d="M188,94.4948c0-8.8224-7.1776-16-16-16c-8.8224,0-16,7.1776-16,16s7.1776,16,16,16
		C180.8224,110.4948,188,103.3172,188,94.4948z M164,94.4948c0-4.412,3.588-8,8-8s8,3.588,8,8s-3.588,8-8,8S164,98.9068,164,94.4948
		z"/>
</g>
</svg>
