<?xml version="1.0" encoding="utf-8"?>
<!-- Generator: Adobe Illustrator 19.2.0, SVG Export Plug-In . SVG Version: 6.00 Build 0)  -->
<svg version="1.1" id="modernchair" xmlns="http://www.w3.org/2000/svg" xmlns:xlink="http://www.w3.org/1999/xlink" x="0px"
	 y="0px" viewBox="0 0 130.7052 212.0021" enable-background="new 0 0 130.7052 212.0021" xml:space="preserve">
<g>
	<path d="M92.5549,80.088C92.3712,80.1269,74.1877,84,65.391,84c-8.7969,0-26.9805-3.8731-27.164-3.912
		c-2.1485-0.4631-4.2813,0.9141-4.7461,3.0741c-0.4648,2.1604,0.9101,4.2872,3.0701,4.7499C37.3325,88.0781,55.7464,92,65.391,92
		c9.6443,0,28.0583-3.9219,28.84-4.088c2.16-0.4627,3.5351-2.5895,3.0699-4.7499C96.8361,81,94.7032,79.6093,92.5549,80.088z"/>
	<path d="M98.3381,116h1.9044c9.8008,0,18.3125-3.7871,23.9688-10.6619c5.5936-6.8008,7.668-15.7541,5.8552-25.2288
		C129.5784,75.3245,120.8869,0,65.4104,0C10.1292,0,1.3244,74.7285,0.7776,79.9865c-2.008,9.244-0.0976,18.0935,5.3868,24.9432
		C11.7972,111.9649,20.6957,116,30.5824,116h2.0256L4.2309,206.8069c-0.6605,2.1091,0.5155,4.3516,2.6247,5.0116
		c0.3944,0.1232,0.7968,0.1836,1.1916,0.1836c1.7028,0,3.2812-1.0976,3.8164-2.8088L40.9865,116h48.9732l29.1228,93.1933
		c0.5348,1.7112,2.1132,2.8088,3.8165,2.8088c0.3943,0,0.7967-0.0604,1.1911-0.1836c2.1092-0.66,3.2852-2.9025,2.6252-5.0116
		L98.3381,116z M12.4104,99.9297C8.426,94.9553,7.086,88.4085,8.6368,81.492c0.0392-0.1735,0.0664-0.3495,0.0821-0.5271
		C8.7816,80.2345,15.6524,8,65.4104,8c49.6796,0,56.6445,72.3085,56.7108,73.0393c0.0116,0.1404,0.0312,0.2832,0.0588,0.4216
		c1.41,7.1564-0.0664,13.8304-4.1484,18.7972c-4.1056,4.992-10.426,7.7419-17.7892,7.7419h-69.66
		C23.1368,108,16.5161,105.0585,12.4104,99.9297z"/>
</g>
</svg>
