<?xml version="1.0" encoding="utf-8"?>
<!-- Generator: Adobe Illustrator 19.2.0, SVG Export Plug-In . SVG Version: 6.00 Build 0)  -->
<svg version="1.1" id="mountains" xmlns="http://www.w3.org/2000/svg" xmlns:xlink="http://www.w3.org/1999/xlink" x="0px" y="0px"
	 viewBox="0 0 228.0005 216.6484" enable-background="new 0 0 228.0005 216.6484" xml:space="preserve">
<g>
	<path d="M227.7301,211.2052L187.5233,107.246c-0.4808-1.24-1.5432-2.16-2.84-2.4568c-1.3048-0.2932-2.6564,0.07-3.6252,0.9804
		l-13.5856,12.7168l-11.0196-20.2128c-0.6251-1.1468-1.7656-1.9144-3.0624-2.0608c-1.3204-0.1524-2.586,0.3496-3.4456,1.3264
		l-14.0508,15.8924l-26.0116-42.8592c-0.7264-1.2012-1.8984-1.8616-3.4452-1.924c-1.4104,0.01-2.7072,0.76-3.422,1.9728
		l-39.0976,66.5196l-11.164-16.4084c-0.8008-1.172-2.172-1.8436-3.5664-1.742c-1.4104,0.0916-2.672,0.9216-3.3088,2.1836
		L0.4333,210.84c-0.6288,1.24-0.5704,2.7168,0.1564,3.902c0.7304,1.1836,2.0192,1.9064,3.4101,1.9064h220
		c1.3203,0,2.5547-0.6504,3.3007-1.7384C228.0465,213.8224,228.2069,212.4356,227.7301,211.2052z M71.5725,208.6484l32.0993-59.6524
		l16.6991,21.2304c0.0569,0.0724,0.1404,0.1048,0.2012,0.1716l-4.4552,7.7172c-1.1056,1.914-0.4491,4.3596,1.4648,5.4648
		c0.6288,0.3632,1.3164,0.5352,1.996,0.5352c1.3828,0,2.7268-0.7168,3.4688-2l20.2344-35.0508
		c1.1056-1.914,0.4492-4.3592-1.4648-5.4648c-1.91-1.1056-4.3592-0.4492-5.4648,1.4648l-11.4988,19.9188l-18.6652-23.7312
		c-0.832-1.0604-2.176-1.6288-3.4884-1.5116c-1.3436,0.1152-2.5391,0.9004-3.1796,2.0896l-37.0324,68.8184H10.5113l39.4376-77.8144
		l10.9064,16.0312c0.7732,1.1328,1.9492,1.8008,3.4412,1.748c1.3713-0.0448,2.6212-0.7888,3.3164-1.9708l38.9064-66.1932
		l25.3556,41.7772c0.656,1.086,1.7969,1.7952,3.0624,1.9084c1.242,0.0936,2.5076-0.3848,3.3516-1.336l13.8709-15.6876
		l10.7619,19.7404c0.5936,1.088,1.6524,1.838,2.8748,2.0352c1.2188,0.1952,2.4688-0.1856,3.3713-1.0292l13.0311-12.1976
		l35.9649,92.9884H71.5725z"/>
	<path d="M45.9998,76c20.9531,0,38-17.0468,38-38s-17.0469-38-38-38c-20.9533,0-38,17.0468-38,38S25.0465,76,45.9998,76z M45.9998,8
		c16.5427,0,30,13.4572,30,30s-13.4573,30-30,30c-16.5429,0-30-13.4572-30-30S29.4569,8,45.9998,8z"/>
	<path d="M45.9998,60c12.1287,0,22-9.8692,22-22c0-2.2088-1.7893-4-4-4c-2.2109,0-4,1.7912-4,4c0,7.7188-6.2813,14-14,14
		c-2.2109,0-4,1.7912-4,4S43.7889,60,45.9998,60z"/>
</g>
</svg>
