<?xml version="1.0" encoding="utf-8"?>
<!-- Generator: Adobe Illustrator 19.2.0, SVG Export Plug-In . SVG Version: 6.00 Build 0)  -->
<svg version="1.1" id="musictext" xmlns="http://www.w3.org/2000/svg" xmlns:xlink="http://www.w3.org/1999/xlink" x="0px" y="0px"
	 viewBox="0 0 198.7409 147.4179" enable-background="new 0 0 198.7409 147.4179" xml:space="preserve">
<g>
	<path d="M165.6523,9.1559c-8.7148-5.6328-15.7696-8.7028-16.0664-8.832c-1.2268-0.5272-2.6564-0.406-3.7812,0.3284
		C144.6795,1.3943,144,2.6483,144,3.9959v94.4004c-8.412-6.5012-22.0469-7.7904-34.9433-2.3184
		c-8.1524,3.4608-14.8592,9.0936-18.8828,15.8592c-4.2616,7.1644-5.0584,14.75-2.2539,21.3596
		c2.8087,6.6132,8.8203,11.3048,16.9299,13.2188c2.5741,0.6052,5.2616,0.9024,8.0076,0.9024c5.4376,0,11.1016-1.176,16.5196-3.4728
		c14.7036-6.2404,23.7232-19.2816,22.6208-31.1672c0-0.0036,0.0021-0.0068,0.0021-0.0068V10.4215
		c2.5583,1.3516,5.8007,3.1876,9.3083,5.4532c18.7852,12.1408,38.3637,31.746,24.9728,56.2148
		c-1.0624,1.9416-0.3516,4.3712,1.586,5.43c1.9376,1.07,4.3712,0.3476,5.4296-1.586
		C206.0467,52.6327,196.2303,28.9179,165.6523,9.1559z M126.252,136.5779c-6.6013,2.8084-13.5469,3.5624-19.5665,2.1484
		c-5.5664-1.3124-9.6132-4.3476-11.3984-8.5548c-1.7888-4.2068-1.16-9.2304,1.762-14.1444c3.16-5.3164,8.5352-9.7812,15.1328-12.582
		c4.5664-1.9416,9.2188-2.8632,13.5076-2.8632c8.1056,0,14.926,3.2968,17.4612,9.2696
		C147.0295,118.9879,139.4475,130.9803,126.252,136.5779z"/>
	<path d="M4,30.0115h116c2.2107,0,4-1.7892,4-4s-1.7893-4-4-4H4c-2.2109,0-4,1.7892-4,4S1.7891,30.0115,4,30.0115z"/>
	<path d="M4,50.0115h116c2.2107,0,4-1.7892,4-4s-1.7893-4-4-4H4c-2.2109,0-4,1.7892-4,4S1.7891,50.0115,4,50.0115z"/>
	<path d="M4,70.0115h116c2.2107,0,4-1.7892,4-4s-1.7893-4-4-4H4c-2.2109,0-4,1.7892-4,4S1.7891,70.0115,4,70.0115z"/>
	<path d="M4,90.0115h92.0859c2.2108,0,4-1.7892,4-4s-1.7892-4-4-4H4c-2.2109,0-4,1.7892-4,4S1.7891,90.0115,4,90.0115z"/>
	<path d="M72,102.0115H4c-2.2109,0-4,1.7892-4,4s1.7891,4,4,4h68c2.2107,0,4-1.7892,4-4S74.2107,102.0115,72,102.0115z"/>
	<path d="M72,122.0115H4c-2.2109,0-4,1.7892-4,4c0,2.2108,1.7891,4,4,4h68c2.2107,0,4-1.7892,4-4
		C76,123.8007,74.2107,122.0115,72,122.0115z"/>
</g>
</svg>
