<?xml version="1.0" encoding="utf-8"?>
<!-- Generator: Adobe Illustrator 19.2.0, SVG Export Plug-In . SVG Version: 6.00 Build 0)  -->
<svg version="1.1" id="networkconnection" xmlns="http://www.w3.org/2000/svg" xmlns:xlink="http://www.w3.org/1999/xlink" x="0px"
	 y="0px" viewBox="0 0 204 216" enable-background="new 0 0 204 216" xml:space="preserve">
<g>
	<path fill="none" d="M138.3083,94.7501c0.4064-1.4844,1.6292-2.6036,3.1408-2.8808C145.2459,91.1777,148,87.8693,148,84
		c0-3.6111-2.4297-6.7871-5.9101-7.7263c-1.4884-0.4004-2.6136-1.6212-2.8948-3.1368C135.6563,53.9357,120.8515,40,104,40
		c-16.8517,0-31.6565,13.9357-35.1953,33.1369c-0.2812,1.5156-1.4064,2.7364-2.8948,3.1368C62.4295,77.2129,60,80.3889,60,84
		c0,3.8693,2.7539,7.1777,6.5507,7.8693c1.5116,0.2772,2.7344,1.3964,3.1408,2.8808C74.4687,112.2461,88.2579,124,104,124
		C119.7419,124,133.5311,112.2461,138.3083,94.7501z"/>
	<path fill="none" d="M24,28c4.4099,0,8-3.588,8-8s-3.5901-8-8-8c-4.4101,0-8,3.588-8,8S19.5899,28,24,28z"/>
	<path fill="none" d="M104,132c-20.7073,0-37.7893,15.8165-39.8009,36h79.6016C141.7891,147.8165,124.7071,132,104,132z"/>
	<path fill="none" d="M16,132c-4.4101,0-8,3.5901-8,8c0,4.4101,3.5899,8,8,8c4.4099,0,8-3.5899,8-8C24,135.5901,20.4099,132,16,132z
		"/>
	<path fill="none" d="M188,24c4.4099,0,8-3.588,8-8s-3.5901-8-8-8c-4.4101,0-8,3.588-8,8S183.5899,24,188,24z"/>
	<path fill="none" d="M184,192c-4.4101,0-8,3.5901-8,8c0,4.4101,3.5899,8,8,8c4.4099,0,8-3.5899,8-8
		C192,195.5901,188.4099,192,184,192z"/>
	<path d="M122.1263,127.58c10.6257-5.4219,19.114-15.512,23.2448-28.5019C151.6563,96.8477,156,90.8633,156,84
		c0-6.3475-3.7617-12.0271-9.4065-14.5819C141.6171,47.6017,124.0235,32,104,32c-20.0237,0-37.6173,15.6017-42.5937,37.4181
		C55.7615,71.9729,52,77.6525,52,84c0,6.8633,4.3435,12.8477,10.6287,15.0781c4.1308,12.9899,12.6193,23.08,23.2448,28.5019
		C68.3711,134.7485,56,151.9461,56,172c0,2.2109,1.7891,4,4,4h88c2.2107,0,4-1.7891,4-4
		C152,151.9461,139.6287,134.7485,122.1263,127.58z M69.6915,94.7501c-0.4064-1.4844-1.6292-2.6036-3.1408-2.8808
		C62.7539,91.1777,60,87.8693,60,84c0-3.6111,2.4295-6.7871,5.9099-7.7263c1.4884-0.4004,2.6136-1.6212,2.8948-3.1368
		C72.3435,53.9357,87.1483,40,104,40c16.8515,0,31.6563,13.9357,35.1951,33.1369c0.2812,1.5156,1.4064,2.7364,2.8948,3.1368
		C145.5703,77.2129,148,80.3889,148,84c0,3.8693-2.7541,7.1777-6.5509,7.8693c-1.5116,0.2772-2.7344,1.3964-3.1408,2.8808
		C133.5311,112.2461,119.7419,124,104,124C88.2579,124,74.4687,112.2461,69.6915,94.7501z M64.1991,168
		c2.0116-20.1835,19.0936-36,39.8009-36c20.7071,0,37.7891,15.8165,39.8007,36H64.1991z"/>
	<path d="M24,36c4.2195,0,8.0347-1.6727,10.896-4.3503l19.1351,13.1748c0.6952,0.4764,1.4844,0.7048,2.2656,0.7048
		c1.2736,0,2.5236-0.6053,3.2968-1.7324c1.254-1.8184,0.7972-4.3084-1.0232-5.5624L39.1611,24.8709
		C39.6595,23.3257,40,21.7093,40,20c0-8.8223-7.1757-16-16-16C15.1755,4,8,11.1777,8,20C8,28.8225,15.1755,36,24,36z M24,12
		c4.4099,0,8,3.588,8,8s-3.5901,8-8,8c-4.4101,0-8-3.588-8-8S19.5899,12,24,12z"/>
	<path d="M184,184c-0.8665,0-1.7005,0.1229-2.5297,0.256l-31.2088-61.7951c-0.996-1.9689-3.4024-2.7656-5.3748-1.7656
		c-1.9688,0.9964-2.7616,3.4024-1.7656,5.3752l31.0208,61.4232C170.4303,190.4257,168,194.9125,168,200c0,8.8245,7.1755,16,16,16
		c8.8243,0,16-7.1755,16-16C200,191.1757,192.8243,184,184,184z M184,208c-4.4101,0-8-3.5899-8-8c0-4.4099,3.5899-8,8-8
		c4.4099,0,8,3.5901,8,8C192,204.4101,188.4099,208,184,208z"/>
	<path d="M59.2851,123.2305c1.91-1.1092,2.5584-3.5585,1.4452-5.4688c-1.1132-1.914-3.5623-2.5544-5.4688-1.4452l-25.8436,15.026
		C26.5655,126.9365,21.6299,124,16,124c-8.8245,0-16,7.1757-16,16c0,8.8245,7.1755,16,16,16c8.8243,0,16-7.1755,16-16
		c0-0.2927-0.0709-0.5659-0.0865-0.8547L59.2851,123.2305z M16,148c-4.4101,0-8-3.5899-8-8c0-4.4099,3.5899-8,8-8
		c4.4099,0,8,3.5901,8,8C24,144.4101,20.4099,148,16,148z"/>
	<path d="M155.0155,56.1505c0.9765,0,1.9492-0.3536,2.7228-1.0684l25.6784-23.8312C184.8783,31.6917,186.3963,32,188,32
		c8.8243,0,16-7.1775,16-16c0-8.8223-7.1757-16-16-16c-8.8245,0-16,7.1777-16,16c0,4.2181,1.672,8.0325,4.3487,10.8937
		l-24.056,22.3252c-1.6172,1.502-1.7108,4.0331-0.2108,5.6524C152.8711,55.7209,153.9415,56.1505,155.0155,56.1505z M188,8
		c4.4099,0,8,3.588,8,8s-3.5901,8-8,8c-4.4101,0-8-3.588-8-8S183.5899,8,188,8z"/>
</g>
</svg>
