<?xml version="1.0" encoding="utf-8"?>
<!-- Generator: Adobe Illustrator 19.2.0, SVG Export Plug-In . SVG Version: 6.00 Build 0)  -->
<svg version="1.1" id="newsletter" xmlns="http://www.w3.org/2000/svg" xmlns:xlink="http://www.w3.org/1999/xlink" x="0px" y="0px"
	 viewBox="0 0 188 192.0009" enable-background="new 0 0 188 192.0009" xml:space="preserve">
<g>
	<polygon fill="none" points="180,117.7521 180,86.1805 148,65.5613 148,137.1809 	"/>
	<polygon fill="none" points="180,179.4453 180,127.1069 134.5911,154.6765 	"/>
	<polygon fill="none" points="92.0467,140.5829 16.0615,184.0009 171.6475,184.0009 	"/>
	<polygon fill="none" points="8,179.3941 52.3651,154.0429 8,127.1069 	"/>
	<rect x="68" y="68.0009" fill="none" width="40" height="16"/>
	<polygon fill="none" points="96,32.7197 77.9475,44.0009 114.0523,44.0009 	"/>
	<path fill="none" d="M60.3023,149.5073l29.7132-16.9792c1.2072-0.6912,2.6836-0.6952,3.8984-0.0388l32.5608,17.7604l13.5316-8.216
		c0-0.0116-0.0063-0.0212-0.0063-0.0328v-90H48v90c0,0.0116-0.0065,0.0212-0.0065,0.0328L60.3023,149.5073z M60,64.0009
		c0-2.2108,1.7891-4,4-4h48c2.2107,0,4,1.7892,4,4v24c0,2.2108-1.7893,4-4,4H64c-2.2109,0-4-1.7892-4-4V64.0009z M60,100.0009h64v8
		H60V100.0009z M60,116.0009h64v8H60V116.0009z"/>
	<polygon fill="none" points="40,137.1809 40,65.5613 8,86.1805 8,117.7521 	"/>
	<path d="M186.168,80.6377l-37.2425-24c-0.2908-0.1856-0.612-0.256-0.9255-0.3596v-8.2772c0-2.2108-1.7893-4-4-4h-14.8541
		L98.1211,24.6101c-1.2968-0.8124-2.9456-0.8124-4.2424,0L62.8539,44.0009H44c-2.2109,0-4,1.7892-4,4v8.2752
		c-0.3137,0.1036-0.6353,0.1748-0.9257,0.3616l-37.2423,24C0.6915,81.3757,0,82.6417,0,84.0009v104c0,2.2108,1.7891,4,4,4h180
		c2.2107,0,4-1.7892,4-4v-104C188,82.6417,187.3083,81.3757,186.168,80.6377z M52.3651,154.0429L8,179.3941v-52.2872
		L52.3651,154.0429z M92.0467,140.5829l79.6008,43.418H16.0615L92.0467,140.5829z M180,179.4453l-45.4089-24.7688L180,127.1069
		V179.4453z M180,86.1805v31.5716l-32,19.4288V65.5613L180,86.1805z M96,32.7197l18.0523,11.2812H77.9475L96,32.7197z M48,52.0009
		h92v90c0,0.0116,0.0063,0.0212,0.0063,0.0328l-13.5316,8.216l-32.5608-17.7604c-1.2148-0.6564-2.6912-0.6524-3.8984,0.0388
		l-29.7132,16.9792l-12.3088-7.4736c0-0.0116,0.0065-0.0212,0.0065-0.0328V52.0009z M40,65.5613v71.6196L8,117.7521V86.1805
		L40,65.5613z"/>
	<path d="M64,92.0009h48c2.2107,0,4-1.7892,4-4v-24c0-2.2108-1.7893-4-4-4H64c-2.2109,0-4,1.7892-4,4v24
		C60,90.2117,61.7891,92.0009,64,92.0009z M68,68.0009h40v16H68V68.0009z"/>
	<rect x="60" y="100.0009" width="64" height="8"/>
	<rect x="60" y="116.0009" width="64" height="8"/>
	<path d="M168,48.0009c1.0235,0,2.0467-0.3908,2.828-1.172l14.1407-14.1404c1.5624-1.5628,1.5624-4.094,0-5.6564
		c-1.5624-1.5624-4.0936-1.5624-5.6564,0L165.172,41.1729c-1.5629,1.5624-1.5629,4.0936,0,5.656
		C165.9531,47.6101,166.9763,48.0009,168,48.0009z"/>
	<path d="M17.172,46.8289c0.7811,0.7812,1.8043,1.172,2.828,1.172c1.0235,0,2.0467-0.3908,2.828-1.172
		c1.5627-1.5624,1.5627-4.0936,0-5.656L8.6875,27.0321c-1.5624-1.5624-4.094-1.5624-5.6564,0c-1.5624,1.5624-1.5624,4.0936,0,5.6564
		L17.172,46.8289z"/>
	<path d="M134.5155,27.7157C135,27.9109,135.504,28.0009,136,28.0009c1.5859,0,3.0899-0.9492,3.7147-2.5156l8-20
		c0.8204-2.0508-0.1796-4.3788-2.2304-5.1992c-2.0312-0.8164-4.3788,0.172-5.1992,2.2304l-8,20
		C131.4647,24.5673,132.4647,26.8953,134.5155,27.7157z"/>
	<path d="M52.2851,25.4853c0.6248,1.5664,2.1288,2.5156,3.7149,2.5156c0.496,0,1-0.09,1.4843-0.2852
		c2.0508-0.8204,3.0508-3.1484,2.2304-5.1992l-8-20c-0.8204-2.0584-3.164-3.0468-5.1992-2.2304
		c-2.0508,0.8204-3.0508,3.1484-2.2304,5.1992L52.2851,25.4853z"/>
</g>
</svg>
