<?xml version="1.0" encoding="utf-8"?>
<!-- Generator: Adobe Illustrator 19.2.0, SVG Export Plug-In . SVG Version: 6.00 Build 0)  -->
<svg version="1.1" id="notepad" xmlns="http://www.w3.org/2000/svg" xmlns:xlink="http://www.w3.org/1999/xlink" x="0px" y="0px"
	 viewBox="0 0 208.5115 172" enable-background="new 0 0 208.5115 172" xml:space="preserve">
<g>
	<path d="M4.6287,143.9512c0.2424-0.0392,24.3948-3.836,49.3713-3.836c24.9763,0,49.1287,3.7968,49.3711,3.836
		C103.5819,143.9844,103.7891,144,104,144c0.124,0,0.2391-0.0528,0.3619-0.0644c0.0901-0.008,0.1768,0.0304,0.2668,0.0156
		c0.2424-0.0392,24.3948-3.836,49.3713-3.836c24.9763,0,49.1287,3.7968,49.3711,3.836C203.5819,143.9844,203.7891,144,204,144
		c0.9451,0,1.8671-0.336,2.5975-0.9572C207.4883,142.2832,208,141.17,208,140V7.8848c0-1.9668-1.4297-3.6428-3.3749-3.9512
		C203.6131,3.7736,179.5351,0,154,0c-23.6577,0-46.028,3.2332-50,3.838C100.028,3.2332,77.6575,0,54,0
		C28.4647,0,4.3867,3.7736,3.3751,3.9336C1.4295,4.242,0,5.918,0,7.8848V140c0,1.17,0.5115,2.2832,1.4023,3.0428
		C2.2967,143.8028,3.4687,144.1348,4.6287,143.9512z M200,11.3476v124.0332c-8.3245-1.1248-26.6953-3.2656-46-3.2656
		c-19.3049,0-37.6757,2.1408-46,3.2656V11.3476C115.5311,10.3144,134.5703,8,154,8C173.4295,8,192.4687,10.3144,200,11.3476z
		 M8,11.3476C15.5311,10.3144,34.5703,8,54,8c19.4295,0,38.4687,2.3144,46,3.3476v124.0332c-8.3245-1.1248-26.6953-3.2656-46-3.2656
		c-19.3049,0-37.6757,2.1408-46,3.2656V11.3476z"/>
	<path d="M204.5115,152H116c-2.2109,0-4,1.7912-4,4c0,4.412-3.5901,8-8,8c-4.3085,0-7.8101-3.4316-7.9701-7.7032
		c0.008-0.1036,0.06-0.1912,0.06-0.2968c0-2.2088-1.7892-4-4-4H4c-2.2109,0-4,1.7912-4,4s1.7891,4,4,4h84.568
		c1.7887,6.8808,7.9971,12,15.432,12c7.4415,0,13.7147-5.1076,15.492-12h85.0195c2.2112,0,4-1.7912,4-4S206.7227,152,204.5115,152z"
		/>
	<path d="M20,32h68c2.2107,0,4-1.7912,4-4s-1.7893-4-4-4H20c-2.2109,0-4,1.7912-4,4S17.7891,32,20,32z"/>
	<path d="M120,52h68c2.2107,0,4-1.7912,4-4s-1.7893-4-4-4h-68c-2.2109,0-4,1.7912-4,4S117.7891,52,120,52z"/>
	<path d="M20,52h68c2.2107,0,4-1.7912,4-4s-1.7893-4-4-4H20c-2.2109,0-4,1.7912-4,4S17.7891,52,20,52z"/>
	<path d="M120,72h68c2.2107,0,4-1.7912,4-4s-1.7893-4-4-4h-68c-2.2109,0-4,1.7912-4,4S117.7891,72,120,72z"/>
	<path d="M92,68c0-2.2088-1.7893-4-4-4H20c-2.2109,0-4,1.7912-4,4s1.7891,4,4,4h68C90.2107,72,92,70.2088,92,68z"/>
	<path d="M120,92h68c2.2107,0,4-1.7912,4-4s-1.7893-4-4-4h-68c-2.2109,0-4,1.7912-4,4S117.7891,92,120,92z"/>
</g>
</svg>
