<?xml version="1.0" encoding="utf-8"?>
<!-- Generator: Adobe Illustrator 19.2.0, SVG Export Plug-In . SVG Version: 6.00 Build 0)  -->
<svg version="1.1" id="oldcloset" xmlns="http://www.w3.org/2000/svg" xmlns:xlink="http://www.w3.org/1999/xlink" x="0px" y="0px"
	 viewBox="0 0 176 196" enable-background="new 0 0 176 196" xml:space="preserve">
<path d="M155.9748,0H80H20.0252C8.9824,0,0,8.9749,0,20.008V180c0,2.2089,1.7912,4,4,4h8v12h8v-12h60h76v12h8v-12h8
	c2.2088,0,4-1.7911,4-4V20.008C176,8.9749,167.0176,0,155.9748,0z M122.9572,88.1057h2.0856C133.3716,88.6545,140,95.5349,140,104
	c0,8.8225-7.1776,16-16,16s-16-7.1775-16-16C108,95.5349,114.6284,88.6545,122.9572,88.1057z M20.0252,8H76v28H8V20.008
	C8,13.3869,13.3944,8,20.0252,8z M48,108H20v-8h28V108z M52,92H16c-2.2088,0-4,1.7913-4,4v12H8V80h40h16h12v28H56V96
	C56,93.7913,54.2088,92,52,92z M60,72h-8v-8h8V72z M68,72v-8h8v8H68z M76,56H64H48c-2.2088,0-4,1.7913-4,4v12H8V44h68V56z M12,176H8
	v-60h8h36h24v60H20H12z M168,176h-4h-8H84v-60v-8V80v-4v-4V60V44v-8V8h36v72.3613c-11.3324,1.9136-20,11.77-20,23.6387
	c0,13.2345,10.7656,24,24,24c13.2344,0,24-10.7655,24-24c0-11.8687-8.6676-21.7251-20-23.6387V8h27.9748
	C162.6056,8,168,13.3869,168,20.008V176z"/>
</svg>
