<?xml version="1.0" encoding="utf-8"?>
<!-- Generator: Adobe Illustrator 19.2.0, SVG Export Plug-In . SVG Version: 6.00 Build 0)  -->
<svg version="1.1" id="paperairplane" xmlns="http://www.w3.org/2000/svg" xmlns:xlink="http://www.w3.org/1999/xlink" x="0px"
	 y="0px" viewBox="0 0 219.959 163.9849" enable-background="new 0 0 219.959 163.9849" xml:space="preserve">
<g>
	<polygon fill="none" points="191.3721,14.8949 18.0476,62.4889 83.5244,83.4265 	"/>
	<polygon fill="none" points="80.5008,133.4733 102.1528,121.2377 87.7964,100.2901 	"/>
	<path fill="none" d="M90.354,88.5629c-0.0064,0.0344,0.0061,0.0672-0.0016,0.1016l-0.1996,0.908l42.9652,62.6896l72.3048-136.818
		L90.354,88.5629z"/>
	<path d="M219.9584,4.0681c0.0064-0.2792-0.0352-0.5492-0.0888-0.8284c-0.042-0.2176-0.0768-0.426-0.154-0.6336
		c-0.0296-0.0796-0.0235-0.1636-0.0584-0.2424c-0.0836-0.188-0.228-0.3248-0.336-0.4936c-0.1152-0.1816-0.2128-0.3636-0.3576-0.526
		c-0.2364-0.2644-0.5132-0.4668-0.8052-0.6572c-0.1068-0.07-0.1752-0.1764-0.2903-0.2372c-0.0245-0.0132-0.052-0.0104-0.0769-0.0228
		c-0.4468-0.2248-0.9271-0.3792-1.4304-0.4252c-0.1136-0.0104-0.2212,0.0304-0.3348,0.03c-0.3604-0.0024-0.7232-0.0028-1.084,0.0976
		l-0.1148,0.0316c-0.0036,0.0012-0.0064,0.002-0.01,0.0028L2.942,58.3405c-1.7068,0.4688-2.9019,2.0036-2.9412,3.7732
		c-0.0352,1.7696,1.0936,3.3516,2.7812,3.8908l78.7812,25.1908l0.032,0.0468l-10.8328,49.2584
		c-0.3396,1.5428,0.258,3.1368,1.5276,4.0744c0.7028,0.5192,1.5388,0.7848,2.3788,0.7848c0.6756,0,1.3556-0.1716,1.9688-0.5156
		l30.0572-16.9796l23.5636,34.382c0.75,1.09,1.9844,1.7384,3.3008,1.7384c0.0744,0,0.1524-0.004,0.2308-0.008
		c1.3984-0.078,2.652-0.8864,3.3044-2.1248l82.4417-156c0.0527-0.0992,0.0483-0.2084,0.0915-0.31
		c0.1228-0.2848,0.2056-0.5712,0.2596-0.8764C219.9224,4.4629,219.9548,4.2705,219.9584,4.0681z M191.3721,14.8949L83.5244,83.4265
		L18.0476,62.4889L191.3721,14.8949z M80.5008,133.4733l7.2956-33.1832l14.3564,20.9476L80.5008,133.4733z M133.118,152.2621
		L90.1528,89.5725l0.1996-0.908c0.0077-0.0344-0.0048-0.0672,0.0016-0.1016l115.0688-73.1188L133.118,152.2621z"/>
</g>
</svg>
