<?xml version="1.0" encoding="utf-8"?>
<!-- Generator: Adobe Illustrator 19.2.0, SVG Export Plug-In . SVG Version: 6.00 Build 0)  -->
<svg version="1.1" id="photo" xmlns="http://www.w3.org/2000/svg" xmlns:xlink="http://www.w3.org/1999/xlink" x="0px" y="0px"
	 viewBox="0 0 216 184" enable-background="new 0 0 216 184" xml:space="preserve">
<g>
	<path d="M212,0H4C1.7891,0,0,1.7912,0,4v136v40c0,2.2088,1.7891,4,4,4h208c2.2107,0,4-1.7912,4-4v-40V4
		C216,1.7912,214.2107,0,212,0z M8,8h200v128H98.4727L63.5779,66.2108c-1.3592-2.7108-5.7968-2.7108-7.156,0L21.5271,136H8V8z
		 M48.1011,100.742l8.5552,11.096c0.6992,0.908,1.7576,1.4704,2.902,1.5468c0.09,0.0076,0.176,0.0096,0.266,0.0096
		c1.0508,0,2.0624-0.414,2.8164-1.158l10.0348-9.9404L89.5271,136H30.4727L48.1011,100.742z M52.0311,92.8812L60,76.9432
		l8.9095,17.82l-8.6832,8.602l-7.8552-10.1896C52.2755,93.0516,52.1375,92.9908,52.0311,92.8812z M208,176H8v-32h16h72h112V176z"/>
	<path d="M140,96c15.4375,0,28-12.5604,28-28s-12.5625-28-28-28c-15.4377,0-28,12.5604-28,28S124.5623,96,140,96z M140,48
		c11.0271,0,20,8.9728,20,20s-8.9729,20-20,20c-11.0273,0-20-8.9728-20-20S128.9727,48,140,48z"/>
	<path d="M140,32c2.2107,0,4-1.7912,4-4v-8c0-2.2088-1.7893-4-4-4c-2.2109,0-4,1.7912-4,4v8C136,30.2088,137.7891,32,140,32z"/>
	<path d="M140,104c-2.2109,0-4,1.7912-4,4v8c0,2.2088,1.7891,4,4,4c2.2107,0,4-1.7912,4-4v-8C144,105.7912,142.2107,104,140,104z"/>
	<path d="M92,72h8c2.2107,0,4-1.7912,4-4s-1.7893-4-4-4h-8c-2.2109,0-4,1.7912-4,4S89.7891,72,92,72z"/>
	<path d="M180,72h8c2.2107,0,4-1.7912,4-4s-1.7893-4-4-4h-8c-2.2109,0-4,1.7912-4,4S177.7891,72,180,72z"/>
</g>
</svg>
