<?xml version="1.0" encoding="utf-8"?>
<!-- Generator: Adobe Illustrator 19.2.0, SVG Export Plug-In . SVG Version: 6.00 Build 0)  -->
<svg version="1.1" id="piggybank" xmlns="http://www.w3.org/2000/svg" xmlns:xlink="http://www.w3.org/1999/xlink" x="0px" y="0px"
	 viewBox="0 0 229.6775 196" enable-background="new 0 0 229.6775 196" xml:space="preserve">
<g>
	<path fill="none" d="M116,40c14.0204,0,27.2948,2.4773,39.1216,6.852C153.5013,25.1621,135.3788,8,113.2813,8
		c-22.8405,0-41.4421,18.3333-41.952,41.0533l0.0927-0.0024C84.8868,43.1289,100.2773,40,116,40z"/>
	<path fill="none" d="M195.7696,100.7929c0.07-0.7068,0.1208-1.418,0.16-2.1289c-0.4452-0.5-0.7696-1.1171-0.922-1.8047
		C188.8904,69.004,154.9256,48,116,48c-14.8867,0-29.426,3-42.0392,8.6797c-0.4844,0.2188-1.0075,0.336-1.5388,0.3516
		l-28.3948,0.7148l7.7268,8.3048c1.4764,1.586,1.418,4.0584-0.1292,5.578c-7.578,7.4376-12.6364,16.1604-14.6288,25.2304
		C36.5936,98.6917,34.9688,100,33.0896,100H8.164c2.1952,26.5705,26.1056,50.2385,60.8868,59.6877
		C70.7893,160.16,72,161.7421,72,163.5469V188h16v-20.3711c0-1.1132,0.4648-2.1756,1.2773-2.9336
		c0.8163-0.7536,1.9139-1.1328,3.0195-1.0544c5.5392,0.414,11.254,0.4724,16.7696,0.1676c0.1444-0.0076,0.2968-0.0036,0.4492,0.004
		c9.8436,0.5744,20.074-0.1876,29.6288-2.2852c1.172-0.2692,2.414,0.0276,3.3632,0.7892c0.9417,0.758,1.4924,1.9064,1.4924,3.1172
		V188h16v-31.1131c0-1.5,0.836-2.8712,2.168-3.5549C183.3516,142.4257,196,124.7345,196,106c0-1.4803-0.0744-2.9451-0.2267-4.3943
		C195.742,101.336,195.742,101.0625,195.7696,100.7929z M59.2813,100c-4.4101,0-8-3.5899-8-8c0-4.4099,3.5899-8,8-8
		c4.4099,0,8,3.5901,8,8C67.2813,96.4101,63.6912,100,59.2813,100z"/>
	<path d="M229.164,70.1289c-1.7696-8.324-7.1564-14.1209-14.7812-15.9024c-6.6836-1.57-13.7188,0.336-17.0975,4.6212
		c-2.2541,2.8516-2.5901,6.3908-0.9337,9.7072c5.2812,10.5544,13.4412,10.0272,17.0156,8.2811
		c1.9412-0.9491,2.7108-3.2383,1.824-5.2071c-0.8864-1.9649-3.2419-2.8516-5.2379-2.0272c-0.8009,0.34-3.6485,0.9728-6.4457-4.6252
		c-0.3044-0.6052-0.2108-0.832,0.0548-1.1716c1.09-1.3792,4.832-2.758,9-1.7892c3.2149,0.75,7.3476,3.0588,8.7736,9.7772
		c2.6468,12.4711-12.5267,18.5916-19.194,20.656c-4.9564-17.9652-19.3607-32.8932-38.9148-42.1796
		c0.0064-0.0936,0.0541-0.1736,0.0541-0.2693c0-27.5703-22.4297-50-50-50C85.9624,0,63.7232,22.0305,63.3192,49.2549l-28.3659,0.714
		c-1.5705,0.0391-2.9769,1-3.5861,2.4492c-0.6096,1.4492-0.3124,3.1212,0.7576,4.2736l11.1916,12.0348
		C36.922,75.7501,32.3712,83.6877,29.9804,92H4c-2.2107,0-4,1.7893-4,4c0,31.0393,25.5896,59.1017,64,70.5665V192
		c0,2.2109,1.7893,4,4,4h24c2.2108,0,4-1.7891,4-4v-20.1287c4.4376,0.1912,8.9064,0.1716,13.2733-0.0588
		c8.844,0.5,18.008-0.0076,26.7267-1.5196V192c0,2.2109,1.7893,4,4,4h24c2.2108,0,4-1.7891,4-4v-32.7107
		c22.5936-12.3948,36-32.168,36-53.2893c0-1.6251-0.078-3.2499-0.2304-4.832c0.0252-0.2795,0.0168-0.5703,0.038-0.852
		c3.004-0.8883,7.7924-2.5671,12.4112-5.3043C226.8084,88.7385,231.2853,80.1329,229.164,70.1289z M113.2813,8
		c22.0975,0,40.22,17.1621,41.8403,38.852C143.2948,42.4773,130.0204,40,116,40c-15.7227,0-31.1132,3.1289-44.578,9.0509
		l-0.0927,0.0024C71.8392,26.3333,90.4408,8,113.2813,8z M162.168,153.332c-1.332,0.6837-2.168,2.0549-2.168,3.5549V188h-16
		v-22.5663c0-1.2108-0.5507-2.3592-1.4924-3.1172c-0.9492-0.7616-2.1912-1.0584-3.3632-0.7892
		c-9.5548,2.0976-19.7852,2.8596-29.6288,2.2852c-0.1524-0.0076-0.3048-0.0116-0.4492-0.004
		c-5.5156,0.3048-11.2304,0.2464-16.7696-0.1676c-1.1056-0.0784-2.2032,0.3008-3.0195,1.0544
		C88.4648,165.4533,88,166.5157,88,167.6289V188H72v-24.4531c0-1.8048-1.2107-3.3869-2.9492-3.8592
		C34.2696,150.2385,10.3592,126.5705,8.164,100h24.9256c1.8792,0,3.504-1.3083,3.9064-3.1407
		c1.9924-9.07,7.0508-17.7928,14.6288-25.2304c1.5472-1.5196,1.6056-3.992,0.1292-5.578l-7.7268-8.3048l28.3948-0.7148
		c0.5313-0.0156,1.0544-0.1328,1.5388-0.3516C86.574,51,101.1133,48,116,48c38.9256,0,72.8904,21.004,79.0076,48.8593
		c0.1524,0.6876,0.4768,1.3047,0.922,1.8047c-0.0392,0.7109-0.09,1.4221-0.16,2.1289c-0.0276,0.2696-0.0276,0.5431,0.0037,0.8128
		C195.9256,103.0549,196,104.5197,196,106C196,124.7345,183.3516,142.4257,162.168,153.332z"/>
	<path d="M59.2813,84c-4.4101,0-8,3.5901-8,8c0,4.4101,3.5899,8,8,8c4.4099,0,8-3.5899,8-8C67.2813,87.5901,63.6912,84,59.2813,84z"
		/>
</g>
</svg>
