<?xml version="1.0" encoding="utf-8"?>
<!-- Generator: Adobe Illustrator 19.2.0, SVG Export Plug-In . SVG Version: 6.00 Build 0)  -->
<svg version="1.1" id="pine" xmlns="http://www.w3.org/2000/svg" xmlns:xlink="http://www.w3.org/1999/xlink" x="0px" y="0px"
	 viewBox="0 0 176.001 219.8819" enable-background="new 0 0 176.001 219.8819" xml:space="preserve">
<path d="M174.2193,176.5539l-49.008-32.672h30.7892c1.6876,0,3.1952-1.0604,3.7656-2.6484c0.5704-1.59,0.08-3.3652-1.2228-4.4396
	l-39.9648-32.912h21.422c1.5916,0,3.0312-0.9432,3.666-2.4004c0.6368-1.4588,0.3476-3.1564-0.7344-4.3224l-30.9024-33.2772h11.9708
	c1.4628,0,2.8104-0.7988,3.5116-2.084c0.7012-1.2832,0.6448-2.8476-0.1464-4.078l-36-56c-1.4728-2.2932-5.2576-2.2932-6.7304,0
	l-36,56c-0.7912,1.2304-0.8476,2.7948-0.1464,4.078c0.7012,1.2852,2.0488,2.084,3.5116,2.084h11.9708L33.0689,97.1591
	c-1.082,1.166-1.3712,2.8636-0.7344,4.3224c0.6348,1.4572,2.0744,2.4004,3.666,2.4004h21.422l-39.9648,32.912
	c-1.3028,1.0744-1.7932,2.8496-1.2228,4.4396c0.5704,1.588,2.078,2.6484,3.7656,2.6484h30.7892l-49.008,32.672
	c-1.4668,0.9784-2.1212,2.8008-1.6092,4.4864c0.5096,1.6872,2.0664,2.8416,3.828,2.8416h64v32c0,2.2088,1.7912,4,4,4h28
	c2.2088,0,4-1.7912,4-4v-32h68c1.7616,0,3.3184-1.1544,3.828-2.8416C176.3405,179.3547,175.6861,177.5323,174.2193,176.5539z
	 M96.0005,211.8819h-20v-28h20V211.8819z M100.0005,175.8819h-28H17.2113l49.008-32.672c1.4668-0.9784,2.1212-2.8008,1.6092-4.4864
	c-0.5096-1.6872-2.0664-2.8416-3.828-2.8416H31.1509l39.9648-32.912c1.3028-1.0744,1.7932-2.8496,1.2228-4.4396
	c-0.5704-1.588-2.0784-2.6484-3.7656-2.6484H45.1725l30.9024-33.2772c1.082-1.166,1.3708-2.8636,0.734-4.3224
	c-0.6344-1.4572-2.074-2.4004-3.666-2.4004H59.3265l28.674-44.6036l28.674,44.6036h-13.8164c-1.592,0-3.0316,0.9432-3.666,2.4004
	c-0.6368,1.4588-0.348,3.1564,0.734,4.3224l30.9024,33.2772h-23.4004c-1.6872,0-3.1952,1.0604-3.7656,2.6484
	c-0.5704,1.59-0.08,3.3652,1.2228,4.4396l39.9648,32.912h-32.8496c-1.7616,0-3.3184,1.1544-3.828,2.8416
	c-0.512,1.6856,0.1424,3.508,1.6092,4.4864l49.008,32.672H100.0005z"/>
</svg>
