<?xml version="1.0" encoding="utf-8"?>
<!-- Generator: Adobe Illustrator 19.2.0, SVG Export Plug-In . SVG Version: 6.00 Build 0)  -->
<svg version="1.1" id="pinpoint" xmlns="http://www.w3.org/2000/svg" xmlns:xlink="http://www.w3.org/1999/xlink" x="0px" y="0px"
	 viewBox="0 0 168 218.664" enable-background="new 0 0 168 218.664" xml:space="preserve">
<g>
	<path fill="none" d="M84,128.332c-13.2344,0-24,10.7657-24,24c0,13.2345,10.7656,24,24,24c13.2344,0,24-10.7655,24-24
		C108,139.0977,97.2344,128.332,84,128.332z"/>
	<path fill="none" d="M84,8C61.2892,8,8,89.7969,8,134.664c0,41.9064,34.0936,76,76,76c41.9064,0,76-34.0936,76-76
		C160,89.7969,106.7108,8,84,8z M84,184.332c-17.6444,0-32-14.3555-32-32c0-17.6443,14.3556-32,32-32c17.6444,0,32,14.3557,32,32
		C116,169.9765,101.6444,184.332,84,184.332z"/>
	<path d="M84,0C52.7344,0,0,91.7929,0,134.664c0,46.3165,37.6816,84,84,84s84-37.6835,84-84C168,91.7929,115.2656,0,84,0z
		 M84,210.664c-41.9064,0-76-34.0936-76-76C8,89.7969,61.2892,8,84,8c22.7108,0,76,81.7969,76,126.664
		C160,176.5704,125.9064,210.664,84,210.664z"/>
	<path d="M84,120.332c-17.6444,0-32,14.3557-32,32c0,17.6445,14.3556,32,32,32c17.6444,0,32-14.3555,32-32
		C116,134.6877,101.6444,120.332,84,120.332z M84,176.332c-13.2344,0-24-10.7655-24-24c0-13.2343,10.7656-24,24-24
		c13.2344,0,24,10.7657,24,24C108,165.5665,97.2344,176.332,84,176.332z"/>
</g>
</svg>
