<?xml version="1.0" encoding="utf-8"?>
<!-- Generator: Adobe Illustrator 19.2.0, SVG Export Plug-In . SVG Version: 6.00 Build 0)  -->
<svg version="1.1" id="plants" xmlns="http://www.w3.org/2000/svg" xmlns:xlink="http://www.w3.org/1999/xlink" x="0px" y="0px"
	 viewBox="0 0 192 232" enable-background="new 0 0 192 232" xml:space="preserve">
<path d="M176,16c-8.412,0-15.254,6.5456-15.8788,14.8016c-14.0896,3.27-26.188,9.1336-36.4856,16.4644
	c-6.4084,1.8852-11.9652,6.3884-14.968,12.7568c-3.5384,3.5564-6.8148,7.238-9.7944,10.9824
	c-4.362-17.6876-7.1304-34.192-5.014-41.9544c0.5804-2.1288-0.6756-4.328-2.8064-4.91c-2.1388-0.59-4.33,0.6756-4.912,2.8084
	c-2.8816,10.5632,1.1408,31.9044,6.532,52.4484c-0.3736,0.5444-0.7172,1.086-1.0804,1.6296
	c-8.2212-19.9616-25.1652-44.5808-59.9612-61.668C31.8644,18.274,32,17.154,32,16c0-8.8244-7.1776-16-16-16S0,7.1756,0,16
	s7.1776,16,16,16c4.7992,0,9.0616-2.1676,11.9964-5.5248C38.7352,31.7324,47.722,37.7,55.1932,44.072
	C42.844,44.8384,23.4544,62.9908,21.2384,65.1056C20.4472,65.8592,20,66.9064,20,68s0.4472,2.1408,1.2384,2.8944
	C23.502,73.0548,43.7072,92,56,92c11.3396,0,20.844-7.9124,23.3392-18.5008c2.9664,5.3928,5.2832,10.7276,7.0624,15.8368
	c-11.6788,20.0272-16.188,37.3184-16.2824,37.6952c-0.082,0.3272-0.0448,0.6464-0.0444,0.9688H20c-2.2088,0-4,1.7892-4,4v16
	c0,2.2108,1.7912,4,4,4h12.3796l7.2,72H24v8h20h96h20.0624v-8h-15.642l7.2-72H164c2.2088,0,4-1.7892,4-4v-16c0-2.2108-1.7912-4-4-4
	h-48.0368c0.0004-0.4492-0.0372-0.9048-0.1976-1.3516c-3.536-9.85-9.4524-27.7376-14.3504-45.828
	c1.6464-2.2676,3.406-4.5236,5.2568-6.7588c0.3508,2.1664,0.9864,4.3004,1.9392,6.3448c2.7092,5.8084,7.5176,10.2148,13.5432,12.406
	c1.8516,0.676,4.0584,0.9612,6.4764,0.9612c12.6584,0,31-7.848,33.4064-8.9024c1.002-0.4376,1.7792-1.2696,2.1524-2.2968
	c0.3748-1.0276,0.3124-2.1604-0.174-3.1408c-1.3868-2.8048-13.8924-27.5196-25.4452-31.7228
	c-0.126-0.0456-0.2536-0.0732-0.3796-0.1168c7.0156-3.8204,14.7756-6.8812,23.3216-8.9056C164.054,44.1688,169.5724,48,176,48
	c8.8224,0,16-7.1756,16-16S184.8224,16,176,16z M16,24c-4.412,0-8-3.59-8-8s3.588-8,8-8s8,3.59,8,8S20.412,24,16,24z M56,84
	c-6.0136,0-18.0412-8.8868-26.084-16C37.9532,60.8828,49.9764,52,56,52c8.8224,0,16,7.1756,16,16S64.8224,84,56,84z M89.52,100.1344
	c3.1256,13.4048,2.882,23.9648,2.6296,27.8656h-14.002C79.0768,124.7352,82.5192,113.5956,89.52,100.1344z M136.3808,224H47.6192
	L40.42,152h103.16L136.3808,224z M160,144h-12H36H24v-8h136V144z M107.7532,128h-7.6016c0.2812-5.5572,0.284-20.0228-5.16-37.5332
	c0.1652-0.27,0.3312-0.5404,0.4996-0.8112C100.5004,107.1984,105.8336,122.5868,107.7532,128z M130.3788,54.2616
	c1.8128,0,3.6564,0.3128,5.4572,0.9648c5.6504,2.0588,13.912,14.5196,19.0352,23.9572c-9.9904,3.9336-24.33,8.164-29.9824,6.1132
	c-4.0156-1.4608-7.2208-4.3984-9.0276-8.2732c-1.8064-3.8752-1.996-8.2188-0.5332-12.2344c0.0396-0.1084,0.1-0.2028,0.1416-0.31
	c3.5528-3.4636,7.4036-6.766,11.5688-9.8192C128.132,54.4252,129.244,54.2616,130.3788,54.2616z M176,40c-4.412,0-8-3.59-8-8
	s3.588-8,8-8s8,3.59,8,8S180.412,40,176,40z"/>
</svg>
