<?xml version="1.0" encoding="utf-8"?>
<!-- Generator: Adobe Illustrator 19.2.0, SVG Export Plug-In . SVG Version: 6.00 Build 0)  -->
<svg version="1.1" id="pointtransform" xmlns="http://www.w3.org/2000/svg" xmlns:xlink="http://www.w3.org/1999/xlink" x="0px"
	 y="0px" viewBox="0 0 212 132" enable-background="new 0 0 212 132" xml:space="preserve">
<g>
	<circle fill="none" cx="56" cy="116" r="8"/>
	<rect x="8" y="60" fill="none" width="16" height="16"/>
	<circle fill="none" cx="156" cy="16" r="8"/>
	<circle fill="none" cx="108" cy="68" r="8"/>
	<polygon fill="none" points="188,64 188,72 188,76 204,76 204,60 188,60 	"/>
	<path d="M208,52h-24c-2.2088,0-4,1.7912-4,4v8h-36.1012C153.65,56.6984,160,45.0916,160,32c0-0.1896-0.0824-0.352-0.108-0.5348
		C166.8288,29.7148,172,23.4728,172,16c0-8.8224-7.1776-16-16-16c-8.8224,0-16,7.1776-16,16c0,7.4728,5.1712,13.7148,12.108,15.4652
		C152.0824,31.648,152,31.8104,152,32c0,16.504-12.5616,30.126-28.6248,31.818C121.5228,57.0308,115.3664,52,108,52
		c-7.4332,0-13.6428,5.1192-15.432,12H32v-8c0-2.2088-1.7912-4-4-4H4c-2.2088,0-4,1.7912-4,4v24c0,2.2088,1.7912,4,4,4h24
		c2.2088,0,4-1.7912,4-4v-8h36.1012c-8.8744,6.6452-14.9116,16.8564-15.9248,28.5132C45.204,102.2388,40,108.502,40,116
		c0,8.8224,7.1776,16,16,16c8.8224,0,16-7.1776,16-16c0-7.3664-5.0308-13.5228-11.818-15.3752C61.8744,84.5616,75.496,72,92,72
		h0.568c1.7892,6.8808,7.9988,12,15.432,12c7.4332,0,13.6428-5.1192,15.432-12H180v8c0,2.2088,1.7912,4,4,4h24
		c2.2088,0,4-1.7912,4-4V56C212,53.7912,210.2088,52,208,52z M148,16c0-4.412,3.588-8,8-8s8,3.588,8,8s-3.588,8-8,8
		S148,20.412,148,16z M24,76H8V60h16V76z M64,116c0,4.412-3.588,8-8,8s-8-3.588-8-8s3.588-8,8-8S64,111.588,64,116z M108,76
		c-4.412,0-8-3.588-8-8s3.588-8,8-8s8,3.588,8,8S112.412,76,108,76z M204,76h-16v-4v-8v-4h16V76z"/>
</g>
</svg>
