<?xml version="1.0" encoding="utf-8"?>
<!-- Generator: Adobe Illustrator 19.2.0, SVG Export Plug-In . SVG Version: 6.00 Build 0)  -->
<svg version="1.1" id="pool" xmlns="http://www.w3.org/2000/svg" xmlns:xlink="http://www.w3.org/1999/xlink" x="0px" y="0px"
	 viewBox="0 0 231.2005 137.332" enable-background="new 0 0 231.2005 137.332" xml:space="preserve">
<g>
	<path d="M230.4144,124.4256L200.2428,47.324c-2.2308-5.6952-8.5276-9.992-14.6447-9.992h-16.5353h-39.4607V12
		c0-2.2072,1.7927-4,4-4c2.2071,0,4,1.7928,4,4c0,2.2108,1.7891,4,4,4c2.2107,0,4-1.7892,4-4c0-6.6172-5.3829-12-12-12
		c-6.6173,0-12,5.3828-12,12v1.332h-16V12c0-6.6172-5.3829-12-12-12c-6.6173,0-12,5.3828-12,12c0,2.2108,1.7891,4,4,4
		c2.2107,0,4-1.7892,4-4c0-2.2072,1.7927-4,4-4c2.2071,0,4,1.7928,4,4v25.332H62.1412H45.6061
		c-6.1213,0-12.4141,4.2968-14.6449,9.992L0.7896,124.4256c-1.258,3.2148-1.004,6.4884,0.6992,8.9844
		c1.7032,2.4924,4.6524,3.922,8.0936,3.922h212.0392c3.4376,0,6.3868-1.4296,8.086-3.922
		C231.4144,130.91,231.6684,127.6368,230.4144,124.4256z M121.6021,21.332v4h-16v-4H121.6021z M105.6021,33.332h16v4h-16V33.332z
		 M169.0628,45.332c2.7148,0,6.0588,2.332,7.0156,4.8944l22.758,61.008c0.3124,0.8436,0.246,1.3984,0.0937,1.6172
		c-0.1525,0.2224-0.6525,0.4804-1.5545,0.4804H33.8284c-0.902,0-1.402-0.258-1.5543-0.4804
		c-0.1525-0.2188-0.2229-0.7776,0.0895-1.6172l22.762-61.008c0,0,0,0,0.0036,0c0.9689-2.6092,4.2464-4.8944,7.012-4.8944H169.0628z
		 M223.1021,128.8984c-0.1485,0.2148-0.664,0.4336-1.4805,0.4336H9.5824c-0.824,0-1.3396-0.2148-1.4843-0.4296
		c-0.1485-0.2188-0.16-0.7852,0.1447-1.5624l30.1716-77.1016c1.0197-2.6136,4.3828-4.9064,7.1917-4.9064h3.02
		c-0.3909,0.6732-0.7269,1.374-0.9969,2.0976h0.004l-22.7656,61.0116c-1.1952,3.2152-0.8904,6.4884,0.836,8.9768
		c1.7265,2.4884,4.6912,3.914,8.1248,3.914h163.5472c3.4372,0,6.402-1.4296,8.1288-3.918c1.7264-2.4884,2.0272-5.7616,0.824-8.9764
		l-22.7576-61.008c-0.2692-0.722-0.6112-1.4224-1.0092-2.0976h3.0365c2.7579,0,6.1875,2.34,7.1915,4.9064l30.1716,77.1016
		C223.2661,128.1132,223.2504,128.6796,223.1021,128.8984z"/>
	<path d="M57.6021,61.332c0,8.8244,7.1755,16,16,16c4.8019,0,9.0651-2.1688,12-5.528c2.9347,3.3592,7.1979,5.528,12,5.528
		c4.8019,0,9.0651-2.1688,12-5.528c2.9347,3.3592,7.1979,5.528,12,5.528c8.8243,0,16-7.1756,16-16c0-2.2108-1.7893-4-4-4
		c-2.2109,0-4,1.7892-4,4c0,4.41-3.5901,8-8,8c-4.4101,0-8-3.59-8-8c0-2.2108-1.7893-4-4-4c-2.2109,0-4,1.7892-4,4
		c0,4.41-3.5901,8-8,8c-4.4101,0-8-3.59-8-8c0-2.2108-1.7893-4-4-4c-2.2109,0-4,1.7892-4,4c0,4.41-3.5901,8-8,8
		c-4.4101,0-8-3.59-8-8c0-2.2108-1.7893-4-4-4C59.3912,57.332,57.6021,59.1212,57.6021,61.332z"/>
	<path d="M133.6021,85.332c-2.2109,0-4,1.7892-4,4c0,4.41-3.5901,8-8,8c-4.4101,0-8-3.59-8-8c0-2.2108-1.7893-4-4-4
		c-2.2109,0-4,1.7892-4,4c0,8.8244,7.1755,16,16,16c4.8019,0,9.0651-2.1688,12-5.528c2.9347,3.3592,7.1979,5.528,12,5.528
		c4.8019,0,9.0651-2.1688,12-5.528c2.9347,3.3592,7.1979,5.528,12,5.528c8.8243,0,16-7.1756,16-16c0-2.2108-1.7893-4-4-4
		c-2.2109,0-4,1.7892-4,4c0,4.41-3.5901,8-8,8c-4.4101,0-8-3.59-8-8c0-2.2108-1.7893-4-4-4c-2.2109,0-4,1.7892-4,4
		c0,4.41-3.5901,8-8,8c-4.4101,0-8-3.59-8-8C137.6021,87.1212,135.8128,85.332,133.6021,85.332z"/>
</g>
</svg>
