<?xml version="1.0" encoding="utf-8"?>
<!-- Generator: Adobe Illustrator 19.2.0, SVG Export Plug-In . SVG Version: 6.00 Build 0)  -->
<svg version="1.1" id="radiationsign" xmlns="http://www.w3.org/2000/svg" xmlns:xlink="http://www.w3.org/1999/xlink" x="0px"
	 y="0px" viewBox="0 0 232 232" enable-background="new 0 0 232 232" xml:space="preserve">
<g>
	<path fill="none" d="M116,104c-6.6173,0-12,5.3828-12,12s5.3827,12,12,12c6.6171,0,12-5.3828,12-12S122.6171,104,116,104z"/>
	<path fill="none" d="M32.4763,88.8652C29.504,97.5704,28,106.6796,28,116s1.504,18.4296,4.4763,27.1348l44.3752-18.4884
		C76.2851,121.8144,76,118.918,76,116s0.2851-5.8144,0.8515-8.6464L32.4763,88.8652z"/>
	<path fill="none" d="M107.3515,155.1484l-18.4844,44.3752c17.4064,5.9452,36.8592,5.9452,54.2656,0l-18.4884-44.3732
		C118.9727,156.2792,113.0235,156.2812,107.3515,155.1484z"/>
	<path fill="none" d="M124.6443,76.8496l18.4884-44.3732c-17.4064-5.9452-36.8592-5.9452-54.2656,0l18.4844,44.3752
		C113.0235,75.7188,118.9727,75.7208,124.6443,76.8496z"/>
	<path fill="none" d="M155.1483,107.3536C155.7147,110.1856,156,113.082,156,116s-0.2853,5.8144-0.8517,8.6464l44.3752,18.4884
		C202.496,134.4296,204,125.3204,204,116s-1.504-18.4296-4.4765-27.1348L155.1483,107.3536z"/>
	<path fill="none" d="M116,8C56.4491,8,8,56.4492,8,116s48.4491,108,108,108c59.5507,0,108-48.4492,108-108S175.5507,8,116,8z
		 M79.8867,28.6132c0.414-0.9884,1.2108-1.7676,2.2068-2.164c21.586-8.5584,46.2268-8.5584,67.8128,0
		c0.996,0.3964,1.7928,1.1756,2.2068,2.164c0.418,0.9884,0.422,2.1036,0.008,3.094L130.7147,83.078
		c-0.7812,1.8712-2.8396,2.8616-4.7928,2.3068c-6.4139-1.836-13.4259-1.836-19.8476,0c-0.3672,0.1056-0.7383,0.1544-1.1016,0.1544
		c-1.5784,0-3.0588-0.9396-3.6916-2.4612L79.8787,31.7072C79.4647,30.7168,79.4687,29.6016,79.8867,28.6132z M136,116
		c0,11.0272-8.9729,20-20,20c-11.0273,0-20-8.9728-20-20s8.9727-20,20-20C127.0271,96,136,104.9728,136,116z M31.7071,152.1212
		c-0.4924,0.2048-1.0156,0.3084-1.5391,0.3084c-0.5273,0-1.0589-0.1052-1.5549-0.3144c-0.988-0.418-1.7696-1.2128-2.164-2.2108
		C22.172,139.1152,20,127.7072,20,116s2.172-23.1152,6.4491-33.9044c0.3944-0.998,1.176-1.7928,2.164-2.2108
		c0.9884-0.418,2.1056-0.424,3.094-0.006l51.3708,21.4044c1.8752,0.7792,2.8672,2.8416,2.3048,4.7928
		C84.4647,109.2812,84,112.6192,84,116s0.4647,6.7188,1.3827,9.924c0.5624,1.9508-0.4296,4.0136-2.3048,4.7928L31.7071,152.1212z
		 M152.1131,203.3868c-0.414,0.988-1.2108,1.7676-2.2068,2.164C139.1131,209.83,127.7071,212,116,212
		c-11.7073,0-23.1133-2.17-33.9065-6.4492c-0.996-0.3964-1.7928-1.176-2.2068-2.164c-0.418-0.9884-0.422-2.1036-0.008-3.094
		l21.4024-51.3708c0.7772-1.8732,2.828-2.8732,4.7932-2.3068c6.4217,1.836,13.4337,1.836,19.8476,0
		c1.9608-0.5584,4.0156,0.4336,4.7928,2.3068l21.4064,51.3708C152.5351,201.2832,152.5311,202.3984,152.1131,203.3868z
		 M203.3867,152.1152c-0.496,0.2092-1.0276,0.3144-1.5547,0.3144c-0.5237,0-1.0469-0.1016-1.5393-0.3084l-51.3708-21.4044
		c-1.8752-0.7792-2.8672-2.842-2.3048-4.7928C147.5351,122.7188,148,119.3808,148,116s-0.4649-6.7188-1.3829-9.924
		c-0.5624-1.9512,0.4296-4.0136,2.3048-4.7928l51.3708-21.4044c0.9884-0.41,2.1056-0.41,3.094,0.006
		c0.9884,0.418,1.7696,1.2128,2.164,2.2108C209.828,92.8848,212,104.2928,212,116s-2.172,23.1152-6.4493,33.9044
		C205.1563,150.9024,204.3751,151.6972,203.3867,152.1152z"/>
	<path d="M116,0C52.0391,0,0,52.0372,0,116s52.0391,116,116,116c63.9607,0,116-52.0372,116-116S179.9607,0,116,0z M116,224
		C56.4491,224,8,175.5508,8,116S56.4491,8,116,8c59.5507,0,108,48.4492,108,108S175.5507,224,116,224z"/>
	<path d="M130.7147,148.922c-0.7772-1.8732-2.832-2.8652-4.7928-2.3068c-6.4139,1.836-13.4259,1.836-19.8476,0
		c-1.9652-0.5664-4.016,0.4336-4.7932,2.3068l-21.4024,51.3708c-0.414,0.9904-0.41,2.1056,0.008,3.094
		c0.414,0.988,1.2108,1.7676,2.2068,2.164C92.8867,209.83,104.2927,212,116,212c11.7071,0,23.1131-2.17,33.9063-6.4492
		c0.996-0.3964,1.7928-1.176,2.2068-2.164c0.418-0.9884,0.422-2.1036,0.008-3.094L130.7147,148.922z M88.8671,199.5236
		l18.4844-44.3752c5.672,1.1328,11.6212,1.1308,17.2928,0.002l18.4884,44.3732
		C125.7263,205.4688,106.2735,205.4688,88.8671,199.5236z"/>
	<path d="M116,96c-11.0273,0-20,8.9728-20,20s8.9727,20,20,20c11.0271,0,20-8.9728,20-20S127.0271,96,116,96z M116,128
		c-6.6173,0-12-5.3828-12-12s5.3827-12,12-12c6.6171,0,12,5.3828,12,12S122.6171,128,116,128z"/>
	<path d="M101.2811,83.078c0.6328,1.5216,2.1132,2.4612,3.6916,2.4612c0.3633,0,0.7344-0.0488,1.1016-0.1544
		c6.4217-1.836,13.4337-1.836,19.8476,0c1.9532,0.5548,4.0116-0.4356,4.7928-2.3068l21.4064-51.3708
		c0.414-0.9904,0.41-2.1056-0.008-3.094c-0.414-0.9884-1.2108-1.7676-2.2068-2.164c-21.586-8.5584-46.2268-8.5584-67.8128,0
		c-0.996,0.3964-1.7928,1.1756-2.2068,2.164c-0.418,0.9884-0.422,2.1036-0.008,3.094L101.2811,83.078z M143.1327,32.4764
		l-18.4884,44.3732c-5.6716-1.1288-11.6208-1.1308-17.2928,0.002L88.8671,32.4764
		C106.2735,26.5312,125.7263,26.5312,143.1327,32.4764z"/>
	<path d="M205.5507,82.0956c-0.3944-0.998-1.1756-1.7928-2.164-2.2108c-0.9884-0.416-2.1056-0.416-3.094-0.006l-51.3708,21.4044
		c-1.8752,0.7792-2.8672,2.8416-2.3048,4.7928C147.5351,109.2812,148,112.6192,148,116s-0.4649,6.7188-1.3829,9.924
		c-0.5624,1.9508,0.4296,4.0136,2.3048,4.7928l51.3708,21.4044c0.4924,0.2068,1.0156,0.3084,1.5393,0.3084
		c0.5271,0,1.0587-0.1052,1.5547-0.3144c0.9884-0.418,1.7696-1.2128,2.164-2.2108C209.828,139.1152,212,127.7072,212,116
		S209.828,92.8848,205.5507,82.0956z M199.5235,143.1348l-44.3752-18.4884C155.7147,121.8144,156,118.918,156,116
		s-0.2853-5.8144-0.8517-8.6464l44.3752-18.4884C202.496,97.5704,204,106.6796,204,116S202.496,134.4296,199.5235,143.1348z"/>
	<path d="M85.3827,125.924C84.4647,122.7188,84,119.3808,84,116s0.4647-6.7188,1.3827-9.924
		c0.5624-1.9512-0.4296-4.0136-2.3048-4.7928L31.7071,79.8788c-0.9884-0.418-2.1056-0.412-3.094,0.006
		c-0.988,0.418-1.7696,1.2128-2.164,2.2108C22.172,92.8848,20,104.2928,20,116s2.172,23.1152,6.4491,33.9044
		c0.3944,0.998,1.176,1.7928,2.164,2.2108c0.496,0.2092,1.0276,0.3144,1.5549,0.3144c0.5235,0,1.0467-0.1036,1.5391-0.3084
		l51.3708-21.4044C84.9531,129.9376,85.9451,127.8748,85.3827,125.924z M76.8515,124.6464l-44.3752,18.4884
		C29.504,134.4296,28,125.3204,28,116s1.504-18.4296,4.4763-27.1348l44.3752,18.4884C76.2851,110.1856,76,113.082,76,116
		S76.2851,121.8144,76.8515,124.6464z"/>
</g>
</svg>
