<?xml version="1.0" encoding="utf-8"?>
<!-- Generator: Adobe Illustrator 19.2.0, SVG Export Plug-In . SVG Version: 6.00 Build 0)  -->
<svg version="1.1" id="rings" xmlns="http://www.w3.org/2000/svg" xmlns:xlink="http://www.w3.org/1999/xlink" x="0px" y="0px"
	 viewBox="0 0 224 208" enable-background="new 0 0 224 208" xml:space="preserve">
<path d="M203.9203,97.5729C203.9331,97.0453,204,96.5313,204,96c0-11.244-2.9373-21.8059-8.0509-30.9983
	C195.9543,64.6649,196,64.3381,196,64c0-35.2891-28.7109-64-64-64c-20.2913,0-38.3701,9.5217-50.104,24.2989
	C79.9515,24.12,77.9903,24,76,24c-35.2893,0-64,28.7109-64,64c0,4.4673,0.4675,8.8265,1.3427,13.0381
	C5.0123,111.8437,0,125.3329,0,140c0,35.2893,28.7107,64,64,64c16.1335,0,30.8499-6.048,42.1187-15.9351
	c3.386,1.238,6.8896,2.2111,10.5133,2.8644C128.0491,201.4877,143.2603,208,160,208c35.2891,0,64-28.7107,64-64
	C224,125.7185,216.2535,109.2465,203.9203,97.5729z M191.2219,118.5449c-1.0072-6.7536-3.0556-13.1564-6.0059-19.0524
	c0.8871-1.3256,1.7015-2.7016,2.4899-4.0944c2.8396,1.6256,5.5432,3.4608,8.044,5.5408
	C195.2031,107.1545,193.6395,113.0745,191.2219,118.5449z M120.2575,183.4009c-1.7184-1.7336-3.2844-3.6096-4.7664-5.5536
	c4.3249-5.8676,7.6969-12.4652,9.8268-19.614C130.0411,159.3485,134.9407,160,140,160c15.8195,0,30.2891-5.8007,41.4707-15.3463
	C174.3635,167.4253,153.0819,184,128,184C125.3663,184,122.7951,183.7541,120.2575,183.4009z M77.4447,151.9269
	c6.5544-0.1472,12.8616-1.2749,18.7916-3.2589c0.7632,10.4949,4.0624,20.272,9.2948,28.7649
	c-0.3831,0.4248-0.7576,0.8564-1.1536,1.2692C92.5787,173.1813,83.0339,163.6873,77.4447,151.9269z M76,64
	c0-11.5151,3.5003-22.2247,9.4827-31.1339c7.7988,1.3384,15.0596,4.2528,21.4076,8.4688
	c-13.424,8.1616-23.632,21.0731-28.2084,36.432c-0.3236-0.0768-0.6379-0.1768-0.9632-0.2484C76.6375,73.18,76,68.6685,76,64z
	 M129.6631,72.0845c1.3704,4.6108,2.1372,9.47,2.2644,14.4896c-6.8195,3.348-12.9584,7.8464-18.1532,13.284
	c-5.3896-6.6696-12.0772-12.24-19.692-16.3141C103.5083,76.3349,115.244,72,128,72C128.5615,72,129.1055,72.0677,129.6631,72.0845z
	 M139.7635,83.3317c-0.258-3.5448-0.8064-7.0016-1.6204-10.3648c6.7792,1.2472,13.1129,3.7296,18.8064,7.1876
	C150.9715,80.4385,145.2059,81.5109,139.7635,83.3317z M87.6223,89.2981c8.2608,3.8652,15.4116,9.6736,20.8864,16.8548
	c-1.5228,2.0656-2.9447,4.2052-4.2148,6.4492c-8.2124-4.7008-15.0984-11.4192-20.0332-19.4776
	C85.3223,91.796,86.4467,90.524,87.6223,89.2981z M113.2163,113.3045c0.7264,1.3344,1.3696,2.718,1.988,4.1144
	c-1.2496-0.3936-2.4616-0.8688-3.6716-1.3464C112.0743,115.1365,112.6231,114.2053,113.2163,113.3045z M116.9011,126.1261
	c-3.5956,3.8548-7.72,7.1904-12.268,9.912c0.6356-4.4352,1.7676-8.7056,3.382-12.7444
	C110.8775,124.4557,113.8515,125.3845,116.9011,126.1261z M118.4687,106.5673c3.7408-4.1464,8.0804-7.7224,12.898-10.6052
	c-1.1012,7.6819-3.7552,14.8512-7.6516,21.2024C122.2895,113.4505,120.5295,109.9129,118.4687,106.5673z M100.78,119.8145
	c-1.5937,3.8872-2.8073,7.9636-3.6125,12.1868c-5.8408-6.9376-10.0372-15.2968-11.966-24.4896
	C89.7215,112.3697,94.9547,116.5429,100.78,119.8145z M109.1095,142.6653c3.8192-2.322,7.3752-5.0184,10.6172-8.062
	C119.8975,136.3809,120,138.1785,120,140c0,2.7261-0.2625,5.3861-0.6405,8.0093
	C115.7463,146.5701,112.3087,144.7901,109.1095,142.6653z M117.6675,155.8997c-1.574,5.3024-3.9072,10.2744-6.884,14.796
	c-3.5588-6.5357-5.8264-13.8612-6.5272-21.6324C108.3979,151.8625,112.9163,154.1217,117.6675,155.8997z M139.8059,91.8273
	C146.0803,89.3897,152.8743,88,160,88c2.6335,0,5.2047,0.2461,7.7423,0.5993c3.0588,3.0852,5.7164,6.5524,7.9968,10.2764
	C165.4695,111.7293,149.6939,120,132,120c-0.216,0-0.4245-0.0299-0.64-0.0323C136.2151,111.5929,139.1979,102.0345,139.8059,91.8273
	z M171.368,81.0709c-9.6929-8.964-22.1197-14.9872-35.9064-16.598c-3.184-8.0169-7.9112-15.2516-13.862-21.3032
	C127.3723,41.1525,133.5475,40,140,40c20.2767,0,38.0167,10.8685,47.8455,27.0505c-0.3368,6.2055-1.6575,12.1448-3.8608,17.656
	C179.9651,83.0745,175.7427,81.8597,171.368,81.0709z M126.5551,64.0733c-15.2511,0.3427-29.1888,6.0216-40.026,15.2732
	c4.4044-14.1124,14.2596-25.8324,27.0832-32.7145C118.9895,51.5257,123.4,57.4345,126.5551,64.0733z M74.784,92.5073
	C67.9819,102.6729,64,114.8777,64,128c0,5.1853,0.6871,10.2021,1.8567,15.0333c-21.1112-3.8836-38.0756-19.6248-43.762-40.0548
	C32.3627,91.3701,47.32,84,64,84c2.5315,0,5.0051,0.2277,7.4483,0.5545C72.3819,87.296,73.5023,89.9461,74.784,92.5073z M72,128
	c0-8.0223,1.7263-15.6391,4.7779-22.5447c2.0388,13.6704,8.3564,25.9516,17.6224,35.3752C88.6275,142.8477,82.4523,144,76,144
	c-0.5617,0-1.1057-0.0675-1.6633-0.0843C72.836,138.8657,72,133.5313,72,128z M140,152c-4.456,0-8.7701-0.5783-12.9277-1.5663
	C127.6339,147.0297,128,143.5605,128,140c0-4.1963-0.4333-8.2907-1.208-12.264c1.7223,0.1397,3.4499,0.264,5.208,0.264
	c18.9611,0,35.9711-8.3363,47.7007-21.4807C182.4615,113.1389,184,120.3913,184,128c0,0.9149-0.0937,1.8061-0.1373,2.7105
	C173.5963,143.6565,157.768,152,140,152z M195.7435,90.9369c-1.46-0.9868-2.9816-1.8852-4.5235-2.7512
	c1.0195-2.4868,1.8443-5.0657,2.5475-7.6964C194.7407,83.856,195.4195,87.3437,195.7435,90.9369z M132,8
	c26.9327,0,49.4739,19.1149,54.7983,44.4885C175.1047,39.92,158.4795,32,140,32c-8.9565,0-17.4805,1.8645-25.2273,5.2013
	c-6.9256-5.2988-14.944-9.2036-23.674-11.3272C101.328,14.9077,115.8555,8,132,8z M76,32c0.216,0,0.4243,0.0301,0.64,0.0325
	C71.1787,41.452,68,52.3509,68,64c0,4.1965,0.4331,8.2909,1.208,12.264C67.4855,76.1245,65.7579,76,64,76
	c-16.9141,0-32.2725,6.6429-43.7269,17.3969C20.1023,91.6193,20,89.8217,20,88C20,57.1213,45.1211,32,76,32z M64,196
	c-30.8789,0-56-25.1211-56-56c0-10.6915,3.0655-20.6571,8.2851-29.1643c8.3672,21.8,28.2836,37.8908,52.2536,40.6916
	c5.6124,14.1316,16.0804,25.814,29.3788,32.9287C88.4915,191.6653,76.756,196,64,196z M160,200
	c-10.6021,0-20.4889-3.0151-28.9497-8.1543c32.0188-1.5204,57.932-26.6112,60.6688-58.3028
	c5.4392-7.4716,9.3188-16.1309,11.1132-25.544C211.0351,117.7421,216,130.2965,216,144C216,174.8789,190.8787,200,160,200z"/>
</svg>
