<?xml version="1.0" encoding="utf-8"?>
<!-- Generator: Adobe Illustrator 19.2.0, SVG Export Plug-In . SVG Version: 6.00 Build 0)  -->
<svg version="1.1" id="savethedate" xmlns="http://www.w3.org/2000/svg" xmlns:xlink="http://www.w3.org/1999/xlink" x="0px"
	 y="0px" viewBox="0 0 200 184" enable-background="new 0 0 200 184" xml:space="preserve">
<g>
	<path d="M183.9904,16H160c-2.2088,0-4,1.7893-4,4v3.992C156,32.8205,148.8224,40,140,40s-16-7.1795-16-16.008V20
		c0-2.2107-1.7912-4-4-4H80c-2.2088,0-4,1.7893-4,4v3.992C76,32.8205,68.8224,40,60,40s-16-7.1795-16-16.008V20
		c0-2.2107-1.7912-4-4-4H16.0096C7.1816,16,0,23.1917,0,32.0273v135.9456C0,176.8085,7.1816,184,16.0096,184h167.9808
		c8.828,0,16.0096-7.1915,16.0096-16.0271V32.0273C200,23.1917,192.8184,16,183.9904,16z M192,167.9729
		c0,4.4256-3.5936,8.0271-8.0096,8.0271H16.0096C11.5936,176,8,172.3985,8,167.9729V32.0273C8,27.6017,11.5936,24,16.0096,24H36
		c0.004,13.2345,10.7696,24,24,24s23.996-10.7655,24-24h32c0.004,13.2345,10.7696,24,24,24s23.996-10.7655,24-24h19.9904
		c4.416,0,8.0096,3.6017,8.0096,8.0273V167.9729z"/>
	<path d="M60,36c6.6172,0,12-5.3943,12-12.0235V12.0237C72,5.3945,66.6172,0,60,0S48,5.3945,48,12.0237v11.9528
		C48,30.6057,53.3828,36,60,36z M56,12.0237C56,9.8049,57.7948,8,60,8c2.242,0,4,1.7657,4,4.0237v11.9528
		C64,26.1953,62.2052,28,60,28c-2.242,0-4-1.7655-4-4.0235V12.0237z"/>
	<path d="M140,36c6.6172,0,12-5.3943,12-12.0235V12.0237C152,5.3945,146.6172,0,140,0s-12,5.3945-12,12.0237v11.9528
		C128,30.6057,133.3828,36,140,36z M136,12.0237C136,9.8049,137.7948,8,140,8c2.242,0,4,1.7657,4,4.0237v11.9528
		C144,26.1953,142.2052,28,140,28c-2.242,0-4-1.7655-4-4.0235V12.0237z"/>
	<path d="M180,56H20c-2.2088,0-4,1.7893-4,4v108c0,2.2109,1.7912,4,4,4h160c2.2088,0,4-1.7891,4-4V60
		C184,57.7893,182.2088,56,180,56z M176,164H24V64h152V164z"/>
	<path d="M97.7404,148.8673c0.5368,0.25,1.1152,0.3748,1.6932,0.3748c0.5548,0,1.1076-0.1132,1.6248-0.3436
		c1.0316-0.4608,25.2872-11.3985,31.348-27.1836c2.9764-7.754,3.6016-15.9296,1.7636-23.0232
		c-1.9648-7.5744-6.4748-13.0628-12.7012-15.4532c-6.9708-2.668-15.004-0.9612-21.9572,4.5624
		c-4.8708-2.6132-14.6152-7.0196-20.9804-4.5624c-6.2264,2.3904-10.7364,7.8788-12.7012,15.4532
		c-1.838,7.0936-1.2128,15.2691,1.7636,23.0232C73.6388,137.4609,96.7596,148.4065,97.7404,148.8673z M73.5744,100.6993
		c1.2988-5.004,4.076-8.5548,7.824-9.992c0.4044-0.1564,0.9044-0.2268,1.4824-0.2268c3.756,0,10.7304,3.0115,15.0508,5.6172
		c1.5468,0.9336,3.5216,0.7188,4.8264-0.5232c5.1344-4.8868,11.0564-6.7112,15.8436-4.8672c3.748,1.4372,6.5252,4.988,7.824,9.992
		c1.424,5.4924,0.8948,11.9376-1.488,18.1484c-3.7168,9.6796-18.3184,18.4572-25.4456,21.9492
		c-5.0604-2.6369-20.3512-11.324-24.4296-21.9492C72.6796,112.6369,72.1504,106.1917,73.5744,100.6993z"/>
</g>
</svg>
