<?xml version="1.0" encoding="utf-8"?>
<!-- Generator: Adobe Illustrator 19.2.0, SVG Export Plug-In . SVG Version: 6.00 Build 0)  -->
<svg version="1.1" id="screws" xmlns="http://www.w3.org/2000/svg" xmlns:xlink="http://www.w3.org/1999/xlink" x="0px" y="0px"
	 viewBox="0 0 204.0002 200.1057" enable-background="new 0 0 204.0002 200.1057" xml:space="preserve">
<g>
	<path d="M117.5469,122.2073c-0.6796-1.3516-2.0624-2.2073-3.578-2.2073H70.0313c-1.5156,0-2.8984,0.8557-3.578,2.2073l-18.0312,36
		c-0.5628,1.1287-0.5628,2.4527,0,3.582l18.0312,36.1052c0.6756,1.3556,2.0624,2.2112,3.578,2.2112h43.9376
		c1.5156,0,2.9024-0.8556,3.578-2.2112l18.0312-36.1052c0.5628-1.1293,0.5628-2.4533,0-3.582L117.5469,122.2073z M111.4962,192.1057
		h-38.992L56.4729,160.004L72.5002,128h39l16.0271,32.004L111.4962,192.1057z"/>
	<path d="M92.0002,140c-11.0273,0-20,8.9729-20,20c0,11.0273,8.9727,20,20,20c11.0271,0,20-8.9727,20-20
		C112.0002,148.9729,103.0273,140,92.0002,140z M92.0002,172c-6.6173,0-12-5.3827-12-12c0-6.6171,5.3827-12,12-12
		c6.6171,0,12,5.3829,12,12C104.0002,166.6173,98.6173,172,92.0002,172z"/>
	<path d="M203.5781,70.2073l-18.0312-36C184.8673,32.8557,183.4845,32,181.9689,32h-43.9376c-1.5156,0-2.8984,0.8557-3.578,2.2073
		l-18.0312,36c-0.5628,1.1287-0.5628,2.4527,0,3.582l18.0312,36.1052c0.6756,1.3556,2.0624,2.2112,3.578,2.2112h43.9376
		c1.5156,0,2.9024-0.8556,3.578-2.2112l18.0312-36.1052C204.1409,72.66,204.1409,71.336,203.5781,70.2073z M179.4962,104.1057
		h-38.992L124.4729,72.004L140.5002,40h39l16.0271,32.004L179.4962,104.1057z"/>
	<path d="M160.0002,52c-11.0273,0-20,8.9729-20,20c0,11.0273,8.9727,20,20,20c11.0271,0,20-8.9727,20-20
		C180.0002,60.9729,171.0273,52,160.0002,52z M160.0002,84c-6.6173,0-12-5.3827-12-12c0-6.6171,5.3827-12,12-12
		c6.6171,0,12,5.3829,12,12C172.0002,78.6173,166.6173,84,160.0002,84z"/>
	<path d="M69.5469,77.8945l18.0312-36.1052c0.5628-1.1293,0.5628-2.4533,0-3.582l-18.0312-36C68.8673,0.8557,67.4845,0,65.9689,0
		H22.0313c-1.5156,0-2.8984,0.8557-3.578,2.2073l-18.0312,36c-0.5628,1.1287-0.5628,2.4527,0,3.582l18.0312,36.1052
		c0.6756,1.3556,2.0624,2.2112,3.578,2.2112h43.9376C67.4845,80.1057,68.8713,79.2501,69.5469,77.8945z M24.5042,72.1057
		L8.4729,40.004L24.5002,8h39l16.0271,32.004L63.4962,72.1057H24.5042z"/>
	<path d="M44.0002,20c-11.0273,0-20,8.9729-20,20c0,11.0273,8.9727,20,20,20c11.0271,0,20-8.9727,20-20
		C64.0002,28.9729,55.0273,20,44.0002,20z M44.0002,52c-6.6173,0-12-5.3827-12-12c0-6.6171,5.3827-12,12-12
		c6.6171,0,12,5.3829,12,12C56.0002,46.6173,50.6173,52,44.0002,52z"/>
</g>
</svg>
