<?xml version="1.0" encoding="utf-8"?>
<!-- Generator: Adobe Illustrator 19.2.0, SVG Export Plug-In . SVG Version: 6.00 Build 0)  -->
<svg version="1.1" id="search" xmlns="http://www.w3.org/2000/svg" xmlns:xlink="http://www.w3.org/1999/xlink" x="0px" y="0px"
	 viewBox="0 0 191.6952 191.6952" enable-background="new 0 0 191.6952 191.6952" xml:space="preserve">
<g>
	<path fill="none" d="M152,80c0-39.6992-32.2988-72-72-72S8,40.3008,8,80s32.2988,72,72,72S152,119.6992,152,80z M80,24
		c-30.8788,0-56,25.1212-56,56c0,2.2108-1.7912,4-4,4s-4-1.7892-4-4c0-35.2892,28.7108-64,64-64c2.2088,0,4,1.7892,4,4
		S82.2088,24,80,24z"/>
	<path d="M80,16c-35.2892,0-64,28.7108-64,64c0,2.2108,1.7912,4,4,4s4-1.7892,4-4c0-30.8788,25.1212-56,56-56c2.2088,0,4-1.7892,4-4
		S82.2088,16,80,16z"/>
	<path d="M191.6952,186.0392l-52.4596-52.46C152.0924,119.3792,160,100.6192,160,80c0-44.1132-35.8888-80-80-80S0,35.8868,0,80
		s35.8888,80,80,80c20.6188,0,39.3788-7.9076,53.5792-20.7644l52.46,52.4596L191.6952,186.0392z M8,80C8,40.3008,40.2988,8,80,8
		s72,32.3008,72,72s-32.2988,72-72,72S8,119.6992,8,80z"/>
</g>
</svg>
