<?xml version="1.0" encoding="utf-8"?>
<!-- Generator: Adobe Illustrator 19.2.0, SVG Export Plug-In . SVG Version: 6.00 Build 0)  -->
<svg version="1.1" id="settingsoptions" xmlns="http://www.w3.org/2000/svg" xmlns:xlink="http://www.w3.org/1999/xlink" x="0px"
	 y="0px" viewBox="0 0 227.6166 213.6383" enable-background="new 0 0 227.6166 213.6383" xml:space="preserve">
<g>
	<path fill="none" d="M77.7107,42.5659c-1.0896-0.7908-2.3552-1.1736-3.6092-1.1736c-1.9064,0-3.7852,0.8788-4.9884,2.5352
		c-0.9648,1.33-1.3552,2.9568-1.0976,4.58c0.254,1.6228,1.1288,3.0488,2.4608,4.0156c2.75,1.996,6.6056,1.3788,8.598-1.3632
		C81.0663,48.4135,80.4531,44.5583,77.7107,42.5659z"/>
	<path fill="none" d="M100.0115,153.6383h-4.8124c-1.9024,0-3.5428-1.34-3.922-3.2052c-0.914-4.5232-2.6796-8.7772-5.242-12.6444
		c-1.0508-1.586-0.836-3.6916,0.5076-5.0372l3.4064-3.406c1.5549-1.5548,1.5509-4.09-0.0076-5.6488
		c-0.762-0.7636-1.766-1.1816-2.8284-1.1816c-0.004,0-0.004,0-0.004,0c-1.0584,0-2.0584,0.416-2.8124,1.172l-3.41,3.4084
		c-1.3476,1.3456-3.4572,1.5564-5.0352,0.5036c-3.8672-2.5584-8.1212-4.322-12.6444-5.24C61.34,121.9819,60,120.3415,60,118.4391
		v-4.8124c0-2.1992-1.7929-3.9884-4-3.9884c-2.2421,0-4,1.752-4,3.9884v4.8124c0,1.9024-1.34,3.5428-3.2073,3.92
		c-4.5232,0.918-8.7772,2.6816-12.6444,5.24c-1.578,1.0528-3.6876,0.842-5.0352-0.5036l-3.406-3.4044
		c-1.5628-1.5624-4.094-1.5528-5.6488,0.0056c-0.7616,0.764-1.1832,1.7696-1.1796,2.8324c0,1.0604,0.414,2.0604,1.172,2.8144
		l3.4024,3.41c1.3436,1.3436,1.5549,3.4492,0.5076,5.0332c-2.5584,3.8692-4.324,8.1252-5.238,12.6464
		c-0.3792,1.8652-2.0196,3.2052-3.922,3.2052h-4.8124c-2.1992,0-3.9883,1.7948-3.9883,4s1.7891,4,3.9883,4h4.8124
		c1.9024,0,3.5428,1.34,3.922,3.2052c0.914,4.5212,2.6796,8.7772,5.238,12.6464c1.0473,1.584,0.836,3.6896-0.5076,5.0332
		l-3.4024,3.4064c-1.5547,1.5564-1.5507,4.0916,0.0076,5.6504c0.762,0.7636,1.766,1.1816,2.8284,1.1816c0,0,0,0,0.004,0
		c1.0584,0,2.0584-0.418,2.8164-1.174l3.406-3.4064c0.7736-0.7712,1.7968-1.1696,2.8284-1.1696c0.7656,0,1.5348,0.2184,2.2068,0.666
		c3.8672,2.5584,8.1212,4.322,12.6444,5.24C50.66,193.2947,52,194.9351,52,196.8375v4.8124c0,2.1992,1.7927,3.9884,4,3.9884
		c2.2419,0,4-1.752,4-3.9884v-4.8124c0-1.9024,1.34-3.5428,3.2071-3.92c4.5232-0.918,8.7772-2.6816,12.6444-5.24
		c1.578-1.0488,3.6876-0.84,5.0352,0.5036l3.406,3.4044c1.5588,1.5608,4.09,1.5508,5.6488-0.0056
		c0.7616-0.764,1.1836-1.7696,1.1796-2.8324c0-1.0604-0.414-2.0604-1.172-2.8144l-3.4064-3.408
		c-1.3436-1.3456-1.5584-3.4512-0.5076-5.0372c2.5624-3.8672,4.328-8.1212,5.242-12.6444c0.3792-1.8652,2.0196-3.2052,3.922-3.2052
		h4.8124c2.1992,0,3.9885-1.7948,3.9885-4S102.2107,153.6383,100.0115,153.6383z M56,173.6383c-8.8245,0-16-7.1776-16-16
		s7.1755-16,16-16c8.8243,0,16,7.1776,16,16S64.8243,173.6383,56,173.6383z"/>
	<path fill="none" d="M56,149.6383c-4.4101,0-8,3.588-8,8s3.5899,8,8,8c4.4099,0,8-3.588,8-8S60.4099,149.6383,56,149.6383z"/>
	<path fill="none" d="M103.9139,48.8687c0.0821-1.9024,1.4924-3.4824,3.3712-3.7792l4.0232-0.6368
		c0.7268-0.1152,1.3637-0.5076,1.7972-1.1036c0.4336-0.5996,0.6092-1.33,0.496-2.0604c-0.2424-1.5372-1.6288-2.5704-3.16-2.3048
		l-4.0236,0.6368c-1.8436,0.3028-3.7032-0.7656-4.3712-2.5508c-1.3476-3.5996-3.3396-6.8556-5.9296-9.6776
		c-1.2851-1.4004-1.4064-3.5136-0.2891-5.0528l2.3907-3.2948c0.4336-0.598,0.6093-1.3244,0.496-2.0508
		c-0.1172-0.7324-0.5116-1.3752-1.1092-1.8108c-0.6055-0.4392-1.3284-0.6248-2.0664-0.5036
		c-0.7228,0.1152-1.3596,0.5076-1.7932,1.1052l-2.3984,3.2968c-1.1172,1.5412-3.16,2.0804-4.8944,1.2872
		c-3.4844-1.5896-7.1992-2.4784-11.0352-2.6444c-1.9024-0.082-3.4804-1.4924-3.7772-3.3712l-0.6367-4.0252
		c-0.2425-1.498-1.6605-2.5452-3.168-2.2912c-0.7385,0.1172-1.3829,0.51-1.8165,1.1056c-0.4296,0.5916-0.6016,1.3204-0.4884,2.0488
		l0.6369,4.0292c0.3007,1.8788-0.7697,3.7072-2.5509,4.3732c-3.5936,1.3416-6.8516,3.336-9.6756,5.9256
		c-1.4024,1.2892-3.516,1.4104-5.0548,0.2892l-3.2968-2.3948c-1.2188-0.8864-2.9612-0.6168-3.8596,0.6212
		c-0.4376,0.6036-0.6172,1.336-0.504,2.0624c0.1172,0.7228,0.508,1.3616,1.1097,1.7972l3.2967,2.3944
		c1.5393,1.1192,2.078,3.168,1.2852,4.8984c-1.5899,3.4804-2.4804,7.1916-2.6444,11.0312c-0.082,1.9024-1.4924,3.4824-3.3712,3.7792
		l-4.0272,0.6368c-1.5,0.2384-2.5276,1.6604-2.2892,3.17c0.2384,1.5292,1.6132,2.5568,3.156,2.3008l4.0276-0.6388
		c1.8672-0.2868,3.7068,0.7696,4.3712,2.5548c1.3396,3.592,3.3356,6.8476,5.9296,9.6756c1.2852,1.4024,1.406,3.516,0.2852,5.0548
		l-2.3948,3.2932c-0.8904,1.2304-0.6132,2.9628,0.6212,3.8592c1.2616,0.914,2.9532,0.6484,3.8632-0.6036l2.3949-3.2948
		c0.7691-1.0624,1.988-1.6484,3.2343-1.6484c0.5584,0,1.1248,0.1172,1.66,0.3612c3.4844,1.588,7.1952,2.4784,11.0352,2.6464
		c1.8985,0.082,3.4764,1.4904,3.7732,3.3672l0.6408,4.0236c0.1172,0.7304,0.508,1.3692,1.1056,1.8028
		c0.5936,0.4316,1.3164,0.6112,2.0624,0.492c1.5312-0.242,2.5428-1.6308,2.3048-3.16l-0.6368-4.0216
		c-0.2968-1.8768,0.7656-3.7052,2.5468-4.3712c3.6017-1.3476,6.8592-3.3416,9.6796-5.9276
		c1.4064-1.2892,3.5236-1.4044,5.0548-0.2892l3.2928,2.3928c0.59,0.4296,1.3244,0.5956,2.0472,0.492
		c0.7344-0.1172,1.3748-0.5096,1.8084-1.1092c0.4416-0.6076,0.6212-1.34,0.508-2.0664c-0.1171-0.7228-0.512-1.3612-1.1096-1.7988
		l-3.2928-2.3908c-1.5392-1.1172-2.0784-3.164-1.2892-4.8944C102.8591,56.4135,103.7499,52.6987,103.9139,48.8687z M85.5467,55.8611
		l-0.004,0.002c-2.7656,3.8064-7.0896,5.83-11.4684,5.83c-2.8868,0-5.7932-0.8772-8.3008-2.6972
		c-3.0588-2.2228-5.0704-5.504-5.6604-9.2384c-0.5896-3.7324,0.3088-7.4748,2.5312-10.5332
		c4.582-6.3108,13.4492-7.7208,19.7696-3.1308C88.7263,40.6795,90.1287,49.5467,85.5467,55.8611z"/>
	<path fill="none" d="M174.7227,105.6655c-1.3596-0.8164-2.8792-1.2344-4.422-1.2344c-0.6992,0-1.4064,0.086-2.1016,0.26
		c-2.2384,0.5584-4.1212,1.9532-5.3084,3.9276c-1.1836,1.9748-1.5316,4.2912-0.9728,6.5256
		c1.1524,4.6152,5.8436,7.4356,10.4492,6.2832c2.2384-0.5588,4.1212-1.9532,5.3084-3.926c1.1876-1.9744,1.5316-4.2928,0.9728-6.5272
		C178.0935,108.7379,176.6991,106.8531,174.7227,105.6655z"/>
	<path fill="none" d="M219.4803,100.7947c-0.5976-2.4064-2.9412-3.8088-5.3396-3.2208l-4.9104,1.2244
		c-1.8516,0.4592-3.7576-0.4412-4.578-2.16c-2.1056-4.412-5.004-8.328-8.6212-11.6408c-1.4024-1.2848-1.7068-3.3788-0.7264-5.0096
		l2.6092-4.3416c0.6056-1.006,0.7812-2.1896,0.496-3.3324c-0.2888-1.1444-1-2.1072-2.0116-2.7148
		c-1.0196-0.6132-2.2108-0.7948-3.3516-0.5116c-1.1368,0.2832-2.0976,0.998-2.7032,2.0096l-2.6092,4.344
		c-0.9844,1.6308-2.9764,2.3476-4.7656,1.7088c-4.6132-1.6368-9.426-2.3652-14.3204-2.1444
		c-1.8748,0.0448-3.5976-1.1836-4.0584-3.0292l-1.2228-4.9124c-0.586-2.3532-2.9884-3.7968-5.3476-3.2028
		c-2.3632,0.5896-3.8124,2.986-3.2228,5.3416l1.2228,4.9104c0.4648,1.8456-0.4416,3.7616-2.1604,4.58
		c-4.406,2.0996-8.324,4.998-11.6364,8.6152c-1.2852,1.4044-3.3752,1.7108-5.008,0.7284l-4.3436-2.6072
		c-1.004-0.6016-2.1876-0.7832-3.332-0.4964c-1.1484,0.2852-2.1136,1-2.7188,2.012c-0.6132,1.0192-0.7968,2.2088-0.512,3.3476
		c0.2852,1.1368,1,2.0976,2.012,2.7048l4.3437,2.6096c1.6327,0.9804,2.3475,2.9744,1.7111,4.7696
		c-1.6408,4.6132-2.3596,9.4296-2.1448,14.3164c0.086,1.8984-1.1836,3.5956-3.0272,4.0564l-4.914,1.2268
		c-1.1408,0.2852-2.1016,0.996-2.7072,2.0056c-0.6056,1.01-0.7852,2.1976-0.496,3.342c0.5936,2.4004,2.9256,3.8204,5.3436,3.2228
		l4.9065-1.2268c1.8671-0.4568,3.7615,0.4432,4.5779,2.16c2.1056,4.4124,5.004,8.3284,8.6212,11.6408
		c1.4024,1.2852,1.7068,3.3788,0.7264,5.0096l-2.6092,4.342c-0.6056,1.006-0.7812,2.1896-0.496,3.332
		c0.2888,1.1444,1,2.1076,2.0117,2.7148c1.0271,0.6152,2.2187,0.8008,3.3515,0.5116c1.1368-0.2832,2.0976-0.998,2.7032-2.0096
		l2.6053-4.34c0.9803-1.6344,2.9803-2.3476,4.7655-1.7128c4.6212,1.6368,9.4456,2.3672,14.3244,2.1448
		c0.0584-0.002,0.1172-0.004,0.1756-0.004c1.8284,0,3.4336,1.244,3.8828,3.0312l1.2228,4.912c0.2852,1.1408,1,2.1016,2.008,2.7072
		c1.0116,0.6072,2.2028,0.7872,3.3396,0.498c1.1564-0.2892,2.1253-1.002,2.7304-2.008c0.6016-1.0036,0.7776-2.1856,0.4924-3.332
		l-1.2268-4.914c-0.4568-1.8456,0.4456-3.7596,2.1644-4.578c4.406-2.0996,8.324-4.998,11.6364-8.6152
		c1.2892-1.4024,3.3828-1.7032,5.008-0.7288l4.3436,2.6096c1.008,0.6072,2.1836,0.7832,3.332,0.494
		c1.1449-0.2852,2.1096-1,2.7148-2.0096c0.6172-1.0236,0.7972-2.2128,0.512-3.3516c-0.2812-1.1348-0.996-2.0956-2.008-2.7032
		l-4.3436-2.6076c-1.6328-0.9804-2.3476-2.9744-1.7108-4.7672c1.6405-4.6156,2.3592-9.4336,2.1445-14.3204
		c-0.0861-1.9004,1.1835-3.5976,3.0271-4.0568l4.914-1.2244C218.6327,105.5563,220.0703,103.1559,219.4803,100.7947z
		 M174.3047,129.1891c-1.344,0.336-2.6956,0.496-4.0196,0.496c-7.4531,0-14.246-5.0548-16.1328-12.6036
		c-1.0744-4.3084-0.4064-8.7772,1.8828-12.584c2.2852-3.8064,5.918-6.494,10.2264-7.568c4.3164-1.0784,8.7852-0.4044,12.582,1.8808
		c3.8048,2.2868,6.4925,5.918,7.5704,10.2264C188.6287,117.9311,183.1991,126.9703,174.3047,129.1891z"/>
	<path d="M56,141.6383c-8.8245,0-16,7.1776-16,16s7.1755,16,16,16c8.8243,0,16-7.1776,16-16S64.8243,141.6383,56,141.6383z
		 M56,165.6383c-4.4101,0-8-3.588-8-8s3.5899-8,8-8c4.4099,0,8,3.588,8,8S60.4099,165.6383,56,165.6383z"/>
	<path d="M100.0115,145.6383h-1.668c-0.9296-3.2968-2.242-6.4588-3.9216-9.4552l1.1836-1.1816
		c4.6756-4.6736,4.6716-12.2832-0.008-16.9608c-2.2732-2.2736-5.2852-3.5256-8.4844-3.5256c-0.004,0-0.0076,0-0.0076,0
		c-3.1992,0.002-6.2072,1.252-8.4688,3.5156l-1.1836,1.1836c-2.9924-1.6776-6.1564-2.99-9.4531-3.9196v-1.668
		c0-6.6116-5.3829-11.9884-12-11.9884c-6.6173,0-12,5.3768-12,11.9884v1.668c-3.2969,0.9296-6.4609,2.242-9.4533,3.9196
		l-1.1836-1.1816c-4.6756-4.6736-12.2852-4.6696-16.9608,0.008c-2.2736,2.2752-3.5272,5.2928-3.5236,8.492
		c0,3.1972,1.25,6.2052,3.5156,8.4668l1.18,1.1836c-1.676,2.9964-2.9884,6.1604-3.918,9.4552h-1.668
		c-6.6096,0-11.9883,5.3828-11.9883,12s5.3787,12,11.9883,12h1.668c0.9296,3.2948,2.242,6.4588,3.918,9.4552l-1.18,1.1816
		c-4.6756,4.6736-4.6716,12.2832,0.008,16.9608c2.2732,2.2736,5.2852,3.5256,8.4844,3.5256c0.004,0,0.004,0,0.0076,0
		c3.1956-0.002,6.2032-1.25,8.4688-3.5156l1.1836-1.1836c2.9924,1.6776,6.1564,2.99,9.4533,3.9196v1.668
		c0,6.6116,5.3827,11.9884,12,11.9884c6.6171,0,12-5.3768,12-11.9884v-1.668c3.2967-0.9296,6.4607-2.242,9.4531-3.9196
		l1.1836,1.1816c4.6756,4.6756,12.2852,4.668,16.9608-0.008c2.2736-2.2752,3.5276-5.2928,3.5236-8.492
		c0-3.1972-1.25-6.2052-3.5156-8.4688l-1.1836-1.1816c1.6796-2.9964,2.992-6.1584,3.9216-9.4552h1.668
		c6.6096,0,11.9885-5.3828,11.9885-12S106.6211,145.6383,100.0115,145.6383z M100.0115,161.6383h-4.8124
		c-1.9024,0-3.5428,1.34-3.922,3.2052c-0.914,4.5232-2.6796,8.7772-5.242,12.6444c-1.0508,1.586-0.836,3.6916,0.5076,5.0372
		l3.4064,3.408c0.758,0.754,1.172,1.754,1.172,2.8144c0.004,1.0628-0.418,2.0684-1.1796,2.8324
		c-1.5588,1.5564-4.09,1.5664-5.6488,0.0056l-3.406-3.4044c-1.3476-1.3436-3.4572-1.5524-5.0352-0.5036
		c-3.8672,2.5584-8.1212,4.322-12.6444,5.24C61.34,193.2947,60,194.9351,60,196.8375v4.8124c0,2.2364-1.7581,3.9884-4,3.9884
		c-2.2073,0-4-1.7892-4-3.9884v-4.8124c0-1.9024-1.34-3.5428-3.2073-3.92c-4.5232-0.918-8.7772-2.6816-12.6444-5.24
		c-0.672-0.4476-1.4412-0.666-2.2068-0.666c-1.0316,0-2.0548,0.3984-2.8284,1.1696l-3.406,3.4064
		c-0.758,0.756-1.758,1.174-2.8164,1.174c-0.004,0-0.004,0-0.004,0c-1.0624,0-2.0664-0.418-2.8284-1.1816
		c-1.5583-1.5588-1.5623-4.094-0.0076-5.6504l3.4024-3.4064c1.3436-1.3436,1.5549-3.4492,0.5076-5.0332
		c-2.5584-3.8692-4.324-8.1252-5.238-12.6464c-0.3792-1.8652-2.0196-3.2052-3.922-3.2052h-4.8124c-2.1992,0-3.9883-1.7948-3.9883-4
		s1.7891-4,3.9883-4h4.8124c1.9024,0,3.5428-1.34,3.922-3.2052c0.914-4.5212,2.6796-8.7772,5.238-12.6464
		c1.0473-1.584,0.836-3.6896-0.5076-5.0332l-3.4024-3.41c-0.758-0.754-1.172-1.754-1.172-2.8144
		c-0.0036-1.0628,0.418-2.0684,1.1796-2.8324c1.5548-1.5584,4.086-1.568,5.6488-0.0056l3.406,3.4044
		c1.3476,1.3456,3.4572,1.5564,5.0352,0.5036c3.8672-2.5584,8.1212-4.322,12.6444-5.24C50.66,121.9819,52,120.3415,52,118.4391
		v-4.8124c0-2.2364,1.7579-3.9884,4-3.9884c2.2071,0,4,1.7892,4,3.9884v4.8124c0,1.9024,1.34,3.5428,3.2071,3.92
		c4.5232,0.918,8.7772,2.6816,12.6444,5.24c1.578,1.0528,3.6876,0.842,5.0352-0.5036l3.41-3.4084
		c0.754-0.756,1.754-1.172,2.8124-1.172c0,0,0,0,0.004,0c1.0624,0,2.0664,0.418,2.8284,1.1816
		c1.5585,1.5588,1.5625,4.094,0.0076,5.6488l-3.4064,3.406c-1.3436,1.3456-1.5584,3.4512-0.5076,5.0372
		c2.5624,3.8672,4.328,8.1212,5.242,12.6444c0.3792,1.8652,2.0196,3.2052,3.922,3.2052h4.8124c2.1992,0,3.9885,1.7948,3.9885,4
		S102.2107,161.6383,100.0115,161.6383z"/>
	<path d="M178.8435,98.8103c-3.7968-2.2852-8.2656-2.9592-12.582-1.8808c-4.3084,1.074-7.9412,3.7616-10.2264,7.568
		c-2.2892,3.8068-2.9572,8.2756-1.8828,12.584c1.8868,7.5488,8.6797,12.6036,16.1328,12.6036c1.324,0,2.6756-0.16,4.0196-0.496
		c8.8944-2.2188,14.324-11.258,12.1092-20.1524C185.336,104.7283,182.6483,101.0971,178.8435,98.8103z M177.6755,117.5015
		c-1.1872,1.9728-3.07,3.3672-5.3084,3.926c-4.6056,1.1524-9.2968-1.668-10.4492-6.2832c-0.5588-2.2344-0.2108-4.5508,0.9728-6.5256
		c1.1872-1.9744,3.07-3.3692,5.3084-3.9276c0.6952-0.174,1.4024-0.26,2.1016-0.26c1.5428,0,3.0624,0.418,4.422,1.2344
		c1.9764,1.1876,3.3708,3.0724,3.9256,5.3088C179.2071,113.2087,178.8631,115.5271,177.6755,117.5015z"/>
	<path d="M218.2147,113.9059c6.6368-1.6584,10.6876-8.4084,9.0312-15.0488c-1.656-6.6444-8.4099-10.6952-15.0428-9.0448
		l-1.8516,0.4628c-1.8244-3.2148-4.0195-6.1796-6.5664-8.8672l0.9884-1.6428c1.7028-2.8376,2.1992-6.1736,1.3985-9.3904
		c-0.8049-3.2168-2.8129-5.928-5.6525-7.6328c-2.8555-1.7188-6.1835-2.2248-9.4104-1.416c-3.2068,0.8008-5.914,2.8084-7.6248,5.6504
		L182.5,68.6187c-3.5665-0.9844-7.2149-1.5312-10.9065-1.6328l-0.4648-1.8592c-1.656-6.6308-8.3944-10.6936-15.0468-9.0276
		c-6.6404,1.6564-10.7032,8.4024-9.0468,15.0392l0.4609,1.8556c-3.2109,1.822-6.1757,4.0176-8.8633,6.5624l-1.6407-0.9844
		c-2.8397-1.7072-6.1717-2.2108-9.3945-1.4004c-3.2148,0.8028-5.9295,2.8104-7.6368,5.6524c-1.7148,2.8556-2.2148,6.1972-1.41,9.41
		c0.8008,3.2072,2.8084,5.914,5.6524,7.6232l1.6404,0.9844c-0.988,3.5644-1.5352,7.2148-1.6328,10.908l-1.8592,0.4648
		c-3.2108,0.8008-5.922,2.8068-7.6288,5.6504c-1.7072,2.842-2.2032,6.18-1.4024,9.3968c1.656,6.6424,8.414,10.7012,15.0428,9.0468
		l1.8556-0.4628c1.8204,3.2128,4.0156,6.1776,6.5624,8.8652l-0.9884,1.6424c-1.7028,2.838-2.1992,6.174-1.3984,9.3908
		c0.8048,3.2168,2.8128,5.9276,5.6524,7.6328c2.8556,1.7168,6.1876,2.2204,9.4104,1.416c3.2069-0.8008,5.914-2.8088,7.6248-5.6544
		l0.9844-1.6388c3.5664,0.9844,7.2148,1.5312,10.91,1.6328l0.4612,1.8556c0.8008,3.2148,2.8084,5.924,5.6524,7.6308
		c1.9528,1.174,4.1444,1.7756,6.3672,1.7756c1.0076,0,2.0232-0.1252,3.0272-0.3752c3.2304-0.8048,5.9492-2.8124,7.6524-5.6524
		c1.7033-2.836,2.1953-6.17,1.3944-9.3848l-0.4648-1.8552c3.2148-1.8224,6.1796-4.0196,8.8672-6.5644l1.6444,0.988
		c2.836,1.7052,6.168,2.1956,9.3908,1.3964c3.2148-0.8044,5.9256-2.8124,7.6288-5.65c1.7188-2.8536,2.2228-6.1976,1.418-9.4124
		c-0.8008-3.2068-2.8084-5.914-5.6524-7.6228l-1.6404-0.9844c0.988-3.5644,1.5352-7.2132,1.6328-10.9084L218.2147,113.9059z
		 M211.3631,107.3687c-1.8436,0.4592-3.1132,2.1564-3.0271,4.0568c0.2147,4.8868-0.504,9.7048-2.1445,14.3204
		c-0.6368,1.7928,0.078,3.7868,1.7108,4.7672l4.3436,2.6076c1.012,0.6076,1.7268,1.5684,2.008,2.7032
		c0.2852,1.1388,0.1052,2.328-0.512,3.3516c-0.6052,1.0096-1.5699,1.7244-2.7148,2.0096c-1.1484,0.2892-2.324,0.1132-3.332-0.494
		l-4.3436-2.6096c-1.6252-0.9744-3.7188-0.6736-5.008,0.7288c-3.3124,3.6172-7.2304,6.5156-11.6364,8.6152
		c-1.7188,0.8184-2.6212,2.7324-2.1644,4.578l1.2268,4.914c0.2852,1.1464,0.1092,2.3284-0.4924,3.332
		c-0.6051,1.006-1.574,1.7188-2.7304,2.008c-1.1368,0.2892-2.328,0.1092-3.3396-0.498c-1.008-0.6056-1.7228-1.5664-2.008-2.7072
		l-1.2228-4.912c-0.4492-1.7872-2.0544-3.0312-3.8828-3.0312c-0.0584,0-0.1172,0.002-0.1756,0.004
		c-4.8788,0.2224-9.7032-0.508-14.3244-2.1448c-1.7852-0.6348-3.7852,0.0784-4.7655,1.7128l-2.6053,4.34
		c-0.6056,1.0116-1.5664,1.7264-2.7032,2.0096c-1.1328,0.2892-2.3244,0.1036-3.3515-0.5116
		c-1.0117-0.6072-1.7229-1.5704-2.0117-2.7148c-0.2852-1.1424-0.1096-2.326,0.496-3.332l2.6092-4.342
		c0.9804-1.6308,0.676-3.7244-0.7264-5.0096c-3.6172-3.3124-6.5156-7.2284-8.6212-11.6408c-0.8164-1.7168-2.7108-2.6168-4.5779-2.16
		l-4.9065,1.2268c-2.418,0.5976-4.75-0.8224-5.3436-3.2228c-0.2892-1.1444-0.1096-2.332,0.496-3.342
		c0.6056-1.0096,1.5664-1.7204,2.7072-2.0056l4.914-1.2268c1.8436-0.4608,3.1132-2.158,3.0272-4.0564
		c-0.2148-4.8868,0.504-9.7032,2.1448-14.3164c0.6364-1.7952-0.0784-3.7892-1.7111-4.7696l-4.3437-2.6096
		c-1.012-0.6072-1.7268-1.568-2.012-2.7048c-0.2848-1.1388-0.1012-2.3284,0.512-3.3476c0.6052-1.012,1.5704-1.7268,2.7188-2.012
		c1.1444-0.2868,2.328-0.1052,3.332,0.4964l4.3436,2.6072c1.6328,0.9824,3.7228,0.676,5.008-0.7284
		c3.3124-3.6172,7.2304-6.5156,11.6364-8.6152c1.7188-0.8184,2.6252-2.7344,2.1604-4.58l-1.2228-4.9104
		c-0.5896-2.3556,0.8596-4.752,3.2228-5.3416c2.3592-0.594,4.7616,0.8496,5.3476,3.2028l1.2228,4.9124
		c0.4608,1.8456,2.1836,3.074,4.0584,3.0292c4.8944-0.2208,9.7072,0.5076,14.3204,2.1444c1.7892,0.6388,3.7812-0.078,4.7656-1.7088
		l2.6092-4.344c0.6056-1.0116,1.5664-1.7264,2.7032-2.0096c1.1408-0.2832,2.332-0.1016,3.3516,0.5116
		c1.0116,0.6076,1.7228,1.5704,2.0116,2.7148c0.2852,1.1428,0.1096,2.3264-0.496,3.3324l-2.6092,4.3416
		c-0.9804,1.6308-0.676,3.7248,0.7264,5.0096c3.6172,3.3128,6.5156,7.2288,8.6212,11.6408c0.8204,1.7188,2.7264,2.6192,4.578,2.16
		l4.9104-1.2244c2.3984-0.588,4.742,0.8144,5.3396,3.2208c0.59,2.3612-0.8476,4.7616-3.2032,5.3496L211.3631,107.3687z"/>
	<path d="M82.4139,36.0935c-6.3204-4.59-15.1876-3.18-19.7696,3.1308c-2.2224,3.0584-3.1208,6.8008-2.5312,10.5332
		c0.59,3.7344,2.6016,7.0156,5.6604,9.2384c2.5076,1.82,5.414,2.6972,8.3008,2.6972c4.3788,0,8.7028-2.0236,11.4684-5.83
		l0.004-0.002C90.1287,49.5467,88.7263,40.6795,82.4139,36.0935z M79.0743,51.1599c-1.9924,2.742-5.848,3.3592-8.598,1.3632
		c-1.332-0.9668-2.2068-2.3928-2.4608-4.0156c-0.2576-1.6232,0.1328-3.25,1.0976-4.58c1.2032-1.6564,3.082-2.5352,4.9884-2.5352
		c1.254,0,2.5196,0.3828,3.6092,1.1736C80.4531,44.5583,81.0663,48.4135,79.0743,51.1599z"/>
	<path d="M114.8555,67.7339c-0.4492-2.83-1.9768-5.322-4.3048-7.0136l-0.7656-0.5568c0.8789-2.486,1.492-5.0468,1.836-7.66
		l0.9372-0.1484c2.84-0.4512,5.3324-1.9804,7.0236-4.3068c1.6876-2.328,2.3712-5.1736,1.9181-8.0136
		c-0.9297-5.8672-6.4805-9.8848-12.3085-8.9532l-0.9376,0.1484c-1.1368-2.3828-2.512-4.6288-4.1172-6.7184l0.5548-0.764
		c1.6912-2.322,2.3748-5.166,1.9216-8.0056c-0.4491-2.844-1.9804-5.34-4.3084-7.0292c-2.34-1.7012-5.1956-2.3968-8.0156-1.9336
		c-2.836,0.4492-5.3284,1.9804-7.0156,4.3064l-0.5588,0.7676c-2.4844-0.8808-5.0467-1.494-7.664-1.836l-0.1484-0.9432
		c-0.9296-5.8576-6.4804-9.8712-12.3164-8.9396c-2.8516,0.4532-5.3516,1.9824-7.0392,4.3088c-1.6876,2.32-2.3672,5.164-1.914,8.002
		l0.1484,0.9392c-2.3828,1.1348-4.6288,2.51-6.7188,4.1152l-0.7696-0.5584c-4.7927-3.4864-11.5388-2.414-15.0312,2.3868
		c-1.6992,2.3356-2.3864,5.1852-1.9335,8.0252c0.4491,2.832,1.9803,5.3244,4.3047,7.0136l0.7696,0.5588
		c-0.8788,2.4824-1.496,5.0408-1.836,7.658l-0.9412,0.1484c-5.8556,0.928-9.8672,6.4552-8.9416,12.3224
		c0.9296,5.8652,6.4765,9.8808,12.3085,8.9532l0.9415-0.1504c1.1328,2.3808,2.508,4.6268,4.1132,6.7168l-0.5584,0.7696
		c-3.4843,4.7988-2.4104,11.5428,2.3904,15.0332c4.8088,3.49,11.5468,2.4236,15.0352-2.3732l0.5588-0.7696
		c2.4844,0.8808,5.0468,1.496,7.66,1.838l0.1524,0.9356c0.4452,2.8396,1.9764,5.334,4.3048,7.0252
		c1.8552,1.3476,4.0468,2.0548,6.3008,2.0548c0.5664,0,1.1404-0.0448,1.7108-0.1348c5.8632-0.9276,9.8788-6.4492,8.9532-12.3104
		l-0.1484-0.9396c2.3828-1.1348,4.6288-2.5096,6.7188-4.1132l0.7656,0.5548c2.32,1.6872,5.16,2.3652,8.0036,1.9216
		c2.844-0.4512,5.34-1.9804,7.0276-4.3064C114.6211,73.4235,115.3083,70.5739,114.8555,67.7339z M102.5547,64.8003l3.2928,2.3908
		c0.5976,0.4376,0.9925,1.076,1.1096,1.7988c0.1132,0.7264-0.0664,1.4588-0.508,2.0664c-0.4336,0.5996-1.074,0.992-1.8084,1.1092
		c-0.7228,0.1036-1.4572-0.0624-2.0472-0.492l-3.2928-2.3928c-1.5312-1.1152-3.6484-1-5.0548,0.2892
		c-2.8204,2.586-6.0779,4.58-9.6796,5.9276c-1.7812,0.666-2.8436,2.4944-2.5468,4.3712l0.6368,4.0216
		c0.238,1.5292-0.7736,2.918-2.3048,3.16c-0.746,0.1192-1.4688-0.0604-2.0624-0.492c-0.5976-0.4336-0.9884-1.0724-1.1056-1.8028
		l-0.6408-4.0236c-0.2968-1.8768-1.8747-3.2852-3.7732-3.3672c-3.84-0.168-7.5508-1.0584-11.0352-2.6464
		c-0.5352-0.244-1.1016-0.3612-1.66-0.3612c-1.2463,0-2.4652,0.586-3.2343,1.6484l-2.3949,3.2948
		c-0.91,1.252-2.6016,1.5176-3.8632,0.6036c-1.2344-0.8964-1.5116-2.6288-0.6212-3.8592l2.3948-3.2932
		c1.1208-1.5388,1-3.6524-0.2852-5.0548c-2.594-2.828-4.59-6.0836-5.9296-9.6756c-0.6644-1.7852-2.504-2.8416-4.3712-2.5548
		l-4.0276,0.6388c-1.5428,0.256-2.9176-0.7716-3.156-2.3008c-0.2384-1.5096,0.7892-2.9316,2.2892-3.17l4.0272-0.6368
		c1.8788-0.2968,3.2892-1.8768,3.3712-3.7792c0.164-3.8396,1.0545-7.5508,2.6444-11.0312c0.7928-1.7304,0.2541-3.7792-1.2852-4.8984
		l-3.2967-2.3944c-0.6017-0.4356-0.9925-1.0744-1.1097-1.7972c-0.1132-0.7264,0.0664-1.4588,0.504-2.0624
		c0.8984-1.238,2.6408-1.5076,3.8596-0.6212l3.2968,2.3948c1.5388,1.1212,3.6524,1,5.0548-0.2892
		c2.824-2.5896,6.082-4.584,9.6756-5.9256c1.7812-0.666,2.8516-2.4944,2.5509-4.3732l-0.6369-4.0292
		c-0.1132-0.7284,0.0588-1.4572,0.4884-2.0488c0.4336-0.5956,1.078-0.9884,1.8165-1.1056c1.5075-0.254,2.9255,0.7932,3.168,2.2912
		l0.6367,4.0252c0.2968,1.8788,1.8748,3.2892,3.7772,3.3712c3.836,0.166,7.5508,1.0548,11.0352,2.6444
		c1.7344,0.7932,3.7772,0.254,4.8944-1.2872l2.3984-3.2968c0.4336-0.5976,1.0704-0.99,1.7932-1.1052
		c0.738-0.1212,1.4609,0.0644,2.0664,0.5036c0.5976,0.4356,0.992,1.0784,1.1092,1.8108c0.1133,0.7264-0.0624,1.4528-0.496,2.0508
		l-2.3907,3.2948c-1.1173,1.5392-0.996,3.6524,0.2891,5.0528c2.59,2.822,4.582,6.078,5.9296,9.6776
		c0.668,1.7852,2.5276,2.8536,4.3712,2.5508l4.0236-0.6368c1.5312-0.2656,2.9176,0.7676,3.16,2.3048
		c0.1132,0.7304-0.0624,1.4608-0.496,2.0604c-0.4335,0.596-1.0704,0.9884-1.7972,1.1036l-4.0232,0.6368
		c-1.8788,0.2968-3.2891,1.8768-3.3712,3.7792c-0.164,3.83-1.0548,7.5448-2.6484,11.0372
		C100.4763,61.6363,101.0155,63.6831,102.5547,64.8003z"/>
</g>
</svg>
