<?xml version="1.0" encoding="utf-8"?>
<!-- Generator: Adobe Illustrator 19.2.0, SVG Export Plug-In . SVG Version: 6.00 Build 0)  -->
<svg version="1.1" id="sharpness" xmlns="http://www.w3.org/2000/svg" xmlns:xlink="http://www.w3.org/1999/xlink" x="0px" y="0px"
	 viewBox="0 0 198.5252 228.0008" enable-background="new 0 0 198.5252 228.0008" xml:space="preserve">
<g>
	<path fill="none" d="M35.7128,77.3093v73.3832l63.5508,36.6912l63.5508-36.6912V77.3093L99.2636,40.6201L35.7128,77.3093z
		 M144.5644,85.5361c1.2384,0.7148,2,2.0352,2,3.4647v50c0,1.4297-0.7616,2.7501-2,3.4649l-43.3008,25
		c-0.6192,0.3556-1.3084,0.5351-2,0.5351c-0.6916,0-1.3808-0.1795-2-0.5351l-43.3008-25c-1.2384-0.7148-2-2.0352-2-3.4649v-50
		c0-1.4295,0.7616-2.7499,2-3.4647l43.3008-25c1.2384-0.7148,2.7616-0.7148,4,0L144.5644,85.5361z"/>
	<polygon fill="none" points="59.9628,91.3093 59.9628,136.6925 99.2636,159.3837 138.5644,136.6925 138.5644,91.3093 
		99.2636,68.6201 	"/>
	<path fill="none" d="M8,61.3093v105.3832l91.2636,52.6912l91.2616-52.6912V61.3093L99.2636,8.6201L8,61.3093z M168.8144,71.5361
		c1.2384,0.7148,2,2.0352,2,3.4647v78c0,1.4297-0.7616,2.7501-2,3.4649l-67.5508,39c-0.6192,0.3556-1.3084,0.5351-2,0.5351
		c-0.6916,0-1.3808-0.1795-2-0.5351l-67.5508-39c-1.2384-0.7148-2-2.0352-2-3.4649v-78c0-1.4295,0.7616-2.7499,2-3.4647l67.5508-39
		c1.2384-0.7148,2.7616-0.7148,4,0L168.8144,71.5361z"/>
	<path d="M196.5252,55.5361l-95.2616-55c-1.2384-0.7148-2.7616-0.7148-4,0L2,55.5361c-1.2384,0.7148-2,2.0352-2,3.4647v110
		c0,1.4297,0.7616,2.7501,2,3.4649l95.2636,55c0.6192,0.3556,1.3084,0.5351,2,0.5351c0.6916,0,1.3808-0.1795,2-0.5351l95.2616-55
		c1.2384-0.7148,2-2.0352,2-3.4649v-110C198.5252,57.5713,197.7636,56.2509,196.5252,55.5361z M190.5252,166.6925l-91.2616,52.6912
		L8,166.6925V61.3093L99.2636,8.6201l91.2616,52.6892V166.6925z"/>
	<path d="M97.2636,32.5361l-67.5508,39c-1.2384,0.7148-2,2.0352-2,3.4647v78c0,1.4297,0.7616,2.7501,2,3.4649l67.5508,39
		c0.6192,0.3556,1.3084,0.5351,2,0.5351c0.6916,0,1.3808-0.1795,2-0.5351l67.5508-39c1.2384-0.7148,2-2.0352,2-3.4649v-78
		c0-1.4295-0.7616-2.7499-2-3.4647l-67.5508-39C100.0252,31.8213,98.502,31.8213,97.2636,32.5361z M162.8144,77.3093v73.3832
		l-63.5508,36.6912l-63.5508-36.6912V77.3093l63.5508-36.6892L162.8144,77.3093z"/>
	<path d="M97.2636,60.5361l-43.3008,25c-1.2384,0.7148-2,2.0352-2,3.4647v50c0,1.4297,0.7616,2.7501,2,3.4649l43.3008,25
		c0.6192,0.3556,1.3084,0.5351,2,0.5351c0.6916,0,1.3808-0.1795,2-0.5351l43.3008-25c1.2384-0.7148,2-2.0352,2-3.4649v-50
		c0-1.4295-0.7616-2.7499-2-3.4647l-43.3008-25C100.0252,59.8213,98.502,59.8213,97.2636,60.5361z M138.5644,91.3093v45.3832
		l-39.3008,22.6912l-39.3008-22.6912V91.3093l39.3008-22.6892L138.5644,91.3093z"/>
</g>
</svg>
