<?xml version="1.0" encoding="utf-8"?>
<!-- Generator: Adobe Illustrator 19.2.0, SVG Export Plug-In . SVG Version: 6.00 Build 0)  -->
<svg version="1.1" id="shop" xmlns="http://www.w3.org/2000/svg" xmlns:xlink="http://www.w3.org/1999/xlink" x="0px" y="0px"
	 viewBox="0 0 208 196" enable-background="new 0 0 208 196" xml:space="preserve">
<g>
	<path d="M207.8656,43.3337c-0.0252-0.148,0.02-0.2972-0.022-0.4428l-11.5388-40C195.8104,1.1797,194.242,0,192.4608,0H15.5392
		c-1.7812,0-3.3496,1.1797-3.844,2.8909l-11.5388,40c-0.042,0.1456,0.0032,0.2948-0.022,0.4428C0.0952,43.5585,0,43.7637,0,44
		v40.0197c0,10.5152,6.8188,19.4512,16.2628,22.678C16.1188,107.1105,16,107.5381,16,108v84c0,2.2109,1.7912,4,4,4h20h44h104
		c2.2088,0,4-1.7891,4-4v-84c0-0.4619-0.1188-0.8895-0.2628-1.3023C201.1812,103.4709,208,94.5349,208,84.0197V44
		C208,43.7637,207.9048,43.5585,207.8656,43.3337z M18.5488,8h170.9024l9.2324,32H164h-40H84H44H9.3164L18.5488,8z M160,84.0197
		C160,92.832,152.8224,100,144,100s-16-7.168-16-15.9803V48h32V84.0197z M120,84.0197C120,92.832,112.8224,100,104,100
		s-16-7.168-16-15.9803V48h32V84.0197z M80,84.0197C80,92.832,72.8224,100,64,100s-16-7.168-16-15.9803V48h32V84.0197z M8,84.0197
		V48h32v36.0197C40,92.832,32.8224,100,24,100S8,92.832,8,84.0197z M44,188v-64h36v64H44z M184,188H88v-68c0-2.2107-1.7912-4-4-4H40
		c-2.2088,0-4,1.7893-4,4v68H24v-80c8.3432,0,15.698-4.2803,20-10.7535C48.302,103.7197,55.6568,108,64,108
		s15.698-4.2803,20-10.7535C88.302,103.7197,95.6568,108,104,108s15.698-4.2803,20-10.7535C128.302,103.7197,135.6568,108,144,108
		s15.698-4.2803,20-10.7535C168.302,103.7197,175.6568,108,184,108V188z M200,84.0197C200,92.832,192.8224,100,184,100
		s-16-7.168-16-15.9803V48h32V84.0197z"/>
	<path d="M96,120v24c0,2.2109,1.7912,4,4,4h68c2.2088,0,4-1.7891,4-4v-24c0-2.2107-1.7912-4-4-4h-68C97.7912,116,96,117.7893,96,120
		z M104,124h60v16h-60V124z"/>
</g>
</svg>
