<?xml version="1.0" encoding="utf-8"?>
<!-- Generator: Adobe Illustrator 19.2.0, SVG Export Plug-In . SVG Version: 6.00 Build 0)  -->
<svg version="1.1" id="simplestand" xmlns="http://www.w3.org/2000/svg" xmlns:xlink="http://www.w3.org/1999/xlink" x="0px"
	 y="0px" viewBox="0 0 232 223.9994" enable-background="new 0 0 232 223.9994" xml:space="preserve">
<g>
	<path d="M232,109.9994c0-20.9531-17.0549-38-38.0197-38H93.548l6.2448-18.7343c0.4104-1.2188,0.2032-2.5624-0.5468-3.6057
		c-0.754-1.0427-1.9608-1.66-3.246-1.66H70.0624c0.4216-1.3091,3.0356-7.0779,17.7268-14.4219
		c1.9764-0.988,2.7772-3.3904,1.7888-5.3672c-0.992-1.9764-3.3904-2.7732-5.3672-1.7888
		c-9.8492,4.9244-15.3096,9.552-18.3676,13.2804c0.1396-15.416,2.7844-30.3612,7.4224-31.9096
		c2.0936-0.6952,3.2264-2.9609,2.5272-5.0584c-0.6992-2.0936-2.9412-3.2265-5.0584-2.5272
		C61.4396,3.3039,58.6712,19.3903,58.002,32.6623c-3.53-5.3352-8.9032-10.11-16.8536-12.4949
		c-2.1288-0.6367-4.3476,0.5665-4.9804,2.6837c-0.6328,2.1132,0.5664,4.3436,2.6836,4.9803
		c12.2012,3.6597,15.7076,14.2889,16.7232,20.168H40c-1.2852,0-2.492,0.6173-3.246,1.66c-0.75,1.0433-0.9572,2.3869-0.5468,3.6057
		l6.2448,18.7343h-4.4324C17.0548,71.9994,0,89.0463,0,109.9994c0,20.9533,17.0548,38,38.0196,38h0.792l-18.6788,70.9805
		c-0.5624,2.1368,0.7108,4.3244,2.8476,4.8868c0.344,0.09,0.6836,0.1327,1.0236,0.1327c1.7732,0,3.3904-1.1875,3.8632-2.9803
		l19.2156-73.0197h133.8343l19.2156,73.0197c0.4728,1.7928,2.09,2.9803,3.8633,2.9803c0.34,0,0.6795-0.0427,1.0235-0.1327
		c2.1368-0.5624,3.41-2.75,2.8476-4.8868l-18.6788-70.9805h4.792C214.9451,147.9994,232,130.9527,232,109.9994z M193.9803,79.9994
		c16.5548,0,30.0197,13.4573,30.0197,30c0,16.5429-13.4649,30-30.0197,30H120v-60H193.9803z M45.5508,55.9994h44.8984l-5.332,16
		H50.8828L45.5508,55.9994z M8,109.9994c0-16.5427,13.4648-30,30.0196-30H48h40h24v60H38.0196
		C21.4648,139.9994,8,126.5423,8,109.9994z"/>
	<path d="M64.828,98.6871c-1.5624-1.5628-4.0936-1.5628-5.656,0l-8.4844,8.4843c-1.5624,1.5625-1.5624,4.0937,0,5.656l8.4844,8.4845
		c0.7812,0.7812,1.8044,1.172,2.828,1.172s2.0468-0.3908,2.828-1.172l8.4844-8.4845c1.5628-1.5623,1.5628-4.0935,0-5.656
		L64.828,98.6871z M62,112.8274l-2.828-2.828l2.828-2.828l2.828,2.828L62,112.8274z"/>
	<path d="M167.172,121.3119c0.7811,0.7812,1.8043,1.172,2.828,1.172c1.0235,0,2.0467-0.3908,2.828-1.172l8.4843-8.4845
		c1.5628-1.5623,1.5628-4.0935,0-5.656l-8.4843-8.4843c-1.5625-1.5628-4.0937-1.5628-5.656,0l-8.4845,8.4843
		c-1.5624,1.5625-1.5624,4.0937,0,5.656L167.172,121.3119z M170,107.1714l2.828,2.828l-2.828,2.828l-2.828-2.828L170,107.1714z"/>
</g>
</svg>
