<?xml version="1.0" encoding="utf-8"?>
<!-- Generator: Adobe Illustrator 19.2.0, SVG Export Plug-In . SVG Version: 6.00 Build 0)  -->
<svg version="1.1" id="solars" xmlns="http://www.w3.org/2000/svg" xmlns:xlink="http://www.w3.org/1999/xlink" x="0px" y="0px"
	 viewBox="0 0 228.0001 208" enable-background="new 0 0 228.0001 208" xml:space="preserve">
<g>
	<path d="M196.0002,176c1.6991,0,3.2147-1.0743,3.7771-2.6795l28-80c0.426-1.2228,0.2344-2.5784-0.5156-3.6368
		c-0.75-1.0548-1.9648-1.6837-3.2615-1.6837h-24h-40h-24c-1.6993,0-3.2149,1.0745-3.7773,2.6797l-28,80
		c-0.426,1.2228-0.2344,2.5784,0.5156,3.6368c0.75,1.0548,1.9648,1.6835,3.2617,1.6835h16v24h-44v-24h12
		c1.6991,0,3.2147-1.0743,3.7771-2.6795l28-80c0.426-1.2228,0.2344-2.5784-0.5156-3.6368c-0.75-1.0548-1.9648-1.6837-3.2615-1.6837
		h-24h-40h-24c-1.6993,0-3.2149,1.0745-3.7773,2.6797l-28,80c-0.426,1.2228-0.2344,2.5784,0.5156,3.6368
		C1.4885,175.3713,2.7033,176,4.0002,176h20v24h-20c-2.2109,0-4,1.7893-4,4c0,2.2109,1.7891,4,4,4h212.0391c2.2108,0,4-1.7891,4-4
		c0-2.2107-1.7892-4-4-4h-36.0391v-24H196.0002z M169.1602,168h-31.5233l12.6016-36h31.5232L169.1602,168z M193.1602,168h-15.5205
		l12.6-36h15.522L193.1602,168z M208.5621,124h-15.5224l9.7996-28h15.524L208.5621,124z M194.3633,96l-9.8012,28h-31.5236l9.8017-28
		H194.3633z M138.8402,96h15.5203l-9.8,28h-15.522L138.8402,96z M126.2385,132h15.522l-12.5996,36h-15.524L126.2385,132z
		 M89.1602,168H73.6397l12.6-36h15.522L89.1602,168z M65.1602,168H33.6369l12.6016-36h31.5232L65.1602,168z M104.5253,124.1057
		c-0.1796-0.0244-0.3388-0.1057-0.5251-0.1057H89.0397l9.7996-28h15.524L104.5253,124.1057z M90.3633,96l-9.8012,28H49.0385
		l9.8017-28H90.3633z M34.8402,96h15.5203l-9.8,28h-15.522L34.8402,96z M22.3665,131.6345c0.5012,0.226,1.0476,0.3655,1.6337,0.3655
		h13.7603l-12.5996,36H9.6369L22.3665,131.6345z M32.0002,176h36h4v24h-40V176z M172.0002,200h-40v-24h40V200z"/>
	<path d="M28.0002,48c13.2343,0,24-10.7655,24-24c0-13.2343-10.7657-24-24-24c-13.2345,0-24,10.7657-24,24
		C4.0002,37.2345,14.7657,48,28.0002,48z M28.0002,8c8.8243,0,16,7.1757,16,16c0,8.8245-7.1757,16-16,16c-8.8245,0-16-7.1755-16-16
		C12.0002,15.1757,19.1757,8,28.0002,8z"/>
	<path d="M60.0002,28h16c2.2107,0,4-1.7891,4-4c0-2.2107-1.7893-4-4-4h-16c-2.2109,0-4,1.7893-4,4
		C56.0002,26.2109,57.7893,28,60.0002,28z"/>
	<path d="M24.0002,56v16c0,2.2109,1.7891,4,4,4c2.2107,0,4-1.7891,4-4V56c0-2.2107-1.7893-4-4-4
		C25.7893,52,24.0002,53.7893,24.0002,56z"/>
	<path d="M51.5157,53.172l11.3125,11.3125c0.7811,0.7812,1.8047,1.172,2.8283,1.172c1.0232,0,2.0468-0.3908,2.828-1.172
		c1.5624-1.5624,1.5624-4.0936,0-5.6565L57.1722,47.5157c-1.5629-1.5624-4.0941-1.5624-5.6565,0
		C49.9533,49.0781,49.9533,51.6093,51.5157,53.172z"/>
</g>
</svg>
