<?xml version="1.0" encoding="utf-8"?>
<!-- Generator: Adobe Illustrator 19.2.0, SVG Export Plug-In . SVG Version: 6.00 Build 0)  -->
<svg version="1.1" id="speaker" xmlns="http://www.w3.org/2000/svg" xmlns:xlink="http://www.w3.org/1999/xlink" x="0px" y="0px"
	 viewBox="0 0 160 232" enable-background="new 0 0 160 232" xml:space="preserve">
<g>
	<path d="M156,0H4C1.7912,0,0,1.7893,0,4v212c0,2.2109,1.7912,4,4,4h12v8c0,2.2109,1.7912,4,4,4h24c2.2088,0,4-1.7891,4-4v-8h64v8
		c0,2.2109,1.7912,4,4,4h24c2.2088,0,4-1.7891,4-4v-8h12c2.2088,0,4-1.7891,4-4V4C160,1.7893,158.2088,0,156,0z M40,224H24v-4h16
		V224z M136,224h-16v-4h16V224z M152,212h-12h-24H44H20H8V8h144V212z"/>
	<path d="M80,160c11.0272,0,20-8.9727,20-20c0-11.0271-8.9728-20-20-20c-11.0272,0-20,8.9729-20,20C60,151.0273,68.9728,160,80,160z
		 M80,128c6.6172,0,12,5.3829,12,12c0,6.6173-5.3828,12-12,12c-6.6172,0-12-5.3827-12-12C68,133.3829,73.3828,128,80,128z"/>
	<path d="M116,68c13.2344,0,24-10.7655,24-24c0-13.2343-10.7656-24-24-24c-13.2344,0-24,10.7657-24,24
		C92,57.2345,102.7656,68,116,68z M116,28c8.8224,0,16,7.1757,16,16c0,8.8245-7.1776,16-16,16c-8.8224,0-16-7.1755-16-16
		C100,35.1757,107.1776,28,116,28z"/>
	<path d="M116,56c6.6172,0,12-5.3827,12-12c0-6.6171-5.3828-12-12-12c-6.6172,0-12,5.3829-12,12C104,50.6173,109.3828,56,116,56z
		 M116,40c2.2052,0,4,1.7929,4,4c0,2.2073-1.7948,4-4,4c-2.2052,0-4-1.7927-4-4C112,41.7929,113.7948,40,116,40z"/>
	<path d="M44,68c13.2344,0,24-10.7655,24-24c0-13.2343-10.7656-24-24-24S20,30.7657,20,44C20,57.2345,30.7656,68,44,68z M44,28
		c8.8224,0,16,7.1757,16,16c0,8.8245-7.1776,16-16,16c-8.8224,0-16-7.1755-16-16C28,35.1757,35.1776,28,44,28z"/>
	<path d="M44,56c6.6172,0,12-5.3827,12-12c0-6.6171-5.3828-12-12-12c-6.6172,0-12,5.3829-12,12C32,50.6173,37.3828,56,44,56z M44,40
		c2.2052,0,4,1.7929,4,4c0,2.2073-1.7948,4-4,4c-2.2052,0-4-1.7927-4-4C40,41.7929,41.7948,40,44,40z"/>
	<path d="M51.7284,94.7581c-2.2732-2.2736-5.2908-3.5276-8.496-3.5276h-0.006c-3.2028,0-6.2148,1.25-8.4804,3.5156
		c-2.2772,2.2776-3.5272,5.2968-3.5196,8.508c0.008,3.1952,1.262,6.2068,3.5332,8.4764l6.8448,6.8432
		C38.048,124.9209,36,132.2217,36,140c0,7.7785,2.0484,15.0789,5.6044,21.4261l-6.8464,6.8436
		c-4.6836,4.6876-4.6896,12.3084-0.012,16.9844c2.336,2.336,5.4064,3.504,8.4804,3.504c3.0764,0,6.1564-1.172,8.502-3.516
		l6.8464-6.8461C64.9216,181.952,72.222,184,80,184s15.0784-2.048,21.4252-5.604l6.8464,6.8461
		c2.2732,2.2736,5.2908,3.5276,8.496,3.5276h0.006c3.2028,0,6.2148-1.25,8.4804-3.5156c2.2772-2.2776,3.5272-5.2968,3.5196-8.508
		c-0.008-3.1952-1.262-6.2068-3.5332-8.4764l-6.8448-6.8432C121.952,155.0793,124,147.7785,124,140
		c0-7.7783-2.0484-15.0787-5.6044-21.4259l6.8464-6.8436c4.6836-4.6876,4.6896-12.3084,0.012-16.9844
		c-4.674-4.6716-12.2932-4.6756-16.9824,0.012l-6.8464,6.8459C95.0784,98.048,87.778,96,80,96s-15.0784,2.048-21.4252,5.604
		L51.7284,94.7581z M39.2264,103.2345c-0.0016-1.0665,0.4144-2.0705,1.178-2.832c0.754-0.758,1.7556-1.172,2.822-1.172h0.002
		c1.0704,0,2.08,0.422,2.844,1.1836l5.6444,5.6444l-5.6584,5.6564l-5.6424-5.6404
		C39.6524,105.3085,39.2284,104.3009,39.2264,103.2345z M46.0724,179.5861c-1.5684,1.5664-4.1136,1.5704-5.67,0.0116
		c-1.5588-1.5584-1.5528-4.1057,0.0136-5.672l5.6424-5.6404l5.6584,5.6564L46.0724,179.5861z M120.7736,176.7657
		c0.0016,1.0663-0.4144,2.0703-1.178,2.832c-0.754,0.758-1.7556,1.172-2.822,1.172h-0.002c-1.0704,0-2.08-0.422-2.844-1.1836
		l-5.6444-5.6444l5.6584-5.6564l5.6424,5.6404C120.3476,174.6917,120.7716,175.6993,120.7736,176.7657z M113.9276,100.4141
		c1.5664-1.5664,4.1116-1.5704,5.67-0.0116c1.5588,1.5584,1.5528,4.1055-0.0136,5.672l-5.6424,5.6404l-5.6584-5.6564
		L113.9276,100.4141z M116,140c0,19.8517-16.1504,36-36,36s-36-16.1483-36-36c0-19.8515,16.1504-36,36-36S116,120.1485,116,140z"/>
</g>
</svg>
