<?xml version="1.0" encoding="utf-8"?>
<!-- Generator: Adobe Illustrator 19.2.0, SVG Export Plug-In . SVG Version: 6.00 Build 0)  -->
<svg version="1.1" id="star" xmlns="http://www.w3.org/2000/svg" xmlns:xlink="http://www.w3.org/1999/xlink" x="0px" y="0px"
	 viewBox="0 0 223.1285 212.5936" enable-background="new 0 0 223.1285 212.5936" xml:space="preserve">
<g>
	<path d="M168.6266,97.4588c-0.3944-1.2168-1.3516-2.1716-2.5664-2.568L134.3846,84.59l-19.586-26.9416
		c-1.5-2.0704-4.9688-2.0704-6.4688,0L88.7438,84.59L57.0682,94.8908c-1.2148,0.3964-2.172,1.3512-2.5664,2.568
		c-0.3948,1.2168-0.1836,2.5508,0.5664,3.586l19.5704,26.9532l0.0116,33.3088c0,1.2792,0.6132,2.4824,1.6484,3.2344
		c1.0352,0.7516,2.3712,0.9648,3.586,0.568l31.6796-10.2848l31.6796,10.2848c0.4024,0.1312,0.8204,0.1956,1.2344,0.1956
		c0.836,0,1.6604-0.262,2.3516-0.7636c1.0352-0.752,1.6484-1.9552,1.6484-3.2344l0.0116-33.3088l19.5704-26.9532
		C168.8102,100.0096,169.0214,98.6756,168.6266,97.4588z M141.2518,124.3496c-0.496,0.6816-0.762,1.504-0.762,2.3476
		l-0.0116,29.1036l-27.6796-8.9864c-0.4024-0.1308-0.8164-0.1952-1.2344-0.1952s-0.832,0.0644-1.2344,0.1952l-27.6796,8.9864
		l-0.0116-29.1036c0-0.8436-0.266-1.666-0.762-2.3476L64.775,100.7968l27.68-9c0.8008-0.2616,1.5-0.7696,1.996-1.4532
		l17.1132-23.5408l17.1132,23.5408c0.496,0.6836,1.1952,1.1916,1.996,1.4532l27.68,9L141.2518,124.3496z"/>
	<path d="M111.5642,44.1916c2.2108,0,4-1.7912,4-4V4c0-2.2088-1.7892-4-4-4s-4,1.7912-4,4v36.1916
		C107.5642,42.4004,109.3534,44.1916,111.5642,44.1916z"/>
	<path d="M160.0018,176.9628c-1.2968-1.7852-3.7968-2.1836-5.586-0.8848c-1.7852,1.2988-2.1836,3.8008-0.8828,5.588l21.2732,29.2792
		c0.7816,1.0764,2,1.6484,3.2384,1.6484c0.8164,0,1.6368-0.248,2.3476-0.7636c1.7852-1.2988,2.1836-3.8008,0.8828-5.588
		L160.0018,176.9628z"/>
	<path d="M42.2282,94.5684c0.6836-2.1016-0.4688-4.3576-2.5704-5.0412L5.2362,78.3436c-2.094-0.6756-4.3556,0.4688-5.0392,2.5684
		c-0.6836,2.1016,0.4688,4.3576,2.5704,5.0412l34.422,11.1836c0.41,0.1328,0.824,0.1972,1.234,0.1972
		C40.111,97.334,41.6774,96.258,42.2282,94.5684z"/>
	<path d="M63.1266,176.9628L41.8534,206.242c-1.3008,1.7872-0.9024,4.2892,0.8828,5.588c0.7108,0.5156,1.5312,0.7636,2.3476,0.7636
		c1.2384,0,2.4568-0.572,3.2384-1.6484l21.2732-29.2792c1.3008-1.7872,0.9024-4.2892-0.8828-5.588
		C66.9198,174.7772,64.4198,175.174,63.1266,176.9628z"/>
	<path d="M222.9314,80.912c-0.6876-2.0996-2.9452-3.248-5.0392-2.5684l-34.4216,11.1836c-2.1016,0.6836-3.254,2.9396-2.5704,5.0412
		c0.5508,1.6896,2.1172,2.7656,3.8048,2.7656c0.41,0,0.824-0.0644,1.2344-0.1972l34.4216-11.1836
		C222.4626,85.2696,223.615,83.0136,222.9314,80.912z"/>
</g>
</svg>
