<?xml version="1.0" encoding="utf-8"?>
<!-- Generator: Adobe Illustrator 19.2.0, SVG Export Plug-In . SVG Version: 6.00 Build 0)  -->
<svg version="1.1" id="stetoscope" xmlns="http://www.w3.org/2000/svg" xmlns:xlink="http://www.w3.org/1999/xlink" x="0px" y="0px"
	 viewBox="0 0 176 210.0001" enable-background="new 0 0 176 210.0001" xml:space="preserve">
<g>
	<path fill="none" d="M87.2539,78.6797C78.5583,91.0137,64.2031,99.0021,48,99.0021c-16.2073,0-30.5585-7.9864-39.2541-20.3204
		C12.3435,97.0801,28.5779,111.0021,48,111.0021C67.4219,111.0021,83.6563,97.0761,87.2539,78.6797z"/>
	<path fill="none" d="M144,66.2441c-4.4101,0-8,3.5568-8,7.928c0,4.3708,3.5899,7.9276,8,7.9276c4.4099,0,8-3.5568,8-7.9276
		C152,69.8009,148.4099,66.2441,144,66.2441z"/>
	<path fill="none" d="M144,50.3401c-13.2345,0-24,10.6892-24,23.83c0,13.1404,10.7655,23.83,24,23.83c13.2343,0,24-10.6896,24-23.83
		C168,61.0293,157.2343,50.3401,144,50.3401z M144,90.0997c-8.8245,0-16-7.1444-16-15.9276s7.1755-15.928,16-15.928
		c8.8243,0,16,7.1448,16,15.928S152.8243,90.0997,144,90.0997z"/>
	<path d="M176,74.1701c0-17.5508-14.3557-31.83-32-31.83c-17.6445,0-32,14.2792-32,31.83c0,16.2,12.2403,29.586,28,31.5536v52.2608
		c0,24.2696-19.7385,44.0156-44,44.0156c-24.2617,0-44-19.742-44-44.0096v-39.1916c24.5995-2.0448,44-22.6948,44-47.828V55.0313
		c0-0.744-0.0157-1.4804-0.0509-2.2168c-0.004-0.0908-0.052-0.166-0.0624-0.256C95.9151,52.3677,96,52.1973,96,51.9981v-30
		c0-1.2148-0.5509-2.3632-1.5-3.1212l-12.0585-9.662l2.3865-2.3868c1.5627-1.5624,1.5627-4.0936,0-5.656
		c-1.5625-1.5628-4.0937-1.5628-5.656,0l-16,16c-1.5629,1.5624-1.5629,4.0936,0,5.656c0.7811,0.7812,1.8043,1.172,2.828,1.172
		c1.0235,0,2.0467-0.3908,2.828-1.172l7.9235-7.9236L88,23.9181v28.08c0,0.1252,0.06,0.23,0.0711,0.352
		c-0.0276,0.1608-0.1068,0.3012-0.114,0.4684C86.9883,74.2305,69.4375,91.0021,48,91.0021
		c-21.4377,0-38.9885-16.7716-39.9573-38.1816c-0.0072-0.1672-0.0867-0.3076-0.114-0.4688C7.94,52.2293,8,52.1233,8,51.9981v-28.08
		l11.2483-9.0136l7.9237,7.9236c0.7811,0.7812,1.8043,1.172,2.828,1.172c1.0235,0,2.0467-0.3908,2.828-1.172
		c1.5627-1.5624,1.5627-4.0936,0-5.656l-16-16c-1.5625-1.5628-4.0937-1.5628-5.656,0c-1.5629,1.5624-1.5629,4.0936,0,5.656
		l2.3863,2.3868L1.5,18.8769C0.5507,19.6349,0,20.7833,0,21.9981v30c0,0.1992,0.0855,0.3712,0.1135,0.5624
		c-0.0104,0.09-0.0584,0.1648-0.0628,0.256C0.0155,53.5489,0,54.2893,0,55.0313v15.9396c0,25.1332,19.4003,45.7832,44,47.828
		v39.1916c0,28.6776,23.328,52.0096,52,52.0096s52-23.334,52-52.0156v-52.2608C163.7595,103.7561,176,90.3701,176,74.1701z
		 M8.7459,78.6817C17.4415,91.0157,31.7927,99.0021,48,99.0021c16.2031,0,30.5583-7.9884,39.2539-20.3224
		C83.6563,97.0761,67.4219,111.0021,48,111.0021C28.5779,111.0021,12.3435,97.0801,8.7459,78.6817z M144,98.0001
		c-13.2345,0-24-10.6896-24-23.83c0-13.1408,10.7655-23.83,24-23.83c13.2343,0,24,10.6892,24,23.83
		C168,87.3105,157.2343,98.0001,144,98.0001z"/>
	<path d="M144,58.2441c-8.8245,0-16,7.1448-16,15.928s7.1755,15.9276,16,15.9276c8.8243,0,16-7.1444,16-15.9276
		S152.8243,58.2441,144,58.2441z M144,82.0997c-4.4101,0-8-3.5568-8-7.9276c0-4.3712,3.5899-7.928,8-7.928
		c4.4099,0,8,3.5568,8,7.928C152,78.5429,148.4099,82.0997,144,82.0997z"/>
</g>
</svg>
