<?xml version="1.0" encoding="utf-8"?>
<!-- Generator: Adobe Illustrator 19.2.0, SVG Export Plug-In . SVG Version: 6.00 Build 0)  -->
<svg version="1.1" id="stopwatch" xmlns="http://www.w3.org/2000/svg" xmlns:xlink="http://www.w3.org/1999/xlink" x="0px" y="0px"
	 viewBox="0 0 192 208" enable-background="new 0 0 192 208" xml:space="preserve">
<g>
	<circle fill="none" cx="96" cy="112" r="4"/>
	<polygon fill="none" points="107.0155,8 84.9843,8 86.7615,16 105.2383,16 	"/>
	<path fill="none" d="M96,24C47.4763,24,8,63.4764,8,112s39.4763,88,88,88c48.5235,0,88-39.4764,88-88S144.5235,24,96,24z
		 M122.8907,161.5468L97.7419,123.824C97.1683,123.9084,96.5963,124,96,124c-6.6173,0-12-5.3828-12-12
		c0-5.2076,3.3539-9.6064,8-11.2628V40h8v60.7372c4.6459,1.6564,8,6.0552,8,11.2628c0,3.1068-1.2169,5.9144-3.1609,8.048
		l24.7076,37.0612L122.8907,161.5468z"/>
	<path d="M113.0875,17.5536l2.8188-12.6864c0.2617-1.1836-0.0276-2.422-0.7852-3.3712C114.3591,0.5508,113.2147,0,112,0H80
		c-1.2149,0-2.3593,0.5508-3.1213,1.496c-0.7576,0.9492-1.0467,2.1876-0.7852,3.3712l2.8188,12.6864C34.1067,25.6412,0,64.9,0,112
		c0,52.9336,43.0663,96,96,96c52.9335,0,96-43.0664,96-96C192,64.9,157.8931,25.6412,113.0875,17.5536z M86.7615,16l-1.7772-8
		h22.0312l-1.7772,8H86.7615z M96,200c-48.5237,0-88-39.4764-88-88s39.4763-88,88-88c48.5235,0,88,39.4764,88,88
		S144.5235,200,96,200z"/>
	<path d="M108,112c0-5.2076-3.3541-9.6064-8-11.2628V40h-8v60.7372c-4.6461,1.6564-8,6.0552-8,11.2628c0,6.6172,5.3827,12,12,12
		c0.5963,0,1.1683-0.0916,1.7419-0.176l25.1488,37.7228l6.656-4.4376l-24.7076-37.0612C106.7831,117.9144,108,115.1068,108,112z
		 M92,112c0-2.2072,1.7927-4,4-4c2.2071,0,4,1.7928,4,4s-1.7929,4-4,4C93.7927,116,92,114.2072,92,112z"/>
</g>
</svg>
