<?xml version="1.0" encoding="utf-8"?>
<!-- Generator: Adobe Illustrator 19.2.0, SVG Export Plug-In . SVG Version: 6.00 Build 0)  -->
<svg version="1.1" id="student" xmlns="http://www.w3.org/2000/svg" xmlns:xlink="http://www.w3.org/1999/xlink" x="0px" y="0px"
	 viewBox="0 0 200 220" enable-background="new 0 0 200 220" xml:space="preserve">
<g>
	<path d="M116,132v-4h-8v4c0,4.41-3.588,8-8,8s-8-3.59-8-8v-4h-8v4c0,8.8244,7.1776,16,16,16S116,140.8244,116,132z"/>
	<path d="M72,88c-4.412,0-8,3.59-8,8s3.588,8,8,8s8-3.59,8-8S76.412,88,72,88z"/>
	<path d="M179.9608,180H124v-14.806c1.1424-0.406,2.2736-0.832,3.3744-1.3204C127.5868,163.9084,127.778,164,128,164h50
		c1.412,0,2.7188-0.746,3.4396-1.9572c0.7204-1.2148,0.748-2.7184,0.072-3.9568l-23.4644-43.0184
		C166.108,112.7448,172,106.0164,172,98c0-8.6928-6.8828-15.9632-16-17.636V72V20h8v40h8V20h4c2.2088,0,4-1.7892,4-4V4
		c0-2.2108-1.7912-4-4-4H32c-2.2088,0-4,1.7892-4,4v12c0,2.2108,1.7912,4,4,4h12v52v8.364C34.8828,82.0368,28,89.3072,28,98
		c0,8.0164,5.892,14.7448,13.9528,17.0676L18.4884,158.086c-0.676,1.2384-0.6484,2.742,0.072,3.9568
		C19.2812,163.254,20.588,164,22,164h50c0.222,0,0.4132-0.0916,0.6256-0.1264c1.1008,0.4884,2.232,0.9144,3.3744,1.3204V180H20.0392
		C8.9904,180,0,188.9728,0,200v16c0,2.2108,1.7912,4,4,4h192c2.2088,0,4-1.7892,4-4v-16C200,188.9728,191.0096,180,179.9608,180z
		 M52,120.0196V116v-8V88v-8v-4h96v4v8v20v8v4.0196C148,142.0664,130.0428,160,107.9708,160H92.0292
		C69.9572,160,52,142.0664,52,120.0196z M139.6388,156c8.3504-7.3436,14.1108-17.5152,15.7964-29.0164L171.2616,156H139.6388z
		 M164,98c0,4.3408-3.354,8.006-8,9.386V88.614C160.646,89.994,164,93.6592,164,98z M36,8h136v4h-20H48H36V8z M148,20v48H52V20H148z
		 M36,98c0-4.3408,3.354-8.006,8-9.386v18.772C39.354,106.006,36,102.3408,36,98z M28.7384,156l15.8264-29.0164
		c1.6856,11.5012,7.446,21.6728,15.7964,29.0164H28.7384z M84,167.274c2.6168,0.4428,5.288,0.726,8.0292,0.726h15.9416
		c2.7412,0,5.4124-0.2832,8.0292-0.726V180H84V167.274z M112.9512,188L100,198.7928L87.0488,188H112.9512z M192,212H8v-12
		c0-6.6172,5.4004-12,12.0392-12h54.5112l22.8892,19.0744C98.1816,207.6916,99.09,208,100,208s1.8184-0.3084,2.5604-0.9256
		L125.4496,188h54.5112C186.5996,188,192,193.3828,192,200V212z"/>
	<path d="M128,104c4.412,0,8-3.59,8-8s-3.588-8-8-8s-8,3.59-8,8S123.588,104,128,104z"/>
	<rect x="60" y="28" width="8" height="32.332"/>
</g>
</svg>
