<?xml version="1.0" encoding="utf-8"?>
<!-- Generator: Adobe Illustrator 19.2.0, SVG Export Plug-In . SVG Version: 6.00 Build 0)  -->
<svg version="1.1" id="surfing" xmlns="http://www.w3.org/2000/svg" xmlns:xlink="http://www.w3.org/1999/xlink" x="0px" y="0px"
	 viewBox="0 0 232 224.9376" enable-background="new 0 0 232 224.9376" xml:space="preserve">
<g>
	<path d="M156,198.5156c-2.2088,0-4,1.7892-4,4c0,7.9532-6.8244,14.422-15.2108,14.422c-8.3868,0-15.2112-6.4688-15.2112-14.422
		c0-2.2108-1.7908-4-4-4c-0.2796,0-0.5252,0.1048-0.7888,0.1592c-0.264-0.0544-0.5096-0.1592-0.7892-0.1592c-2.2088,0-4,1.7892-4,4
		c0,7.9532-6.8244,14.422-15.2108,14.422c-8.3868,0-15.2112-6.4688-15.2112-14.422c0-2.2108-1.7908-4-4-4
		c-0.2796,0-0.5252,0.1048-0.7888,0.1592c-0.264-0.0544-0.5096-0.1592-0.7892-0.1592c-2.2088,0-4,1.7892-4,4
		c0,7.9532-6.8244,14.422-15.2108,14.422c-8.3868,0-15.2112-6.4688-15.2112-14.422c0-2.2108-1.7908-4-4-4c-2.2088,0-4,1.7892-4,4
		c0,12.3636,10.4124,22.422,23.2112,22.422c8.5204,0,15.9628-4.4712,20-11.0992c4.0368,6.628,11.4792,11.0992,20,11.0992
		c8.5204,0,15.9628-4.4712,20-11.0992c4.0368,6.628,11.4792,11.0992,20,11.0992c12.7988,0,23.2108-10.0584,23.2108-22.422
		C160,200.3048,158.2088,198.5156,156,198.5156z"/>
	<path d="M228,152.9376c-2.2088,0-4,1.7892-4,4c0,13.2344-10.7656,24-24,24s-24-10.7656-24-24c0-2.2108-1.7912-4-4-4s-4,1.7892-4,4
		c0,12.518-9.636,22.8136-21.878,23.8924c0.0032-0.0328,0.0236-0.0584,0.0264-0.0916C147.3768,165.8284,148,150.1016,148,134
		c0-53.8632-8.5216-134-32-134S84,80.1368,84,134c0,16.144,0.6288,31.892,1.8628,46.8296C73.6276,179.7432,64,169.4504,64,156.9376
		c0-2.2108-1.7912-4-4-4s-4,1.7892-4,4c0,13.2344-10.7656,24-24,24s-24-10.7656-24-24c0-2.2108-1.7912-4-4-4s-4,1.7892-4,4
		c0,17.6444,14.3556,32,32,32c12.0396,0,22.5392-6.69,28-16.5424c5.4608,9.8524,15.9604,16.5424,28,16.5424s22.5392-6.69,28-16.5424
		c5.4608,9.8524,15.9604,16.5424,28,16.5424s22.5392-6.69,28-16.5424c5.4608,9.8524,15.9604,16.5424,28,16.5424
		c17.6444,0,32-14.3556,32-32C232,154.7268,230.2088,152.9376,228,152.9376z M120,156.9376c0-2.2108-1.7912-4-4-4s-4,1.7892-4,4
		c0,11.218-7.746,20.6348-18.1628,23.252C92.6212,165.4636,92,149.93,92,134C92,57.086,106.2148,8,116,8s24,49.086,24,126
		c0,15.8828-0.6132,31.3868-1.8244,46.082c-0.0028,0.04,0.016,0.0748,0.0136,0.1148C127.7588,177.5888,120,168.1652,120,156.9376z"
		/>
	<path d="M116,40.9376c-2.2088,0-4,1.7892-4,4v96c0,2.2108,1.7912,4,4,4s4-1.7892,4-4v-96C120,42.7268,118.2088,40.9376,116,40.9376
		z"/>
	<path d="M116,20.9376c-2.2088,0-4,1.7892-4,4v4c0,2.2108,1.7912,4,4,4s4-1.7892,4-4v-4C120,22.7268,118.2088,20.9376,116,20.9376z"
		/>
</g>
</svg>
