<?xml version="1.0" encoding="utf-8"?>
<!-- Generator: Adobe Illustrator 19.2.0, SVG Export Plug-In . SVG Version: 6.00 Build 0)  -->
<svg version="1.1" id="target" xmlns="http://www.w3.org/2000/svg" xmlns:xlink="http://www.w3.org/1999/xlink" x="0px" y="0px"
	 viewBox="0 0 206.4063 232.002" enable-background="new 0 0 206.4063 232.002" xml:space="preserve">
<path d="M202.4063,176h-18.25c-0.6732,0-1.2784,0.208-1.8344,0.5008l-8.6488-8.9648C190.0095,149.73,200,126.0128,200,100
	C200,44.8592,155.1407,0,100,0C44.8591,0,0,44.8592,0,100c0,44.0184,28.6003,81.4572,68.1843,94.7808l-11.9304,31.8148
	c-0.7736,2.0684,0.2732,4.3732,2.3396,5.1504c0.4648,0.172,0.9376,0.256,1.4065,0.256c1.6171,0,3.1443-0.9924,3.7459-2.5976l12-32
	c0.0468-0.1252,0.0272-0.2536,0.0608-0.38C83.5579,198.958,91.6583,200,100,200c8.3415,0,16.4419-1.042,24.1931-2.9756
	c0.0336,0.1264,0.014,0.2548,0.0608,0.38l12,32c0.6016,1.6052,2.1288,2.5976,3.7461,2.5976c0.4687,0,0.9415-0.084,1.4063-0.256
	c2.0664-0.7772,3.1132-3.082,2.3396-5.1504l-11.9304-31.8148c13.6088-4.5808,25.9168-12.0024,36.2116-21.5756l11.922,12.3572
	l-0.504,15.6232c-0.074,2.2068,1.6604,4.0548,3.8672,4.1268c0.0432,0.002,0.086,0.002,0.1328,0.002
	c2.1484,0,3.926-1.7068,3.9924-3.8712l0.5585-17.3124c0.0015-0.0448-0.0221-0.086-0.0221-0.1308h14.4324c2.2108,0,4-1.7912,4-4
	S204.6171,176,202.4063,176z M100,192c-50.7305,0-92-41.2716-92-92S49.2695,8,100,8c50.7303,0,92,41.2716,92,92
	c0,23.7548-9.0505,45.4356-23.8837,61.776l-11.1876-11.5964C168.7563,136.7772,176,119.2384,176,100c0-41.9064-34.0937-76-76-76
	c-41.9065,0-76,34.0936-76,76s34.0935,76,76,76c19.7927,0,37.7843-7.6684,51.3223-20.1104l11.1548,11.5624
	C146.0571,182.672,124.1023,192,100,192z M140.2419,132.8828C147.5827,123.9152,152,112.4664,152,100c0-28.674-23.328-52-52-52
	s-52,23.326-52,52s23.328,52,52,52c13.3299,0,25.4655-5.0848,34.6783-13.3624l11.0964,11.502
	C133.6779,161.1928,117.6391,168,100,168c-37.496,0-68-30.504-68-68s30.504-68,68-68s68,30.504,68,68
	c0,16.9816-6.2993,32.4904-16.6285,44.4188L140.2419,132.8828z M123.3663,115.3896C126.2875,110.9692,128,105.6836,128,100
	c0-15.4396-12.5625-28-28-28c-15.4377,0-28,12.5604-28,28s12.5623,28,28,28c6.8675,0,13.1571-2.496,18.0339-6.6152l11.0964,11.502
	C121.3611,139.7768,111.1763,144,100,144c-24.2617,0-44-19.7384-44-44s19.7383-44,44-44c24.2615,0,44,19.7384,44,44
	c0,10.206-3.5237,19.586-9.3765,27.0584L123.3663,115.3896z M105.4727,96.8416c-1.5312-1.5896-4.0628-1.6308-5.6564-0.1012
	c-1.59,1.5332-1.6368,4.0664-0.1016,5.656l12.6973,13.1612C108.9903,118.294,104.7115,120,100,120c-11.0273,0-20-8.9728-20-20
	s8.9727-20,20-20c11.0271,0,20,8.9728,20,20c0,3.4032-0.9345,6.5624-2.4405,9.3712L105.4727,96.8416z"/>
</svg>
