<?xml version="1.0" encoding="utf-8"?>
<!-- Generator: Adobe Illustrator 19.2.0, SVG Export Plug-In . SVG Version: 6.00 Build 0)  -->
<svg version="1.1" id="testtubes" xmlns="http://www.w3.org/2000/svg" xmlns:xlink="http://www.w3.org/1999/xlink" x="0px" y="0px"
	 viewBox="0 0 232 168" enable-background="new 0 0 232 168" xml:space="preserve">
<g>
	<rect x="28" y="8" fill="none" width="36" height="20"/>
	<path fill="none" d="M64,36H28v105.9804C28,151.916,36.0744,160,46,160c9.9256,0,18-8.084,18-18.0196V72v-8V36z"/>
	<rect x="100" y="8" fill="none" width="36" height="20"/>
	<path fill="none" d="M208,36h-36v28v8v69.9804C172,151.916,180.0744,160,190,160c9.9256,0,18-8.084,18-18.0196V72v-8V36z"/>
	<path fill="none" d="M136,36h-36v28v8v69.9804C100,151.916,108.0744,160,118,160c9.9256,0,18-8.084,18-18.0196V72v-8V36z"/>
	<rect x="172" y="8" fill="none" width="36" height="20"/>
	<path d="M232,64h-16V32V8h8V0h-12h-44h-12v8h8v24v32h-20V32V8h8V0h-12H96H84v8h8v24v32H72V32V8h8V0H68H24H12v8h8v24v32H0v8h20
		v69.9804C20,156.328,31.664,168,46,168s26-11.672,26-26.0196V72h20v69.9804C92,156.328,103.664,168,118,168s26-11.672,26-26.0196
		V72h20v69.9804C164,156.328,175.664,168,190,168s26-11.672,26-26.0196V72h16V64z M64,8v20H28V8H64z M64,141.9804
		C64,151.916,55.9256,160,46,160c-9.9256,0-18-8.084-18-18.0196V36h36v28v8V141.9804z M136,8v20h-36V8H136z M136,141.9804
		C136,151.916,127.9256,160,118,160c-9.9256,0-18-8.084-18-18.0196V72v-8V36h36v28v8V141.9804z M208,8v20h-36V8H208z M208,141.9804
		C208,151.916,199.9256,160,190,160c-9.9256,0-18-8.084-18-18.0196V72v-8V36h36v28v8V141.9804z"/>
</g>
</svg>
