<?xml version="1.0" encoding="utf-8"?>
<!-- Generator: Adobe Illustrator 19.2.0, SVG Export Plug-In . SVG Version: 6.00 Build 0)  -->
<svg version="1.1" id="tree" xmlns="http://www.w3.org/2000/svg" xmlns:xlink="http://www.w3.org/1999/xlink" x="0px" y="0px"
	 viewBox="0 0 172 228" enable-background="new 0 0 172 228" xml:space="preserve">
<g>
	<path d="M172,74c0-16.4296-10.6192-30.9844-26.0644-36.086c-3.9316-8.996-12.244-15.242-21.9748-16.5156
		C115.0272,7.9608,100.2364,0,84,0C68.58,0,54.2912,7.3008,45.254,19.664c-1.0332-0.1368-2.0764-0.2032-3.1272-0.2032
		c-12.1384,0-22.2184,8.9768-23.7868,20.7892C6.8184,48.5236,0,61.742,0,76c0,17.1992,9.7696,32.504,25.1348,39.7656
		c-0.002,0.078-0.002,0.1564-0.002,0.2344c0,13.2344,10.7656,24,24,24c5.342,0,10.424-1.7344,14.592-4.9416
		c1.3884,0.722,2.8232,1.3376,4.2752,1.9044V220H44c-2.2088,0-4,1.7892-4,4s1.7912,4,4,4h28h24h28.9256c2.2092,0,4-1.7892,4-4
		s-1.7908-4-4-4H100v-83.0392c4.1928-1.6364,8.1452-3.8856,11.6916-6.7616c7.078,3.2304,15.9236,1.8672,21.6836-3.328
		C135.496,127.6132,137.742,128,140,128c11.0272,0,20-8.9728,20-20c0-1.9064-0.2636-3.7696-0.7832-5.5664
		C167.3768,95.2228,172,85.0196,172,74z M92,140v80H76v-80H92z M152.0548,97.9608c-1.5136,1.1408-2.0176,3.1916-1.2052,4.9024
		C151.6132,104.4764,152,106.2032,152,108c0,6.6172-5.3828,12-12,12c-2.0136,0-3.9276-0.4804-5.6896-1.4296
		c-1.6836-0.9024-3.7832-0.4844-4.996,0.996c-3.7908,4.6484-10.9532,5.7344-15.9316,2.4492
		c-1.5312-1.0116-3.5644-0.8556-4.924,0.4024C101.7892,128.5976,93.1016,132,84,132c-6.6112,0-13.0744-1.8084-18.6952-5.2264
		c-0.6428-0.3908-1.3616-0.582-2.0764-0.582c-1.0292,0-2.0508,0.3984-2.82,1.16c-3.0176,3-7.0216,4.6484-11.2756,4.6484
		c-8.8224,0-16-7.1756-16-16c0-0.754,0.0508-1.496,0.1524-2.2228c0.256-1.828-0.7736-3.5976-2.4924-4.2772
		C16.9472,104.0392,8,90.8908,8,76c0-12.2032,6.1076-23.4804,16.338-30.164c1.074-0.6992,1.746-1.8752,1.8084-3.1564
		c0.4064-8.5352,7.426-15.2188,15.9804-15.2188c1.348,0,2.678,0.164,3.9552,0.4884c1.668,0.4336,3.4064-0.2576,4.342-1.6992
		C57.8416,14.8244,70.3924,8,84,8c14.0996,0,26.8908,7.2032,34.2168,19.2696c0.6856,1.1288,1.8808,1.8476,3.1972,1.918
		c8.086,0.4532,15.0488,5.6836,17.7404,13.324c0.4372,1.2424,1.4568,2.1876,2.7244,2.5312C154.9044,48.578,164,60.4884,164,74
		C164,83.5,159.6464,92.2304,152.0548,97.9608z"/>
	<path d="M91.0644,62.8436c-7.3204-1.5508-14.7988-0.168-21.0724,3.9064c-0.4548,0.296-0.8764,0.6268-1.3104,0.9452
		C66.5492,62.4168,62.8808,57.916,58.008,54.75c-6.2756-4.0744-13.76-5.4572-21.0724-3.9064
		c-2.1604,0.4612-3.5412,2.586-3.08,4.7464c0.4588,2.156,2.5684,3.5192,4.744,3.082c5.2284-1.1212,10.5704-0.1212,15.0508,2.7852
		c4.4804,2.91,7.5584,7.3904,8.67,12.6172c0.0036,0.0172,0.0152,0.03,0.0192,0.0476c-2.1472,3.0512-3.6852,6.5276-4.484,10.288
		c-0.4592,2.1604,0.9196,4.2852,3.08,4.7464c0.2812,0.0584,0.5604,0.0856,0.836,0.0856c1.8476,0,3.5096-1.2888,3.908-3.1676
		c1.1116-5.2268,4.1896-9.7072,8.67-12.6172c4.4844-2.9064,9.826-3.9064,15.0508-2.7852c2.174,0.4492,4.2832-0.922,4.744-3.082
		C94.6056,65.4296,93.2248,63.3048,91.0644,62.8436z"/>
	<path d="M134.166,89.0392c-9.4512-5.68-12.5216-17.9924-6.8416-27.4456c1.1364-1.8904,0.5232-4.3516-1.3692-5.488
		c-1.8948-1.1328-4.3496-0.5236-5.4904,1.3708c-7.9492,13.2308-3.6524,30.4688,9.58,38.422
		c0.6448,0.3868,1.3556,0.5704,2.0568,0.5704c1.3572,0,2.6816-0.6916,3.4316-1.9416
		C136.672,92.6368,136.0584,90.1796,134.166,89.0392z"/>
</g>
</svg>
