<?xml version="1.0" encoding="utf-8"?>
<!-- Generator: Adobe Illustrator 19.2.0, SVG Export Plug-In . SVG Version: 6.00 Build 0)  -->
<svg version="1.1" id="wheat" xmlns="http://www.w3.org/2000/svg" xmlns:xlink="http://www.w3.org/1999/xlink" x="0px" y="0px"
	 viewBox="0 0 192.9504 195.037" enable-background="new 0 0 192.9504 195.037" xml:space="preserve">
<g>
	<path fill="none" d="M89.148,103.8338c-8.2832-6.6132-23.252-10.7461-39.6584-10.7461c-16.408,0-31.3768,4.1329-39.66,10.7461
		c8.2812,6.6092,23.25,10.7419,39.66,10.7419C65.898,114.5757,80.8668,110.443,89.148,103.8338z"/>
	<path fill="none" d="M68.2476,136.5954c-14.2092,6.9336-26.0468,16.7384-31.1424,25.5c10.0524,1.3792,25.0604-1.91,39.2656-8.8397
		c14.2068-6.9299,26.0468-16.7343,31.1444-25.5C97.4604,126.373,82.4548,129.6658,68.2476,136.5954z"/>
	<path fill="none" d="M71.0992,73.955c1.1328-12.4064-5.5432-27.6524-17.578-39.6876C41.486,22.2322,26.238,15.5797,13.8336,16.6854
		c-1.1348,12.4063,5.5428,27.6524,17.578,39.6876S58.6948,75.0642,71.0992,73.955z"/>
	<path fill="none" d="M113.3708,49.4902c0-16.4065-4.1328-31.3752-10.7444-39.6564c-6.6112,8.2812-10.744,23.2499-10.744,39.6564
		c0,16.406,4.1328,31.3748,10.744,39.656C109.238,80.865,113.3708,65.8962,113.3708,49.4902z"/>
	<path fill="none" d="M151.6596,77.9666c6.9296-14.2072,10.2228-29.2229,8.842-39.2696
		c-8.7656,5.1016-18.5704,16.9376-25.498,31.1448c-6.93,14.2068-10.2228,29.2224-8.844,39.2692
		C134.9252,104.0094,144.73,92.1738,151.6596,77.9666z"/>
	<path fill="none" d="M88.9388,186.4042c6.3556-1.6056,15.1252-6.336,23.8752-14.7892c8.75-8.4492,13.7832-17.0468,15.6112-23.3436
		c-6.3536,1.6092-15.1228,6.3396-23.8728,14.7888C95.8004,171.5094,90.7672,180.1074,88.9388,186.4042z"/>
	<path fill="none" d="M146.1852,130.5134c6.2948-1.828,14.8924-6.8592,23.3456-15.6092c8.4492-8.75,13.1776-17.5236,14.7872-23.8788
		c-6.2968,1.828-14.8948,6.8632-23.346,15.6132C152.5228,115.3886,147.7924,124.1582,146.1852,130.5134z"/>
	<path d="M68.482,82.0602c2.3732,0,4.6876-0.2148,6.916-0.6485c1.5996-0.3123,2.8476-1.5623,3.16-3.16
		C81.56,62.869,73.9528,43.3846,59.1772,28.611C44.404,13.8338,24.9292,6.2322,9.5348,9.2282
		C7.9372,9.541,6.6872,10.791,6.3744,12.3886C3.3708,27.7714,10.978,47.2557,25.7552,62.029
		C38.39,74.6658,54.4684,82.0602,68.482,82.0602z M13.8336,16.6854c12.4044-1.1057,27.6524,5.5468,39.6876,17.582
		C65.556,46.3026,72.232,61.5486,71.0992,73.955c-12.4044,1.1092-27.6524-5.5468-39.6876-17.582S12.6988,29.0917,13.8336,16.6854z"
		/>
	<path d="M102.6264,98.9782c0.9552,0,1.9104-0.3396,2.67-1.0232c9.916-8.8868,16.0744-27.4612,16.0744-48.4648
		c0-21.004-6.1584-39.5785-16.0744-48.4648c-1.5196-1.3672-3.8204-1.3672-5.34,0c-9.916,8.8863-16.074,27.4608-16.074,48.4648
		c0,21.0036,6.158,39.578,16.074,48.4648C100.7164,98.6386,101.6716,98.9782,102.6264,98.9782z M102.6264,9.8338
		c6.6116,8.2812,10.7444,23.2499,10.7444,39.6564c0,16.406-4.1328,31.3748-10.7444,39.656
		c-6.6112-8.2812-10.744-23.25-10.744-39.656C91.8824,33.0837,96.0152,18.115,102.6264,9.8338z"/>
	<path d="M119.6108,116.0994c0.5724,1.6523,2.1212,2.6916,3.7792,2.6916c0.43,0,0.8672-0.0704,1.2972-0.2153
		c11.8964-4.0779,24.986-18.2927,34.164-37.1011c9.1716-18.8128,12.3164-37.8792,8.2012-49.766
		c-0.7208-2.078-2.9904-3.1796-5.0764-2.4764c-11.8984,4.078-24.988,18.2932-34.164,37.1016
		C118.6384,85.1462,115.4956,104.2166,119.6108,116.0994z M135.0036,69.8418c6.9276-14.2072,16.7324-26.0432,25.498-31.1448
		c1.3808,10.0467-1.9124,25.0624-8.842,39.2696c-6.9296,14.2072-16.7344,26.0428-25.5,31.1444
		C124.7808,99.0642,128.0736,84.0486,135.0036,69.8418z"/>
	<path d="M188.9488,82.2322c-0.0216,0-0.0432,0-0.0644,0c-9.6856,0.1524-22.586,7.3752-33.666,18.8515
		c-11.082,11.4729-17.8496,24.6133-17.6624,34.3009c0.0432,2.1796,1.8244,3.922,3.9984,3.922c0.0212,0,0.0428,0,0.0644,0
		c9.6816-0.1524,22.582-7.3712,33.666-18.848c11.08-11.4724,17.8456-24.6168,17.662-34.3044
		C192.904,83.9746,191.1224,82.2322,188.9488,82.2322z M169.5308,114.9042c-8.4532,8.75-17.0508,13.7812-23.3456,15.6092
		c1.6072-6.3552,6.3376-15.1248,14.7868-23.8748c8.4512-8.75,17.0492-13.7852,23.346-15.6132
		C182.7084,97.3806,177.98,106.1542,169.5308,114.9042z"/>
	<path d="M133.2984,139.6422c-9.7716-0.0076-22.8264,6.5824-34.3048,17.6604c-11.4744,11.082-18.6972,23.9844-18.8476,33.668
		c-0.0332,2.2032,1.7208,4.0196,3.922,4.0624c0.1328,0,0.2616,0.004,0.3944,0.004c9.6444,0,22.59-6.7344,33.91-17.664
		c11.4728-11.082,18.6936-23.9844,18.848-33.668C137.2552,141.5018,135.5016,139.6854,133.2984,139.6422z M112.814,171.615
		c-8.75,8.4532-17.5196,13.1836-23.8752,14.7892c1.8284-6.2968,6.8616-14.8948,15.6136-23.344
		c8.75-8.4492,17.5192-13.1796,23.8728-14.7888C126.5972,154.5682,121.564,163.1658,112.814,171.615z"/>
	<path d="M116.98,126.283c0.7128-2.086-0.3944-4.3556-2.4764-5.078c-11.8792-4.1096-30.9512-0.9728-49.764,8.2032
		c-18.8104,9.1755-33.0272,22.2656-37.0996,34.16c-0.7128,2.086,0.3948,4.3555,2.4768,5.078
		c3.4548,1.1956,7.5156,1.7775,12.004,1.7775c10.9452,0,24.4176-3.4727,37.7576-9.9807
		C98.6888,151.2714,112.904,138.1774,116.98,126.283z M76.3708,153.2557c-14.2052,6.9297-29.2132,10.2189-39.2656,8.8397
		c5.0956-8.7616,16.9332-18.5664,31.1424-25.5c14.2072-6.9296,29.2128-10.2224,39.2676-8.8397
		C102.4176,136.5214,90.5776,146.3258,76.3708,153.2557z"/>
	<path d="M97.9564,106.5058c1.3616-1.5196,1.3616-3.8244,0-5.344c-8.8904-9.9141-27.4628-16.0741-48.4668-16.0741
		c-21.0056,0-39.578,6.16-48.4684,16.0741c-1.3616,1.5196-1.3616,3.8244,0,5.344c8.8884,9.9099,27.4608,16.0699,48.4684,16.0699
		C70.4956,122.5757,89.068,116.4157,97.9564,106.5058z M49.4896,93.0877c16.4064,0,31.3752,4.1329,39.6584,10.7461
		c-8.2812,6.6092-23.25,10.7419-39.6584,10.7419c-16.41,0-31.3788-4.1327-39.66-10.7419
		C18.1128,97.2206,33.0816,93.0877,49.4896,93.0877z"/>
</g>
</svg>
