<?xml version="1.0" encoding="utf-8"?>
<!-- Generator: Adobe Illustrator 19.2.0, SVG Export Plug-In . SVG Version: 6.00 Build 0)  -->
<svg version="1.1" id="wheelchair" xmlns="http://www.w3.org/2000/svg" xmlns:xlink="http://www.w3.org/1999/xlink" x="0px" y="0px"
	 viewBox="0 0 200 216" enable-background="new 0 0 200 216" xml:space="preserve">
<g>
	<path fill="none" d="M108,99.4052c-10.3592-9.302-23.9292-15.0616-38.848-15.3468l-2.902,0.176l-0.0088-0.1452
		C33.9752,85.0312,8,111.508,8,144c0,33.086,26.916,60,60,60s60-26.914,60-60c0-17.3928-7.4832-33.0316-19.3456-44H108V99.4052z
		 M120,144c0,28.672-23.326,52-52,52s-52-23.328-52-52s23.326-52,52-52S120,115.328,120,144z"/>
	<path fill="none" d="M148.9356,64l-7.2012-12H72v6.8248c0.224,1.7964,0.4276,3.5276,0.6088,5.1752H148.9356z"/>
	<path fill="none" d="M68,100c-24.2616,0-44,19.7384-44,44s19.7384,44,44,44s44-19.7384,44-44S92.2616,100,68,100z"/>
	<path fill="none" d="M176,168.4044V192h-8v-23.5956c-9.1172,1.8584-16,9.938-16,19.5956c0,11.0272,8.9728,20,20,20
		c11.0272,0,20-8.9728,20-20C192,178.3424,185.1172,170.2628,176,168.4044z"/>
	<path d="M68,92c-28.674,0-52,23.328-52,52s23.326,52,52,52s52-23.328,52-52S96.674,92,68,92z M68,188c-24.2616,0-44-19.7384-44-44
		s19.7384-44,44-44s44,19.7384,44,44S92.2616,188,68,188z"/>
	<path d="M176,160.3192V96c0-2.2108-1.7912-4-4-4h-60.272c-10.4524-8.8036-23.5784-14.494-37.974-15.7084
		c-0.0904-1.204-0.2084-2.658-0.352-4.2916H156c1.4416,0,2.7716-0.7736,3.4804-2.0272c0.7112-1.258,0.6916-2.7972-0.0508-4.0312
		l-12-20C146.7072,44.7384,145.4044,44,144,44H69.7924c-3.21-18.2924-8.6568-37.7552-17.6732-43.3908C51.4844,0.2108,50.75,0,50,0
		H10v8h38.7208C56.0596,14.0484,61.228,37.7296,64,59.3672V68c0,1.1524,0.5008,2.172,1.2796,2.9016
		c0.1668,1.79,0.312,3.526,0.4408,5.214C29.2848,77.332,0,107.2736,0,144c0,37.496,30.504,68,68,68s68-30.504,68-68
		c0-16.778-6.1388-32.1284-16.2472-44H168v60.3192c-13.5464,1.9516-24,13.6048-24,27.6808c0,15.4376,12.5604,28,28,28
		s28-12.5624,28-28C200,173.924,189.5464,162.2708,176,160.3192z M72,52h69.7344l7.2012,12H72.6088
		C72.4276,62.3524,72.224,60.6212,72,58.8248V52z M128,144c0,33.086-26.916,60-60,60S8,177.086,8,144
		c0-32.492,25.9752-58.9688,58.2412-59.9108l0.0088,0.1452l2.902-0.176C84.0708,84.3436,97.6408,90.1032,108,99.4052V100h0.6544
		C120.5168,110.9684,128,126.6072,128,144z M172,208c-11.0272,0-20-8.9728-20-20c0-9.6576,6.8828-17.7372,16-19.5956V192h8v-23.5956
		c9.1172,1.8584,16,9.938,16,19.5956C192,199.0272,183.0272,208,172,208z"/>
</g>
</svg>
