<?xml version="1.0" encoding="utf-8"?>
<!-- Generator: Adobe Illustrator 19.2.0, SVG Export Plug-In . SVG Version: 6.00 Build 0)  -->
<svg version="1.1" id="wireboundbook" xmlns="http://www.w3.org/2000/svg" xmlns:xlink="http://www.w3.org/1999/xlink" x="0px"
	 y="0px" viewBox="0 0 176 196" enable-background="new 0 0 176 196" xml:space="preserve">
<g>
	<path fill="none" d="M56,138c0-3.3083-2.6972-6-6.0116-6H14.0116C10.6972,132,8,134.6917,8,138c0,3.3085,2.6972,6,6.0116,6h35.9768
		C53.3028,144,56,141.3085,56,138z"/>
	<rect x="116" y="24" fill="none" width="36" height="4"/>
	<path fill="none" d="M56,58c0-3.3083-2.6972-6-6.0116-6H14.0116C10.6972,52,8,54.6917,8,58c0,3.3085,2.6972,6,6.0116,6h35.9768
		C53.3028,64,56,61.3085,56,58z"/>
	<path fill="none" d="M56,98c0-3.3083-2.6972-6-6.0116-6H14.0116C10.6972,92,8,94.6917,8,98c0,3.3085,2.6972,6,6.0116,6h35.9768
		C53.3028,104,56,101.3085,56,98z"/>
	<path fill="none" d="M36,44h13.9884C57.7148,44,64,50.2813,64,58c0,7.7189-6.2852,14-14.0116,14H36v12h13.9884
		C57.7148,84,64,90.2813,64,98c0,7.7189-6.2852,14-14.0116,14H36v12h13.9884C57.7148,124,64,130.2812,64,138
		c0,7.7189-6.2852,14-14.0116,14H36v36h132V8H36V44z M108,20c0-2.2107,1.7912-4,4-4h44c2.2088,0,4,1.7893,4,4v12
		c0,2.2109-1.7912,4-4,4h-44c-2.2088,0-4-1.7891-4-4V20z M72,44h84c2.2088,0,4,1.7893,4,4c0,2.2109-1.7912,4-4,4H72
		c-2.2088,0-4-1.7891-4-4C68,45.7893,69.7912,44,72,44z M72,64h84c2.2088,0,4,1.7893,4,4c0,2.2109-1.7912,4-4,4H72
		c-2.2088,0-4-1.7891-4-4C68,65.7893,69.7912,64,72,64z M72,84h84c2.2088,0,4,1.7893,4,4c0,2.2109-1.7912,4-4,4H72
		c-2.2088,0-4-1.7891-4-4C68,85.7893,69.7912,84,72,84z M72,104h84c2.2088,0,4,1.7893,4,4c0,2.2109-1.7912,4-4,4H72
		c-2.2088,0-4-1.7891-4-4C68,105.7893,69.7912,104,72,104z M72,124h84c2.2088,0,4,1.7893,4,4c0,2.2109-1.7912,4-4,4H72
		c-2.2088,0-4-1.7891-4-4C68,125.7893,69.7912,124,72,124z M72,144h84c2.2088,0,4,1.7893,4,4c0,2.2109-1.7912,4-4,4H72
		c-2.2088,0-4-1.7891-4-4C68,145.7893,69.7912,144,72,144z M72,164h84c2.2088,0,4,1.7893,4,4c0,2.2109-1.7912,4-4,4H72
		c-2.2088,0-4-1.7891-4-4C68,165.7893,69.7912,164,72,164z"/>
	<path d="M172,0H32c-2.2088,0-4,1.7893-4,4v40H14.0116C6.2852,44,0,50.2813,0,58c0,7.7189,6.2852,14,14.0116,14H28v12H14.0116
		C6.2852,84,0,90.2813,0,98c0,7.7189,6.2852,14,14.0116,14H28v12H14.0116C6.2852,124,0,130.2812,0,138
		c0,7.7189,6.2852,14,14.0116,14H28v40c0,2.2109,1.7912,4,4,4h140c2.2088,0,4-1.7891,4-4V4C176,1.7893,174.2088,0,172,0z M8,58
		c0-3.3083,2.6972-6,6.0116-6h35.9768C53.3028,52,56,54.6917,56,58c0,3.3085-2.6972,6-6.0116,6H14.0116C10.6972,64,8,61.3085,8,58z
		 M8,98c0-3.3083,2.6972-6,6.0116-6h35.9768C53.3028,92,56,94.6917,56,98c0,3.3085-2.6972,6-6.0116,6H14.0116
		C10.6972,104,8,101.3085,8,98z M8,138c0-3.3083,2.6972-6,6.0116-6h35.9768C53.3028,132,56,134.6917,56,138
		c0,3.3085-2.6972,6-6.0116,6H14.0116C10.6972,144,8,141.3085,8,138z M168,188H36v-36h13.9884C57.7148,152,64,145.7189,64,138
		c0-7.7188-6.2852-14-14.0116-14H36v-12h13.9884C57.7148,112,64,105.7189,64,98c0-7.7187-6.2852-14-14.0116-14H36V72h13.9884
		C57.7148,72,64,65.7189,64,58c0-7.7187-6.2852-14-14.0116-14H36V8h132V188z"/>
	<path d="M112,36h44c2.2088,0,4-1.7891,4-4V20c0-2.2107-1.7912-4-4-4h-44c-2.2088,0-4,1.7893-4,4v12C108,34.2109,109.7912,36,112,36
		z M116,24h36v4h-36V24z"/>
	<path d="M72,52h84c2.2088,0,4-1.7891,4-4c0-2.2107-1.7912-4-4-4H72c-2.2088,0-4,1.7893-4,4C68,50.2109,69.7912,52,72,52z"/>
	<path d="M72,72h84c2.2088,0,4-1.7891,4-4c0-2.2107-1.7912-4-4-4H72c-2.2088,0-4,1.7893-4,4C68,70.2109,69.7912,72,72,72z"/>
	<path d="M72,92h84c2.2088,0,4-1.7891,4-4c0-2.2107-1.7912-4-4-4H72c-2.2088,0-4,1.7893-4,4C68,90.2109,69.7912,92,72,92z"/>
	<path d="M72,112h84c2.2088,0,4-1.7891,4-4c0-2.2107-1.7912-4-4-4H72c-2.2088,0-4,1.7893-4,4C68,110.2109,69.7912,112,72,112z"/>
	<path d="M72,132h84c2.2088,0,4-1.7891,4-4c0-2.2107-1.7912-4-4-4H72c-2.2088,0-4,1.7893-4,4C68,130.2109,69.7912,132,72,132z"/>
	<path d="M72,152h84c2.2088,0,4-1.7891,4-4c0-2.2107-1.7912-4-4-4H72c-2.2088,0-4,1.7893-4,4C68,150.2109,69.7912,152,72,152z"/>
	<path d="M72,172h84c2.2088,0,4-1.7891,4-4c0-2.2107-1.7912-4-4-4H72c-2.2088,0-4,1.7893-4,4C68,170.2109,69.7912,172,72,172z"/>
</g>
</svg>
