<?xml version="1.0" encoding="utf-8"?>
<!-- Generator: Adobe Illustrator 19.2.0, SVG Export Plug-In . SVG Version: 6.00 Build 0)  -->
<svg version="1.1" id="worker" xmlns="http://www.w3.org/2000/svg" xmlns:xlink="http://www.w3.org/1999/xlink" x="0px" y="0px"
	 viewBox="0 0 216 220" enable-background="new 0 0 216 220" xml:space="preserve">
<g>
	<rect x="88" y="128" width="40" height="8"/>
	<path d="M100,88H68v8c0,4.4101,3.588,8,8,8s8-3.5899,8-8h16V88z"/>
	<path d="M196.0236,180H180h-28h-12v-17.1791c16.556-8.1624,28-25.1596,28-44.8209v-2.364c9.1172-1.6727,16-8.9431,16-17.636
		c0-8.6927-6.8828-15.9631-16-17.636V76h4c2.2088,0,4-1.7891,4-4V52V38c0-20.9531-17.0312-38-37.9648-38H124H92H77.9648
		C57.0312,0,40,17.0469,40,38v14v20c0,2.2109,1.7912,4,4,4h4v4.364C38.8828,82.0369,32,89.3073,32,98
		c0,8.6929,6.8828,15.9633,16,17.636V118c0,19.6613,11.444,36.6585,28,44.8209V180H64H36H19.9764C8.9608,180,0,188.9729,0,200v16
		c0,2.2109,1.7912,4,4,4h32h28h88h28h32c2.2088,0,4-1.7891,4-4v-16C216,188.9729,207.0392,180,196.0236,180z M80,188h56h12v24H68
		v-24H80z M176,98c0,4.3409-3.354,8.0061-8,9.3861v-18.772C172.646,89.9941,176,93.6593,176,98z M168,68h-4H52h-4V56h44h32h44V68z
		 M168,38v10h-40V8h10.0352C154.5584,8,168,21.4573,168,38z M120,8v40H96V8H120z M77.9648,8H88v40H48V38
		C48,21.4573,61.4416,8,77.9648,8z M40,98c0-4.3407,3.354-8.0059,8-9.3859v18.772C43.354,106.0061,40,102.3409,40,98z M56,118v-2v-8
		V88v-8v-4h104v4v8v20v8v2c0,23.16-18.8592,42-42.0392,42H98.0392C74.8592,160,56,141.16,56,118z M84,165.9609
		C88.4596,167.2669,93.1624,168,98.0392,168h19.9216c4.8768,0,9.5796-0.7331,14.0392-2.0391V180H84V165.9609z M8,200
		c0-6.6171,5.3732-12,11.9764-12H32v24H8V200z M40,212v-24h20v24H40z M156,212v-24h20v24H156z M208,212h-24v-24h12.0236
		C202.6268,188,208,193.3829,208,200V212z"/>
	<path d="M140,104c4.412,0,8-3.5899,8-8v-8h-32v8h16C132,100.4101,135.588,104,140,104z"/>
</g>
</svg>
