<?xml version="1.0" encoding="utf-8"?>
<!-- Generator: Adobe Illustrator 19.2.0, SVG Export Plug-In . SVG Version: 6.00 Build 0)  -->
<svg version="1.1" id="workspace" xmlns="http://www.w3.org/2000/svg" xmlns:xlink="http://www.w3.org/1999/xlink" x="0px" y="0px"
	 viewBox="0 0 224 204" enable-background="new 0 0 224 204" xml:space="preserve">
<g>
	<path d="M224,124h-16h-8h-21.1032l0.4432-8.584c0.3748-7.3028-2.1328-14.1816-7.0588-19.3692
		C167.3516,90.8576,160.6092,88,153.2928,88h-2.5856c-7.3164,0-14.0588,2.8576-18.9884,8.0468
		c-4.926,5.1856-7.4336,12.0664-7.0588,19.3692v0.002l0.4432,8.582H98.8968l0.4432-8.584
		c0.3748-7.3028-2.1328-14.1816-7.0588-19.3692C87.3516,90.8576,80.6092,88,73.2928,88h-2.5856
		c-7.3164,0-14.0588,2.8576-18.9884,8.0468c-4.926,5.1856-7.4336,12.0664-7.0588,19.3692v0.002L45.1032,124H24h-8H0v8h16v72h8v-72
		h21.5164l1.2388,24H40v4v4v40h8v-40h2.9688h42.0624H96v40h8v-40v-4v-4h-6.7552l1.2388-24h27.0328l1.2388,24H120v4v4v40h8v-40
		h2.9688h42.0624H176v40h8v-40v-4v-4h-6.7552l1.2388-24H200v72h8v-72h16V124z M54.7656,156l-2.1132-40.994
		c-0.2616-5.094,1.4648-9.8692,4.8672-13.4512C60.922,97.9728,65.6056,96,70.7072,96h2.5856c5.1016,0,9.7852,1.9728,13.1876,5.5568
		c3.4024,3.582,5.1328,8.3572,4.8672,13.4472L89.2344,156H54.7656z M134.7656,156l-2.1132-40.994
		c-0.2616-5.094,1.4648-9.8692,4.8672-13.4512C140.922,97.9728,145.6056,96,150.7072,96h2.5856
		c5.1016,0,9.7852,1.9728,13.1876,5.5568c3.4024,3.582,5.1328,8.3572,4.8672,13.4472L169.2344,156H134.7656z"/>
	<path d="M110,68c18.746,0,34-15.252,34-34S128.746,0,110,0S76,15.252,76,34S91.254,68,110,68z M110,8c14.336,0,26,11.664,26,26
		s-11.664,26-26,26S84,48.336,84,34S95.664,8,110,8z"/>
	<path d="M107.0116,32.668l-6.4844,11.3476c-1.0976,1.918-0.4296,4.3612,1.4884,5.4572C102.6408,49.83,103.3244,50,103.996,50
		c1.3908,0,2.7384-0.7228,3.4768-2.0156l8-14c0.8944-1.5664,0.6328-3.5372-0.6448-4.8124l-8-8c-1.5624-1.5628-4.0936-1.5628-5.656,0
		c-1.5628,1.5624-1.5628,4.0936,0,5.656L107.0116,32.668z"/>
</g>
</svg>
